<svg width="56" height="56" viewBox="0 0 56 56" fill="none" xmlns="http://www.w3.org/2000/svg">
<circle cx="28" cy="28" r="28" fill="#95BBE3"/>
<path d="M15.2936 28.4984L9.03588 27.0379C8.85845 26.9957 8.69143 26.9178 8.54495 26.8092C8.39846 26.7005 8.27555 26.5632 8.18365 26.4057C8.09175 26.2481 8.03277 26.0736 8.01028 25.8926C7.9878 25.7116 8.00227 25.5279 8.05283 25.3527L11.5188 13.6685C11.6022 13.3473 11.8025 13.0689 12.0805 12.8877L21.2256 8.18593C21.447 8.05742 21.6999 7.99323 21.9559 8.00057H34.0389C34.2982 8.00212 34.5517 8.07817 34.7691 8.21965L43.9199 12.9214C44.1964 13.1041 44.3962 13.382 44.4816 13.7022L47.9475 25.3864C47.998 25.562 48.0123 25.7461 47.9894 25.9274C47.9666 26.1087 47.9071 26.2834 47.8147 26.4411C47.7222 26.5987 47.5987 26.7358 47.4515 26.8442C47.3044 26.9526 47.1368 27.03 46.9589 27.0716L40.673 28.5321" stroke="white" stroke-width="1.25" stroke-miterlimit="10"/>
<path d="M15.2935 24.2909V41.1824C15.2916 42.3308 15.7294 43.4364 16.5171 44.2721C17.3047 45.1078 18.3825 45.6103 19.529 45.6763C22.2331 46.1718 24.9757 46.4274 27.7247 46.4403H28.2359C30.9862 46.4142 33.7287 46.1454 36.4317 45.637C37.5772 45.5696 38.6535 45.0665 39.44 44.2309C40.2265 43.3954 40.6636 42.2906 40.6616 41.1431V24.2909" stroke="white" stroke-width="1.25" stroke-miterlimit="10" stroke-linecap="round"/>
<path d="M33.2244 8.00059C33.2474 8.70366 33.1288 9.40419 32.8756 10.0605C32.6224 10.7168 32.2399 11.3155 31.7507 11.821C31.2615 12.3265 30.6756 12.7284 30.0279 13.0029C29.3802 13.2774 28.684 13.4189 27.9805 13.4189C27.2771 13.4189 26.5808 13.2774 25.9331 13.0029C25.2855 12.7284 24.6996 12.3265 24.2104 11.821C23.7212 11.3155 23.3386 10.7168 23.0855 10.0605C22.8323 9.40419 22.7137 8.70366 22.7367 8.00059" stroke="white" stroke-width="1.25" stroke-miterlimit="10"/>
</svg>
