<svg width="502" height="502" viewBox="0 0 502 502" fill="none" xmlns="http://www.w3.org/2000/svg">
<g filter="url(#filter0_d_549_241)">
<rect x="34" y="25" width="434" height="434" rx="20" fill="#DFEBF7"/>
</g>
<path d="M119.83 295.443H114.511C114.307 294.307 113.926 293.307 113.369 292.443C112.813 291.58 112.131 290.847 111.324 290.244C110.517 289.642 109.614 289.187 108.614 288.881C107.625 288.574 106.574 288.42 105.46 288.42C103.449 288.42 101.648 288.926 100.057 289.938C98.4773 290.949 97.2273 292.432 96.3068 294.386C95.3977 296.341 94.9432 298.727 94.9432 301.545C94.9432 304.386 95.3977 306.784 96.3068 308.739C97.2273 310.693 98.483 312.17 100.074 313.17C101.665 314.17 103.455 314.67 105.443 314.67C106.545 314.67 107.591 314.523 108.58 314.227C109.58 313.92 110.483 313.472 111.29 312.881C112.097 312.29 112.778 311.568 113.335 310.716C113.903 309.852 114.295 308.864 114.511 307.75L119.83 307.767C119.545 309.483 118.994 311.062 118.176 312.506C117.369 313.938 116.33 315.176 115.057 316.222C113.795 317.256 112.352 318.057 110.727 318.625C109.102 319.193 107.33 319.477 105.409 319.477C102.386 319.477 99.6932 318.761 97.3295 317.33C94.9659 315.886 93.1023 313.824 91.7386 311.142C90.3864 308.46 89.7102 305.261 89.7102 301.545C89.7102 297.818 90.392 294.619 91.7557 291.949C93.1193 289.267 94.983 287.21 97.3466 285.778C99.7102 284.335 102.398 283.614 105.409 283.614C107.261 283.614 108.989 283.881 110.591 284.415C112.205 284.937 113.653 285.71 114.938 286.733C116.222 287.744 117.284 288.983 118.125 290.449C118.966 291.903 119.534 293.568 119.83 295.443ZM125.723 319V292.818H130.649V296.977H130.922C131.399 295.568 132.24 294.46 133.445 293.653C134.661 292.835 136.036 292.426 137.57 292.426C137.888 292.426 138.263 292.437 138.695 292.46C139.138 292.483 139.484 292.511 139.734 292.545V297.42C139.53 297.364 139.166 297.301 138.643 297.233C138.121 297.153 137.598 297.114 137.075 297.114C135.871 297.114 134.797 297.369 133.854 297.881C132.922 298.381 132.183 299.08 131.638 299.977C131.092 300.864 130.82 301.875 130.82 303.011V319H125.723ZM154.491 319.528C151.912 319.528 149.69 318.977 147.827 317.875C145.974 316.761 144.543 315.199 143.531 313.188C142.531 311.165 142.031 308.795 142.031 306.08C142.031 303.398 142.531 301.034 143.531 298.989C144.543 296.943 145.952 295.347 147.759 294.199C149.577 293.051 151.702 292.477 154.134 292.477C155.611 292.477 157.043 292.722 158.429 293.21C159.815 293.699 161.06 294.466 162.162 295.511C163.264 296.557 164.134 297.915 164.77 299.585C165.406 301.244 165.724 303.261 165.724 305.636V307.443H144.912V303.625H160.73C160.73 302.284 160.457 301.097 159.912 300.062C159.366 299.017 158.599 298.193 157.611 297.591C156.634 296.989 155.486 296.688 154.168 296.688C152.736 296.688 151.486 297.04 150.418 297.744C149.361 298.437 148.543 299.347 147.963 300.472C147.395 301.585 147.111 302.795 147.111 304.102V307.085C147.111 308.835 147.418 310.324 148.031 311.551C148.656 312.778 149.526 313.716 150.639 314.364C151.753 315 153.054 315.318 154.543 315.318C155.509 315.318 156.389 315.182 157.185 314.909C157.98 314.625 158.668 314.205 159.247 313.648C159.827 313.091 160.27 312.403 160.577 311.585L165.401 312.455C165.014 313.875 164.321 315.119 163.321 316.188C162.332 317.244 161.088 318.068 159.588 318.659C158.099 319.239 156.401 319.528 154.491 319.528ZM178.999 319.58C177.339 319.58 175.839 319.273 174.499 318.659C173.158 318.034 172.095 317.131 171.311 315.949C170.538 314.767 170.152 313.318 170.152 311.602C170.152 310.125 170.436 308.909 171.004 307.955C171.572 307 172.339 306.244 173.305 305.688C174.271 305.131 175.351 304.71 176.544 304.426C177.737 304.142 178.953 303.926 180.192 303.778C181.76 303.597 183.033 303.449 184.01 303.335C184.987 303.21 185.697 303.011 186.141 302.739C186.584 302.466 186.805 302.023 186.805 301.409V301.29C186.805 299.801 186.385 298.648 185.544 297.83C184.714 297.011 183.476 296.602 181.828 296.602C180.112 296.602 178.76 296.983 177.771 297.744C176.794 298.494 176.118 299.33 175.743 300.25L170.953 299.159C171.521 297.568 172.351 296.284 173.442 295.307C174.544 294.318 175.811 293.602 177.243 293.159C178.675 292.705 180.18 292.477 181.76 292.477C182.805 292.477 183.913 292.602 185.084 292.852C186.266 293.091 187.368 293.534 188.391 294.182C189.425 294.83 190.271 295.756 190.93 296.96C191.589 298.153 191.919 299.705 191.919 301.614V319H186.942V315.42H186.737C186.408 316.08 185.913 316.727 185.254 317.364C184.595 318 183.749 318.528 182.714 318.949C181.68 319.369 180.442 319.58 178.999 319.58ZM180.107 315.489C181.516 315.489 182.72 315.21 183.72 314.653C184.732 314.097 185.499 313.369 186.021 312.472C186.555 311.562 186.822 310.591 186.822 309.557V306.182C186.641 306.364 186.288 306.534 185.766 306.693C185.254 306.841 184.669 306.972 184.01 307.085C183.351 307.187 182.709 307.284 182.084 307.375C181.459 307.455 180.936 307.523 180.516 307.58C179.527 307.705 178.624 307.915 177.805 308.21C176.999 308.506 176.351 308.932 175.862 309.489C175.385 310.034 175.146 310.761 175.146 311.67C175.146 312.932 175.612 313.886 176.544 314.534C177.476 315.17 178.663 315.489 180.107 315.489ZM210.929 292.818V296.909H196.628V292.818H210.929ZM200.463 286.545H205.56V311.312C205.56 312.301 205.707 313.045 206.003 313.545C206.298 314.034 206.679 314.369 207.145 314.551C207.622 314.722 208.139 314.807 208.696 314.807C209.105 314.807 209.463 314.778 209.77 314.722C210.077 314.665 210.315 314.619 210.486 314.585L211.406 318.795C211.111 318.909 210.69 319.023 210.145 319.136C209.599 319.261 208.918 319.33 208.099 319.341C206.759 319.364 205.509 319.125 204.349 318.625C203.19 318.125 202.253 317.352 201.537 316.307C200.821 315.261 200.463 313.949 200.463 312.369V286.545ZM227.57 319.528C224.99 319.528 222.768 318.977 220.905 317.875C219.053 316.761 217.621 315.199 216.609 313.188C215.609 311.165 215.109 308.795 215.109 306.08C215.109 303.398 215.609 301.034 216.609 298.989C217.621 296.943 219.03 295.347 220.837 294.199C222.655 293.051 224.78 292.477 227.212 292.477C228.689 292.477 230.121 292.722 231.507 293.21C232.893 293.699 234.138 294.466 235.24 295.511C236.342 296.557 237.212 297.915 237.848 299.585C238.484 301.244 238.803 303.261 238.803 305.636V307.443H217.99V303.625H233.808C233.808 302.284 233.536 301.097 232.99 300.062C232.445 299.017 231.678 298.193 230.689 297.591C229.712 296.989 228.564 296.688 227.246 296.688C225.814 296.688 224.564 297.04 223.496 297.744C222.439 298.437 221.621 299.347 221.041 300.472C220.473 301.585 220.189 302.795 220.189 304.102V307.085C220.189 308.835 220.496 310.324 221.109 311.551C221.734 312.778 222.604 313.716 223.717 314.364C224.831 315 226.132 315.318 227.621 315.318C228.587 315.318 229.467 315.182 230.263 314.909C231.058 314.625 231.746 314.205 232.325 313.648C232.905 313.091 233.348 312.403 233.655 311.585L238.479 312.455C238.092 313.875 237.399 315.119 236.399 316.188C235.411 317.244 234.166 318.068 232.666 318.659C231.178 319.239 229.479 319.528 227.57 319.528ZM260.621 284.091L270.337 312.523H270.729L280.445 284.091H286.138L273.575 319H267.49L254.928 284.091H260.621ZM299.173 319.528C296.719 319.528 294.577 318.966 292.747 317.841C290.918 316.716 289.497 315.142 288.486 313.119C287.474 311.097 286.969 308.733 286.969 306.028C286.969 303.312 287.474 300.937 288.486 298.903C289.497 296.869 290.918 295.29 292.747 294.165C294.577 293.04 296.719 292.477 299.173 292.477C301.628 292.477 303.77 293.04 305.599 294.165C307.429 295.29 308.849 296.869 309.861 298.903C310.872 300.937 311.378 303.312 311.378 306.028C311.378 308.733 310.872 311.097 309.861 313.119C308.849 315.142 307.429 316.716 305.599 317.841C303.77 318.966 301.628 319.528 299.173 319.528ZM299.19 315.25C300.781 315.25 302.099 314.83 303.145 313.989C304.19 313.148 304.963 312.028 305.463 310.631C305.974 309.233 306.23 307.693 306.23 306.011C306.23 304.341 305.974 302.807 305.463 301.409C304.963 300 304.19 298.869 303.145 298.017C302.099 297.165 300.781 296.739 299.19 296.739C297.588 296.739 296.259 297.165 295.202 298.017C294.156 298.869 293.378 300 292.866 301.409C292.366 302.807 292.116 304.341 292.116 306.011C292.116 307.693 292.366 309.233 292.866 310.631C293.378 312.028 294.156 313.148 295.202 313.989C296.259 314.83 297.588 315.25 299.19 315.25ZM333.652 308.142V292.818H338.766V319H333.754V314.466H333.482C332.879 315.864 331.913 317.028 330.584 317.96C329.266 318.881 327.624 319.341 325.658 319.341C323.976 319.341 322.487 318.972 321.192 318.233C319.908 317.483 318.896 316.375 318.158 314.909C317.43 313.443 317.067 311.631 317.067 309.472V292.818H322.163V308.858C322.163 310.642 322.658 312.062 323.646 313.119C324.635 314.176 325.919 314.705 327.499 314.705C328.453 314.705 329.402 314.466 330.345 313.989C331.3 313.511 332.089 312.79 332.714 311.824C333.351 310.858 333.663 309.631 333.652 308.142ZM356.642 319.528C354.108 319.528 351.926 318.955 350.097 317.807C348.278 316.648 346.881 315.051 345.903 313.017C344.926 310.983 344.438 308.653 344.438 306.028C344.438 303.369 344.938 301.023 345.938 298.989C346.938 296.943 348.347 295.347 350.165 294.199C351.983 293.051 354.125 292.477 356.591 292.477C358.58 292.477 360.352 292.847 361.909 293.585C363.466 294.312 364.722 295.335 365.676 296.653C366.642 297.972 367.216 299.511 367.398 301.273H362.438C362.165 300.045 361.54 298.989 360.562 298.102C359.597 297.216 358.301 296.773 356.676 296.773C355.256 296.773 354.011 297.148 352.943 297.898C351.886 298.636 351.063 299.693 350.472 301.068C349.881 302.432 349.585 304.045 349.585 305.909C349.585 307.818 349.875 309.466 350.455 310.852C351.034 312.239 351.852 313.312 352.909 314.074C353.977 314.835 355.233 315.216 356.676 315.216C357.642 315.216 358.517 315.04 359.301 314.688C360.097 314.324 360.761 313.807 361.295 313.136C361.841 312.466 362.222 311.659 362.438 310.716H367.398C367.216 312.409 366.665 313.92 365.744 315.25C364.824 316.58 363.591 317.625 362.045 318.386C360.511 319.148 358.71 319.528 356.642 319.528ZM377.945 303.455V319H372.848V284.091H377.876V297.08H378.2C378.814 295.67 379.751 294.551 381.013 293.722C382.274 292.892 383.922 292.477 385.956 292.477C387.751 292.477 389.32 292.847 390.661 293.585C392.013 294.324 393.058 295.426 393.797 296.892C394.547 298.347 394.922 300.165 394.922 302.347V319H389.825V302.96C389.825 301.04 389.331 299.551 388.342 298.494C387.354 297.426 385.979 296.892 384.217 296.892C383.013 296.892 381.933 297.148 380.979 297.659C380.036 298.17 379.291 298.92 378.746 299.909C378.212 300.886 377.945 302.068 377.945 303.455ZM413.007 319.528C410.428 319.528 408.206 318.977 406.342 317.875C404.49 316.761 403.058 315.199 402.047 313.188C401.047 311.165 400.547 308.795 400.547 306.08C400.547 303.398 401.047 301.034 402.047 298.989C403.058 296.943 404.467 295.347 406.274 294.199C408.092 293.051 410.217 292.477 412.649 292.477C414.126 292.477 415.558 292.722 416.945 293.21C418.331 293.699 419.575 294.466 420.678 295.511C421.78 296.557 422.649 297.915 423.286 299.585C423.922 301.244 424.24 303.261 424.24 305.636V307.443H403.428V303.625H419.246C419.246 302.284 418.973 301.097 418.428 300.062C417.882 299.017 417.115 298.193 416.126 297.591C415.149 296.989 414.001 296.688 412.683 296.688C411.251 296.688 410.001 297.04 408.933 297.744C407.876 298.437 407.058 299.347 406.479 300.472C405.911 301.585 405.626 302.795 405.626 304.102V307.085C405.626 308.835 405.933 310.324 406.547 311.551C407.172 312.778 408.041 313.716 409.155 314.364C410.268 315 411.57 315.318 413.058 315.318C414.024 315.318 414.905 315.182 415.7 314.909C416.496 314.625 417.183 314.205 417.763 313.648C418.342 313.091 418.786 312.403 419.092 311.585L423.916 312.455C423.53 313.875 422.837 315.119 421.837 316.188C420.848 317.244 419.604 318.068 418.104 318.659C416.615 319.239 414.916 319.528 413.007 319.528ZM429.895 319V292.818H434.821V296.977H435.094C435.571 295.568 436.412 294.46 437.616 293.653C438.832 292.835 440.207 292.426 441.741 292.426C442.06 292.426 442.435 292.437 442.866 292.46C443.31 292.483 443.656 292.511 443.906 292.545V297.42C443.702 297.364 443.338 297.301 442.815 297.233C442.293 297.153 441.77 297.114 441.247 297.114C440.043 297.114 438.969 297.369 438.026 297.881C437.094 298.381 436.355 299.08 435.81 299.977C435.264 300.864 434.991 301.875 434.991 303.011V319H429.895Z" fill="#1F2227"/>
<path d="M96.392 370H93.5966L99.8778 352.545H102.92L109.202 370H106.406L101.472 355.716H101.335L96.392 370ZM96.8608 363.165H105.929V365.381H96.8608V363.165ZM116.207 370.256C115.151 370.256 114.207 369.986 113.378 369.446C112.554 368.901 111.906 368.125 111.435 367.119C110.969 366.108 110.736 364.895 110.736 363.48C110.736 362.065 110.972 360.855 111.443 359.849C111.92 358.844 112.574 358.074 113.403 357.54C114.233 357.006 115.173 356.739 116.224 356.739C117.037 356.739 117.69 356.875 118.185 357.148C118.685 357.415 119.071 357.727 119.344 358.085C119.622 358.443 119.838 358.759 119.991 359.031H120.145V352.545H122.693V370H120.205V367.963H119.991C119.838 368.241 119.616 368.56 119.327 368.918C119.043 369.276 118.651 369.588 118.151 369.855C117.651 370.122 117.003 370.256 116.207 370.256ZM116.77 368.082C117.503 368.082 118.122 367.889 118.628 367.503C119.139 367.111 119.526 366.568 119.787 365.875C120.054 365.182 120.188 364.375 120.188 363.455C120.188 362.545 120.057 361.75 119.795 361.068C119.534 360.386 119.151 359.855 118.645 359.474C118.139 359.094 117.514 358.903 116.77 358.903C116.003 358.903 115.364 359.102 114.852 359.5C114.341 359.898 113.955 360.44 113.693 361.128C113.438 361.815 113.31 362.591 113.31 363.455C113.31 364.33 113.44 365.116 113.702 365.815C113.963 366.514 114.349 367.068 114.861 367.477C115.378 367.881 116.014 368.082 116.77 368.082ZM131.231 370.256C130.174 370.256 129.231 369.986 128.401 369.446C127.577 368.901 126.93 368.125 126.458 367.119C125.992 366.108 125.759 364.895 125.759 363.48C125.759 362.065 125.995 360.855 126.467 359.849C126.944 358.844 127.597 358.074 128.427 357.54C129.256 357.006 130.197 356.739 131.248 356.739C132.06 356.739 132.714 356.875 133.208 357.148C133.708 357.415 134.094 357.727 134.367 358.085C134.646 358.443 134.862 358.759 135.015 359.031H135.168V352.545H137.717V370H135.228V367.963H135.015C134.862 368.241 134.64 368.56 134.35 368.918C134.066 369.276 133.674 369.588 133.174 369.855C132.674 370.122 132.026 370.256 131.231 370.256ZM131.793 368.082C132.526 368.082 133.146 367.889 133.651 367.503C134.163 367.111 134.549 366.568 134.81 365.875C135.077 365.182 135.211 364.375 135.211 363.455C135.211 362.545 135.08 361.75 134.819 361.068C134.558 360.386 134.174 359.855 133.668 359.474C133.163 359.094 132.538 358.903 131.793 358.903C131.026 358.903 130.387 359.102 129.876 359.5C129.364 359.898 128.978 360.44 128.717 361.128C128.461 361.815 128.333 362.591 128.333 363.455C128.333 364.33 128.464 365.116 128.725 365.815C128.987 366.514 129.373 367.068 129.884 367.477C130.401 367.881 131.038 368.082 131.793 368.082ZM151.515 370.29C150.685 370.29 149.935 370.136 149.265 369.83C148.594 369.517 148.063 369.065 147.671 368.474C147.285 367.884 147.092 367.159 147.092 366.301C147.092 365.562 147.234 364.955 147.518 364.477C147.802 364 148.185 363.622 148.668 363.344C149.151 363.065 149.691 362.855 150.288 362.713C150.884 362.571 151.492 362.463 152.112 362.389C152.896 362.298 153.532 362.224 154.021 362.168C154.509 362.105 154.864 362.006 155.086 361.869C155.308 361.733 155.418 361.511 155.418 361.205V361.145C155.418 360.401 155.208 359.824 154.788 359.415C154.373 359.006 153.754 358.801 152.93 358.801C152.072 358.801 151.396 358.991 150.901 359.372C150.413 359.747 150.075 360.165 149.887 360.625L147.492 360.08C147.776 359.284 148.191 358.642 148.737 358.153C149.288 357.659 149.921 357.301 150.637 357.08C151.353 356.852 152.106 356.739 152.896 356.739C153.418 356.739 153.972 356.801 154.558 356.926C155.148 357.045 155.7 357.267 156.211 357.591C156.728 357.915 157.151 358.378 157.481 358.98C157.81 359.577 157.975 360.352 157.975 361.307V370H155.487V368.21H155.384C155.219 368.54 154.972 368.864 154.643 369.182C154.313 369.5 153.89 369.764 153.373 369.974C152.856 370.185 152.237 370.29 151.515 370.29ZM152.069 368.244C152.773 368.244 153.376 368.105 153.876 367.827C154.381 367.548 154.765 367.185 155.026 366.736C155.293 366.281 155.427 365.795 155.427 365.278V363.591C155.336 363.682 155.16 363.767 154.898 363.847C154.643 363.92 154.35 363.986 154.021 364.043C153.691 364.094 153.37 364.142 153.058 364.188C152.745 364.227 152.484 364.261 152.273 364.29C151.779 364.352 151.327 364.457 150.918 364.605C150.515 364.753 150.191 364.966 149.947 365.244C149.708 365.517 149.589 365.881 149.589 366.335C149.589 366.966 149.822 367.443 150.288 367.767C150.754 368.085 151.347 368.244 152.069 368.244ZM170.269 362.227V370H167.721V356.909H170.167V359.04H170.329C170.63 358.347 171.102 357.79 171.744 357.369C172.391 356.949 173.207 356.739 174.19 356.739C175.082 356.739 175.863 356.926 176.533 357.301C177.204 357.67 177.724 358.222 178.093 358.955C178.462 359.687 178.647 360.594 178.647 361.673V370H176.099V361.98C176.099 361.031 175.852 360.29 175.357 359.756C174.863 359.216 174.184 358.946 173.32 358.946C172.729 358.946 172.204 359.074 171.744 359.33C171.289 359.585 170.928 359.96 170.661 360.455C170.4 360.943 170.269 361.534 170.269 362.227ZM187.707 370.264C186.417 370.264 185.306 369.989 184.374 369.438C183.448 368.881 182.732 368.099 182.227 367.094C181.727 366.082 181.477 364.898 181.477 363.54C181.477 362.199 181.727 361.017 182.227 359.994C182.732 358.972 183.437 358.173 184.34 357.599C185.249 357.026 186.312 356.739 187.528 356.739C188.266 356.739 188.982 356.861 189.675 357.105C190.369 357.349 190.991 357.733 191.542 358.256C192.093 358.778 192.528 359.457 192.846 360.293C193.164 361.122 193.323 362.131 193.323 363.318V364.222H182.917V362.312H190.826C190.826 361.642 190.69 361.048 190.417 360.531C190.144 360.009 189.761 359.597 189.266 359.295C188.778 358.994 188.204 358.844 187.545 358.844C186.829 358.844 186.204 359.02 185.67 359.372C185.141 359.719 184.732 360.173 184.442 360.736C184.158 361.293 184.016 361.898 184.016 362.551V364.043C184.016 364.918 184.17 365.662 184.477 366.276C184.789 366.889 185.224 367.358 185.781 367.682C186.337 368 186.988 368.159 187.732 368.159C188.215 368.159 188.656 368.091 189.053 367.955C189.451 367.812 189.795 367.602 190.085 367.324C190.374 367.045 190.596 366.702 190.749 366.293L193.161 366.727C192.968 367.437 192.621 368.06 192.121 368.594C191.627 369.122 191.005 369.534 190.255 369.83C189.511 370.119 188.661 370.264 187.707 370.264ZM198.965 370L195.113 356.909H197.746L200.312 366.523H200.44L203.013 356.909H205.647L208.204 366.48H208.332L210.88 356.909H213.513L209.67 370H207.07L204.411 360.548H204.215L201.556 370H198.965ZM233.482 356.909L228.735 370H226.008L221.252 356.909H223.988L227.303 366.983H227.44L230.746 356.909H233.482ZM240.946 370.264C239.719 370.264 238.648 369.983 237.733 369.42C236.818 368.858 236.108 368.071 235.602 367.06C235.097 366.048 234.844 364.866 234.844 363.514C234.844 362.156 235.097 360.969 235.602 359.952C236.108 358.935 236.818 358.145 237.733 357.582C238.648 357.02 239.719 356.739 240.946 356.739C242.173 356.739 243.244 357.02 244.159 357.582C245.074 358.145 245.784 358.935 246.29 359.952C246.795 360.969 247.048 362.156 247.048 363.514C247.048 364.866 246.795 366.048 246.29 367.06C245.784 368.071 245.074 368.858 244.159 369.42C243.244 369.983 242.173 370.264 240.946 370.264ZM240.955 368.125C241.75 368.125 242.409 367.915 242.932 367.494C243.455 367.074 243.841 366.514 244.091 365.815C244.347 365.116 244.474 364.347 244.474 363.506C244.474 362.67 244.347 361.903 244.091 361.205C243.841 360.5 243.455 359.935 242.932 359.509C242.409 359.082 241.75 358.869 240.955 358.869C240.153 358.869 239.489 359.082 238.96 359.509C238.438 359.935 238.048 360.5 237.793 361.205C237.543 361.903 237.418 362.67 237.418 363.506C237.418 364.347 237.543 365.116 237.793 365.815C238.048 366.514 238.438 367.074 238.96 367.494C239.489 367.915 240.153 368.125 240.955 368.125ZM258.185 364.571V356.909H260.742V370H258.237V367.733H258.1C257.799 368.432 257.316 369.014 256.651 369.48C255.992 369.94 255.171 370.17 254.188 370.17C253.347 370.17 252.603 369.986 251.955 369.616C251.313 369.241 250.808 368.688 250.438 367.955C250.075 367.222 249.893 366.315 249.893 365.236V356.909H252.441V364.929C252.441 365.821 252.688 366.531 253.183 367.06C253.677 367.588 254.319 367.852 255.109 367.852C255.586 367.852 256.06 367.733 256.532 367.494C257.009 367.256 257.404 366.895 257.717 366.412C258.035 365.929 258.191 365.315 258.185 364.571ZM269.68 370.264C268.413 370.264 267.322 369.977 266.408 369.403C265.499 368.824 264.8 368.026 264.311 367.009C263.822 365.991 263.578 364.827 263.578 363.514C263.578 362.185 263.828 361.011 264.328 359.994C264.828 358.972 265.533 358.173 266.442 357.599C267.351 357.026 268.422 356.739 269.655 356.739C270.649 356.739 271.536 356.923 272.314 357.293C273.092 357.656 273.72 358.168 274.197 358.827C274.68 359.486 274.967 360.256 275.058 361.136H272.578C272.442 360.523 272.129 359.994 271.641 359.551C271.158 359.108 270.51 358.886 269.697 358.886C268.987 358.886 268.365 359.074 267.831 359.449C267.303 359.818 266.891 360.347 266.595 361.034C266.3 361.716 266.152 362.523 266.152 363.455C266.152 364.409 266.297 365.233 266.587 365.926C266.876 366.619 267.286 367.156 267.814 367.537C268.348 367.918 268.976 368.108 269.697 368.108C270.18 368.108 270.618 368.02 271.01 367.844C271.408 367.662 271.74 367.403 272.007 367.068C272.28 366.733 272.47 366.33 272.578 365.858H275.058C274.967 366.705 274.692 367.46 274.232 368.125C273.771 368.79 273.155 369.312 272.382 369.693C271.615 370.074 270.714 370.264 269.68 370.264ZM280.332 362.227V370H277.783V352.545H280.298V359.04H280.46C280.766 358.335 281.235 357.776 281.866 357.361C282.496 356.946 283.32 356.739 284.337 356.739C285.235 356.739 286.019 356.923 286.69 357.293C287.366 357.662 287.888 358.213 288.258 358.946C288.633 359.673 288.82 360.582 288.82 361.673V370H286.272V361.98C286.272 361.02 286.025 360.276 285.531 359.747C285.036 359.213 284.349 358.946 283.468 358.946C282.866 358.946 282.326 359.074 281.849 359.33C281.377 359.585 281.005 359.96 280.732 360.455C280.465 360.943 280.332 361.534 280.332 362.227ZM297.863 370.264C296.573 370.264 295.462 369.989 294.531 369.438C293.604 368.881 292.888 368.099 292.383 367.094C291.883 366.082 291.633 364.898 291.633 363.54C291.633 362.199 291.883 361.017 292.383 359.994C292.888 358.972 293.593 358.173 294.496 357.599C295.406 357.026 296.468 356.739 297.684 356.739C298.423 356.739 299.138 356.861 299.832 357.105C300.525 357.349 301.147 357.733 301.698 358.256C302.249 358.778 302.684 359.457 303.002 360.293C303.32 361.122 303.479 362.131 303.479 363.318V364.222H293.073V362.312H300.982C300.982 361.642 300.846 361.048 300.573 360.531C300.3 360.009 299.917 359.597 299.423 359.295C298.934 358.994 298.36 358.844 297.701 358.844C296.985 358.844 296.36 359.02 295.826 359.372C295.298 359.719 294.888 360.173 294.599 360.736C294.315 361.293 294.173 361.898 294.173 362.551V364.043C294.173 364.918 294.326 365.662 294.633 366.276C294.945 366.889 295.38 367.358 295.937 367.682C296.494 368 297.144 368.159 297.888 368.159C298.371 368.159 298.812 368.091 299.21 367.955C299.607 367.812 299.951 367.602 300.241 367.324C300.531 367.045 300.752 366.702 300.906 366.293L303.317 366.727C303.124 367.437 302.778 368.06 302.278 368.594C301.783 369.122 301.161 369.534 300.411 369.83C299.667 370.119 298.817 370.264 297.863 370.264ZM306.307 370V356.909H308.77V358.989H308.906C309.145 358.284 309.565 357.73 310.168 357.327C310.776 356.918 311.463 356.713 312.23 356.713C312.389 356.713 312.577 356.719 312.793 356.73C313.014 356.741 313.188 356.756 313.312 356.773V359.21C313.21 359.182 313.028 359.151 312.767 359.116C312.506 359.077 312.244 359.057 311.983 359.057C311.381 359.057 310.844 359.185 310.372 359.44C309.906 359.69 309.537 360.04 309.264 360.489C308.991 360.932 308.855 361.437 308.855 362.006V370H306.307ZM327.98 356.909V358.955H320.83V356.909H327.98ZM322.747 353.773H325.295V366.156C325.295 366.651 325.369 367.023 325.517 367.273C325.665 367.517 325.855 367.685 326.088 367.776C326.327 367.861 326.585 367.903 326.864 367.903C327.068 367.903 327.247 367.889 327.401 367.861C327.554 367.832 327.673 367.81 327.759 367.793L328.219 369.898C328.071 369.955 327.861 370.011 327.588 370.068C327.315 370.131 326.974 370.165 326.565 370.17C325.895 370.182 325.27 370.062 324.69 369.812C324.111 369.562 323.642 369.176 323.284 368.653C322.926 368.131 322.747 367.474 322.747 366.685V353.773ZM336.173 370.264C334.945 370.264 333.874 369.983 332.96 369.42C332.045 368.858 331.335 368.071 330.829 367.06C330.323 366.048 330.07 364.866 330.07 363.514C330.07 362.156 330.323 360.969 330.829 359.952C331.335 358.935 332.045 358.145 332.96 357.582C333.874 357.02 334.945 356.739 336.173 356.739C337.4 356.739 338.471 357.02 339.386 357.582C340.3 358.145 341.011 358.935 341.516 359.952C342.022 360.969 342.275 362.156 342.275 363.514C342.275 364.866 342.022 366.048 341.516 367.06C341.011 368.071 340.3 368.858 339.386 369.42C338.471 369.983 337.4 370.264 336.173 370.264ZM336.181 368.125C336.977 368.125 337.636 367.915 338.158 367.494C338.681 367.074 339.067 366.514 339.317 365.815C339.573 365.116 339.701 364.347 339.701 363.506C339.701 362.67 339.573 361.903 339.317 361.205C339.067 360.5 338.681 359.935 338.158 359.509C337.636 359.082 336.977 358.869 336.181 358.869C335.38 358.869 334.715 359.082 334.187 359.509C333.664 359.935 333.275 360.5 333.019 361.205C332.769 361.903 332.644 362.67 332.644 363.506C332.644 364.347 332.769 365.116 333.019 365.815C333.275 366.514 333.664 367.074 334.187 367.494C334.715 367.915 335.38 368.125 336.181 368.125ZM356.96 375.182C355.92 375.182 355.025 375.045 354.275 374.773C353.531 374.5 352.923 374.139 352.451 373.69C351.979 373.241 351.627 372.75 351.394 372.216L353.585 371.312C353.738 371.562 353.942 371.827 354.198 372.105C354.46 372.389 354.812 372.631 355.255 372.83C355.704 373.028 356.281 373.128 356.985 373.128C357.951 373.128 358.749 372.892 359.38 372.42C360.011 371.955 360.326 371.21 360.326 370.188V367.614H360.164C360.011 367.892 359.789 368.202 359.499 368.543C359.215 368.884 358.823 369.179 358.323 369.429C357.823 369.679 357.173 369.804 356.371 369.804C355.337 369.804 354.406 369.562 353.576 369.08C352.752 368.591 352.099 367.872 351.616 366.923C351.138 365.969 350.9 364.795 350.9 363.403C350.9 362.011 351.136 360.818 351.607 359.824C352.085 358.83 352.738 358.068 353.567 357.54C354.397 357.006 355.337 356.739 356.388 356.739C357.201 356.739 357.857 356.875 358.357 357.148C358.857 357.415 359.246 357.727 359.525 358.085C359.809 358.443 360.028 358.759 360.181 359.031H360.369V356.909H362.866V370.29C362.866 371.415 362.604 372.338 362.082 373.06C361.559 373.781 360.852 374.315 359.96 374.662C359.073 375.009 358.073 375.182 356.96 375.182ZM356.934 367.69C357.667 367.69 358.286 367.52 358.792 367.179C359.303 366.832 359.69 366.338 359.951 365.696C360.218 365.048 360.352 364.273 360.352 363.369C360.352 362.489 360.221 361.713 359.96 361.043C359.698 360.372 359.315 359.849 358.809 359.474C358.303 359.094 357.678 358.903 356.934 358.903C356.167 358.903 355.528 359.102 355.016 359.5C354.505 359.892 354.119 360.426 353.857 361.102C353.602 361.778 353.474 362.534 353.474 363.369C353.474 364.227 353.604 364.98 353.866 365.628C354.127 366.276 354.513 366.781 355.025 367.145C355.542 367.509 356.178 367.69 356.934 367.69ZM371.925 370.264C370.636 370.264 369.525 369.989 368.593 369.438C367.667 368.881 366.951 368.099 366.445 367.094C365.945 366.082 365.695 364.898 365.695 363.54C365.695 362.199 365.945 361.017 366.445 359.994C366.951 358.972 367.656 358.173 368.559 357.599C369.468 357.026 370.531 356.739 371.746 356.739C372.485 356.739 373.201 356.861 373.894 357.105C374.587 357.349 375.21 357.733 375.761 358.256C376.312 358.778 376.746 359.457 377.065 360.293C377.383 361.122 377.542 362.131 377.542 363.318V364.222H367.136V362.312H375.045C375.045 361.642 374.908 361.048 374.636 360.531C374.363 360.009 373.979 359.597 373.485 359.295C372.996 358.994 372.423 358.844 371.763 358.844C371.048 358.844 370.423 359.02 369.888 359.372C369.36 359.719 368.951 360.173 368.661 360.736C368.377 361.293 368.235 361.898 368.235 362.551V364.043C368.235 364.918 368.388 365.662 368.695 366.276C369.008 366.889 369.442 367.358 369.999 367.682C370.556 368 371.207 368.159 371.951 368.159C372.434 368.159 372.874 368.091 373.272 367.955C373.67 367.812 374.013 367.602 374.303 367.324C374.593 367.045 374.815 366.702 374.968 366.293L377.38 366.727C377.187 367.437 376.84 368.06 376.34 368.594C375.846 369.122 375.224 369.534 374.474 369.83C373.729 370.119 372.88 370.264 371.925 370.264ZM386.48 356.909V358.955H379.33V356.909H386.48ZM381.247 353.773H383.795V366.156C383.795 366.651 383.869 367.023 384.017 367.273C384.165 367.517 384.355 367.685 384.588 367.776C384.827 367.861 385.085 367.903 385.364 367.903C385.568 367.903 385.747 367.889 385.901 367.861C386.054 367.832 386.173 367.81 386.259 367.793L386.719 369.898C386.571 369.955 386.361 370.011 386.088 370.068C385.815 370.131 385.474 370.165 385.065 370.17C384.395 370.182 383.77 370.062 383.19 369.812C382.611 369.562 382.142 369.176 381.784 368.653C381.426 368.131 381.247 367.474 381.247 366.685V353.773ZM104.523 395.105L102.213 395.514C102.116 395.219 101.963 394.937 101.753 394.67C101.548 394.403 101.27 394.185 100.918 394.014C100.565 393.844 100.125 393.759 99.5966 393.759C98.875 393.759 98.2727 393.92 97.7898 394.244C97.3068 394.562 97.0653 394.974 97.0653 395.48C97.0653 395.918 97.2273 396.27 97.5511 396.537C97.875 396.804 98.3977 397.023 99.1193 397.193L101.199 397.67C102.403 397.949 103.301 398.378 103.892 398.957C104.483 399.537 104.778 400.29 104.778 401.216C104.778 402 104.551 402.699 104.097 403.312C103.648 403.92 103.02 404.398 102.213 404.744C101.412 405.091 100.483 405.264 99.4261 405.264C97.9602 405.264 96.7642 404.952 95.8381 404.327C94.9119 403.696 94.3438 402.801 94.1335 401.642L96.5966 401.267C96.75 401.909 97.0653 402.395 97.5426 402.724C98.0199 403.048 98.642 403.21 99.4091 403.21C100.244 403.21 100.912 403.037 101.412 402.69C101.912 402.338 102.162 401.909 102.162 401.403C102.162 400.994 102.009 400.651 101.702 400.372C101.401 400.094 100.938 399.884 100.312 399.741L98.0966 399.256C96.875 398.977 95.9716 398.534 95.3864 397.926C94.8068 397.318 94.517 396.548 94.517 395.616C94.517 394.844 94.733 394.168 95.1648 393.588C95.5966 393.009 96.1932 392.557 96.9545 392.233C97.7159 391.903 98.5881 391.739 99.571 391.739C100.986 391.739 102.099 392.045 102.912 392.659C103.724 393.267 104.261 394.082 104.523 395.105ZM107.58 409.909V391.909H110.069V394.031H110.282C110.43 393.759 110.643 393.443 110.921 393.085C111.2 392.727 111.586 392.415 112.08 392.148C112.575 391.875 113.228 391.739 114.04 391.739C115.097 391.739 116.04 392.006 116.87 392.54C117.7 393.074 118.35 393.844 118.822 394.849C119.299 395.855 119.538 397.065 119.538 398.48C119.538 399.895 119.302 401.108 118.83 402.119C118.359 403.125 117.711 403.901 116.887 404.446C116.063 404.986 115.123 405.256 114.066 405.256C113.271 405.256 112.62 405.122 112.114 404.855C111.614 404.588 111.222 404.276 110.938 403.918C110.654 403.56 110.435 403.241 110.282 402.963H110.129V409.909H107.58ZM110.077 398.455C110.077 399.375 110.211 400.182 110.478 400.875C110.745 401.568 111.131 402.111 111.637 402.503C112.143 402.889 112.762 403.082 113.495 403.082C114.256 403.082 114.893 402.881 115.404 402.477C115.915 402.068 116.302 401.514 116.563 400.815C116.83 400.116 116.964 399.33 116.964 398.455C116.964 397.591 116.833 396.815 116.572 396.128C116.316 395.44 115.93 394.898 115.413 394.5C114.901 394.102 114.262 393.903 113.495 393.903C112.756 393.903 112.131 394.094 111.62 394.474C111.114 394.855 110.731 395.386 110.469 396.068C110.208 396.75 110.077 397.545 110.077 398.455ZM128.035 405.264C126.745 405.264 125.634 404.989 124.702 404.438C123.776 403.881 123.06 403.099 122.555 402.094C122.055 401.082 121.805 399.898 121.805 398.54C121.805 397.199 122.055 396.017 122.555 394.994C123.06 393.972 123.765 393.173 124.668 392.599C125.577 392.026 126.64 391.739 127.856 391.739C128.594 391.739 129.31 391.861 130.004 392.105C130.697 392.349 131.319 392.733 131.87 393.256C132.421 393.778 132.856 394.457 133.174 395.293C133.492 396.122 133.651 397.131 133.651 398.318V399.222H123.245V397.312H131.154C131.154 396.642 131.018 396.048 130.745 395.531C130.472 395.009 130.089 394.597 129.594 394.295C129.106 393.994 128.532 393.844 127.873 393.844C127.157 393.844 126.532 394.02 125.998 394.372C125.469 394.719 125.06 395.173 124.771 395.736C124.487 396.293 124.344 396.898 124.344 397.551V399.043C124.344 399.918 124.498 400.662 124.805 401.276C125.117 401.889 125.552 402.358 126.109 402.682C126.665 403 127.316 403.159 128.06 403.159C128.543 403.159 128.984 403.091 129.381 402.955C129.779 402.812 130.123 402.602 130.413 402.324C130.702 402.045 130.924 401.702 131.077 401.293L133.489 401.727C133.296 402.437 132.95 403.06 132.45 403.594C131.955 404.122 131.333 404.534 130.583 404.83C129.839 405.119 128.989 405.264 128.035 405.264ZM141.993 405.264C140.726 405.264 139.635 404.977 138.72 404.403C137.811 403.824 137.112 403.026 136.624 402.009C136.135 400.991 135.891 399.827 135.891 398.514C135.891 397.185 136.141 396.011 136.641 394.994C137.141 393.972 137.845 393.173 138.754 392.599C139.663 392.026 140.734 391.739 141.967 391.739C142.962 391.739 143.848 391.923 144.626 392.293C145.405 392.656 146.033 393.168 146.51 393.827C146.993 394.486 147.28 395.256 147.371 396.136H144.891C144.754 395.523 144.442 394.994 143.953 394.551C143.47 394.108 142.822 393.886 142.01 393.886C141.3 393.886 140.678 394.074 140.143 394.449C139.615 394.818 139.203 395.347 138.908 396.034C138.612 396.716 138.464 397.523 138.464 398.455C138.464 399.409 138.609 400.233 138.899 400.926C139.189 401.619 139.598 402.156 140.126 402.537C140.661 402.918 141.288 403.108 142.01 403.108C142.493 403.108 142.93 403.02 143.322 402.844C143.72 402.662 144.053 402.403 144.32 402.068C144.592 401.733 144.783 401.33 144.891 400.858H147.371C147.28 401.705 147.004 402.46 146.544 403.125C146.084 403.79 145.467 404.312 144.695 404.693C143.928 405.074 143.027 405.264 141.993 405.264ZM150.096 405V391.909H152.644V405H150.096ZM151.383 389.889C150.94 389.889 150.559 389.741 150.241 389.446C149.928 389.145 149.772 388.787 149.772 388.372C149.772 387.952 149.928 387.594 150.241 387.298C150.559 386.997 150.94 386.847 151.383 386.847C151.826 386.847 152.204 386.997 152.516 387.298C152.835 387.594 152.994 387.952 152.994 388.372C152.994 388.787 152.835 389.145 152.516 389.446C152.204 389.741 151.826 389.889 151.383 389.889ZM159.882 405.29C159.053 405.29 158.303 405.136 157.632 404.83C156.962 404.517 156.43 404.065 156.038 403.474C155.652 402.884 155.459 402.159 155.459 401.301C155.459 400.562 155.601 399.955 155.885 399.477C156.169 399 156.553 398.622 157.036 398.344C157.518 398.065 158.058 397.855 158.655 397.713C159.251 397.571 159.859 397.463 160.479 397.389C161.263 397.298 161.899 397.224 162.388 397.168C162.876 397.105 163.232 397.006 163.453 396.869C163.675 396.733 163.786 396.511 163.786 396.205V396.145C163.786 395.401 163.575 394.824 163.155 394.415C162.74 394.006 162.121 393.801 161.297 393.801C160.439 393.801 159.763 393.991 159.268 394.372C158.78 394.747 158.442 395.165 158.254 395.625L155.859 395.08C156.143 394.284 156.558 393.642 157.104 393.153C157.655 392.659 158.288 392.301 159.004 392.08C159.72 391.852 160.473 391.739 161.263 391.739C161.786 391.739 162.339 391.801 162.925 391.926C163.516 392.045 164.067 392.267 164.578 392.591C165.095 392.915 165.518 393.378 165.848 393.98C166.178 394.577 166.342 395.352 166.342 396.307V405H163.854V403.21H163.751C163.587 403.54 163.339 403.864 163.01 404.182C162.68 404.5 162.257 404.764 161.74 404.974C161.223 405.185 160.604 405.29 159.882 405.29ZM160.436 403.244C161.141 403.244 161.743 403.105 162.243 402.827C162.749 402.548 163.132 402.185 163.393 401.736C163.661 401.281 163.794 400.795 163.794 400.278V398.591C163.703 398.682 163.527 398.767 163.266 398.847C163.01 398.92 162.717 398.986 162.388 399.043C162.058 399.094 161.737 399.142 161.425 399.188C161.112 399.227 160.851 399.261 160.641 399.29C160.146 399.352 159.695 399.457 159.286 399.605C158.882 399.753 158.558 399.966 158.314 400.244C158.075 400.517 157.956 400.881 157.956 401.335C157.956 401.966 158.189 402.443 158.655 402.767C159.121 403.085 159.714 403.244 160.436 403.244ZM172.285 387.545V405H169.737V387.545H172.285ZM182.065 409.909V391.909H184.553V394.031H184.766C184.914 393.759 185.127 393.443 185.406 393.085C185.684 392.727 186.07 392.415 186.565 392.148C187.059 391.875 187.712 391.739 188.525 391.739C189.582 391.739 190.525 392.006 191.354 392.54C192.184 393.074 192.835 393.844 193.306 394.849C193.783 395.855 194.022 397.065 194.022 398.48C194.022 399.895 193.786 401.108 193.315 402.119C192.843 403.125 192.195 403.901 191.371 404.446C190.548 404.986 189.607 405.256 188.55 405.256C187.755 405.256 187.104 405.122 186.599 404.855C186.099 404.588 185.707 404.276 185.423 403.918C185.138 403.56 184.92 403.241 184.766 402.963H184.613V409.909H182.065ZM184.562 398.455C184.562 399.375 184.695 400.182 184.962 400.875C185.229 401.568 185.616 402.111 186.121 402.503C186.627 402.889 187.246 403.082 187.979 403.082C188.741 403.082 189.377 402.881 189.888 402.477C190.4 402.068 190.786 401.514 191.048 400.815C191.315 400.116 191.448 399.33 191.448 398.455C191.448 397.591 191.317 396.815 191.056 396.128C190.8 395.44 190.414 394.898 189.897 394.5C189.386 394.102 188.746 393.903 187.979 393.903C187.241 393.903 186.616 394.094 186.104 394.474C185.599 394.855 185.215 395.386 184.954 396.068C184.692 396.75 184.562 397.545 184.562 398.455ZM196.877 405V391.909H199.34V393.989H199.477C199.715 393.284 200.136 392.73 200.738 392.327C201.346 391.918 202.033 391.713 202.8 391.713C202.96 391.713 203.147 391.719 203.363 391.73C203.585 391.741 203.758 391.756 203.883 391.773V394.21C203.781 394.182 203.599 394.151 203.337 394.116C203.076 394.077 202.815 394.057 202.553 394.057C201.951 394.057 201.414 394.185 200.942 394.44C200.477 394.69 200.107 395.04 199.835 395.489C199.562 395.932 199.425 396.437 199.425 397.006V405H196.877ZM211.134 405.264C209.906 405.264 208.835 404.983 207.92 404.42C207.006 403.858 206.295 403.071 205.79 402.06C205.284 401.048 205.031 399.866 205.031 398.514C205.031 397.156 205.284 395.969 205.79 394.952C206.295 393.935 207.006 393.145 207.92 392.582C208.835 392.02 209.906 391.739 211.134 391.739C212.361 391.739 213.432 392.02 214.347 392.582C215.261 393.145 215.972 393.935 216.477 394.952C216.983 395.969 217.236 397.156 217.236 398.514C217.236 399.866 216.983 401.048 216.477 402.06C215.972 403.071 215.261 403.858 214.347 404.42C213.432 404.983 212.361 405.264 211.134 405.264ZM211.142 403.125C211.938 403.125 212.597 402.915 213.119 402.494C213.642 402.074 214.028 401.514 214.278 400.815C214.534 400.116 214.662 399.347 214.662 398.506C214.662 397.67 214.534 396.903 214.278 396.205C214.028 395.5 213.642 394.935 213.119 394.509C212.597 394.082 211.938 393.869 211.142 393.869C210.341 393.869 209.676 394.082 209.148 394.509C208.625 394.935 208.236 395.5 207.98 396.205C207.73 396.903 207.605 397.67 207.605 398.506C207.605 399.347 207.73 400.116 207.98 400.815C208.236 401.514 208.625 402.074 209.148 402.494C209.676 402.915 210.341 403.125 211.142 403.125ZM220.08 405V391.909H222.526V394.04H222.688C222.961 393.318 223.407 392.756 224.026 392.352C224.646 391.943 225.387 391.739 226.251 391.739C227.126 391.739 227.859 391.943 228.45 392.352C229.046 392.761 229.487 393.324 229.771 394.04H229.907C230.219 393.341 230.717 392.784 231.398 392.369C232.08 391.949 232.893 391.739 233.836 391.739C235.023 391.739 235.992 392.111 236.742 392.855C237.498 393.599 237.876 394.722 237.876 396.222V405H235.327V396.46C235.327 395.574 235.086 394.932 234.603 394.534C234.12 394.136 233.543 393.938 232.873 393.938C232.043 393.938 231.398 394.193 230.938 394.705C230.478 395.21 230.248 395.861 230.248 396.656V405H227.708V396.298C227.708 395.588 227.487 395.017 227.043 394.585C226.6 394.153 226.023 393.938 225.313 393.938C224.83 393.938 224.384 394.065 223.975 394.321C223.572 394.571 223.245 394.92 222.995 395.369C222.751 395.818 222.629 396.338 222.629 396.929V405H220.08ZM246.805 405.264C245.578 405.264 244.507 404.983 243.592 404.42C242.678 403.858 241.967 403.071 241.462 402.06C240.956 401.048 240.703 399.866 240.703 398.514C240.703 397.156 240.956 395.969 241.462 394.952C241.967 393.935 242.678 393.145 243.592 392.582C244.507 392.02 245.578 391.739 246.805 391.739C248.033 391.739 249.104 392.02 250.018 392.582C250.933 393.145 251.643 393.935 252.149 394.952C252.655 395.969 252.908 397.156 252.908 398.514C252.908 399.866 252.655 401.048 252.149 402.06C251.643 403.071 250.933 403.858 250.018 404.42C249.104 404.983 248.033 405.264 246.805 405.264ZM246.814 403.125C247.609 403.125 248.268 402.915 248.791 402.494C249.314 402.074 249.7 401.514 249.95 400.815C250.206 400.116 250.334 399.347 250.334 398.506C250.334 397.67 250.206 396.903 249.95 396.205C249.7 395.5 249.314 394.935 248.791 394.509C248.268 394.082 247.609 393.869 246.814 393.869C246.013 393.869 245.348 394.082 244.82 394.509C244.297 394.935 243.908 395.5 243.652 396.205C243.402 396.903 243.277 397.67 243.277 398.506C243.277 399.347 243.402 400.116 243.652 400.815C243.908 401.514 244.297 402.074 244.82 402.494C245.348 402.915 246.013 403.125 246.814 403.125ZM261.863 391.909V393.955H254.712V391.909H261.863ZM256.63 388.773H259.178V401.156C259.178 401.651 259.252 402.023 259.4 402.273C259.548 402.517 259.738 402.685 259.971 402.776C260.21 402.861 260.468 402.903 260.746 402.903C260.951 402.903 261.13 402.889 261.283 402.861C261.437 402.832 261.556 402.81 261.641 402.793L262.102 404.898C261.954 404.955 261.744 405.011 261.471 405.068C261.198 405.131 260.857 405.165 260.448 405.17C259.778 405.182 259.153 405.062 258.573 404.812C257.994 404.562 257.525 404.176 257.167 403.653C256.809 403.131 256.63 402.474 256.63 401.685V388.773ZM264.682 405V391.909H267.23V405H264.682ZM265.969 389.889C265.526 389.889 265.145 389.741 264.827 389.446C264.514 389.145 264.358 388.787 264.358 388.372C264.358 387.952 264.514 387.594 264.827 387.298C265.145 386.997 265.526 386.847 265.969 386.847C266.412 386.847 266.79 386.997 267.102 387.298C267.42 387.594 267.58 387.952 267.58 388.372C267.58 388.787 267.42 389.145 267.102 389.446C266.79 389.741 266.412 389.889 265.969 389.889ZM276.173 405.264C274.945 405.264 273.874 404.983 272.96 404.42C272.045 403.858 271.335 403.071 270.829 402.06C270.323 401.048 270.07 399.866 270.07 398.514C270.07 397.156 270.323 395.969 270.829 394.952C271.335 393.935 272.045 393.145 272.96 392.582C273.874 392.02 274.945 391.739 276.173 391.739C277.4 391.739 278.471 392.02 279.386 392.582C280.3 393.145 281.011 393.935 281.516 394.952C282.022 395.969 282.275 397.156 282.275 398.514C282.275 399.866 282.022 401.048 281.516 402.06C281.011 403.071 280.3 403.858 279.386 404.42C278.471 404.983 277.4 405.264 276.173 405.264ZM276.181 403.125C276.977 403.125 277.636 402.915 278.158 402.494C278.681 402.074 279.067 401.514 279.317 400.815C279.573 400.116 279.701 399.347 279.701 398.506C279.701 397.67 279.573 396.903 279.317 396.205C279.067 395.5 278.681 394.935 278.158 394.509C277.636 394.082 276.977 393.869 276.181 393.869C275.38 393.869 274.715 394.082 274.187 394.509C273.664 394.935 273.275 395.5 273.019 396.205C272.769 396.903 272.644 397.67 272.644 398.506C272.644 399.347 272.769 400.116 273.019 400.815C273.275 401.514 273.664 402.074 274.187 402.494C274.715 402.915 275.38 403.125 276.181 403.125ZM287.668 397.227V405H285.119V391.909H287.565V394.04H287.727C288.028 393.347 288.5 392.79 289.142 392.369C289.79 391.949 290.605 391.739 291.588 391.739C292.48 391.739 293.261 391.926 293.932 392.301C294.602 392.67 295.122 393.222 295.491 393.955C295.861 394.687 296.045 395.594 296.045 396.673V405H293.497V396.98C293.497 396.031 293.25 395.29 292.756 394.756C292.261 394.216 291.582 393.946 290.719 393.946C290.128 393.946 289.602 394.074 289.142 394.33C288.688 394.585 288.327 394.96 288.06 395.455C287.798 395.943 287.668 396.534 287.668 397.227ZM309.273 395.105L306.963 395.514C306.866 395.219 306.713 394.937 306.503 394.67C306.298 394.403 306.02 394.185 305.668 394.014C305.315 393.844 304.875 393.759 304.347 393.759C303.625 393.759 303.023 393.92 302.54 394.244C302.057 394.562 301.815 394.974 301.815 395.48C301.815 395.918 301.977 396.27 302.301 396.537C302.625 396.804 303.148 397.023 303.869 397.193L305.949 397.67C307.153 397.949 308.051 398.378 308.642 398.957C309.233 399.537 309.528 400.29 309.528 401.216C309.528 402 309.301 402.699 308.847 403.312C308.398 403.92 307.77 404.398 306.963 404.744C306.162 405.091 305.233 405.264 304.176 405.264C302.71 405.264 301.514 404.952 300.588 404.327C299.662 403.696 299.094 402.801 298.884 401.642L301.347 401.267C301.5 401.909 301.815 402.395 302.293 402.724C302.77 403.048 303.392 403.21 304.159 403.21C304.994 403.21 305.662 403.037 306.162 402.69C306.662 402.338 306.912 401.909 306.912 401.403C306.912 400.994 306.759 400.651 306.452 400.372C306.151 400.094 305.688 399.884 305.062 399.741L302.847 399.256C301.625 398.977 300.722 398.534 300.136 397.926C299.557 397.318 299.267 396.548 299.267 395.616C299.267 394.844 299.483 394.168 299.915 393.588C300.347 393.009 300.943 392.557 301.705 392.233C302.466 391.903 303.338 391.739 304.321 391.739C305.736 391.739 306.849 392.045 307.662 392.659C308.474 393.267 309.011 394.082 309.273 395.105Z" fill="#898B96"/>
<path opacity="0.4" d="M108.089 182.225L96.2457 170.382C91.4149 165.552 91.4149 157.604 96.2457 152.773L108.089 140.93C110.115 138.904 111.751 134.93 111.751 132.125V115.373C111.751 108.517 117.361 102.906 124.218 102.906H140.97C143.775 102.906 147.749 101.27 149.774 99.2444L161.618 87.401C166.448 82.5701 174.396 82.5701 179.227 87.401L191.07 99.2444C193.096 101.27 197.07 102.906 199.875 102.906H216.627C223.484 102.906 229.094 108.517 229.094 115.373V132.125C229.094 134.93 230.73 138.904 232.756 140.93L244.599 152.773C249.43 157.604 249.43 165.552 244.599 170.382L232.756 182.225C230.73 184.251 229.094 188.225 229.094 191.03V207.782C229.094 214.639 223.484 220.249 216.627 220.249H199.875C197.07 220.249 193.096 221.885 191.07 223.911L179.227 235.755C174.396 240.585 166.448 240.585 161.618 235.755L149.774 223.911C147.749 221.885 143.775 220.249 140.97 220.249H124.218C117.361 220.249 111.751 214.639 111.751 207.782V191.03C111.751 188.147 110.115 184.173 108.089 182.225Z" fill="#68839F"/>
<path d="M193.875 192.667C189.512 192.667 186.005 189.16 186.005 184.875C186.005 180.59 189.512 177.083 193.797 177.083C198.082 177.083 201.589 180.59 201.589 184.875C201.589 189.16 198.16 192.667 193.875 192.667Z" fill="#68839F"/>
<path d="M147.203 145.917C142.84 145.917 139.333 142.41 139.333 138.125C139.333 133.84 142.84 130.333 147.125 130.333C151.411 130.333 154.917 133.84 154.917 138.125C154.917 142.41 151.489 145.917 147.203 145.917Z" fill="#68839F"/>
<path d="M147.125 190.719C145.645 190.719 144.164 190.173 142.995 189.005C140.736 186.745 140.736 183.005 142.995 180.745L189.745 133.995C192.005 131.735 195.745 131.735 198.005 133.995C200.264 136.255 200.264 139.995 198.005 142.255L151.255 189.005C150.086 190.173 148.605 190.719 147.125 190.719Z" fill="#68839F"/>
<defs>
<filter id="filter0_d_549_241" x="0" y="0" width="502" height="502" filterUnits="userSpaceOnUse" color-interpolation-filters="sRGB">
<feFlood flood-opacity="0" result="BackgroundImageFix"/>
<feColorMatrix in="SourceAlpha" type="matrix" values="0 0 0 0 0 0 0 0 0 0 0 0 0 0 0 0 0 0 127 0" result="hardAlpha"/>
<feOffset dy="9"/>
<feGaussianBlur stdDeviation="17"/>
<feColorMatrix type="matrix" values="0 0 0 0 0 0 0 0 0 0 0 0 0 0 0 0 0 0 0.05 0"/>
<feBlend mode="normal" in2="BackgroundImageFix" result="effect1_dropShadow_549_241"/>
<feBlend mode="normal" in="SourceGraphic" in2="effect1_dropShadow_549_241" result="shape"/>
</filter>
</defs>
</svg>
