<svg width="502" height="502" viewBox="0 0 502 502" fill="none" xmlns="http://www.w3.org/2000/svg">
<g filter="url(#filter0_d_425_183)">
<rect x="34" y="25" width="434" height="434" rx="20" fill="#DFEBF7"/>
</g>
<path d="M123.83 295.443H118.511C118.307 294.307 117.926 293.307 117.369 292.443C116.813 291.58 116.131 290.847 115.324 290.244C114.517 289.642 113.614 289.187 112.614 288.881C111.625 288.574 110.574 288.42 109.46 288.42C107.449 288.42 105.648 288.926 104.057 289.938C102.477 290.949 101.227 292.432 100.307 294.386C99.3977 296.341 98.9432 298.727 98.9432 301.545C98.9432 304.386 99.3977 306.784 100.307 308.739C101.227 310.693 102.483 312.17 104.074 313.17C105.665 314.17 107.455 314.67 109.443 314.67C110.545 314.67 111.591 314.523 112.58 314.227C113.58 313.92 114.483 313.472 115.29 312.881C116.097 312.29 116.778 311.568 117.335 310.716C117.903 309.852 118.295 308.864 118.511 307.75L123.83 307.767C123.545 309.483 122.994 311.062 122.176 312.506C121.369 313.938 120.33 315.176 119.057 316.222C117.795 317.256 116.352 318.057 114.727 318.625C113.102 319.193 111.33 319.477 109.409 319.477C106.386 319.477 103.693 318.761 101.33 317.33C98.9659 315.886 97.1023 313.824 95.7386 311.142C94.3864 308.46 93.7102 305.261 93.7102 301.545C93.7102 297.818 94.392 294.619 95.7557 291.949C97.1193 289.267 98.983 287.21 101.347 285.778C103.71 284.335 106.398 283.614 109.409 283.614C111.261 283.614 112.989 283.881 114.591 284.415C116.205 284.937 117.653 285.71 118.938 286.733C120.222 287.744 121.284 288.983 122.125 290.449C122.966 291.903 123.534 293.568 123.83 295.443ZM129.723 319V292.818H134.649V296.977H134.922C135.399 295.568 136.24 294.46 137.445 293.653C138.661 292.835 140.036 292.426 141.57 292.426C141.888 292.426 142.263 292.437 142.695 292.46C143.138 292.483 143.484 292.511 143.734 292.545V297.42C143.53 297.364 143.166 297.301 142.643 297.233C142.121 297.153 141.598 297.114 141.075 297.114C139.871 297.114 138.797 297.369 137.854 297.881C136.922 298.381 136.183 299.08 135.638 299.977C135.092 300.864 134.82 301.875 134.82 303.011V319H129.723ZM158.491 319.528C155.912 319.528 153.69 318.977 151.827 317.875C149.974 316.761 148.543 315.199 147.531 313.188C146.531 311.165 146.031 308.795 146.031 306.08C146.031 303.398 146.531 301.034 147.531 298.989C148.543 296.943 149.952 295.347 151.759 294.199C153.577 293.051 155.702 292.477 158.134 292.477C159.611 292.477 161.043 292.722 162.429 293.21C163.815 293.699 165.06 294.466 166.162 295.511C167.264 296.557 168.134 297.915 168.77 299.585C169.406 301.244 169.724 303.261 169.724 305.636V307.443H148.912V303.625H164.73C164.73 302.284 164.457 301.097 163.912 300.062C163.366 299.017 162.599 298.193 161.611 297.591C160.634 296.989 159.486 296.688 158.168 296.688C156.736 296.688 155.486 297.04 154.418 297.744C153.361 298.437 152.543 299.347 151.963 300.472C151.395 301.585 151.111 302.795 151.111 304.102V307.085C151.111 308.835 151.418 310.324 152.031 311.551C152.656 312.778 153.526 313.716 154.639 314.364C155.753 315 157.054 315.318 158.543 315.318C159.509 315.318 160.389 315.182 161.185 314.909C161.98 314.625 162.668 314.205 163.247 313.648C163.827 313.091 164.27 312.403 164.577 311.585L169.401 312.455C169.014 313.875 168.321 315.119 167.321 316.188C166.332 317.244 165.088 318.068 163.588 318.659C162.099 319.239 160.401 319.528 158.491 319.528ZM182.999 319.58C181.339 319.58 179.839 319.273 178.499 318.659C177.158 318.034 176.095 317.131 175.311 315.949C174.538 314.767 174.152 313.318 174.152 311.602C174.152 310.125 174.436 308.909 175.004 307.955C175.572 307 176.339 306.244 177.305 305.688C178.271 305.131 179.351 304.71 180.544 304.426C181.737 304.142 182.953 303.926 184.192 303.778C185.76 303.597 187.033 303.449 188.01 303.335C188.987 303.21 189.697 303.011 190.141 302.739C190.584 302.466 190.805 302.023 190.805 301.409V301.29C190.805 299.801 190.385 298.648 189.544 297.83C188.714 297.011 187.476 296.602 185.828 296.602C184.112 296.602 182.76 296.983 181.771 297.744C180.794 298.494 180.118 299.33 179.743 300.25L174.953 299.159C175.521 297.568 176.351 296.284 177.442 295.307C178.544 294.318 179.811 293.602 181.243 293.159C182.675 292.705 184.18 292.477 185.76 292.477C186.805 292.477 187.913 292.602 189.084 292.852C190.266 293.091 191.368 293.534 192.391 294.182C193.425 294.83 194.271 295.756 194.93 296.96C195.589 298.153 195.919 299.705 195.919 301.614V319H190.942V315.42H190.737C190.408 316.08 189.913 316.727 189.254 317.364C188.595 318 187.749 318.528 186.714 318.949C185.68 319.369 184.442 319.58 182.999 319.58ZM184.107 315.489C185.516 315.489 186.72 315.21 187.72 314.653C188.732 314.097 189.499 313.369 190.021 312.472C190.555 311.562 190.822 310.591 190.822 309.557V306.182C190.641 306.364 190.288 306.534 189.766 306.693C189.254 306.841 188.669 306.972 188.01 307.085C187.351 307.187 186.709 307.284 186.084 307.375C185.459 307.455 184.936 307.523 184.516 307.58C183.527 307.705 182.624 307.915 181.805 308.21C180.999 308.506 180.351 308.932 179.862 309.489C179.385 310.034 179.146 310.761 179.146 311.67C179.146 312.932 179.612 313.886 180.544 314.534C181.476 315.17 182.663 315.489 184.107 315.489ZM214.929 292.818V296.909H200.628V292.818H214.929ZM204.463 286.545H209.56V311.312C209.56 312.301 209.707 313.045 210.003 313.545C210.298 314.034 210.679 314.369 211.145 314.551C211.622 314.722 212.139 314.807 212.696 314.807C213.105 314.807 213.463 314.778 213.77 314.722C214.077 314.665 214.315 314.619 214.486 314.585L215.406 318.795C215.111 318.909 214.69 319.023 214.145 319.136C213.599 319.261 212.918 319.33 212.099 319.341C210.759 319.364 209.509 319.125 208.349 318.625C207.19 318.125 206.253 317.352 205.537 316.307C204.821 315.261 204.463 313.949 204.463 312.369V286.545ZM231.57 319.528C228.99 319.528 226.768 318.977 224.905 317.875C223.053 316.761 221.621 315.199 220.609 313.188C219.609 311.165 219.109 308.795 219.109 306.08C219.109 303.398 219.609 301.034 220.609 298.989C221.621 296.943 223.03 295.347 224.837 294.199C226.655 293.051 228.78 292.477 231.212 292.477C232.689 292.477 234.121 292.722 235.507 293.21C236.893 293.699 238.138 294.466 239.24 295.511C240.342 296.557 241.212 297.915 241.848 299.585C242.484 301.244 242.803 303.261 242.803 305.636V307.443H221.99V303.625H237.808C237.808 302.284 237.536 301.097 236.99 300.062C236.445 299.017 235.678 298.193 234.689 297.591C233.712 296.989 232.564 296.688 231.246 296.688C229.814 296.688 228.564 297.04 227.496 297.744C226.439 298.437 225.621 299.347 225.041 300.472C224.473 301.585 224.189 302.795 224.189 304.102V307.085C224.189 308.835 224.496 310.324 225.109 311.551C225.734 312.778 226.604 313.716 227.717 314.364C228.831 315 230.132 315.318 231.621 315.318C232.587 315.318 233.467 315.182 234.263 314.909C235.058 314.625 235.746 314.205 236.325 313.648C236.905 313.091 237.348 312.403 237.655 311.585L242.479 312.455C242.092 313.875 241.399 315.119 240.399 316.188C239.411 317.244 238.166 318.068 236.666 318.659C235.178 319.239 233.479 319.528 231.57 319.528ZM291.893 301.545C291.893 305.273 291.212 308.477 289.848 311.159C288.484 313.83 286.615 315.886 284.24 317.33C281.876 318.761 279.189 319.477 276.178 319.477C273.155 319.477 270.456 318.761 268.081 317.33C265.717 315.886 263.854 313.824 262.49 311.142C261.126 308.46 260.445 305.261 260.445 301.545C260.445 297.818 261.126 294.619 262.49 291.949C263.854 289.267 265.717 287.21 268.081 285.778C270.456 284.335 273.155 283.614 276.178 283.614C279.189 283.614 281.876 284.335 284.24 285.778C286.615 287.21 288.484 289.267 289.848 291.949C291.212 294.619 291.893 297.818 291.893 301.545ZM286.678 301.545C286.678 298.705 286.217 296.312 285.297 294.369C284.388 292.415 283.138 290.938 281.547 289.938C279.967 288.926 278.178 288.42 276.178 288.42C274.166 288.42 272.371 288.926 270.791 289.938C269.212 290.938 267.962 292.415 267.041 294.369C266.132 296.312 265.678 298.705 265.678 301.545C265.678 304.386 266.132 306.784 267.041 308.739C267.962 310.682 269.212 312.159 270.791 313.17C272.371 314.17 274.166 314.67 276.178 314.67C278.178 314.67 279.967 314.17 281.547 313.17C283.138 312.159 284.388 310.682 285.297 308.739C286.217 306.784 286.678 304.386 286.678 301.545ZM298.051 319V292.818H302.977V296.977H303.25C303.727 295.568 304.568 294.46 305.773 293.653C306.989 292.835 308.364 292.426 309.898 292.426C310.216 292.426 310.591 292.437 311.023 292.46C311.466 292.483 311.812 292.511 312.062 292.545V297.42C311.858 297.364 311.494 297.301 310.972 297.233C310.449 297.153 309.926 297.114 309.403 297.114C308.199 297.114 307.125 297.369 306.182 297.881C305.25 298.381 304.511 299.08 303.966 299.977C303.42 300.864 303.148 301.875 303.148 303.011V319H298.051ZM325.337 319.511C323.223 319.511 321.337 318.972 319.678 317.892C318.03 316.801 316.734 315.25 315.791 313.239C314.859 311.216 314.393 308.79 314.393 305.96C314.393 303.131 314.865 300.71 315.808 298.699C316.763 296.687 318.07 295.148 319.729 294.08C321.388 293.011 323.268 292.477 325.371 292.477C326.996 292.477 328.303 292.75 329.291 293.295C330.291 293.83 331.064 294.455 331.609 295.17C332.166 295.886 332.598 296.517 332.905 297.062H333.212V284.091H338.308V319H333.331V314.926H332.905C332.598 315.483 332.155 316.119 331.575 316.835C331.007 317.551 330.223 318.176 329.223 318.71C328.223 319.244 326.928 319.511 325.337 319.511ZM326.462 315.165C327.928 315.165 329.166 314.778 330.178 314.006C331.2 313.222 331.973 312.136 332.496 310.75C333.03 309.364 333.297 307.75 333.297 305.909C333.297 304.091 333.036 302.5 332.513 301.136C331.99 299.773 331.223 298.71 330.212 297.949C329.2 297.187 327.95 296.807 326.462 296.807C324.928 296.807 323.649 297.205 322.626 298C321.604 298.795 320.831 299.881 320.308 301.256C319.797 302.631 319.541 304.182 319.541 305.909C319.541 307.659 319.803 309.233 320.325 310.631C320.848 312.028 321.621 313.136 322.643 313.955C323.678 314.761 324.95 315.165 326.462 315.165ZM356.866 319.528C354.287 319.528 352.065 318.977 350.202 317.875C348.349 316.761 346.918 315.199 345.906 313.188C344.906 311.165 344.406 308.795 344.406 306.08C344.406 303.398 344.906 301.034 345.906 298.989C346.918 296.943 348.327 295.347 350.134 294.199C351.952 293.051 354.077 292.477 356.509 292.477C357.986 292.477 359.418 292.722 360.804 293.21C362.19 293.699 363.435 294.466 364.537 295.511C365.639 296.557 366.509 297.915 367.145 299.585C367.781 301.244 368.099 303.261 368.099 305.636V307.443H347.287V303.625H363.105C363.105 302.284 362.832 301.097 362.287 300.062C361.741 299.017 360.974 298.193 359.986 297.591C359.009 296.989 357.861 296.688 356.543 296.688C355.111 296.688 353.861 297.04 352.793 297.744C351.736 298.437 350.918 299.347 350.338 300.472C349.77 301.585 349.486 302.795 349.486 304.102V307.085C349.486 308.835 349.793 310.324 350.406 311.551C351.031 312.778 351.901 313.716 353.014 314.364C354.128 315 355.429 315.318 356.918 315.318C357.884 315.318 358.764 315.182 359.56 314.909C360.355 314.625 361.043 314.205 361.622 313.648C362.202 313.091 362.645 312.403 362.952 311.585L367.776 312.455C367.389 313.875 366.696 315.119 365.696 316.188C364.707 317.244 363.463 318.068 361.963 318.659C360.474 319.239 358.776 319.528 356.866 319.528ZM373.754 319V292.818H378.68V296.977H378.953C379.43 295.568 380.271 294.46 381.476 293.653C382.692 292.835 384.067 292.426 385.601 292.426C385.919 292.426 386.294 292.437 386.726 292.46C387.169 292.483 387.516 292.511 387.766 292.545V297.42C387.561 297.364 387.197 297.301 386.675 297.233C386.152 297.153 385.629 297.114 385.107 297.114C383.902 297.114 382.828 297.369 381.885 297.881C380.953 298.381 380.214 299.08 379.669 299.977C379.124 300.864 378.851 301.875 378.851 303.011V319H373.754Z" fill="#1F2227"/>
<path d="M98.9176 367V349.545H109.861V351.812H101.551V357.131H109.29V359.389H101.551V364.733H109.963V367H98.9176ZM116.984 367.29C116.154 367.29 115.404 367.136 114.734 366.83C114.063 366.517 113.532 366.065 113.14 365.474C112.754 364.884 112.56 364.159 112.56 363.301C112.56 362.562 112.702 361.955 112.987 361.477C113.271 361 113.654 360.622 114.137 360.344C114.62 360.065 115.16 359.855 115.756 359.713C116.353 359.571 116.961 359.463 117.58 359.389C118.364 359.298 119.001 359.224 119.489 359.168C119.978 359.105 120.333 359.006 120.555 358.869C120.776 358.733 120.887 358.511 120.887 358.205V358.145C120.887 357.401 120.677 356.824 120.256 356.415C119.842 356.006 119.222 355.801 118.398 355.801C117.54 355.801 116.864 355.991 116.37 356.372C115.881 356.747 115.543 357.165 115.356 357.625L112.961 357.08C113.245 356.284 113.66 355.642 114.205 355.153C114.756 354.659 115.39 354.301 116.106 354.08C116.822 353.852 117.575 353.739 118.364 353.739C118.887 353.739 119.441 353.801 120.026 353.926C120.617 354.045 121.168 354.267 121.68 354.591C122.197 354.915 122.62 355.378 122.95 355.98C123.279 356.577 123.444 357.352 123.444 358.307V367H120.955V365.21H120.853C120.688 365.54 120.441 365.864 120.112 366.182C119.782 366.5 119.359 366.764 118.842 366.974C118.325 367.185 117.705 367.29 116.984 367.29ZM117.538 365.244C118.242 365.244 118.844 365.105 119.344 364.827C119.85 364.548 120.234 364.185 120.495 363.736C120.762 363.281 120.896 362.795 120.896 362.278V360.591C120.805 360.682 120.629 360.767 120.367 360.847C120.112 360.92 119.819 360.986 119.489 361.043C119.16 361.094 118.839 361.142 118.526 361.188C118.214 361.227 117.952 361.261 117.742 361.29C117.248 361.352 116.796 361.457 116.387 361.605C115.984 361.753 115.66 361.966 115.415 362.244C115.177 362.517 115.058 362.881 115.058 363.335C115.058 363.966 115.29 364.443 115.756 364.767C116.222 365.085 116.816 365.244 117.538 365.244ZM136.648 357.105L134.338 357.514C134.241 357.219 134.088 356.937 133.878 356.67C133.673 356.403 133.395 356.185 133.043 356.014C132.69 355.844 132.25 355.759 131.722 355.759C131 355.759 130.398 355.92 129.915 356.244C129.432 356.562 129.19 356.974 129.19 357.48C129.19 357.918 129.352 358.27 129.676 358.537C130 358.804 130.523 359.023 131.244 359.193L133.324 359.67C134.528 359.949 135.426 360.378 136.017 360.957C136.608 361.537 136.903 362.29 136.903 363.216C136.903 364 136.676 364.699 136.222 365.312C135.773 365.92 135.145 366.398 134.338 366.744C133.537 367.091 132.608 367.264 131.551 367.264C130.085 367.264 128.889 366.952 127.963 366.327C127.037 365.696 126.469 364.801 126.259 363.642L128.722 363.267C128.875 363.909 129.19 364.395 129.668 364.724C130.145 365.048 130.767 365.21 131.534 365.21C132.369 365.21 133.037 365.037 133.537 364.69C134.037 364.338 134.287 363.909 134.287 363.403C134.287 362.994 134.134 362.651 133.827 362.372C133.526 362.094 133.062 361.884 132.438 361.741L130.222 361.256C129 360.977 128.097 360.534 127.511 359.926C126.932 359.318 126.642 358.548 126.642 357.616C126.642 356.844 126.858 356.168 127.29 355.588C127.722 355.009 128.318 354.557 129.08 354.233C129.841 353.903 130.713 353.739 131.696 353.739C133.111 353.739 134.224 354.045 135.037 354.659C135.849 355.267 136.386 356.082 136.648 357.105ZM139.705 367V353.909H142.254V367H139.705ZM140.992 351.889C140.549 351.889 140.168 351.741 139.85 351.446C139.538 351.145 139.381 350.787 139.381 350.372C139.381 349.952 139.538 349.594 139.85 349.298C140.168 348.997 140.549 348.847 140.992 348.847C141.435 348.847 141.813 348.997 142.126 349.298C142.444 349.594 142.603 349.952 142.603 350.372C142.603 350.787 142.444 351.145 142.126 351.446C141.813 351.741 141.435 351.889 140.992 351.889ZM148.23 349.545V367H145.682V349.545H148.23ZM153.269 371.909C152.888 371.909 152.542 371.878 152.229 371.815C151.917 371.759 151.684 371.696 151.531 371.628L152.144 369.54C152.61 369.665 153.025 369.719 153.388 369.702C153.752 369.685 154.073 369.548 154.352 369.293C154.636 369.037 154.886 368.619 155.102 368.04L155.417 367.17L150.627 353.909H153.354L156.67 364.068H156.806L160.121 353.909H162.857L157.462 368.747C157.212 369.429 156.894 370.006 156.508 370.477C156.121 370.955 155.661 371.313 155.127 371.551C154.593 371.79 153.974 371.909 153.269 371.909ZM171.604 371.909V353.909H174.092V356.031H174.305C174.453 355.759 174.666 355.443 174.945 355.085C175.223 354.727 175.609 354.415 176.104 354.148C176.598 353.875 177.251 353.739 178.064 353.739C179.121 353.739 180.064 354.006 180.893 354.54C181.723 355.074 182.374 355.844 182.845 356.849C183.322 357.855 183.561 359.065 183.561 360.48C183.561 361.895 183.325 363.108 182.854 364.119C182.382 365.125 181.734 365.901 180.911 366.446C180.087 366.986 179.146 367.256 178.089 367.256C177.294 367.256 176.643 367.122 176.138 366.855C175.638 366.588 175.246 366.276 174.962 365.918C174.678 365.56 174.459 365.241 174.305 364.963H174.152V371.909H171.604ZM174.101 360.455C174.101 361.375 174.234 362.182 174.501 362.875C174.768 363.568 175.155 364.111 175.661 364.503C176.166 364.889 176.786 365.082 177.518 365.082C178.28 365.082 178.916 364.881 179.428 364.477C179.939 364.068 180.325 363.514 180.587 362.815C180.854 362.116 180.987 361.33 180.987 360.455C180.987 359.591 180.857 358.815 180.595 358.128C180.339 357.44 179.953 356.898 179.436 356.5C178.925 356.102 178.286 355.903 177.518 355.903C176.78 355.903 176.155 356.094 175.643 356.474C175.138 356.855 174.754 357.386 174.493 358.068C174.232 358.75 174.101 359.545 174.101 360.455ZM188.964 349.545V367H186.416V349.545H188.964ZM196.202 367.29C195.373 367.29 194.623 367.136 193.952 366.83C193.282 366.517 192.751 366.065 192.359 365.474C191.972 364.884 191.779 364.159 191.779 363.301C191.779 362.562 191.921 361.955 192.205 361.477C192.489 361 192.873 360.622 193.356 360.344C193.839 360.065 194.379 359.855 194.975 359.713C195.572 359.571 196.18 359.463 196.799 359.389C197.583 359.298 198.219 359.224 198.708 359.168C199.197 359.105 199.552 359.006 199.773 358.869C199.995 358.733 200.106 358.511 200.106 358.205V358.145C200.106 357.401 199.896 356.824 199.475 356.415C199.06 356.006 198.441 355.801 197.617 355.801C196.759 355.801 196.083 355.991 195.589 356.372C195.1 356.747 194.762 357.165 194.575 357.625L192.18 357.08C192.464 356.284 192.879 355.642 193.424 355.153C193.975 354.659 194.609 354.301 195.325 354.08C196.04 353.852 196.793 353.739 197.583 353.739C198.106 353.739 198.66 353.801 199.245 353.926C199.836 354.045 200.387 354.267 200.898 354.591C201.415 354.915 201.839 355.378 202.168 355.98C202.498 356.577 202.663 357.352 202.663 358.307V367H200.174V365.21H200.072C199.907 365.54 199.66 365.864 199.33 366.182C199.001 366.5 198.577 366.764 198.06 366.974C197.543 367.185 196.924 367.29 196.202 367.29ZM196.756 365.244C197.461 365.244 198.063 365.105 198.563 364.827C199.069 364.548 199.452 364.185 199.714 363.736C199.981 363.281 200.114 362.795 200.114 362.278V360.591C200.023 360.682 199.847 360.767 199.586 360.847C199.33 360.92 199.038 360.986 198.708 361.043C198.379 361.094 198.058 361.142 197.745 361.188C197.433 361.227 197.171 361.261 196.961 361.29C196.467 361.352 196.015 361.457 195.606 361.605C195.202 361.753 194.879 361.966 194.634 362.244C194.396 362.517 194.276 362.881 194.276 363.335C194.276 363.966 194.509 364.443 194.975 364.767C195.441 365.085 196.035 365.244 196.756 365.244ZM211.571 367.264C210.304 367.264 209.213 366.977 208.298 366.403C207.389 365.824 206.69 365.026 206.202 364.009C205.713 362.991 205.469 361.827 205.469 360.514C205.469 359.185 205.719 358.011 206.219 356.994C206.719 355.972 207.423 355.173 208.332 354.599C209.241 354.026 210.313 353.739 211.545 353.739C212.54 353.739 213.426 353.923 214.205 354.293C214.983 354.656 215.611 355.168 216.088 355.827C216.571 356.486 216.858 357.256 216.949 358.136H214.469C214.332 357.523 214.02 356.994 213.531 356.551C213.048 356.108 212.401 355.886 211.588 355.886C210.878 355.886 210.256 356.074 209.722 356.449C209.193 356.818 208.781 357.347 208.486 358.034C208.19 358.716 208.043 359.523 208.043 360.455C208.043 361.409 208.188 362.233 208.477 362.926C208.767 363.619 209.176 364.156 209.705 364.537C210.239 364.918 210.866 365.108 211.588 365.108C212.071 365.108 212.509 365.02 212.901 364.844C213.298 364.662 213.631 364.403 213.898 364.068C214.17 363.733 214.361 363.33 214.469 362.858H216.949C216.858 363.705 216.582 364.46 216.122 365.125C215.662 365.79 215.045 366.312 214.273 366.693C213.506 367.074 212.605 367.264 211.571 367.264ZM225.316 367.264C224.026 367.264 222.915 366.989 221.984 366.438C221.058 365.881 220.342 365.099 219.836 364.094C219.336 363.082 219.086 361.898 219.086 360.54C219.086 359.199 219.336 358.017 219.836 356.994C220.342 355.972 221.046 355.173 221.95 354.599C222.859 354.026 223.921 353.739 225.137 353.739C225.876 353.739 226.592 353.861 227.285 354.105C227.978 354.349 228.6 354.733 229.151 355.256C229.702 355.778 230.137 356.457 230.455 357.293C230.773 358.122 230.933 359.131 230.933 360.318V361.222H220.526V359.312H228.435C228.435 358.642 228.299 358.048 228.026 357.531C227.754 357.009 227.37 356.597 226.876 356.295C226.387 355.994 225.813 355.844 225.154 355.844C224.438 355.844 223.813 356.02 223.279 356.372C222.751 356.719 222.342 357.173 222.052 357.736C221.768 358.293 221.626 358.898 221.626 359.551V361.043C221.626 361.918 221.779 362.662 222.086 363.276C222.398 363.889 222.833 364.358 223.39 364.682C223.947 365 224.597 365.159 225.342 365.159C225.825 365.159 226.265 365.091 226.663 364.955C227.06 364.812 227.404 364.602 227.694 364.324C227.984 364.045 228.205 363.702 228.359 363.293L230.771 363.727C230.577 364.437 230.231 365.06 229.731 365.594C229.237 366.122 228.614 366.534 227.864 366.83C227.12 367.119 226.271 367.264 225.316 367.264ZM243.921 367.29C243.092 367.29 242.342 367.136 241.671 366.83C241.001 366.517 240.469 366.065 240.077 365.474C239.691 364.884 239.498 364.159 239.498 363.301C239.498 362.562 239.64 361.955 239.924 361.477C240.208 361 240.592 360.622 241.075 360.344C241.558 360.065 242.097 359.855 242.694 359.713C243.29 359.571 243.898 359.463 244.518 359.389C245.302 359.298 245.938 359.224 246.427 359.168C246.915 359.105 247.271 359.006 247.492 358.869C247.714 358.733 247.825 358.511 247.825 358.205V358.145C247.825 357.401 247.614 356.824 247.194 356.415C246.779 356.006 246.16 355.801 245.336 355.801C244.478 355.801 243.802 355.991 243.308 356.372C242.819 356.747 242.481 357.165 242.293 357.625L239.898 357.08C240.183 356.284 240.597 355.642 241.143 355.153C241.694 354.659 242.327 354.301 243.043 354.08C243.759 353.852 244.512 353.739 245.302 353.739C245.825 353.739 246.379 353.801 246.964 353.926C247.555 354.045 248.106 354.267 248.617 354.591C249.134 354.915 249.558 355.378 249.887 355.98C250.217 356.577 250.381 357.352 250.381 358.307V367H247.893V365.21H247.79C247.626 365.54 247.379 365.864 247.049 366.182C246.719 366.5 246.296 366.764 245.779 366.974C245.262 367.185 244.643 367.29 243.921 367.29ZM244.475 365.244C245.18 365.244 245.782 365.105 246.282 364.827C246.788 364.548 247.171 364.185 247.433 363.736C247.7 363.281 247.833 362.795 247.833 362.278V360.591C247.742 360.682 247.566 360.767 247.305 360.847C247.049 360.92 246.756 360.986 246.427 361.043C246.097 361.094 245.776 361.142 245.464 361.188C245.151 361.227 244.89 361.261 244.68 361.29C244.185 361.352 243.734 361.457 243.325 361.605C242.921 361.753 242.597 361.966 242.353 362.244C242.114 362.517 241.995 362.881 241.995 363.335C241.995 363.966 242.228 364.443 242.694 364.767C243.16 365.085 243.754 365.244 244.475 365.244ZM262.675 349.545V367H260.127V349.545H262.675ZM269.913 367.29C269.084 367.29 268.334 367.136 267.663 366.83C266.993 366.517 266.462 366.065 266.07 365.474C265.683 364.884 265.49 364.159 265.49 363.301C265.49 362.562 265.632 361.955 265.916 361.477C266.2 361 266.584 360.622 267.067 360.344C267.55 360.065 268.089 359.855 268.686 359.713C269.283 359.571 269.891 359.463 270.51 359.389C271.294 359.298 271.93 359.224 272.419 359.168C272.908 359.105 273.263 359.006 273.484 358.869C273.706 358.733 273.817 358.511 273.817 358.205V358.145C273.817 357.401 273.607 356.824 273.186 356.415C272.771 356.006 272.152 355.801 271.328 355.801C270.47 355.801 269.794 355.991 269.3 356.372C268.811 356.747 268.473 357.165 268.286 357.625L265.891 357.08C266.175 356.284 266.589 355.642 267.135 355.153C267.686 354.659 268.32 354.301 269.036 354.08C269.751 353.852 270.504 353.739 271.294 353.739C271.817 353.739 272.371 353.801 272.956 353.926C273.547 354.045 274.098 354.267 274.609 354.591C275.126 354.915 275.55 355.378 275.879 355.98C276.209 356.577 276.374 357.352 276.374 358.307V367H273.885V365.21H273.783C273.618 365.54 273.371 365.864 273.041 366.182C272.712 366.5 272.288 366.764 271.771 366.974C271.254 367.185 270.635 367.29 269.913 367.29ZM270.467 365.244C271.172 365.244 271.774 365.105 272.274 364.827C272.78 364.548 273.163 364.185 273.425 363.736C273.692 363.281 273.825 362.795 273.825 362.278V360.591C273.734 360.682 273.558 360.767 273.297 360.847C273.041 360.92 272.749 360.986 272.419 361.043C272.089 361.094 271.768 361.142 271.456 361.188C271.143 361.227 270.882 361.261 270.672 361.29C270.178 361.352 269.726 361.457 269.317 361.605C268.913 361.753 268.589 361.966 268.345 362.244C268.107 362.517 267.987 362.881 267.987 363.335C267.987 363.966 268.22 364.443 268.686 364.767C269.152 365.085 269.746 365.244 270.467 365.244ZM288.06 361.571V353.909H290.617V367H288.112V364.733H287.975C287.674 365.432 287.191 366.014 286.526 366.48C285.867 366.94 285.046 367.17 284.063 367.17C283.222 367.17 282.478 366.986 281.83 366.616C281.188 366.241 280.683 365.688 280.313 364.955C279.95 364.222 279.768 363.315 279.768 362.236V353.909H282.316V361.929C282.316 362.821 282.563 363.531 283.058 364.06C283.552 364.588 284.194 364.852 284.984 364.852C285.461 364.852 285.935 364.733 286.407 364.494C286.884 364.256 287.279 363.895 287.592 363.412C287.91 362.929 288.066 362.315 288.06 361.571ZM296.589 359.227V367H294.041V353.909H296.487V356.04H296.649C296.95 355.347 297.422 354.79 298.064 354.369C298.712 353.949 299.527 353.739 300.51 353.739C301.402 353.739 302.183 353.926 302.854 354.301C303.524 354.67 304.044 355.222 304.413 355.955C304.783 356.687 304.967 357.594 304.967 358.673V367H302.419V358.98C302.419 358.031 302.172 357.29 301.678 356.756C301.183 356.216 300.504 355.946 299.641 355.946C299.05 355.946 298.524 356.074 298.064 356.33C297.609 356.585 297.249 356.96 296.982 357.455C296.72 357.943 296.589 358.534 296.589 359.227ZM313.286 367.256C312.229 367.256 311.286 366.986 310.456 366.446C309.632 365.901 308.984 365.125 308.513 364.119C308.047 363.108 307.814 361.895 307.814 360.48C307.814 359.065 308.05 357.855 308.521 356.849C308.999 355.844 309.652 355.074 310.482 354.54C311.311 354.006 312.251 353.739 313.303 353.739C314.115 353.739 314.768 353.875 315.263 354.148C315.763 354.415 316.149 354.727 316.422 355.085C316.7 355.443 316.916 355.759 317.07 356.031H317.223V349.545H319.771V367H317.283V364.963H317.07C316.916 365.241 316.695 365.56 316.405 365.918C316.121 366.276 315.729 366.588 315.229 366.855C314.729 367.122 314.081 367.256 313.286 367.256ZM313.848 365.082C314.581 365.082 315.2 364.889 315.706 364.503C316.217 364.111 316.604 363.568 316.865 362.875C317.132 362.182 317.266 361.375 317.266 360.455C317.266 359.545 317.135 358.75 316.874 358.068C316.612 357.386 316.229 356.855 315.723 356.474C315.217 356.094 314.592 355.903 313.848 355.903C313.081 355.903 312.442 356.102 311.93 356.5C311.419 356.898 311.033 357.44 310.771 358.128C310.516 358.815 310.388 359.591 310.388 360.455C310.388 361.33 310.518 362.116 310.78 362.815C311.041 363.514 311.428 364.068 311.939 364.477C312.456 364.881 313.092 365.082 313.848 365.082ZM323.408 367V353.909H325.871V355.989H326.008C326.246 355.284 326.667 354.73 327.269 354.327C327.877 353.918 328.565 353.713 329.332 353.713C329.491 353.713 329.678 353.719 329.894 353.73C330.116 353.741 330.289 353.756 330.414 353.773V356.21C330.312 356.182 330.13 356.151 329.869 356.116C329.607 356.077 329.346 356.057 329.085 356.057C328.482 356.057 327.945 356.185 327.474 356.44C327.008 356.69 326.638 357.04 326.366 357.489C326.093 357.932 325.957 358.437 325.957 359.006V367H323.408ZM334.629 371.909C334.248 371.909 333.901 371.878 333.589 371.815C333.276 371.759 333.043 371.696 332.89 371.628L333.504 369.54C333.969 369.665 334.384 369.719 334.748 369.702C335.112 369.685 335.433 369.548 335.711 369.293C335.995 369.037 336.245 368.619 336.461 368.04L336.776 367.17L331.987 353.909H334.714L338.029 364.068H338.165L341.481 353.909H344.217L338.822 368.747C338.572 369.429 338.254 370.006 337.867 370.477C337.481 370.955 337.021 371.313 336.487 371.551C335.952 371.79 335.333 371.909 334.629 371.909ZM358.477 367.264C357.25 367.264 356.179 366.983 355.264 366.42C354.349 365.858 353.639 365.071 353.134 364.06C352.628 363.048 352.375 361.866 352.375 360.514C352.375 359.156 352.628 357.969 353.134 356.952C353.639 355.935 354.349 355.145 355.264 354.582C356.179 354.02 357.25 353.739 358.477 353.739C359.705 353.739 360.776 354.02 361.69 354.582C362.605 355.145 363.315 355.935 363.821 356.952C364.327 357.969 364.58 359.156 364.58 360.514C364.58 361.866 364.327 363.048 363.821 364.06C363.315 365.071 362.605 365.858 361.69 366.42C360.776 366.983 359.705 367.264 358.477 367.264ZM358.486 365.125C359.281 365.125 359.94 364.915 360.463 364.494C360.986 364.074 361.372 363.514 361.622 362.815C361.878 362.116 362.006 361.347 362.006 360.506C362.006 359.67 361.878 358.903 361.622 358.205C361.372 357.5 360.986 356.935 360.463 356.509C359.94 356.082 359.281 355.869 358.486 355.869C357.685 355.869 357.02 356.082 356.491 356.509C355.969 356.935 355.58 357.5 355.324 358.205C355.074 358.903 354.949 359.67 354.949 360.506C354.949 361.347 355.074 362.116 355.324 362.815C355.58 363.514 355.969 364.074 356.491 364.494C357.02 364.915 357.685 365.125 358.486 365.125ZM367.424 367V353.909H369.887V355.989H370.023C370.262 355.284 370.683 354.73 371.285 354.327C371.893 353.918 372.58 353.713 373.347 353.713C373.506 353.713 373.694 353.719 373.91 353.73C374.131 353.741 374.305 353.756 374.43 353.773V356.21C374.327 356.182 374.146 356.151 373.884 356.116C373.623 356.077 373.362 356.057 373.1 356.057C372.498 356.057 371.961 356.185 371.489 356.44C371.023 356.69 370.654 357.04 370.381 357.489C370.109 357.932 369.972 358.437 369.972 359.006V367H367.424ZM381.067 367.256C380.01 367.256 379.067 366.986 378.237 366.446C377.413 365.901 376.766 365.125 376.294 364.119C375.828 363.108 375.595 361.895 375.595 360.48C375.595 359.065 375.831 357.855 376.303 356.849C376.78 355.844 377.433 355.074 378.263 354.54C379.092 354.006 380.033 353.739 381.084 353.739C381.896 353.739 382.55 353.875 383.044 354.148C383.544 354.415 383.93 354.727 384.203 355.085C384.482 355.443 384.697 355.759 384.851 356.031H385.004V349.545H387.553V367H385.064V364.963H384.851C384.697 365.241 384.476 365.56 384.186 365.918C383.902 366.276 383.51 366.588 383.01 366.855C382.51 367.122 381.862 367.256 381.067 367.256ZM381.629 365.082C382.362 365.082 382.982 364.889 383.487 364.503C383.999 364.111 384.385 363.568 384.646 362.875C384.913 362.182 385.047 361.375 385.047 360.455C385.047 359.545 384.916 358.75 384.655 358.068C384.393 357.386 384.01 356.855 383.504 356.474C382.999 356.094 382.374 355.903 381.629 355.903C380.862 355.903 380.223 356.102 379.712 356.5C379.2 356.898 378.814 357.44 378.553 358.128C378.297 358.815 378.169 359.591 378.169 360.455C378.169 361.33 378.3 362.116 378.561 362.815C378.822 363.514 379.209 364.068 379.72 364.477C380.237 364.881 380.874 365.082 381.629 365.082ZM396.832 367.264C395.542 367.264 394.431 366.989 393.499 366.438C392.573 365.881 391.857 365.099 391.352 364.094C390.852 363.082 390.602 361.898 390.602 360.54C390.602 359.199 390.852 358.017 391.352 356.994C391.857 355.972 392.562 355.173 393.465 354.599C394.374 354.026 395.437 353.739 396.653 353.739C397.391 353.739 398.107 353.861 398.8 354.105C399.494 354.349 400.116 354.733 400.667 355.256C401.218 355.778 401.653 356.457 401.971 357.293C402.289 358.122 402.448 359.131 402.448 360.318V361.222H392.042V359.312H399.951C399.951 358.642 399.815 358.048 399.542 357.531C399.269 357.009 398.886 356.597 398.391 356.295C397.903 355.994 397.329 355.844 396.67 355.844C395.954 355.844 395.329 356.02 394.795 356.372C394.266 356.719 393.857 357.173 393.567 357.736C393.283 358.293 393.141 358.898 393.141 359.551V361.043C393.141 361.918 393.295 362.662 393.602 363.276C393.914 363.889 394.349 364.358 394.906 364.682C395.462 365 396.113 365.159 396.857 365.159C397.34 365.159 397.781 365.091 398.178 364.955C398.576 364.812 398.92 364.602 399.21 364.324C399.499 364.045 399.721 363.702 399.874 363.293L402.286 363.727C402.093 364.437 401.746 365.06 401.246 365.594C400.752 366.122 400.13 366.534 399.38 366.83C398.636 367.119 397.786 367.264 396.832 367.264ZM405.276 367V353.909H407.739V355.989H407.875C408.114 355.284 408.534 354.73 409.136 354.327C409.744 353.918 410.432 353.713 411.199 353.713C411.358 353.713 411.545 353.719 411.761 353.73C411.983 353.741 412.156 353.756 412.281 353.773V356.21C412.179 356.182 411.997 356.151 411.736 356.116C411.474 356.077 411.213 356.057 410.952 356.057C410.349 356.057 409.813 356.185 409.341 356.44C408.875 356.69 408.506 357.04 408.233 357.489C407.96 357.932 407.824 358.437 407.824 359.006V367H405.276Z" fill="#898B96"/>
<g filter="url(#filter1_d_425_183)">
<path opacity="0.4" d="M213.912 111.478H210.795L184.459 85.1417C182.355 83.0379 178.927 83.0379 176.745 85.1417C174.642 87.2454 174.642 90.6738 176.745 92.8554L195.368 111.478H119.633L138.255 92.8554C140.358 90.7517 140.358 87.3233 138.255 85.1417C136.151 83.0379 132.723 83.0379 130.541 85.1417L104.283 111.478H101.166C94.1538 111.478 79.5834 111.478 79.5834 131.424C79.5834 138.982 81.1417 143.969 84.4142 147.241C86.2842 149.189 88.5438 150.202 90.9592 150.748C93.2188 151.293 95.6342 151.371 97.9717 151.371H217.028C219.444 151.371 221.703 151.215 223.885 150.748C230.43 149.189 235.417 144.514 235.417 131.424C235.417 111.478 220.846 111.478 213.912 111.478Z" fill="#68839F"/>
<path d="M217.106 151.371H97.9717C95.6342 151.371 93.2188 151.293 90.9592 150.747L100.777 210.587C102.958 223.989 108.802 239.417 134.748 239.417H178.46C204.718 239.417 209.393 226.249 212.198 211.523L223.963 150.747C221.781 151.215 219.444 151.371 217.106 151.371ZM146.67 201.705C146.67 204.744 144.254 207.159 141.215 207.159C138.177 207.159 135.761 204.744 135.761 201.705V175.992C135.761 172.954 138.177 170.538 141.215 170.538C144.254 170.538 146.67 172.954 146.67 175.992V201.705ZM180.018 201.705C180.018 204.744 177.603 207.159 174.564 207.159C171.525 207.159 169.11 204.744 169.11 201.705V175.992C169.11 172.954 171.525 170.538 174.564 170.538C177.603 170.538 180.018 172.954 180.018 175.992V201.705Z" fill="#68839F"/>
</g>
<defs>
<filter id="filter0_d_425_183" x="0" y="0" width="502" height="502" filterUnits="userSpaceOnUse" color-interpolation-filters="sRGB">
<feFlood flood-opacity="0" result="BackgroundImageFix"/>
<feColorMatrix in="SourceAlpha" type="matrix" values="0 0 0 0 0 0 0 0 0 0 0 0 0 0 0 0 0 0 127 0" result="hardAlpha"/>
<feOffset dy="9"/>
<feGaussianBlur stdDeviation="17"/>
<feColorMatrix type="matrix" values="0 0 0 0 0 0 0 0 0 0 0 0 0 0 0 0 0 0 0.05 0"/>
<feBlend mode="normal" in2="BackgroundImageFix" result="effect1_dropShadow_425_183"/>
<feBlend mode="normal" in="SourceGraphic" in2="effect1_dropShadow_425_183" result="shape"/>
</filter>
<filter id="filter1_d_425_183" x="60" y="68" width="195" height="195" filterUnits="userSpaceOnUse" color-interpolation-filters="sRGB">
<feFlood flood-opacity="0" result="BackgroundImageFix"/>
<feColorMatrix in="SourceAlpha" type="matrix" values="0 0 0 0 0 0 0 0 0 0 0 0 0 0 0 0 0 0 127 0" result="hardAlpha"/>
<feOffset dy="4"/>
<feGaussianBlur stdDeviation="2"/>
<feComposite in2="hardAlpha" operator="out"/>
<feColorMatrix type="matrix" values="0 0 0 0 0 0 0 0 0 0 0 0 0 0 0 0 0 0 0.25 0"/>
<feBlend mode="normal" in2="BackgroundImageFix" result="effect1_dropShadow_425_183"/>
<feBlend mode="normal" in="SourceGraphic" in2="effect1_dropShadow_425_183" result="shape"/>
</filter>
</defs>
</svg>
