<svg width="502" height="502" viewBox="0 0 502 502" fill="none" xmlns="http://www.w3.org/2000/svg">
<g filter="url(#filter0_d_532_238)">
<rect x="34" y="25" width="434" height="434" rx="20" fill="#DFEBF7"/>
</g>
<path d="M94.8352 319V284.091H116.722V288.625H100.102V299.261H115.58V303.778H100.102V314.466H116.926V319H94.8352ZM133.149 319.511C131.036 319.511 129.149 318.972 127.49 317.892C125.842 316.801 124.547 315.25 123.604 313.239C122.672 311.216 122.206 308.79 122.206 305.96C122.206 303.131 122.678 300.71 123.621 298.699C124.575 296.687 125.882 295.148 127.541 294.08C129.2 293.011 131.081 292.477 133.183 292.477C134.808 292.477 136.115 292.75 137.104 293.295C138.104 293.83 138.876 294.455 139.422 295.17C139.979 295.886 140.411 296.517 140.717 297.062H141.024V284.091H146.121V319H141.143V314.926H140.717C140.411 315.483 139.967 316.119 139.388 316.835C138.82 317.551 138.036 318.176 137.036 318.71C136.036 319.244 134.74 319.511 133.149 319.511ZM134.274 315.165C135.74 315.165 136.979 314.778 137.99 314.006C139.013 313.222 139.786 312.136 140.308 310.75C140.842 309.364 141.109 307.75 141.109 305.909C141.109 304.091 140.848 302.5 140.325 301.136C139.803 299.773 139.036 298.71 138.024 297.949C137.013 297.187 135.763 296.807 134.274 296.807C132.74 296.807 131.462 297.205 130.439 298C129.416 298.795 128.643 299.881 128.121 301.256C127.609 302.631 127.354 304.182 127.354 305.909C127.354 307.659 127.615 309.233 128.138 310.631C128.661 312.028 129.433 313.136 130.456 313.955C131.49 314.761 132.763 315.165 134.274 315.165ZM153.395 319V292.818H158.491V319H153.395ZM155.969 288.778C155.082 288.778 154.321 288.483 153.685 287.892C153.06 287.29 152.747 286.574 152.747 285.744C152.747 284.903 153.06 284.187 153.685 283.597C154.321 282.994 155.082 282.693 155.969 282.693C156.855 282.693 157.611 282.994 158.236 283.597C158.872 284.187 159.19 284.903 159.19 285.744C159.19 286.574 158.872 287.29 158.236 287.892C157.611 288.483 156.855 288.778 155.969 288.778ZM177.57 292.818V296.909H163.268V292.818H177.57ZM167.104 286.545H172.2V311.312C172.2 312.301 172.348 313.045 172.643 313.545C172.939 314.034 173.32 314.369 173.786 314.551C174.263 314.722 174.78 314.807 175.337 314.807C175.746 314.807 176.104 314.778 176.411 314.722C176.717 314.665 176.956 314.619 177.126 314.585L178.047 318.795C177.751 318.909 177.331 319.023 176.786 319.136C176.24 319.261 175.558 319.33 174.74 319.341C173.399 319.364 172.149 319.125 170.99 318.625C169.831 318.125 168.893 317.352 168.178 316.307C167.462 315.261 167.104 313.949 167.104 312.369V286.545ZM199.268 319H193.678L206.24 284.091H212.325L224.888 319H219.297L209.428 290.432H209.155L199.268 319ZM200.206 305.33H218.342V309.761H200.206V305.33ZM238.899 319.511C236.786 319.511 234.899 318.972 233.24 317.892C231.592 316.801 230.297 315.25 229.354 313.239C228.422 311.216 227.956 308.79 227.956 305.96C227.956 303.131 228.428 300.71 229.371 298.699C230.325 296.687 231.632 295.148 233.291 294.08C234.95 293.011 236.831 292.477 238.933 292.477C240.558 292.477 241.865 292.75 242.854 293.295C243.854 293.83 244.626 294.455 245.172 295.17C245.729 295.886 246.161 296.517 246.467 297.062H246.774V284.091H251.871V319H246.893V314.926H246.467C246.161 315.483 245.717 316.119 245.138 316.835C244.57 317.551 243.786 318.176 242.786 318.71C241.786 319.244 240.49 319.511 238.899 319.511ZM240.024 315.165C241.49 315.165 242.729 314.778 243.74 314.006C244.763 313.222 245.536 312.136 246.058 310.75C246.592 309.364 246.859 307.75 246.859 305.909C246.859 304.091 246.598 302.5 246.075 301.136C245.553 299.773 244.786 298.71 243.774 297.949C242.763 297.187 241.513 296.807 240.024 296.807C238.49 296.807 237.212 297.205 236.189 298C235.166 298.795 234.393 299.881 233.871 301.256C233.359 302.631 233.104 304.182 233.104 305.909C233.104 307.659 233.365 309.233 233.888 310.631C234.411 312.028 235.183 313.136 236.206 313.955C237.24 314.761 238.513 315.165 240.024 315.165ZM268.946 319.511C266.832 319.511 264.946 318.972 263.287 317.892C261.639 316.801 260.344 315.25 259.401 313.239C258.469 311.216 258.003 308.79 258.003 305.96C258.003 303.131 258.474 300.71 259.418 298.699C260.372 296.687 261.679 295.148 263.338 294.08C264.997 293.011 266.878 292.477 268.98 292.477C270.605 292.477 271.912 292.75 272.901 293.295C273.901 293.83 274.673 294.455 275.219 295.17C275.776 295.886 276.207 296.517 276.514 297.062H276.821V284.091H281.918V319H276.94V314.926H276.514C276.207 315.483 275.764 316.119 275.185 316.835C274.616 317.551 273.832 318.176 272.832 318.71C271.832 319.244 270.537 319.511 268.946 319.511ZM270.071 315.165C271.537 315.165 272.776 314.778 273.787 314.006C274.81 313.222 275.582 312.136 276.105 310.75C276.639 309.364 276.906 307.75 276.906 305.909C276.906 304.091 276.645 302.5 276.122 301.136C275.599 299.773 274.832 298.71 273.821 297.949C272.81 297.187 271.56 296.807 270.071 296.807C268.537 296.807 267.259 297.205 266.236 298C265.213 298.795 264.44 299.881 263.918 301.256C263.406 302.631 263.151 304.182 263.151 305.909C263.151 307.659 263.412 309.233 263.935 310.631C264.457 312.028 265.23 313.136 266.253 313.955C267.287 314.761 268.56 315.165 270.071 315.165ZM289.192 319V292.818H294.118V296.977H294.391C294.868 295.568 295.709 294.46 296.913 293.653C298.129 292.835 299.504 292.426 301.038 292.426C301.357 292.426 301.732 292.437 302.163 292.46C302.607 292.483 302.953 292.511 303.203 292.545V297.42C302.999 297.364 302.635 297.301 302.112 297.233C301.589 297.153 301.067 297.114 300.544 297.114C299.339 297.114 298.266 297.369 297.322 297.881C296.391 298.381 295.652 299.08 295.107 299.977C294.561 300.864 294.288 301.875 294.288 303.011V319H289.192ZM317.96 319.528C315.381 319.528 313.159 318.977 311.295 317.875C309.443 316.761 308.011 315.199 307 313.188C306 311.165 305.5 308.795 305.5 306.08C305.5 303.398 306 301.034 307 298.989C308.011 296.943 309.42 295.347 311.227 294.199C313.045 293.051 315.17 292.477 317.602 292.477C319.08 292.477 320.511 292.722 321.898 293.21C323.284 293.699 324.528 294.466 325.631 295.511C326.733 296.557 327.602 297.915 328.239 299.585C328.875 301.244 329.193 303.261 329.193 305.636V307.443H308.381V303.625H324.199C324.199 302.284 323.926 301.097 323.381 300.062C322.835 299.017 322.068 298.193 321.08 297.591C320.102 296.989 318.955 296.688 317.636 296.688C316.205 296.688 314.955 297.04 313.886 297.744C312.83 298.437 312.011 299.347 311.432 300.472C310.864 301.585 310.58 302.795 310.58 304.102V307.085C310.58 308.835 310.886 310.324 311.5 311.551C312.125 312.778 312.994 313.716 314.108 314.364C315.222 315 316.523 315.318 318.011 315.318C318.977 315.318 319.858 315.182 320.653 314.909C321.449 314.625 322.136 314.205 322.716 313.648C323.295 313.091 323.739 312.403 324.045 311.585L328.869 312.455C328.483 313.875 327.79 315.119 326.79 316.188C325.801 317.244 324.557 318.068 323.057 318.659C321.568 319.239 319.869 319.528 317.96 319.528ZM354.467 299.21L349.848 300.028C349.655 299.437 349.348 298.875 348.928 298.341C348.518 297.807 347.962 297.369 347.257 297.028C346.553 296.687 345.672 296.517 344.615 296.517C343.172 296.517 341.967 296.841 341.001 297.489C340.036 298.125 339.553 298.949 339.553 299.96C339.553 300.835 339.876 301.54 340.524 302.074C341.172 302.608 342.217 303.045 343.661 303.386L347.82 304.341C350.229 304.898 352.024 305.756 353.206 306.915C354.388 308.074 354.979 309.58 354.979 311.432C354.979 313 354.524 314.398 353.615 315.625C352.717 316.841 351.462 317.795 349.848 318.489C348.246 319.182 346.388 319.528 344.274 319.528C341.342 319.528 338.95 318.903 337.098 317.653C335.246 316.392 334.109 314.602 333.689 312.284L338.615 311.534C338.922 312.818 339.553 313.79 340.507 314.449C341.462 315.097 342.706 315.42 344.24 315.42C345.911 315.42 347.246 315.074 348.246 314.381C349.246 313.676 349.746 312.818 349.746 311.807C349.746 310.989 349.439 310.301 348.825 309.744C348.223 309.187 347.297 308.767 346.047 308.483L341.615 307.511C339.172 306.955 337.365 306.068 336.195 304.852C335.036 303.636 334.456 302.097 334.456 300.233C334.456 298.687 334.888 297.335 335.751 296.176C336.615 295.017 337.808 294.114 339.331 293.466C340.854 292.807 342.598 292.477 344.564 292.477C347.393 292.477 349.621 293.091 351.246 294.318C352.871 295.534 353.945 297.165 354.467 299.21ZM380.202 299.21L375.582 300.028C375.389 299.437 375.082 298.875 374.662 298.341C374.253 297.807 373.696 297.369 372.991 297.028C372.287 296.687 371.406 296.517 370.349 296.517C368.906 296.517 367.702 296.841 366.736 297.489C365.77 298.125 365.287 298.949 365.287 299.96C365.287 300.835 365.611 301.54 366.259 302.074C366.906 302.608 367.952 303.045 369.395 303.386L373.554 304.341C375.963 304.898 377.759 305.756 378.94 306.915C380.122 308.074 380.713 309.58 380.713 311.432C380.713 313 380.259 314.398 379.349 315.625C378.452 316.841 377.196 317.795 375.582 318.489C373.98 319.182 372.122 319.528 370.009 319.528C367.077 319.528 364.685 318.903 362.832 317.653C360.98 316.392 359.844 314.602 359.423 312.284L364.349 311.534C364.656 312.818 365.287 313.79 366.241 314.449C367.196 315.097 368.44 315.42 369.974 315.42C371.645 315.42 372.98 315.074 373.98 314.381C374.98 313.676 375.48 312.818 375.48 311.807C375.48 310.989 375.173 310.301 374.56 309.744C373.957 309.187 373.031 308.767 371.781 308.483L367.349 307.511C364.906 306.955 363.099 306.068 361.929 304.852C360.77 303.636 360.19 302.097 360.19 300.233C360.19 298.687 360.622 297.335 361.486 296.176C362.349 295.017 363.543 294.114 365.065 293.466C366.588 292.807 368.332 292.477 370.298 292.477C373.128 292.477 375.355 293.091 376.98 294.318C378.605 295.534 379.679 297.165 380.202 299.21Z" fill="#1F2227"/>
<path d="M110.142 352.545H112.784V364.026C112.784 365.247 112.497 366.33 111.923 367.273C111.349 368.21 110.543 368.949 109.503 369.489C108.463 370.023 107.244 370.29 105.847 370.29C104.455 370.29 103.239 370.023 102.199 369.489C101.159 368.949 100.352 368.21 99.7784 367.273C99.2045 366.33 98.9176 365.247 98.9176 364.026V352.545H101.551V363.812C101.551 364.602 101.724 365.304 102.071 365.918C102.423 366.531 102.92 367.014 103.562 367.366C104.205 367.713 104.966 367.886 105.847 367.886C106.733 367.886 107.497 367.713 108.139 367.366C108.787 367.014 109.281 366.531 109.622 365.918C109.969 365.304 110.142 364.602 110.142 363.812V352.545ZM116.408 374.909V356.909H118.897V359.031H119.11C119.258 358.759 119.471 358.443 119.749 358.085C120.028 357.727 120.414 357.415 120.908 357.148C121.403 356.875 122.056 356.739 122.869 356.739C123.925 356.739 124.869 357.006 125.698 357.54C126.528 358.074 127.178 358.844 127.65 359.849C128.127 360.855 128.366 362.065 128.366 363.48C128.366 364.895 128.13 366.108 127.658 367.119C127.187 368.125 126.539 368.901 125.715 369.446C124.891 369.986 123.951 370.256 122.894 370.256C122.099 370.256 121.448 370.122 120.942 369.855C120.442 369.588 120.05 369.276 119.766 368.918C119.482 368.56 119.263 368.241 119.11 367.963H118.957V374.909H116.408ZM118.906 363.455C118.906 364.375 119.039 365.182 119.306 365.875C119.573 366.568 119.96 367.111 120.465 367.503C120.971 367.889 121.59 368.082 122.323 368.082C123.085 368.082 123.721 367.881 124.232 367.477C124.744 367.068 125.13 366.514 125.391 365.815C125.658 365.116 125.792 364.33 125.792 363.455C125.792 362.591 125.661 361.815 125.4 361.128C125.144 360.44 124.758 359.898 124.241 359.5C123.729 359.102 123.09 358.903 122.323 358.903C121.585 358.903 120.96 359.094 120.448 359.474C119.942 359.855 119.559 360.386 119.298 361.068C119.036 361.75 118.906 362.545 118.906 363.455ZM136.121 370.256C135.065 370.256 134.121 369.986 133.292 369.446C132.468 368.901 131.82 368.125 131.349 367.119C130.883 366.108 130.65 364.895 130.65 363.48C130.65 362.065 130.886 360.855 131.357 359.849C131.835 358.844 132.488 358.074 133.317 357.54C134.147 357.006 135.087 356.739 136.138 356.739C136.951 356.739 137.604 356.875 138.099 357.148C138.599 357.415 138.985 357.727 139.258 358.085C139.536 358.443 139.752 358.759 139.906 359.031H140.059V352.545H142.607V370H140.119V367.963H139.906C139.752 368.241 139.531 368.56 139.241 368.918C138.957 369.276 138.565 369.588 138.065 369.855C137.565 370.122 136.917 370.256 136.121 370.256ZM136.684 368.082C137.417 368.082 138.036 367.889 138.542 367.503C139.053 367.111 139.44 366.568 139.701 365.875C139.968 365.182 140.102 364.375 140.102 363.455C140.102 362.545 139.971 361.75 139.71 361.068C139.448 360.386 139.065 359.855 138.559 359.474C138.053 359.094 137.428 358.903 136.684 358.903C135.917 358.903 135.278 359.102 134.766 359.5C134.255 359.898 133.869 360.44 133.607 361.128C133.352 361.815 133.224 362.591 133.224 363.455C133.224 364.33 133.354 365.116 133.616 365.815C133.877 366.514 134.263 367.068 134.775 367.477C135.292 367.881 135.928 368.082 136.684 368.082ZM150.054 370.29C149.224 370.29 148.474 370.136 147.804 369.83C147.134 369.517 146.602 369.065 146.21 368.474C145.824 367.884 145.631 367.159 145.631 366.301C145.631 365.562 145.773 364.955 146.057 364.477C146.341 364 146.724 363.622 147.207 363.344C147.69 363.065 148.23 362.855 148.827 362.713C149.423 362.571 150.031 362.463 150.651 362.389C151.435 362.298 152.071 362.224 152.56 362.168C153.048 362.105 153.403 362.006 153.625 361.869C153.847 361.733 153.957 361.511 153.957 361.205V361.145C153.957 360.401 153.747 359.824 153.327 359.415C152.912 359.006 152.293 358.801 151.469 358.801C150.611 358.801 149.935 358.991 149.44 359.372C148.952 359.747 148.614 360.165 148.426 360.625L146.031 360.08C146.315 359.284 146.73 358.642 147.276 358.153C147.827 357.659 148.46 357.301 149.176 357.08C149.892 356.852 150.645 356.739 151.435 356.739C151.957 356.739 152.511 356.801 153.097 356.926C153.688 357.045 154.239 357.267 154.75 357.591C155.267 357.915 155.69 358.378 156.02 358.98C156.349 359.577 156.514 360.352 156.514 361.307V370H154.026V368.21H153.923C153.759 368.54 153.511 368.864 153.182 369.182C152.852 369.5 152.429 369.764 151.912 369.974C151.395 370.185 150.776 370.29 150.054 370.29ZM150.608 368.244C151.313 368.244 151.915 368.105 152.415 367.827C152.92 367.548 153.304 367.185 153.565 366.736C153.832 366.281 153.966 365.795 153.966 365.278V363.591C153.875 363.682 153.699 363.767 153.438 363.847C153.182 363.92 152.889 363.986 152.56 364.043C152.23 364.094 151.909 364.142 151.597 364.188C151.284 364.227 151.023 364.261 150.812 364.29C150.318 364.352 149.866 364.457 149.457 364.605C149.054 364.753 148.73 364.966 148.486 365.244C148.247 365.517 148.128 365.881 148.128 366.335C148.128 366.966 148.361 367.443 148.827 367.767C149.293 368.085 149.886 368.244 150.608 368.244ZM166.019 356.909V358.955H158.869V356.909H166.019ZM160.786 353.773H163.335V366.156C163.335 366.651 163.408 367.023 163.556 367.273C163.704 367.517 163.894 367.685 164.127 367.776C164.366 367.861 164.624 367.903 164.903 367.903C165.107 367.903 165.286 367.889 165.44 367.861C165.593 367.832 165.712 367.81 165.798 367.793L166.258 369.898C166.11 369.955 165.9 370.011 165.627 370.068C165.354 370.131 165.013 370.165 164.604 370.17C163.934 370.182 163.309 370.062 162.729 369.812C162.15 369.562 161.681 369.176 161.323 368.653C160.965 368.131 160.786 367.474 160.786 366.685V353.773ZM174.339 370.264C173.05 370.264 171.939 369.989 171.007 369.438C170.081 368.881 169.365 368.099 168.859 367.094C168.359 366.082 168.109 364.898 168.109 363.54C168.109 362.199 168.359 361.017 168.859 359.994C169.365 358.972 170.07 358.173 170.973 357.599C171.882 357.026 172.945 356.739 174.161 356.739C174.899 356.739 175.615 356.861 176.308 357.105C177.001 357.349 177.624 357.733 178.175 358.256C178.726 358.778 179.161 359.457 179.479 360.293C179.797 361.122 179.956 362.131 179.956 363.318V364.222H169.55V362.312H177.459C177.459 361.642 177.322 361.048 177.05 360.531C176.777 360.009 176.393 359.597 175.899 359.295C175.411 358.994 174.837 358.844 174.178 358.844C173.462 358.844 172.837 359.02 172.303 359.372C171.774 359.719 171.365 360.173 171.075 360.736C170.791 361.293 170.649 361.898 170.649 362.551V364.043C170.649 364.918 170.803 365.662 171.109 366.276C171.422 366.889 171.857 367.358 172.413 367.682C172.97 368 173.621 368.159 174.365 368.159C174.848 368.159 175.288 368.091 175.686 367.955C176.084 367.812 176.428 367.602 176.717 367.324C177.007 367.045 177.229 366.702 177.382 366.293L179.794 366.727C179.601 367.437 179.254 368.06 178.754 368.594C178.26 369.122 177.638 369.534 176.888 369.83C176.143 370.119 175.294 370.264 174.339 370.264ZM195.246 356.909V358.955H188.095V356.909H195.246ZM190.013 353.773H192.561V366.156C192.561 366.651 192.635 367.023 192.783 367.273C192.93 367.517 193.121 367.685 193.354 367.776C193.592 367.861 193.851 367.903 194.129 367.903C194.334 367.903 194.513 367.889 194.666 367.861C194.82 367.832 194.939 367.81 195.024 367.793L195.484 369.898C195.337 369.955 195.126 370.011 194.854 370.068C194.581 370.131 194.24 370.165 193.831 370.17C193.161 370.182 192.536 370.062 191.956 369.812C191.376 369.562 190.908 369.176 190.55 368.653C190.192 368.131 190.013 367.474 190.013 366.685V353.773ZM200.894 362.227V370H198.346V352.545H200.86V359.04H201.022C201.329 358.335 201.798 357.776 202.428 357.361C203.059 356.946 203.883 356.739 204.9 356.739C205.798 356.739 206.582 356.923 207.252 357.293C207.928 357.662 208.451 358.213 208.82 358.946C209.195 359.673 209.383 360.582 209.383 361.673V370H206.835V361.98C206.835 361.02 206.587 360.276 206.093 359.747C205.599 359.213 204.911 358.946 204.031 358.946C203.428 358.946 202.888 359.074 202.411 359.33C201.94 359.585 201.567 359.96 201.295 360.455C201.028 360.943 200.894 361.534 200.894 362.227ZM218.425 370.264C217.136 370.264 216.025 369.989 215.093 369.438C214.167 368.881 213.451 368.099 212.945 367.094C212.445 366.082 212.195 364.898 212.195 363.54C212.195 362.199 212.445 361.017 212.945 359.994C213.451 358.972 214.156 358.173 215.059 357.599C215.968 357.026 217.031 356.739 218.246 356.739C218.985 356.739 219.701 356.861 220.394 357.105C221.087 357.349 221.71 357.733 222.261 358.256C222.812 358.778 223.246 359.457 223.565 360.293C223.883 361.122 224.042 362.131 224.042 363.318V364.222H213.636V362.312H221.545C221.545 361.642 221.408 361.048 221.136 360.531C220.863 360.009 220.479 359.597 219.985 359.295C219.496 358.994 218.923 358.844 218.263 358.844C217.548 358.844 216.923 359.02 216.388 359.372C215.86 359.719 215.451 360.173 215.161 360.736C214.877 361.293 214.735 361.898 214.735 362.551V364.043C214.735 364.918 214.888 365.662 215.195 366.276C215.508 366.889 215.942 367.358 216.499 367.682C217.056 368 217.707 368.159 218.451 368.159C218.934 368.159 219.374 368.091 219.772 367.955C220.17 367.812 220.513 367.602 220.803 367.324C221.093 367.045 221.315 366.702 221.468 366.293L223.88 366.727C223.687 367.437 223.34 368.06 222.84 368.594C222.346 369.122 221.724 369.534 220.974 369.83C220.229 370.119 219.38 370.264 218.425 370.264ZM235.769 352.545V370H233.221V352.545H235.769ZM243.007 370.29C242.178 370.29 241.428 370.136 240.757 369.83C240.087 369.517 239.555 369.065 239.163 368.474C238.777 367.884 238.584 367.159 238.584 366.301C238.584 365.562 238.726 364.955 239.01 364.477C239.294 364 239.678 363.622 240.161 363.344C240.643 363.065 241.183 362.855 241.78 362.713C242.376 362.571 242.984 362.463 243.604 362.389C244.388 362.298 245.024 362.224 245.513 362.168C246.001 362.105 246.357 362.006 246.578 361.869C246.8 361.733 246.911 361.511 246.911 361.205V361.145C246.911 360.401 246.7 359.824 246.28 359.415C245.865 359.006 245.246 358.801 244.422 358.801C243.564 358.801 242.888 358.991 242.393 359.372C241.905 359.747 241.567 360.165 241.379 360.625L238.984 360.08C239.268 359.284 239.683 358.642 240.229 358.153C240.78 357.659 241.413 357.301 242.129 357.08C242.845 356.852 243.598 356.739 244.388 356.739C244.911 356.739 245.464 356.801 246.05 356.926C246.641 357.045 247.192 357.267 247.703 357.591C248.22 357.915 248.643 358.378 248.973 358.98C249.303 359.577 249.467 360.352 249.467 361.307V370H246.979V368.21H246.876C246.712 368.54 246.464 368.864 246.135 369.182C245.805 369.5 245.382 369.764 244.865 369.974C244.348 370.185 243.729 370.29 243.007 370.29ZM243.561 368.244C244.266 368.244 244.868 368.105 245.368 367.827C245.874 367.548 246.257 367.185 246.518 366.736C246.786 366.281 246.919 365.795 246.919 365.278V363.591C246.828 363.682 246.652 363.767 246.391 363.847C246.135 363.92 245.842 363.986 245.513 364.043C245.183 364.094 244.862 364.142 244.55 364.188C244.237 364.227 243.976 364.261 243.766 364.29C243.271 364.352 242.82 364.457 242.411 364.605C242.007 364.753 241.683 364.966 241.439 365.244C241.2 365.517 241.081 365.881 241.081 366.335C241.081 366.966 241.314 367.443 241.78 367.767C242.246 368.085 242.839 368.244 243.561 368.244ZM261.154 364.571V356.909H263.711V370H261.205V367.733H261.069C260.768 368.432 260.285 369.014 259.62 369.48C258.961 369.94 258.14 370.17 257.157 370.17C256.316 370.17 255.572 369.986 254.924 369.616C254.282 369.241 253.776 368.688 253.407 367.955C253.043 367.222 252.862 366.315 252.862 365.236V356.909H255.41V364.929C255.41 365.821 255.657 366.531 256.151 367.06C256.646 367.588 257.288 367.852 258.077 367.852C258.555 367.852 259.029 367.733 259.501 367.494C259.978 367.256 260.373 366.895 260.685 366.412C261.004 365.929 261.16 365.315 261.154 364.571ZM269.683 362.227V370H267.135V356.909H269.581V359.04H269.743C270.044 358.347 270.516 357.79 271.158 357.369C271.805 356.949 272.621 356.739 273.604 356.739C274.496 356.739 275.277 356.926 275.947 357.301C276.618 357.67 277.138 358.222 277.507 358.955C277.876 359.687 278.061 360.594 278.061 361.673V370H275.513V361.98C275.513 361.031 275.266 360.29 274.771 359.756C274.277 359.216 273.598 358.946 272.734 358.946C272.143 358.946 271.618 359.074 271.158 359.33C270.703 359.585 270.342 359.96 270.075 360.455C269.814 360.943 269.683 361.534 269.683 362.227ZM286.379 370.256C285.322 370.256 284.379 369.986 283.55 369.446C282.726 368.901 282.078 368.125 281.607 367.119C281.141 366.108 280.908 364.895 280.908 363.48C280.908 362.065 281.143 360.855 281.615 359.849C282.092 358.844 282.746 358.074 283.575 357.54C284.405 357.006 285.345 356.739 286.396 356.739C287.209 356.739 287.862 356.875 288.357 357.148C288.857 357.415 289.243 357.727 289.516 358.085C289.794 358.443 290.01 358.759 290.163 359.031H290.317V352.545H292.865V370H290.376V367.963H290.163C290.01 368.241 289.788 368.56 289.499 368.918C289.214 369.276 288.822 369.588 288.322 369.855C287.822 370.122 287.175 370.256 286.379 370.256ZM286.942 368.082C287.675 368.082 288.294 367.889 288.8 367.503C289.311 367.111 289.697 366.568 289.959 365.875C290.226 365.182 290.359 364.375 290.359 363.455C290.359 362.545 290.229 361.75 289.967 361.068C289.706 360.386 289.322 359.855 288.817 359.474C288.311 359.094 287.686 358.903 286.942 358.903C286.175 358.903 285.536 359.102 285.024 359.5C284.513 359.898 284.126 360.44 283.865 361.128C283.609 361.815 283.482 362.591 283.482 363.455C283.482 364.33 283.612 365.116 283.874 365.815C284.135 366.514 284.521 367.068 285.033 367.477C285.55 367.881 286.186 368.082 286.942 368.082ZM296.502 370V356.909H298.965V358.989H299.102C299.34 358.284 299.761 357.73 300.363 357.327C300.971 356.918 301.658 356.713 302.425 356.713C302.585 356.713 302.772 356.719 302.988 356.73C303.21 356.741 303.383 356.756 303.508 356.773V359.21C303.406 359.182 303.224 359.151 302.962 359.116C302.701 359.077 302.44 359.057 302.178 359.057C301.576 359.057 301.039 359.185 300.567 359.44C300.102 359.69 299.732 360.04 299.46 360.489C299.187 360.932 299.05 361.437 299.05 362.006V370H296.502ZM307.722 374.909C307.342 374.909 306.995 374.878 306.683 374.815C306.37 374.759 306.137 374.696 305.984 374.628L306.597 372.54C307.063 372.665 307.478 372.719 307.842 372.702C308.205 372.685 308.526 372.548 308.805 372.293C309.089 372.037 309.339 371.619 309.555 371.04L309.87 370.17L305.08 356.909H307.808L311.123 367.068H311.259L314.575 356.909H317.31L311.915 371.747C311.665 372.429 311.347 373.006 310.961 373.477C310.575 373.955 310.114 374.313 309.58 374.551C309.046 374.79 308.427 374.909 307.722 374.909ZM328.605 352.545V370H326.057V352.545H328.605ZM337.548 370.264C336.32 370.264 335.249 369.983 334.335 369.42C333.42 368.858 332.71 368.071 332.204 367.06C331.698 366.048 331.445 364.866 331.445 363.514C331.445 362.156 331.698 360.969 332.204 359.952C332.71 358.935 333.42 358.145 334.335 357.582C335.249 357.02 336.32 356.739 337.548 356.739C338.775 356.739 339.846 357.02 340.761 357.582C341.675 358.145 342.386 358.935 342.891 359.952C343.397 360.969 343.65 362.156 343.65 363.514C343.65 364.866 343.397 366.048 342.891 367.06C342.386 368.071 341.675 368.858 340.761 369.42C339.846 369.983 338.775 370.264 337.548 370.264ZM337.556 368.125C338.352 368.125 339.011 367.915 339.533 367.494C340.056 367.074 340.442 366.514 340.692 365.815C340.948 365.116 341.076 364.347 341.076 363.506C341.076 362.67 340.948 361.903 340.692 361.205C340.442 360.5 340.056 359.935 339.533 359.509C339.011 359.082 338.352 358.869 337.556 358.869C336.755 358.869 336.09 359.082 335.562 359.509C335.039 359.935 334.65 360.5 334.394 361.205C334.144 361.903 334.019 362.67 334.019 363.506C334.019 364.347 334.144 365.116 334.394 365.815C334.65 366.514 335.039 367.074 335.562 367.494C336.09 367.915 336.755 368.125 337.556 368.125ZM352.009 370.264C350.741 370.264 349.651 369.977 348.736 369.403C347.827 368.824 347.128 368.026 346.639 367.009C346.151 365.991 345.906 364.827 345.906 363.514C345.906 362.185 346.156 361.011 346.656 359.994C347.156 358.972 347.861 358.173 348.77 357.599C349.679 357.026 350.75 356.739 351.983 356.739C352.977 356.739 353.864 356.923 354.642 357.293C355.42 357.656 356.048 358.168 356.526 358.827C357.009 359.486 357.295 360.256 357.386 361.136H354.906C354.77 360.523 354.457 359.994 353.969 359.551C353.486 359.108 352.838 358.886 352.026 358.886C351.315 358.886 350.693 359.074 350.159 359.449C349.631 359.818 349.219 360.347 348.923 361.034C348.628 361.716 348.48 362.523 348.48 363.455C348.48 364.409 348.625 365.233 348.915 365.926C349.205 366.619 349.614 367.156 350.142 367.537C350.676 367.918 351.304 368.108 352.026 368.108C352.509 368.108 352.946 368.02 353.338 367.844C353.736 367.662 354.068 367.403 354.335 367.068C354.608 366.733 354.798 366.33 354.906 365.858H357.386C357.295 366.705 357.02 367.46 356.56 368.125C356.099 368.79 355.483 369.312 354.71 369.693C353.943 370.074 353.043 370.264 352.009 370.264ZM363.921 370.29C363.092 370.29 362.342 370.136 361.671 369.83C361.001 369.517 360.469 369.065 360.077 368.474C359.691 367.884 359.498 367.159 359.498 366.301C359.498 365.562 359.64 364.955 359.924 364.477C360.208 364 360.592 363.622 361.075 363.344C361.558 363.065 362.097 362.855 362.694 362.713C363.29 362.571 363.898 362.463 364.518 362.389C365.302 362.298 365.938 362.224 366.427 362.168C366.915 362.105 367.271 362.006 367.492 361.869C367.714 361.733 367.825 361.511 367.825 361.205V361.145C367.825 360.401 367.614 359.824 367.194 359.415C366.779 359.006 366.16 358.801 365.336 358.801C364.478 358.801 363.802 358.991 363.308 359.372C362.819 359.747 362.481 360.165 362.293 360.625L359.898 360.08C360.183 359.284 360.597 358.642 361.143 358.153C361.694 357.659 362.327 357.301 363.043 357.08C363.759 356.852 364.512 356.739 365.302 356.739C365.825 356.739 366.379 356.801 366.964 356.926C367.555 357.045 368.106 357.267 368.617 357.591C369.134 357.915 369.558 358.378 369.887 358.98C370.217 359.577 370.381 360.352 370.381 361.307V370H367.893V368.21H367.79C367.626 368.54 367.379 368.864 367.049 369.182C366.719 369.5 366.296 369.764 365.779 369.974C365.262 370.185 364.643 370.29 363.921 370.29ZM364.475 368.244C365.18 368.244 365.782 368.105 366.282 367.827C366.788 367.548 367.171 367.185 367.433 366.736C367.7 366.281 367.833 365.795 367.833 365.278V363.591C367.742 363.682 367.566 363.767 367.305 363.847C367.049 363.92 366.756 363.986 366.427 364.043C366.097 364.094 365.776 364.142 365.464 364.188C365.151 364.227 364.89 364.261 364.68 364.29C364.185 364.352 363.734 364.457 363.325 364.605C362.921 364.753 362.597 364.966 362.353 365.244C362.114 365.517 361.995 365.881 361.995 366.335C361.995 366.966 362.228 367.443 362.694 367.767C363.16 368.085 363.754 368.244 364.475 368.244ZM379.886 356.909V358.955H372.736V356.909H379.886ZM374.653 353.773H377.202V366.156C377.202 366.651 377.276 367.023 377.423 367.273C377.571 367.517 377.761 367.685 377.994 367.776C378.233 367.861 378.491 367.903 378.77 367.903C378.974 367.903 379.153 367.889 379.307 367.861C379.46 367.832 379.58 367.81 379.665 367.793L380.125 369.898C379.977 369.955 379.767 370.011 379.494 370.068C379.222 370.131 378.881 370.165 378.472 370.17C377.801 370.182 377.176 370.062 376.597 369.812C376.017 369.562 375.548 369.176 375.19 368.653C374.832 368.131 374.653 367.474 374.653 366.685V353.773ZM382.705 370V356.909H385.254V370H382.705ZM383.992 354.889C383.549 354.889 383.168 354.741 382.85 354.446C382.538 354.145 382.381 353.787 382.381 353.372C382.381 352.952 382.538 352.594 382.85 352.298C383.168 351.997 383.549 351.847 383.992 351.847C384.435 351.847 384.813 351.997 385.126 352.298C385.444 352.594 385.603 352.952 385.603 353.372C385.603 353.787 385.444 354.145 385.126 354.446C384.813 354.741 384.435 354.889 383.992 354.889ZM394.196 370.264C392.969 370.264 391.898 369.983 390.983 369.42C390.068 368.858 389.358 368.071 388.852 367.06C388.347 366.048 388.094 364.866 388.094 363.514C388.094 362.156 388.347 360.969 388.852 359.952C389.358 358.935 390.068 358.145 390.983 357.582C391.898 357.02 392.969 356.739 394.196 356.739C395.423 356.739 396.494 357.02 397.409 357.582C398.324 358.145 399.034 358.935 399.54 359.952C400.045 360.969 400.298 362.156 400.298 363.514C400.298 364.866 400.045 366.048 399.54 367.06C399.034 368.071 398.324 368.858 397.409 369.42C396.494 369.983 395.423 370.264 394.196 370.264ZM394.205 368.125C395 368.125 395.659 367.915 396.182 367.494C396.705 367.074 397.091 366.514 397.341 365.815C397.597 365.116 397.724 364.347 397.724 363.506C397.724 362.67 397.597 361.903 397.341 361.205C397.091 360.5 396.705 359.935 396.182 359.509C395.659 359.082 395 358.869 394.205 358.869C393.403 358.869 392.739 359.082 392.21 359.509C391.688 359.935 391.298 360.5 391.043 361.205C390.793 361.903 390.668 362.67 390.668 363.506C390.668 364.347 390.793 365.116 391.043 365.815C391.298 366.514 391.688 367.074 392.21 367.494C392.739 367.915 393.403 368.125 394.205 368.125ZM405.691 362.227V370H403.143V356.909H405.589V359.04H405.751C406.052 358.347 406.523 357.79 407.165 357.369C407.813 356.949 408.629 356.739 409.612 356.739C410.504 356.739 411.285 356.926 411.955 357.301C412.626 357.67 413.146 358.222 413.515 358.955C413.884 359.687 414.069 360.594 414.069 361.673V370H411.521V361.98C411.521 361.031 411.273 360.29 410.779 359.756C410.285 359.216 409.606 358.946 408.742 358.946C408.151 358.946 407.626 359.074 407.165 359.33C406.711 359.585 406.35 359.96 406.083 360.455C405.822 360.943 405.691 361.534 405.691 362.227ZM104.943 391.909V393.955H97.5455V391.909H104.943ZM99.5739 405V390.392C99.5739 389.574 99.7528 388.895 100.111 388.355C100.469 387.81 100.943 387.403 101.534 387.136C102.125 386.864 102.767 386.727 103.46 386.727C103.972 386.727 104.409 386.77 104.773 386.855C105.136 386.935 105.406 387.009 105.582 387.077L104.986 389.139C104.866 389.105 104.713 389.065 104.526 389.02C104.338 388.969 104.111 388.943 103.844 388.943C103.224 388.943 102.781 389.097 102.514 389.403C102.253 389.71 102.122 390.153 102.122 390.733V405H99.5739ZM112.571 405.264C111.344 405.264 110.273 404.983 109.358 404.42C108.443 403.858 107.733 403.071 107.227 402.06C106.722 401.048 106.469 399.866 106.469 398.514C106.469 397.156 106.722 395.969 107.227 394.952C107.733 393.935 108.443 393.145 109.358 392.582C110.273 392.02 111.344 391.739 112.571 391.739C113.798 391.739 114.869 392.02 115.784 392.582C116.699 393.145 117.409 393.935 117.915 394.952C118.42 395.969 118.673 397.156 118.673 398.514C118.673 399.866 118.42 401.048 117.915 402.06C117.409 403.071 116.699 403.858 115.784 404.42C114.869 404.983 113.798 405.264 112.571 405.264ZM112.58 403.125C113.375 403.125 114.034 402.915 114.557 402.494C115.08 402.074 115.466 401.514 115.716 400.815C115.972 400.116 116.099 399.347 116.099 398.506C116.099 397.67 115.972 396.903 115.716 396.205C115.466 395.5 115.08 394.935 114.557 394.509C114.034 394.082 113.375 393.869 112.58 393.869C111.778 393.869 111.114 394.082 110.585 394.509C110.063 394.935 109.673 395.5 109.418 396.205C109.168 396.903 109.043 397.67 109.043 398.506C109.043 399.347 109.168 400.116 109.418 400.815C109.673 401.514 110.063 402.074 110.585 402.494C111.114 402.915 111.778 403.125 112.58 403.125ZM121.518 405V391.909H123.981V393.989H124.117C124.356 393.284 124.776 392.73 125.379 392.327C125.987 391.918 126.674 391.713 127.441 391.713C127.6 391.713 127.788 391.719 128.004 391.73C128.225 391.741 128.398 391.756 128.523 391.773V394.21C128.421 394.182 128.239 394.151 127.978 394.116C127.717 394.077 127.455 394.057 127.194 394.057C126.592 394.057 126.055 394.185 125.583 394.44C125.117 394.69 124.748 395.04 124.475 395.489C124.202 395.932 124.066 396.437 124.066 397.006V405H121.518ZM142.722 405.264C141.433 405.264 140.322 404.989 139.39 404.438C138.464 403.881 137.748 403.099 137.242 402.094C136.742 401.082 136.492 399.898 136.492 398.54C136.492 397.199 136.742 396.017 137.242 394.994C137.748 393.972 138.452 393.173 139.356 392.599C140.265 392.026 141.327 391.739 142.543 391.739C143.282 391.739 143.998 391.861 144.691 392.105C145.384 392.349 146.006 392.733 146.558 393.256C147.109 393.778 147.543 394.457 147.862 395.293C148.18 396.122 148.339 397.131 148.339 398.318V399.222H137.933V397.312H145.842C145.842 396.642 145.705 396.048 145.433 395.531C145.16 395.009 144.776 394.597 144.282 394.295C143.793 393.994 143.219 393.844 142.56 393.844C141.844 393.844 141.219 394.02 140.685 394.372C140.157 394.719 139.748 395.173 139.458 395.736C139.174 396.293 139.032 396.898 139.032 397.551V399.043C139.032 399.918 139.185 400.662 139.492 401.276C139.805 401.889 140.239 402.358 140.796 402.682C141.353 403 142.004 403.159 142.748 403.159C143.231 403.159 143.671 403.091 144.069 402.955C144.467 402.812 144.81 402.602 145.1 402.324C145.39 402.045 145.612 401.702 145.765 401.293L148.177 401.727C147.984 402.437 147.637 403.06 147.137 403.594C146.643 404.122 146.021 404.534 145.271 404.83C144.526 405.119 143.677 405.264 142.722 405.264ZM154.976 405.29C154.146 405.29 153.396 405.136 152.726 404.83C152.055 404.517 151.524 404.065 151.132 403.474C150.746 402.884 150.553 402.159 150.553 401.301C150.553 400.562 150.695 399.955 150.979 399.477C151.263 399 151.646 398.622 152.129 398.344C152.612 398.065 153.152 397.855 153.749 397.713C154.345 397.571 154.953 397.463 155.572 397.389C156.357 397.298 156.993 397.224 157.482 397.168C157.97 397.105 158.325 397.006 158.547 396.869C158.768 396.733 158.879 396.511 158.879 396.205V396.145C158.879 395.401 158.669 394.824 158.249 394.415C157.834 394.006 157.214 393.801 156.391 393.801C155.533 393.801 154.857 393.991 154.362 394.372C153.874 394.747 153.536 395.165 153.348 395.625L150.953 395.08C151.237 394.284 151.652 393.642 152.197 393.153C152.749 392.659 153.382 392.301 154.098 392.08C154.814 391.852 155.567 391.739 156.357 391.739C156.879 391.739 157.433 391.801 158.018 391.926C158.609 392.045 159.161 392.267 159.672 392.591C160.189 392.915 160.612 393.378 160.942 393.98C161.271 394.577 161.436 395.352 161.436 396.307V405H158.947V403.21H158.845C158.68 403.54 158.433 403.864 158.104 404.182C157.774 404.5 157.351 404.764 156.834 404.974C156.317 405.185 155.697 405.29 154.976 405.29ZM155.53 403.244C156.234 403.244 156.837 403.105 157.337 402.827C157.842 402.548 158.226 402.185 158.487 401.736C158.754 401.281 158.888 400.795 158.888 400.278V398.591C158.797 398.682 158.621 398.767 158.359 398.847C158.104 398.92 157.811 398.986 157.482 399.043C157.152 399.094 156.831 399.142 156.518 399.188C156.206 399.227 155.945 399.261 155.734 399.29C155.24 399.352 154.788 399.457 154.379 399.605C153.976 399.753 153.652 399.966 153.408 400.244C153.169 400.517 153.05 400.881 153.05 401.335C153.05 401.966 153.283 402.443 153.749 402.767C154.214 403.085 154.808 403.244 155.53 403.244ZM174.64 395.105L172.33 395.514C172.234 395.219 172.08 394.937 171.87 394.67C171.665 394.403 171.387 394.185 171.035 394.014C170.683 393.844 170.242 393.759 169.714 393.759C168.992 393.759 168.39 393.92 167.907 394.244C167.424 394.562 167.183 394.974 167.183 395.48C167.183 395.918 167.344 396.27 167.668 396.537C167.992 396.804 168.515 397.023 169.237 397.193L171.316 397.67C172.521 397.949 173.418 398.378 174.009 398.957C174.6 399.537 174.896 400.29 174.896 401.216C174.896 402 174.668 402.699 174.214 403.312C173.765 403.92 173.137 404.398 172.33 404.744C171.529 405.091 170.6 405.264 169.543 405.264C168.077 405.264 166.881 404.952 165.955 404.327C165.029 403.696 164.461 402.801 164.251 401.642L166.714 401.267C166.867 401.909 167.183 402.395 167.66 402.724C168.137 403.048 168.759 403.21 169.526 403.21C170.362 403.21 171.029 403.037 171.529 402.69C172.029 402.338 172.279 401.909 172.279 401.403C172.279 400.994 172.126 400.651 171.819 400.372C171.518 400.094 171.055 399.884 170.43 399.741L168.214 399.256C166.992 398.977 166.089 398.534 165.504 397.926C164.924 397.318 164.634 396.548 164.634 395.616C164.634 394.844 164.85 394.168 165.282 393.588C165.714 393.009 166.31 392.557 167.072 392.233C167.833 391.903 168.705 391.739 169.688 391.739C171.103 391.739 172.217 392.045 173.029 392.659C173.842 393.267 174.379 394.082 174.64 395.105ZM179.308 409.909C178.928 409.909 178.581 409.878 178.268 409.815C177.956 409.759 177.723 409.696 177.57 409.628L178.183 407.54C178.649 407.665 179.064 407.719 179.428 407.702C179.791 407.685 180.112 407.548 180.391 407.293C180.675 407.037 180.925 406.619 181.141 406.04L181.456 405.17L176.666 391.909H179.393L182.709 402.068H182.845L186.161 391.909H188.896L183.501 406.747C183.251 407.429 182.933 408.006 182.547 408.477C182.161 408.955 181.7 409.313 181.166 409.551C180.632 409.79 180.013 409.909 179.308 409.909ZM203.157 405.264C201.89 405.264 200.799 404.977 199.884 404.403C198.975 403.824 198.276 403.026 197.788 402.009C197.299 400.991 197.055 399.827 197.055 398.514C197.055 397.185 197.305 396.011 197.805 394.994C198.305 393.972 199.009 393.173 199.918 392.599C200.827 392.026 201.898 391.739 203.131 391.739C204.126 391.739 205.012 391.923 205.79 392.293C206.569 392.656 207.197 393.168 207.674 393.827C208.157 394.486 208.444 395.256 208.535 396.136H206.055C205.918 395.523 205.606 394.994 205.117 394.551C204.634 394.108 203.987 393.886 203.174 393.886C202.464 393.886 201.842 394.074 201.308 394.449C200.779 394.818 200.367 395.347 200.072 396.034C199.776 396.716 199.629 397.523 199.629 398.455C199.629 399.409 199.773 400.233 200.063 400.926C200.353 401.619 200.762 402.156 201.29 402.537C201.825 402.918 202.452 403.108 203.174 403.108C203.657 403.108 204.094 403.02 204.487 402.844C204.884 402.662 205.217 402.403 205.484 402.068C205.756 401.733 205.947 401.33 206.055 400.858H208.535C208.444 401.705 208.168 402.46 207.708 403.125C207.248 403.79 206.631 404.312 205.859 404.693C205.092 405.074 204.191 405.264 203.157 405.264ZM219.553 399.571V391.909H222.109V405H219.604V402.733H219.467C219.166 403.432 218.683 404.014 218.018 404.48C217.359 404.94 216.538 405.17 215.555 405.17C214.714 405.17 213.97 404.986 213.322 404.616C212.68 404.241 212.175 403.688 211.805 402.955C211.442 402.222 211.26 401.315 211.26 400.236V391.909H213.808V399.929C213.808 400.821 214.055 401.531 214.55 402.06C215.044 402.588 215.686 402.852 216.476 402.852C216.953 402.852 217.428 402.733 217.899 402.494C218.376 402.256 218.771 401.895 219.084 401.412C219.402 400.929 219.558 400.315 219.553 399.571ZM235.343 395.105L233.033 395.514C232.937 395.219 232.783 394.937 232.573 394.67C232.369 394.403 232.09 394.185 231.738 394.014C231.386 393.844 230.945 393.759 230.417 393.759C229.695 393.759 229.093 393.92 228.61 394.244C228.127 394.562 227.886 394.974 227.886 395.48C227.886 395.918 228.048 396.27 228.371 396.537C228.695 396.804 229.218 397.023 229.94 397.193L232.019 397.67C233.224 397.949 234.121 398.378 234.712 398.957C235.303 399.537 235.599 400.29 235.599 401.216C235.599 402 235.371 402.699 234.917 403.312C234.468 403.92 233.84 404.398 233.033 404.744C232.232 405.091 231.303 405.264 230.246 405.264C228.781 405.264 227.585 404.952 226.658 404.327C225.732 403.696 225.164 402.801 224.954 401.642L227.417 401.267C227.57 401.909 227.886 402.395 228.363 402.724C228.84 403.048 229.462 403.21 230.229 403.21C231.065 403.21 231.732 403.037 232.232 402.69C232.732 402.338 232.982 401.909 232.982 401.403C232.982 400.994 232.829 400.651 232.522 400.372C232.221 400.094 231.758 399.884 231.133 399.741L228.917 399.256C227.695 398.977 226.792 398.534 226.207 397.926C225.627 397.318 225.337 396.548 225.337 395.616C225.337 394.844 225.553 394.168 225.985 393.588C226.417 393.009 227.013 392.557 227.775 392.233C228.536 391.903 229.408 391.739 230.391 391.739C231.806 391.739 232.92 392.045 233.732 392.659C234.545 393.267 235.082 394.082 235.343 395.105ZM244.511 391.909V393.955H237.361V391.909H244.511ZM239.278 388.773H241.827V401.156C241.827 401.651 241.901 402.023 242.048 402.273C242.196 402.517 242.386 402.685 242.619 402.776C242.858 402.861 243.116 402.903 243.395 402.903C243.599 402.903 243.778 402.889 243.932 402.861C244.085 402.832 244.205 402.81 244.29 402.793L244.75 404.898C244.602 404.955 244.392 405.011 244.119 405.068C243.847 405.131 243.506 405.165 243.097 405.17C242.426 405.182 241.801 405.062 241.222 404.812C240.642 404.562 240.173 404.176 239.815 403.653C239.457 403.131 239.278 402.474 239.278 401.685V388.773ZM252.704 405.264C251.477 405.264 250.406 404.983 249.491 404.42C248.576 403.858 247.866 403.071 247.36 402.06C246.854 401.048 246.602 399.866 246.602 398.514C246.602 397.156 246.854 395.969 247.36 394.952C247.866 393.935 248.576 393.145 249.491 392.582C250.406 392.02 251.477 391.739 252.704 391.739C253.931 391.739 255.002 392.02 255.917 392.582C256.832 393.145 257.542 393.935 258.048 394.952C258.553 395.969 258.806 397.156 258.806 398.514C258.806 399.866 258.553 401.048 258.048 402.06C257.542 403.071 256.832 403.858 255.917 404.42C255.002 404.983 253.931 405.264 252.704 405.264ZM252.712 403.125C253.508 403.125 254.167 402.915 254.69 402.494C255.212 402.074 255.599 401.514 255.849 400.815C256.104 400.116 256.232 399.347 256.232 398.506C256.232 397.67 256.104 396.903 255.849 396.205C255.599 395.5 255.212 394.935 254.69 394.509C254.167 394.082 253.508 393.869 252.712 393.869C251.911 393.869 251.246 394.082 250.718 394.509C250.195 394.935 249.806 395.5 249.55 396.205C249.3 396.903 249.175 397.67 249.175 398.506C249.175 399.347 249.3 400.116 249.55 400.815C249.806 401.514 250.195 402.074 250.718 402.494C251.246 402.915 251.911 403.125 252.712 403.125ZM261.651 405V391.909H264.097V394.04H264.259C264.531 393.318 264.977 392.756 265.597 392.352C266.216 391.943 266.957 391.739 267.821 391.739C268.696 391.739 269.429 391.943 270.02 392.352C270.616 392.761 271.057 393.324 271.341 394.04H271.477C271.79 393.341 272.287 392.784 272.969 392.369C273.651 391.949 274.463 391.739 275.406 391.739C276.594 391.739 277.562 392.111 278.312 392.855C279.068 393.599 279.446 394.722 279.446 396.222V405H276.898V396.46C276.898 395.574 276.656 394.932 276.173 394.534C275.69 394.136 275.114 393.938 274.443 393.938C273.614 393.938 272.969 394.193 272.509 394.705C272.048 395.21 271.818 395.861 271.818 396.656V405H269.278V396.298C269.278 395.588 269.057 395.017 268.614 394.585C268.17 394.153 267.594 393.938 266.884 393.938C266.401 393.938 265.955 394.065 265.545 394.321C265.142 394.571 264.815 394.92 264.565 395.369C264.321 395.818 264.199 396.338 264.199 396.929V405H261.651ZM288.504 405.264C287.214 405.264 286.103 404.989 285.171 404.438C284.245 403.881 283.529 403.099 283.023 402.094C282.523 401.082 282.273 399.898 282.273 398.54C282.273 397.199 282.523 396.017 283.023 394.994C283.529 393.972 284.234 393.173 285.137 392.599C286.046 392.026 287.109 391.739 288.325 391.739C289.063 391.739 289.779 391.861 290.472 392.105C291.165 392.349 291.788 392.733 292.339 393.256C292.89 393.778 293.325 394.457 293.643 395.293C293.961 396.122 294.12 397.131 294.12 398.318V399.222H283.714V397.312H291.623C291.623 396.642 291.487 396.048 291.214 395.531C290.941 395.009 290.558 394.597 290.063 394.295C289.575 393.994 289.001 393.844 288.342 393.844C287.626 393.844 287.001 394.02 286.467 394.372C285.938 394.719 285.529 395.173 285.239 395.736C284.955 396.293 284.813 396.898 284.813 397.551V399.043C284.813 399.918 284.967 400.662 285.273 401.276C285.586 401.889 286.021 402.358 286.577 402.682C287.134 403 287.785 403.159 288.529 403.159C289.012 403.159 289.452 403.091 289.85 402.955C290.248 402.812 290.592 402.602 290.881 402.324C291.171 402.045 291.393 401.702 291.546 401.293L293.958 401.727C293.765 402.437 293.418 403.06 292.918 403.594C292.424 404.122 291.802 404.534 291.052 404.83C290.308 405.119 289.458 405.264 288.504 405.264ZM296.947 405V391.909H299.411V393.989H299.547C299.786 393.284 300.206 392.73 300.808 392.327C301.416 391.918 302.104 391.713 302.871 391.713C303.03 391.713 303.217 391.719 303.433 391.73C303.655 391.741 303.828 391.756 303.953 391.773V394.21C303.851 394.182 303.669 394.151 303.408 394.116C303.146 394.077 302.885 394.057 302.624 394.057C302.021 394.057 301.484 394.185 301.013 394.44C300.547 394.69 300.178 395.04 299.905 395.489C299.632 395.932 299.496 396.437 299.496 397.006V405H296.947ZM316.32 405.29C315.49 405.29 314.74 405.136 314.07 404.83C313.399 404.517 312.868 404.065 312.476 403.474C312.089 402.884 311.896 402.159 311.896 401.301C311.896 400.562 312.038 399.955 312.322 399.477C312.607 399 312.99 398.622 313.473 398.344C313.956 398.065 314.496 397.855 315.092 397.713C315.689 397.571 316.297 397.463 316.916 397.389C317.7 397.298 318.337 397.224 318.825 397.168C319.314 397.105 319.669 397.006 319.891 396.869C320.112 396.733 320.223 396.511 320.223 396.205V396.145C320.223 395.401 320.013 394.824 319.592 394.415C319.178 394.006 318.558 393.801 317.734 393.801C316.876 393.801 316.2 393.991 315.706 394.372C315.217 394.747 314.879 395.165 314.692 395.625L312.297 395.08C312.581 394.284 312.996 393.642 313.541 393.153C314.092 392.659 314.726 392.301 315.442 392.08C316.158 391.852 316.911 391.739 317.7 391.739C318.223 391.739 318.777 391.801 319.362 391.926C319.953 392.045 320.504 392.267 321.016 392.591C321.533 392.915 321.956 393.378 322.286 393.98C322.615 394.577 322.78 395.352 322.78 396.307V405H320.291V403.21H320.189C320.024 403.54 319.777 403.864 319.447 404.182C319.118 404.5 318.695 404.764 318.178 404.974C317.661 405.185 317.041 405.29 316.32 405.29ZM316.874 403.244C317.578 403.244 318.18 403.105 318.68 402.827C319.186 402.548 319.57 402.185 319.831 401.736C320.098 401.281 320.232 400.795 320.232 400.278V398.591C320.141 398.682 319.964 398.767 319.703 398.847C319.447 398.92 319.155 398.986 318.825 399.043C318.496 399.094 318.175 399.142 317.862 399.188C317.55 399.227 317.288 399.261 317.078 399.29C316.584 399.352 316.132 399.457 315.723 399.605C315.32 399.753 314.996 399.966 314.751 400.244C314.513 400.517 314.393 400.881 314.393 401.335C314.393 401.966 314.626 402.443 315.092 402.767C315.558 403.085 316.152 403.244 316.874 403.244ZM331.688 405.264C330.421 405.264 329.33 404.977 328.415 404.403C327.506 403.824 326.808 403.026 326.319 402.009C325.83 400.991 325.586 399.827 325.586 398.514C325.586 397.185 325.836 396.011 326.336 394.994C326.836 393.972 327.54 393.173 328.45 392.599C329.359 392.026 330.43 391.739 331.663 391.739C332.657 391.739 333.543 391.923 334.322 392.293C335.1 392.656 335.728 393.168 336.205 393.827C336.688 394.486 336.975 395.256 337.066 396.136H334.586C334.45 395.523 334.137 394.994 333.648 394.551C333.165 394.108 332.518 393.886 331.705 393.886C330.995 393.886 330.373 394.074 329.839 394.449C329.31 394.818 328.898 395.347 328.603 396.034C328.308 396.716 328.16 397.523 328.16 398.455C328.16 399.409 328.305 400.233 328.594 400.926C328.884 401.619 329.293 402.156 329.822 402.537C330.356 402.918 330.984 403.108 331.705 403.108C332.188 403.108 332.626 403.02 333.018 402.844C333.415 402.662 333.748 402.403 334.015 402.068C334.288 401.733 334.478 401.33 334.586 400.858H337.066C336.975 401.705 336.7 402.46 336.239 403.125C335.779 403.79 335.163 404.312 334.39 404.693C333.623 405.074 332.722 405.264 331.688 405.264ZM345.305 405.264C344.038 405.264 342.947 404.977 342.033 404.403C341.124 403.824 340.425 403.026 339.936 402.009C339.447 400.991 339.203 399.827 339.203 398.514C339.203 397.185 339.453 396.011 339.953 394.994C340.453 393.972 341.158 393.173 342.067 392.599C342.976 392.026 344.047 391.739 345.28 391.739C346.274 391.739 347.161 391.923 347.939 392.293C348.717 392.656 349.345 393.168 349.822 393.827C350.305 394.486 350.592 395.256 350.683 396.136H348.203C348.067 395.523 347.754 394.994 347.266 394.551C346.783 394.108 346.135 393.886 345.322 393.886C344.612 393.886 343.99 394.074 343.456 394.449C342.928 394.818 342.516 395.347 342.22 396.034C341.925 396.716 341.777 397.523 341.777 398.455C341.777 399.409 341.922 400.233 342.212 400.926C342.501 401.619 342.911 402.156 343.439 402.537C343.973 402.918 344.601 403.108 345.322 403.108C345.805 403.108 346.243 403.02 346.635 402.844C347.033 402.662 347.365 402.403 347.632 402.068C347.905 401.733 348.095 401.33 348.203 400.858H350.683C350.592 401.705 350.317 402.46 349.857 403.125C349.396 403.79 348.78 404.312 348.007 404.693C347.24 405.074 346.339 405.264 345.305 405.264ZM359.05 405.264C357.761 405.264 356.65 404.989 355.718 404.438C354.792 403.881 354.076 403.099 353.57 402.094C353.07 401.082 352.82 399.898 352.82 398.54C352.82 397.199 353.07 396.017 353.57 394.994C354.076 393.972 354.781 393.173 355.684 392.599C356.593 392.026 357.656 391.739 358.871 391.739C359.61 391.739 360.326 391.861 361.019 392.105C361.712 392.349 362.335 392.733 362.886 393.256C363.437 393.778 363.871 394.457 364.19 395.293C364.508 396.122 364.667 397.131 364.667 398.318V399.222H354.261V397.312H362.17C362.17 396.642 362.033 396.048 361.761 395.531C361.488 395.009 361.104 394.597 360.61 394.295C360.121 393.994 359.548 393.844 358.888 393.844C358.173 393.844 357.548 394.02 357.013 394.372C356.485 394.719 356.076 395.173 355.786 395.736C355.502 396.293 355.36 396.898 355.36 397.551V399.043C355.36 399.918 355.513 400.662 355.82 401.276C356.133 401.889 356.567 402.358 357.124 402.682C357.681 403 358.332 403.159 359.076 403.159C359.559 403.159 359.999 403.091 360.397 402.955C360.795 402.812 361.138 402.602 361.428 402.324C361.718 402.045 361.94 401.702 362.093 401.293L364.505 401.727C364.312 402.437 363.965 403.06 363.465 403.594C362.971 404.122 362.349 404.534 361.599 404.83C360.854 405.119 360.005 405.264 359.05 405.264ZM377.304 395.105L374.994 395.514C374.898 395.219 374.744 394.937 374.534 394.67C374.33 394.403 374.051 394.185 373.699 394.014C373.347 393.844 372.906 393.759 372.378 393.759C371.656 393.759 371.054 393.92 370.571 394.244C370.088 394.562 369.847 394.974 369.847 395.48C369.847 395.918 370.009 396.27 370.332 396.537C370.656 396.804 371.179 397.023 371.901 397.193L373.98 397.67C375.185 397.949 376.082 398.378 376.673 398.957C377.264 399.537 377.56 400.29 377.56 401.216C377.56 402 377.332 402.699 376.878 403.312C376.429 403.92 375.801 404.398 374.994 404.744C374.193 405.091 373.264 405.264 372.207 405.264C370.741 405.264 369.545 404.952 368.619 404.327C367.693 403.696 367.125 402.801 366.915 401.642L369.378 401.267C369.531 401.909 369.847 402.395 370.324 402.724C370.801 403.048 371.423 403.21 372.19 403.21C373.026 403.21 373.693 403.037 374.193 402.69C374.693 402.338 374.943 401.909 374.943 401.403C374.943 400.994 374.79 400.651 374.483 400.372C374.182 400.094 373.719 399.884 373.094 399.741L370.878 399.256C369.656 398.977 368.753 398.534 368.168 397.926C367.588 397.318 367.298 396.548 367.298 395.616C367.298 394.844 367.514 394.168 367.946 393.588C368.378 393.009 368.974 392.557 369.736 392.233C370.497 391.903 371.369 391.739 372.352 391.739C373.767 391.739 374.881 392.045 375.693 392.659C376.506 393.267 377.043 394.082 377.304 395.105ZM390.171 395.105L387.862 395.514C387.765 395.219 387.612 394.937 387.401 394.67C387.197 394.403 386.918 394.185 386.566 394.014C386.214 393.844 385.773 393.759 385.245 393.759C384.523 393.759 383.921 393.92 383.438 394.244C382.955 394.562 382.714 394.974 382.714 395.48C382.714 395.918 382.876 396.27 383.2 396.537C383.523 396.804 384.046 397.023 384.768 397.193L386.847 397.67C388.052 397.949 388.95 398.378 389.54 398.957C390.131 399.537 390.427 400.29 390.427 401.216C390.427 402 390.2 402.699 389.745 403.312C389.296 403.92 388.668 404.398 387.862 404.744C387.06 405.091 386.131 405.264 385.075 405.264C383.609 405.264 382.413 404.952 381.487 404.327C380.56 403.696 379.992 402.801 379.782 401.642L382.245 401.267C382.398 401.909 382.714 402.395 383.191 402.724C383.668 403.048 384.29 403.21 385.058 403.21C385.893 403.21 386.56 403.037 387.06 402.69C387.56 402.338 387.81 401.909 387.81 401.403C387.81 400.994 387.657 400.651 387.35 400.372C387.049 400.094 386.586 399.884 385.961 399.741L383.745 399.256C382.523 398.977 381.62 398.534 381.035 397.926C380.455 397.318 380.165 396.548 380.165 395.616C380.165 394.844 380.381 394.168 380.813 393.588C381.245 393.009 381.842 392.557 382.603 392.233C383.364 391.903 384.237 391.739 385.219 391.739C386.634 391.739 387.748 392.045 388.56 392.659C389.373 393.267 389.91 394.082 390.171 395.105Z" fill="#898B96"/>
<g filter="url(#filter1_d_532_238)">
<path opacity="0.4" d="M255.015 156.241V202.913C255.015 224.418 237.561 241.871 216.056 241.871H147.957C146.165 241.871 144.373 241.715 142.659 241.481C145.542 240.235 148.113 238.52 150.451 236.417C150.762 236.183 150.996 235.949 151.229 235.638C153.333 233.846 155.125 231.586 156.606 229.093C159.489 224.418 161.125 218.885 161.125 213.042C161.125 204.86 157.93 197.459 152.788 191.849C152.009 190.992 151.152 190.134 150.217 189.433C144.762 184.68 137.75 181.875 129.958 181.875C124.426 181.875 119.206 183.356 114.687 185.927C113.206 186.706 111.804 187.641 110.479 188.732C109.934 189.121 109.466 189.589 108.999 190.056V156.786C114.92 163.175 123.336 166.837 132.452 166.837C142.269 166.837 151.697 161.928 157.619 154.059C162.917 161.928 171.955 166.837 182.007 166.837C191.98 166.837 200.862 162.162 206.239 154.37C212.238 162.084 221.51 166.837 231.172 166.837C240.6 166.837 249.171 163.019 255.015 156.241Z" fill="#68839F"/>
<path d="M205.304 77.233H158.554L152.788 134.58C152.32 139.878 153.099 144.865 155.047 149.384C159.566 159.981 170.163 166.837 182.007 166.837C194.006 166.837 204.369 160.136 209.044 149.462C210.446 146.111 211.303 142.216 211.381 138.242V136.761L205.304 77.233Z" fill="#68839F"/>
<path opacity="0.6" d="M262.728 131.931L260.547 110.27C257.274 86.7387 246.599 77.155 223.77 77.155H193.85L199.616 135.592C199.694 136.372 199.772 137.229 199.772 138.709C200.239 142.761 201.486 146.501 203.356 149.851C208.966 160.136 219.874 166.759 231.25 166.759C241.613 166.759 250.963 162.162 256.807 154.059C261.404 147.903 263.507 140.034 262.728 131.931Z" fill="#68839F"/>
<path opacity="0.6" d="M139.854 77.233C116.946 77.233 106.349 86.8165 102.999 110.581L100.896 132.008C100.116 140.345 102.376 148.449 107.285 154.76C113.206 162.474 122.323 166.837 132.452 166.837C143.828 166.837 154.736 160.214 160.268 150.085C162.294 146.579 163.618 142.527 164.008 138.319L170.086 77.311H139.854V77.233Z" fill="#68839F"/>
<path d="M152.788 191.849C152.009 190.991 151.152 190.134 150.217 189.433C144.762 184.68 137.75 181.875 129.958 181.875C124.426 181.875 119.206 183.356 114.687 185.927C113.206 186.706 111.804 187.641 110.479 188.732C103.311 194.42 98.7917 203.224 98.7917 213.042C98.7917 218.885 100.428 224.417 103.311 229.092C104.012 230.339 104.869 231.508 105.804 232.599C105.96 232.833 106.194 232.989 106.349 233.222C111.959 239.923 120.453 244.208 129.958 244.208C137.828 244.208 144.996 241.325 150.451 236.417C150.762 236.183 150.996 235.949 151.23 235.638C153.333 233.846 155.125 231.586 156.606 229.092C159.489 224.417 161.125 218.885 161.125 213.042C161.125 204.86 157.93 197.459 152.788 191.849ZM141.646 218.729H135.802V224.807C135.802 228.002 133.153 230.651 129.958 230.651C126.764 230.651 124.115 228.002 124.115 224.807V218.729H118.271C115.076 218.729 112.427 216.08 112.427 212.886C112.427 209.691 115.076 207.042 118.271 207.042H124.115V201.51C124.115 198.316 126.764 195.666 129.958 195.666C133.153 195.666 135.802 198.316 135.802 201.51V207.042H141.646C144.84 207.042 147.49 209.691 147.49 212.886C147.49 216.08 144.84 218.729 141.646 218.729Z" fill="#68839F"/>
</g>
<defs>
<filter id="filter0_d_532_238" x="0" y="0" width="502" height="502" filterUnits="userSpaceOnUse" color-interpolation-filters="sRGB">
<feFlood flood-opacity="0" result="BackgroundImageFix"/>
<feColorMatrix in="SourceAlpha" type="matrix" values="0 0 0 0 0 0 0 0 0 0 0 0 0 0 0 0 0 0 127 0" result="hardAlpha"/>
<feOffset dy="9"/>
<feGaussianBlur stdDeviation="17"/>
<feColorMatrix type="matrix" values="0 0 0 0 0 0 0 0 0 0 0 0 0 0 0 0 0 0 0.05 0"/>
<feBlend mode="normal" in2="BackgroundImageFix" result="effect1_dropShadow_532_238"/>
<feBlend mode="normal" in="SourceGraphic" in2="effect1_dropShadow_532_238" result="shape"/>
</filter>
<filter id="filter1_d_532_238" x="87" y="65" width="195" height="195" filterUnits="userSpaceOnUse" color-interpolation-filters="sRGB">
<feFlood flood-opacity="0" result="BackgroundImageFix"/>
<feColorMatrix in="SourceAlpha" type="matrix" values="0 0 0 0 0 0 0 0 0 0 0 0 0 0 0 0 0 0 127 0" result="hardAlpha"/>
<feOffset dy="4"/>
<feGaussianBlur stdDeviation="2"/>
<feComposite in2="hardAlpha" operator="out"/>
<feColorMatrix type="matrix" values="0 0 0 0 0 0 0 0 0 0 0 0 0 0 0 0 0 0 0.25 0"/>
<feBlend mode="normal" in2="BackgroundImageFix" result="effect1_dropShadow_532_238"/>
<feBlend mode="normal" in="SourceGraphic" in2="effect1_dropShadow_532_238" result="shape"/>
</filter>
</defs>
</svg>
