<svg width="502" height="502" viewBox="0 0 502 502" fill="none" xmlns="http://www.w3.org/2000/svg">
<g filter="url(#filter0_d_427_479)">
<rect x="34" y="25" width="434" height="434" rx="20" fill="#DFEBF7"/>
</g>
<path d="M90.8352 319V284.091H112.722V288.625H96.1023V299.261H111.58V303.778H96.1023V314.466H112.926V319H90.8352ZM129.149 319.511C127.036 319.511 125.149 318.972 123.49 317.892C121.842 316.801 120.547 315.25 119.604 313.239C118.672 311.216 118.206 308.79 118.206 305.96C118.206 303.131 118.678 300.71 119.621 298.699C120.575 296.687 121.882 295.148 123.541 294.08C125.2 293.011 127.081 292.477 129.183 292.477C130.808 292.477 132.115 292.75 133.104 293.295C134.104 293.83 134.876 294.455 135.422 295.17C135.979 295.886 136.411 296.517 136.717 297.062H137.024V284.091H142.121V319H137.143V314.926H136.717C136.411 315.483 135.967 316.119 135.388 316.835C134.82 317.551 134.036 318.176 133.036 318.71C132.036 319.244 130.74 319.511 129.149 319.511ZM130.274 315.165C131.74 315.165 132.979 314.778 133.99 314.006C135.013 313.222 135.786 312.136 136.308 310.75C136.842 309.364 137.109 307.75 137.109 305.909C137.109 304.091 136.848 302.5 136.325 301.136C135.803 299.773 135.036 298.71 134.024 297.949C133.013 297.187 131.763 296.807 130.274 296.807C128.74 296.807 127.462 297.205 126.439 298C125.416 298.795 124.643 299.881 124.121 301.256C123.609 302.631 123.354 304.182 123.354 305.909C123.354 307.659 123.615 309.233 124.138 310.631C124.661 312.028 125.433 313.136 126.456 313.955C127.49 314.761 128.763 315.165 130.274 315.165ZM149.395 319V292.818H154.491V319H149.395ZM151.969 288.778C151.082 288.778 150.321 288.483 149.685 287.892C149.06 287.29 148.747 286.574 148.747 285.744C148.747 284.903 149.06 284.187 149.685 283.597C150.321 282.994 151.082 282.693 151.969 282.693C152.855 282.693 153.611 282.994 154.236 283.597C154.872 284.187 155.19 284.903 155.19 285.744C155.19 286.574 154.872 287.29 154.236 287.892C153.611 288.483 152.855 288.778 151.969 288.778ZM173.57 292.818V296.909H159.268V292.818H173.57ZM163.104 286.545H168.2V311.312C168.2 312.301 168.348 313.045 168.643 313.545C168.939 314.034 169.32 314.369 169.786 314.551C170.263 314.722 170.78 314.807 171.337 314.807C171.746 314.807 172.104 314.778 172.411 314.722C172.717 314.665 172.956 314.619 173.126 314.585L174.047 318.795C173.751 318.909 173.331 319.023 172.786 319.136C172.24 319.261 171.558 319.33 170.74 319.341C169.399 319.364 168.149 319.125 166.99 318.625C165.831 318.125 164.893 317.352 164.178 316.307C163.462 315.261 163.104 313.949 163.104 312.369V286.545ZM192.32 319V284.091H204.763C207.479 284.091 209.729 284.585 211.513 285.574C213.297 286.562 214.632 287.915 215.518 289.631C216.405 291.335 216.848 293.256 216.848 295.392C216.848 297.54 216.399 299.472 215.501 301.188C214.615 302.892 213.274 304.244 211.479 305.244C209.695 306.233 207.45 306.727 204.746 306.727H196.189V302.261H204.268C205.984 302.261 207.376 301.966 208.445 301.375C209.513 300.773 210.297 299.955 210.797 298.92C211.297 297.886 211.547 296.71 211.547 295.392C211.547 294.074 211.297 292.903 210.797 291.881C210.297 290.858 209.507 290.057 208.428 289.477C207.359 288.898 205.95 288.608 204.2 288.608H197.587V319H192.32ZM222.614 319V292.818H227.54V296.977H227.812C228.29 295.568 229.131 294.46 230.335 293.653C231.551 292.835 232.926 292.426 234.46 292.426C234.778 292.426 235.153 292.437 235.585 292.46C236.028 292.483 236.375 292.511 236.625 292.545V297.42C236.42 297.364 236.057 297.301 235.534 297.233C235.011 297.153 234.489 297.114 233.966 297.114C232.761 297.114 231.688 297.369 230.744 297.881C229.813 298.381 229.074 299.08 228.528 299.977C227.983 300.864 227.71 301.875 227.71 303.011V319H222.614ZM241.036 319V292.818H246.132V319H241.036ZM243.609 288.778C242.723 288.778 241.962 288.483 241.325 287.892C240.7 287.29 240.388 286.574 240.388 285.744C240.388 284.903 240.7 284.187 241.325 283.597C241.962 282.994 242.723 282.693 243.609 282.693C244.496 282.693 245.251 282.994 245.876 283.597C246.513 284.187 246.831 284.903 246.831 285.744C246.831 286.574 246.513 287.29 245.876 287.892C245.251 288.483 244.496 288.778 243.609 288.778ZM264.017 319.528C261.483 319.528 259.301 318.955 257.472 317.807C255.653 316.648 254.256 315.051 253.278 313.017C252.301 310.983 251.812 308.653 251.812 306.028C251.812 303.369 252.312 301.023 253.312 298.989C254.312 296.943 255.722 295.347 257.54 294.199C259.358 293.051 261.5 292.477 263.966 292.477C265.955 292.477 267.727 292.847 269.284 293.585C270.841 294.312 272.097 295.335 273.051 296.653C274.017 297.972 274.591 299.511 274.773 301.273H269.812C269.54 300.045 268.915 298.989 267.938 298.102C266.972 297.216 265.676 296.773 264.051 296.773C262.631 296.773 261.386 297.148 260.318 297.898C259.261 298.636 258.438 299.693 257.847 301.068C257.256 302.432 256.96 304.045 256.96 305.909C256.96 307.818 257.25 309.466 257.83 310.852C258.409 312.239 259.227 313.312 260.284 314.074C261.352 314.835 262.608 315.216 264.051 315.216C265.017 315.216 265.892 315.04 266.676 314.688C267.472 314.324 268.136 313.807 268.67 313.136C269.216 312.466 269.597 311.659 269.812 310.716H274.773C274.591 312.409 274.04 313.92 273.119 315.25C272.199 316.58 270.966 317.625 269.42 318.386C267.886 319.148 266.085 319.528 264.017 319.528ZM291.507 319.528C288.928 319.528 286.706 318.977 284.842 317.875C282.99 316.761 281.558 315.199 280.547 313.188C279.547 311.165 279.047 308.795 279.047 306.08C279.047 303.398 279.547 301.034 280.547 298.989C281.558 296.943 282.967 295.347 284.774 294.199C286.592 293.051 288.717 292.477 291.149 292.477C292.626 292.477 294.058 292.722 295.445 293.21C296.831 293.699 298.075 294.466 299.178 295.511C300.28 296.557 301.149 297.915 301.786 299.585C302.422 301.244 302.74 303.261 302.74 305.636V307.443H281.928V303.625H297.746C297.746 302.284 297.473 301.097 296.928 300.062C296.382 299.017 295.615 298.193 294.626 297.591C293.649 296.989 292.501 296.688 291.183 296.688C289.751 296.688 288.501 297.04 287.433 297.744C286.376 298.437 285.558 299.347 284.979 300.472C284.411 301.585 284.126 302.795 284.126 304.102V307.085C284.126 308.835 284.433 310.324 285.047 311.551C285.672 312.778 286.541 313.716 287.655 314.364C288.768 315 290.07 315.318 291.558 315.318C292.524 315.318 293.405 315.182 294.2 314.909C294.996 314.625 295.683 314.205 296.263 313.648C296.842 313.091 297.286 312.403 297.592 311.585L302.416 312.455C302.03 313.875 301.337 315.119 300.337 316.188C299.348 317.244 298.104 318.068 296.604 318.659C295.115 319.239 293.416 319.528 291.507 319.528Z" fill="#1F2227"/>
<path d="M96.392 370H93.5966L99.8778 352.545H102.92L109.202 370H106.406L101.472 355.716H101.335L96.392 370ZM96.8608 363.165H105.929V365.381H96.8608V363.165ZM116.207 370.256C115.151 370.256 114.207 369.986 113.378 369.446C112.554 368.901 111.906 368.125 111.435 367.119C110.969 366.108 110.736 364.895 110.736 363.48C110.736 362.065 110.972 360.855 111.443 359.849C111.92 358.844 112.574 358.074 113.403 357.54C114.233 357.006 115.173 356.739 116.224 356.739C117.037 356.739 117.69 356.875 118.185 357.148C118.685 357.415 119.071 357.727 119.344 358.085C119.622 358.443 119.838 358.759 119.991 359.031H120.145V352.545H122.693V370H120.205V367.963H119.991C119.838 368.241 119.616 368.56 119.327 368.918C119.043 369.276 118.651 369.588 118.151 369.855C117.651 370.122 117.003 370.256 116.207 370.256ZM116.77 368.082C117.503 368.082 118.122 367.889 118.628 367.503C119.139 367.111 119.526 366.568 119.787 365.875C120.054 365.182 120.188 364.375 120.188 363.455C120.188 362.545 120.057 361.75 119.795 361.068C119.534 360.386 119.151 359.855 118.645 359.474C118.139 359.094 117.514 358.903 116.77 358.903C116.003 358.903 115.364 359.102 114.852 359.5C114.341 359.898 113.955 360.44 113.693 361.128C113.438 361.815 113.31 362.591 113.31 363.455C113.31 364.33 113.44 365.116 113.702 365.815C113.963 366.514 114.349 367.068 114.861 367.477C115.378 367.881 116.014 368.082 116.77 368.082ZM126.33 356.909H128.879V370.852C128.879 371.727 128.719 372.466 128.401 373.068C128.089 373.67 127.623 374.128 127.004 374.44C126.39 374.753 125.631 374.909 124.728 374.909C124.637 374.909 124.552 374.909 124.472 374.909C124.387 374.909 124.299 374.906 124.208 374.901V372.71C124.288 372.71 124.359 372.71 124.421 372.71C124.478 372.71 124.543 372.71 124.617 372.71C125.219 372.71 125.654 372.548 125.921 372.224C126.194 371.906 126.33 371.443 126.33 370.835V356.909ZM127.592 354.889C127.148 354.889 126.768 354.741 126.45 354.446C126.137 354.145 125.981 353.787 125.981 353.372C125.981 352.952 126.137 352.594 126.45 352.298C126.768 351.997 127.148 351.847 127.592 351.847C128.035 351.847 128.413 351.997 128.725 352.298C129.043 352.594 129.202 352.952 129.202 353.372C129.202 353.787 129.043 354.145 128.725 354.446C128.413 354.741 128.035 354.889 127.592 354.889ZM140.599 364.571V356.909H143.156V370H140.651V367.733H140.514C140.213 368.432 139.73 369.014 139.065 369.48C138.406 369.94 137.585 370.17 136.602 370.17C135.761 370.17 135.017 369.986 134.369 369.616C133.727 369.241 133.222 368.688 132.852 367.955C132.489 367.222 132.307 366.315 132.307 365.236V356.909H134.855V364.929C134.855 365.821 135.102 366.531 135.597 367.06C136.091 367.588 136.733 367.852 137.523 367.852C138 367.852 138.474 367.733 138.946 367.494C139.423 367.256 139.818 366.895 140.131 366.412C140.449 365.929 140.605 365.315 140.599 364.571ZM156.39 360.105L154.08 360.514C153.984 360.219 153.83 359.937 153.62 359.67C153.415 359.403 153.137 359.185 152.785 359.014C152.433 358.844 151.992 358.759 151.464 358.759C150.742 358.759 150.14 358.92 149.657 359.244C149.174 359.562 148.933 359.974 148.933 360.48C148.933 360.918 149.094 361.27 149.418 361.537C149.742 361.804 150.265 362.023 150.987 362.193L153.066 362.67C154.271 362.949 155.168 363.378 155.759 363.957C156.35 364.537 156.646 365.29 156.646 366.216C156.646 367 156.418 367.699 155.964 368.312C155.515 368.92 154.887 369.398 154.08 369.744C153.279 370.091 152.35 370.264 151.293 370.264C149.827 370.264 148.631 369.952 147.705 369.327C146.779 368.696 146.211 367.801 146.001 366.642L148.464 366.267C148.617 366.909 148.933 367.395 149.41 367.724C149.887 368.048 150.509 368.21 151.276 368.21C152.112 368.21 152.779 368.037 153.279 367.69C153.779 367.338 154.029 366.909 154.029 366.403C154.029 365.994 153.876 365.651 153.569 365.372C153.268 365.094 152.805 364.884 152.18 364.741L149.964 364.256C148.742 363.977 147.839 363.534 147.254 362.926C146.674 362.318 146.384 361.548 146.384 360.616C146.384 359.844 146.6 359.168 147.032 358.588C147.464 358.009 148.06 357.557 148.822 357.233C149.583 356.903 150.455 356.739 151.438 356.739C152.853 356.739 153.967 357.045 154.779 357.659C155.592 358.267 156.129 359.082 156.39 360.105ZM165.558 356.909V358.955H158.408V356.909H165.558ZM160.325 353.773H162.874V366.156C162.874 366.651 162.947 367.023 163.095 367.273C163.243 367.517 163.433 367.685 163.666 367.776C163.905 367.861 164.163 367.903 164.442 367.903C164.646 367.903 164.825 367.889 164.979 367.861C165.132 367.832 165.251 367.81 165.337 367.793L165.797 369.898C165.649 369.955 165.439 370.011 165.166 370.068C164.893 370.131 164.553 370.165 164.143 370.17C163.473 370.182 162.848 370.062 162.268 369.812C161.689 369.562 161.22 369.176 160.862 368.653C160.504 368.131 160.325 367.474 160.325 366.685V353.773ZM180.839 356.909V358.955H173.689V356.909H180.839ZM175.607 353.773H178.155V366.156C178.155 366.651 178.229 367.023 178.376 367.273C178.524 367.517 178.714 367.685 178.947 367.776C179.186 367.861 179.445 367.903 179.723 367.903C179.928 367.903 180.107 367.889 180.26 367.861C180.413 367.832 180.533 367.81 180.618 367.793L181.078 369.898C180.93 369.955 180.72 370.011 180.447 370.068C180.175 370.131 179.834 370.165 179.425 370.17C178.754 370.182 178.129 370.062 177.55 369.812C176.97 369.562 176.501 369.176 176.143 368.653C175.786 368.131 175.607 367.474 175.607 366.685V353.773ZM186.488 362.227V370H183.94V352.545H186.454V359.04H186.616C186.923 358.335 187.391 357.776 188.022 357.361C188.653 356.946 189.477 356.739 190.494 356.739C191.391 356.739 192.175 356.923 192.846 357.293C193.522 357.662 194.045 358.213 194.414 358.946C194.789 359.673 194.977 360.582 194.977 361.673V370H192.428V361.98C192.428 361.02 192.181 360.276 191.687 359.747C191.192 359.213 190.505 358.946 189.624 358.946C189.022 358.946 188.482 359.074 188.005 359.33C187.533 359.585 187.161 359.96 186.888 360.455C186.621 360.943 186.488 361.534 186.488 362.227ZM204.019 370.264C202.729 370.264 201.619 369.989 200.687 369.438C199.761 368.881 199.045 368.099 198.539 367.094C198.039 366.082 197.789 364.898 197.789 363.54C197.789 362.199 198.039 361.017 198.539 359.994C199.045 358.972 199.749 358.173 200.653 357.599C201.562 357.026 202.624 356.739 203.84 356.739C204.579 356.739 205.295 356.861 205.988 357.105C206.681 357.349 207.303 357.733 207.854 358.256C208.406 358.778 208.84 359.457 209.158 360.293C209.477 361.122 209.636 362.131 209.636 363.318V364.222H199.229V362.312H207.138C207.138 361.642 207.002 361.048 206.729 360.531C206.457 360.009 206.073 359.597 205.579 359.295C205.09 358.994 204.516 358.844 203.857 358.844C203.141 358.844 202.516 359.02 201.982 359.372C201.454 359.719 201.045 360.173 200.755 360.736C200.471 361.293 200.329 361.898 200.329 362.551V364.043C200.329 364.918 200.482 365.662 200.789 366.276C201.102 366.889 201.536 367.358 202.093 367.682C202.65 368 203.3 368.159 204.045 368.159C204.528 368.159 204.968 368.091 205.366 367.955C205.763 367.812 206.107 367.602 206.397 367.324C206.687 367.045 206.908 366.702 207.062 366.293L209.474 366.727C209.281 367.437 208.934 368.06 208.434 368.594C207.94 369.122 207.317 369.534 206.567 369.83C205.823 370.119 204.974 370.264 204.019 370.264ZM221.363 352.545V370H218.815V352.545H221.363ZM228.601 370.29C227.771 370.29 227.021 370.136 226.351 369.83C225.68 369.517 225.149 369.065 224.757 368.474C224.371 367.884 224.178 367.159 224.178 366.301C224.178 365.562 224.32 364.955 224.604 364.477C224.888 364 225.271 363.622 225.754 363.344C226.237 363.065 226.777 362.855 227.374 362.713C227.97 362.571 228.578 362.463 229.197 362.389C229.982 362.298 230.618 362.224 231.107 362.168C231.595 362.105 231.95 362.006 232.172 361.869C232.393 361.733 232.504 361.511 232.504 361.205V361.145C232.504 360.401 232.294 359.824 231.874 359.415C231.459 359.006 230.839 358.801 230.016 358.801C229.158 358.801 228.482 358.991 227.987 359.372C227.499 359.747 227.161 360.165 226.973 360.625L224.578 360.08C224.862 359.284 225.277 358.642 225.822 358.153C226.374 357.659 227.007 357.301 227.723 357.08C228.439 356.852 229.192 356.739 229.982 356.739C230.504 356.739 231.058 356.801 231.643 356.926C232.234 357.045 232.786 357.267 233.297 357.591C233.814 357.915 234.237 358.378 234.567 358.98C234.896 359.577 235.061 360.352 235.061 361.307V370H232.572V368.21H232.47C232.305 368.54 232.058 368.864 231.729 369.182C231.399 369.5 230.976 369.764 230.459 369.974C229.942 370.185 229.322 370.29 228.601 370.29ZM229.155 368.244C229.859 368.244 230.462 368.105 230.962 367.827C231.467 367.548 231.851 367.185 232.112 366.736C232.379 366.281 232.513 365.795 232.513 365.278V363.591C232.422 363.682 232.246 363.767 231.984 363.847C231.729 363.92 231.436 363.986 231.107 364.043C230.777 364.094 230.456 364.142 230.143 364.188C229.831 364.227 229.57 364.261 229.359 364.29C228.865 364.352 228.413 364.457 228.004 364.605C227.601 364.753 227.277 364.966 227.033 365.244C226.794 365.517 226.675 365.881 226.675 366.335C226.675 366.966 226.908 367.443 227.374 367.767C227.839 368.085 228.433 368.244 229.155 368.244ZM246.748 364.571V356.909H249.305V370H246.799V367.733H246.663C246.362 368.432 245.879 369.014 245.214 369.48C244.555 369.94 243.734 370.17 242.751 370.17C241.91 370.17 241.165 369.986 240.518 369.616C239.876 369.241 239.37 368.688 239.001 367.955C238.637 367.222 238.455 366.315 238.455 365.236V356.909H241.004V364.929C241.004 365.821 241.251 366.531 241.745 367.06C242.239 367.588 242.881 367.852 243.671 367.852C244.148 367.852 244.623 367.733 245.094 367.494C245.572 367.256 245.967 366.895 246.279 366.412C246.597 365.929 246.754 365.315 246.748 364.571ZM255.277 362.227V370H252.729V356.909H255.175V359.04H255.337C255.638 358.347 256.109 357.79 256.751 357.369C257.399 356.949 258.214 356.739 259.197 356.739C260.089 356.739 260.871 356.926 261.541 357.301C262.212 357.67 262.732 358.222 263.101 358.955C263.47 359.687 263.655 360.594 263.655 361.673V370H261.107V361.98C261.107 361.031 260.859 360.29 260.365 359.756C259.871 359.216 259.192 358.946 258.328 358.946C257.737 358.946 257.212 359.074 256.751 359.33C256.297 359.585 255.936 359.96 255.669 360.455C255.408 360.943 255.277 361.534 255.277 362.227ZM271.973 370.256C270.916 370.256 269.973 369.986 269.143 369.446C268.32 368.901 267.672 368.125 267.2 367.119C266.734 366.108 266.501 364.895 266.501 363.48C266.501 362.065 266.737 360.855 267.209 359.849C267.686 358.844 268.339 358.074 269.169 357.54C269.999 357.006 270.939 356.739 271.99 356.739C272.803 356.739 273.456 356.875 273.95 357.148C274.45 357.415 274.837 357.727 275.109 358.085C275.388 358.443 275.604 358.759 275.757 359.031H275.911V352.545H278.459V370H275.97V367.963H275.757C275.604 368.241 275.382 368.56 275.092 368.918C274.808 369.276 274.416 369.588 273.916 369.855C273.416 370.122 272.768 370.256 271.973 370.256ZM272.536 368.082C273.268 368.082 273.888 367.889 274.393 367.503C274.905 367.111 275.291 366.568 275.553 365.875C275.82 365.182 275.953 364.375 275.953 363.455C275.953 362.545 275.822 361.75 275.561 361.068C275.3 360.386 274.916 359.855 274.411 359.474C273.905 359.094 273.28 358.903 272.536 358.903C271.768 358.903 271.129 359.102 270.618 359.5C270.107 359.898 269.72 360.44 269.459 361.128C269.203 361.815 269.075 362.591 269.075 363.455C269.075 364.33 269.206 365.116 269.467 365.815C269.729 366.514 270.115 367.068 270.626 367.477C271.143 367.881 271.78 368.082 272.536 368.082ZM282.096 370V356.909H284.559V358.989H284.695C284.934 358.284 285.354 357.73 285.957 357.327C286.565 356.918 287.252 356.713 288.019 356.713C288.178 356.713 288.366 356.719 288.582 356.73C288.803 356.741 288.977 356.756 289.102 356.773V359.21C288.999 359.182 288.817 359.151 288.556 359.116C288.295 359.077 288.033 359.057 287.772 359.057C287.17 359.057 286.633 359.185 286.161 359.44C285.695 359.69 285.326 360.04 285.053 360.489C284.781 360.932 284.644 361.437 284.644 362.006V370H282.096ZM293.316 374.909C292.935 374.909 292.589 374.878 292.276 374.815C291.964 374.759 291.731 374.696 291.577 374.628L292.191 372.54C292.657 372.665 293.072 372.719 293.435 372.702C293.799 372.685 294.12 372.548 294.398 372.293C294.683 372.037 294.933 371.619 295.148 371.04L295.464 370.17L290.674 356.909H293.401L296.717 367.068H296.853L300.168 356.909H302.904L297.509 371.747C297.259 372.429 296.941 373.006 296.555 373.477C296.168 373.955 295.708 374.313 295.174 374.551C294.64 374.79 294.021 374.909 293.316 374.909ZM321.46 360.105L319.151 360.514C319.054 360.219 318.901 359.937 318.69 359.67C318.486 359.403 318.207 359.185 317.855 359.014C317.503 358.844 317.063 358.759 316.534 358.759C315.813 358.759 315.21 358.92 314.727 359.244C314.244 359.562 314.003 359.974 314.003 360.48C314.003 360.918 314.165 361.27 314.489 361.537C314.813 361.804 315.335 362.023 316.057 362.193L318.136 362.67C319.341 362.949 320.239 363.378 320.83 363.957C321.42 364.537 321.716 365.29 321.716 366.216C321.716 367 321.489 367.699 321.034 368.312C320.585 368.92 319.957 369.398 319.151 369.744C318.349 370.091 317.42 370.264 316.364 370.264C314.898 370.264 313.702 369.952 312.776 369.327C311.849 368.696 311.281 367.801 311.071 366.642L313.534 366.267C313.688 366.909 314.003 367.395 314.48 367.724C314.957 368.048 315.58 368.21 316.347 368.21C317.182 368.21 317.849 368.037 318.349 367.69C318.849 367.338 319.099 366.909 319.099 366.403C319.099 365.994 318.946 365.651 318.639 365.372C318.338 365.094 317.875 364.884 317.25 364.741L315.034 364.256C313.813 363.977 312.909 363.534 312.324 362.926C311.744 362.318 311.455 361.548 311.455 360.616C311.455 359.844 311.67 359.168 312.102 358.588C312.534 358.009 313.131 357.557 313.892 357.233C314.653 356.903 315.526 356.739 316.509 356.739C317.923 356.739 319.037 357.045 319.849 357.659C320.662 358.267 321.199 359.082 321.46 360.105ZM330.16 370.264C328.87 370.264 327.759 369.989 326.827 369.438C325.901 368.881 325.185 368.099 324.68 367.094C324.18 366.082 323.93 364.898 323.93 363.54C323.93 362.199 324.18 361.017 324.68 359.994C325.185 358.972 325.89 358.173 326.793 357.599C327.702 357.026 328.765 356.739 329.981 356.739C330.719 356.739 331.435 356.861 332.129 357.105C332.822 357.349 333.444 357.733 333.995 358.256C334.546 358.778 334.981 359.457 335.299 360.293C335.617 361.122 335.776 362.131 335.776 363.318V364.222H325.37V362.312H333.279C333.279 361.642 333.143 361.048 332.87 360.531C332.597 360.009 332.214 359.597 331.719 359.295C331.231 358.994 330.657 358.844 329.998 358.844C329.282 358.844 328.657 359.02 328.123 359.372C327.594 359.719 327.185 360.173 326.896 360.736C326.612 361.293 326.469 361.898 326.469 362.551V364.043C326.469 364.918 326.623 365.662 326.93 366.276C327.242 366.889 327.677 367.358 328.234 367.682C328.79 368 329.441 368.159 330.185 368.159C330.668 368.159 331.109 368.091 331.506 367.955C331.904 367.812 332.248 367.602 332.538 367.324C332.827 367.045 333.049 366.702 333.202 366.293L335.614 366.727C335.421 367.437 335.075 368.06 334.575 368.594C334.08 369.122 333.458 369.534 332.708 369.83C331.964 370.119 331.114 370.264 330.16 370.264ZM338.604 370V356.909H341.067V358.989H341.203C341.442 358.284 341.862 357.73 342.464 357.327C343.072 356.918 343.76 356.713 344.527 356.713C344.686 356.713 344.874 356.719 345.089 356.73C345.311 356.741 345.484 356.756 345.609 356.773V359.21C345.507 359.182 345.325 359.151 345.064 359.116C344.803 359.077 344.541 359.057 344.28 359.057C343.678 359.057 343.141 359.185 342.669 359.44C342.203 359.69 341.834 360.04 341.561 360.489C341.288 360.932 341.152 361.437 341.152 362.006V370H338.604ZM359.412 356.909L354.665 370H351.938L347.182 356.909H349.918L353.233 366.983H353.369L356.676 356.909H359.412ZM361.807 370V356.909H364.355V370H361.807ZM363.094 354.889C362.651 354.889 362.27 354.741 361.952 354.446C361.639 354.145 361.483 353.787 361.483 353.372C361.483 352.952 361.639 352.594 361.952 352.298C362.27 351.997 362.651 351.847 363.094 351.847C363.537 351.847 363.915 351.997 364.227 352.298C364.545 352.594 364.705 352.952 364.705 353.372C364.705 353.787 364.545 354.145 364.227 354.446C363.915 354.741 363.537 354.889 363.094 354.889ZM373.298 370.264C372.031 370.264 370.94 369.977 370.025 369.403C369.116 368.824 368.417 368.026 367.928 367.009C367.44 365.991 367.195 364.827 367.195 363.514C367.195 362.185 367.445 361.011 367.945 359.994C368.445 358.972 369.15 358.173 370.059 357.599C370.968 357.026 372.039 356.739 373.272 356.739C374.266 356.739 375.153 356.923 375.931 357.293C376.71 357.656 377.337 358.168 377.815 358.827C378.298 359.486 378.585 360.256 378.675 361.136H376.195C376.059 360.523 375.746 359.994 375.258 359.551C374.775 359.108 374.127 358.886 373.315 358.886C372.604 358.886 371.982 359.074 371.448 359.449C370.92 359.818 370.508 360.347 370.212 361.034C369.917 361.716 369.769 362.523 369.769 363.455C369.769 364.409 369.914 365.233 370.204 365.926C370.494 366.619 370.903 367.156 371.431 367.537C371.965 367.918 372.593 368.108 373.315 368.108C373.798 368.108 374.235 368.02 374.627 367.844C375.025 367.662 375.357 367.403 375.624 367.068C375.897 366.733 376.087 366.33 376.195 365.858H378.675C378.585 366.705 378.309 367.46 377.849 368.125C377.388 368.79 376.772 369.312 375.999 369.693C375.232 370.074 374.332 370.264 373.298 370.264ZM387.043 370.264C385.753 370.264 384.642 369.989 383.71 369.438C382.784 368.881 382.068 368.099 381.562 367.094C381.062 366.082 380.812 364.898 380.812 363.54C380.812 362.199 381.062 361.017 381.562 359.994C382.068 358.972 382.773 358.173 383.676 357.599C384.585 357.026 385.648 356.739 386.864 356.739C387.602 356.739 388.318 356.861 389.011 357.105C389.705 357.349 390.327 357.733 390.878 358.256C391.429 358.778 391.864 359.457 392.182 360.293C392.5 361.122 392.659 362.131 392.659 363.318V364.222H382.253V362.312H390.162C390.162 361.642 390.026 361.048 389.753 360.531C389.48 360.009 389.097 359.597 388.602 359.295C388.114 358.994 387.54 358.844 386.881 358.844C386.165 358.844 385.54 359.02 385.006 359.372C384.477 359.719 384.068 360.173 383.778 360.736C383.494 361.293 383.352 361.898 383.352 362.551V364.043C383.352 364.918 383.506 365.662 383.812 366.276C384.125 366.889 384.56 367.358 385.116 367.682C385.673 368 386.324 368.159 387.068 368.159C387.551 368.159 387.991 368.091 388.389 367.955C388.787 367.812 389.131 367.602 389.42 367.324C389.71 367.045 389.932 366.702 390.085 366.293L392.497 366.727C392.304 367.437 391.957 368.06 391.457 368.594C390.963 369.122 390.341 369.534 389.591 369.83C388.847 370.119 387.997 370.264 387.043 370.264ZM94.7131 409.909V391.909H97.2017V394.031H97.4148C97.5625 393.759 97.7756 393.443 98.054 393.085C98.3324 392.727 98.7188 392.415 99.2131 392.148C99.7074 391.875 100.361 391.739 101.173 391.739C102.23 391.739 103.173 392.006 104.003 392.54C104.832 393.074 105.483 393.844 105.955 394.849C106.432 395.855 106.67 397.065 106.67 398.48C106.67 399.895 106.435 401.108 105.963 402.119C105.491 403.125 104.844 403.901 104.02 404.446C103.196 404.986 102.256 405.256 101.199 405.256C100.403 405.256 99.7528 405.122 99.2472 404.855C98.7472 404.588 98.3551 404.276 98.071 403.918C97.7869 403.56 97.5682 403.241 97.4148 402.963H97.2614V409.909H94.7131ZM97.2102 398.455C97.2102 399.375 97.3438 400.182 97.6108 400.875C97.8778 401.568 98.2642 402.111 98.7699 402.503C99.2756 402.889 99.8949 403.082 100.628 403.082C101.389 403.082 102.026 402.881 102.537 402.477C103.048 402.068 103.435 401.514 103.696 400.815C103.963 400.116 104.097 399.33 104.097 398.455C104.097 397.591 103.966 396.815 103.705 396.128C103.449 395.44 103.063 394.898 102.545 394.5C102.034 394.102 101.395 393.903 100.628 393.903C99.8892 393.903 99.2642 394.094 98.7528 394.474C98.2472 394.855 97.8636 395.386 97.6023 396.068C97.3409 396.75 97.2102 397.545 97.2102 398.455ZM109.526 405V391.909H111.989V393.989H112.125C112.364 393.284 112.784 392.73 113.386 392.327C113.994 391.918 114.682 391.713 115.449 391.713C115.608 391.713 115.795 391.719 116.011 391.73C116.233 391.741 116.406 391.756 116.531 391.773V394.21C116.429 394.182 116.247 394.151 115.986 394.116C115.724 394.077 115.463 394.057 115.202 394.057C114.599 394.057 114.063 394.185 113.591 394.44C113.125 394.69 112.756 395.04 112.483 395.489C112.21 395.932 112.074 396.437 112.074 397.006V405H109.526ZM118.737 405V391.909H121.285V405H118.737ZM120.023 389.889C119.58 389.889 119.2 389.741 118.881 389.446C118.569 389.145 118.413 388.787 118.413 388.372C118.413 387.952 118.569 387.594 118.881 387.298C119.2 386.997 119.58 386.847 120.023 386.847C120.467 386.847 120.844 386.997 121.157 387.298C121.475 387.594 121.634 387.952 121.634 388.372C121.634 388.787 121.475 389.145 121.157 389.446C120.844 389.741 120.467 389.889 120.023 389.889ZM130.227 405.264C128.96 405.264 127.869 404.977 126.955 404.403C126.045 403.824 125.347 403.026 124.858 402.009C124.369 400.991 124.125 399.827 124.125 398.514C124.125 397.185 124.375 396.011 124.875 394.994C125.375 393.972 126.08 393.173 126.989 392.599C127.898 392.026 128.969 391.739 130.202 391.739C131.196 391.739 132.082 391.923 132.861 392.293C133.639 392.656 134.267 393.168 134.744 393.827C135.227 394.486 135.514 395.256 135.605 396.136H133.125C132.989 395.523 132.676 394.994 132.188 394.551C131.705 394.108 131.057 393.886 130.244 393.886C129.534 393.886 128.912 394.074 128.378 394.449C127.849 394.818 127.438 395.347 127.142 396.034C126.847 396.716 126.699 397.523 126.699 398.455C126.699 399.409 126.844 400.233 127.134 400.926C127.423 401.619 127.832 402.156 128.361 402.537C128.895 402.918 129.523 403.108 130.244 403.108C130.727 403.108 131.165 403.02 131.557 402.844C131.955 402.662 132.287 402.403 132.554 402.068C132.827 401.733 133.017 401.33 133.125 400.858H135.605C135.514 401.705 135.239 402.46 134.778 403.125C134.318 403.79 133.702 404.312 132.929 404.693C132.162 405.074 131.261 405.264 130.227 405.264ZM143.972 405.264C142.683 405.264 141.572 404.989 140.64 404.438C139.714 403.881 138.998 403.099 138.492 402.094C137.992 401.082 137.742 399.898 137.742 398.54C137.742 397.199 137.992 396.017 138.492 394.994C138.998 393.972 139.702 393.173 140.606 392.599C141.515 392.026 142.577 391.739 143.793 391.739C144.532 391.739 145.248 391.861 145.941 392.105C146.634 392.349 147.256 392.733 147.808 393.256C148.359 393.778 148.793 394.457 149.112 395.293C149.43 396.122 149.589 397.131 149.589 398.318V399.222H139.183V397.312H147.092C147.092 396.642 146.955 396.048 146.683 395.531C146.41 395.009 146.026 394.597 145.532 394.295C145.043 393.994 144.469 393.844 143.81 393.844C143.094 393.844 142.469 394.02 141.935 394.372C141.407 394.719 140.998 395.173 140.708 395.736C140.424 396.293 140.282 396.898 140.282 397.551V399.043C140.282 399.918 140.435 400.662 140.742 401.276C141.055 401.889 141.489 402.358 142.046 402.682C142.603 403 143.254 403.159 143.998 403.159C144.481 403.159 144.921 403.091 145.319 402.955C145.717 402.812 146.06 402.602 146.35 402.324C146.64 402.045 146.862 401.702 147.015 401.293L149.427 401.727C149.234 402.437 148.887 403.06 148.387 403.594C147.893 404.122 147.271 404.534 146.521 404.83C145.776 405.119 144.927 405.264 143.972 405.264ZM158.768 409.909V391.909H161.256V394.031H161.469C161.617 393.759 161.83 393.443 162.109 393.085C162.387 392.727 162.773 392.415 163.268 392.148C163.762 391.875 164.415 391.739 165.228 391.739C166.285 391.739 167.228 392.006 168.058 392.54C168.887 393.074 169.538 393.844 170.009 394.849C170.487 395.855 170.725 397.065 170.725 398.48C170.725 399.895 170.489 401.108 170.018 402.119C169.546 403.125 168.898 403.901 168.075 404.446C167.251 404.986 166.31 405.256 165.254 405.256C164.458 405.256 163.808 405.122 163.302 404.855C162.802 404.588 162.41 404.276 162.126 403.918C161.842 403.56 161.623 403.241 161.469 402.963H161.316V409.909H158.768ZM161.265 398.455C161.265 399.375 161.398 400.182 161.665 400.875C161.933 401.568 162.319 402.111 162.825 402.503C163.33 402.889 163.95 403.082 164.683 403.082C165.444 403.082 166.08 402.881 166.592 402.477C167.103 402.068 167.489 401.514 167.751 400.815C168.018 400.116 168.151 399.33 168.151 398.455C168.151 397.591 168.021 396.815 167.759 396.128C167.504 395.44 167.117 394.898 166.6 394.5C166.089 394.102 165.45 393.903 164.683 393.903C163.944 393.903 163.319 394.094 162.808 394.474C162.302 394.855 161.918 395.386 161.657 396.068C161.396 396.75 161.265 397.545 161.265 398.455ZM179.222 405.264C177.933 405.264 176.822 404.989 175.89 404.438C174.964 403.881 174.248 403.099 173.742 402.094C173.242 401.082 172.992 399.898 172.992 398.54C172.992 397.199 173.242 396.017 173.742 394.994C174.248 393.972 174.952 393.173 175.856 392.599C176.765 392.026 177.827 391.739 179.043 391.739C179.782 391.739 180.498 391.861 181.191 392.105C181.884 392.349 182.506 392.733 183.058 393.256C183.609 393.778 184.043 394.457 184.362 395.293C184.68 396.122 184.839 397.131 184.839 398.318V399.222H174.433V397.312H182.342C182.342 396.642 182.205 396.048 181.933 395.531C181.66 395.009 181.276 394.597 180.782 394.295C180.293 393.994 179.719 393.844 179.06 393.844C178.344 393.844 177.719 394.02 177.185 394.372C176.657 394.719 176.248 395.173 175.958 395.736C175.674 396.293 175.532 396.898 175.532 397.551V399.043C175.532 399.918 175.685 400.662 175.992 401.276C176.305 401.889 176.739 402.358 177.296 402.682C177.853 403 178.504 403.159 179.248 403.159C179.731 403.159 180.171 403.091 180.569 402.955C180.967 402.812 181.31 402.602 181.6 402.324C181.89 402.045 182.112 401.702 182.265 401.293L184.677 401.727C184.484 402.437 184.137 403.06 183.637 403.594C183.143 404.122 182.521 404.534 181.771 404.83C181.026 405.119 180.177 405.264 179.222 405.264ZM187.666 405V391.909H190.129V393.989H190.266C190.504 393.284 190.925 392.73 191.527 392.327C192.135 391.918 192.822 391.713 193.589 391.713C193.749 391.713 193.936 391.719 194.152 391.73C194.374 391.741 194.547 391.756 194.672 391.773V394.21C194.57 394.182 194.388 394.151 194.126 394.116C193.865 394.077 193.604 394.057 193.342 394.057C192.74 394.057 192.203 394.185 191.732 394.44C191.266 394.69 190.896 395.04 190.624 395.489C190.351 395.932 190.214 396.437 190.214 397.006V405H187.666ZM205.572 400.56L205.555 397.449H205.999L211.214 391.909H214.266L208.317 398.216H207.916L205.572 400.56ZM203.229 405V387.545H205.777V405H203.229ZM211.496 405L206.808 398.778L208.564 396.997L214.624 405H211.496ZM216.588 405V391.909H219.136V405H216.588ZM217.875 389.889C217.432 389.889 217.051 389.741 216.733 389.446C216.42 389.145 216.264 388.787 216.264 388.372C216.264 387.952 216.42 387.594 216.733 387.298C217.051 386.997 217.432 386.847 217.875 386.847C218.318 386.847 218.696 386.997 219.009 387.298C219.327 387.594 219.486 387.952 219.486 388.372C219.486 388.787 219.327 389.145 219.009 389.446C218.696 389.741 218.318 389.889 217.875 389.889ZM225.113 387.545V405H222.565V387.545H225.113ZM234.055 405.264C232.828 405.264 231.757 404.983 230.842 404.42C229.928 403.858 229.217 403.071 228.712 402.06C228.206 401.048 227.953 399.866 227.953 398.514C227.953 397.156 228.206 395.969 228.712 394.952C229.217 393.935 229.928 393.145 230.842 392.582C231.757 392.02 232.828 391.739 234.055 391.739C235.283 391.739 236.354 392.02 237.268 392.582C238.183 393.145 238.893 393.935 239.399 394.952C239.905 395.969 240.158 397.156 240.158 398.514C240.158 399.866 239.905 401.048 239.399 402.06C238.893 403.071 238.183 403.858 237.268 404.42C236.354 404.983 235.283 405.264 234.055 405.264ZM234.064 403.125C234.859 403.125 235.518 402.915 236.041 402.494C236.564 402.074 236.95 401.514 237.2 400.815C237.456 400.116 237.584 399.347 237.584 398.506C237.584 397.67 237.456 396.903 237.2 396.205C236.95 395.5 236.564 394.935 236.041 394.509C235.518 394.082 234.859 393.869 234.064 393.869C233.263 393.869 232.598 394.082 232.07 394.509C231.547 394.935 231.158 395.5 230.902 396.205C230.652 396.903 230.527 397.67 230.527 398.506C230.527 399.347 230.652 400.116 230.902 400.815C231.158 401.514 231.547 402.074 232.07 402.494C232.598 402.915 233.263 403.125 234.064 403.125ZM248.491 410.182C247.451 410.182 246.556 410.045 245.806 409.773C245.062 409.5 244.454 409.139 243.982 408.69C243.511 408.241 243.158 407.75 242.925 407.216L245.116 406.312C245.269 406.562 245.474 406.827 245.729 407.105C245.991 407.389 246.343 407.631 246.786 407.83C247.235 408.028 247.812 408.128 248.516 408.128C249.482 408.128 250.281 407.892 250.911 407.42C251.542 406.955 251.857 406.21 251.857 405.188V402.614H251.695C251.542 402.892 251.32 403.202 251.031 403.543C250.746 403.884 250.354 404.179 249.854 404.429C249.354 404.679 248.704 404.804 247.903 404.804C246.869 404.804 245.937 404.562 245.107 404.08C244.283 403.591 243.63 402.872 243.147 401.923C242.67 400.969 242.431 399.795 242.431 398.403C242.431 397.011 242.667 395.818 243.138 394.824C243.616 393.83 244.269 393.068 245.099 392.54C245.928 392.006 246.869 391.739 247.92 391.739C248.732 391.739 249.388 391.875 249.888 392.148C250.388 392.415 250.778 392.727 251.056 393.085C251.34 393.443 251.559 393.759 251.712 394.031H251.9V391.909H254.397V405.29C254.397 406.415 254.136 407.338 253.613 408.06C253.09 408.781 252.383 409.315 251.491 409.662C250.604 410.009 249.604 410.182 248.491 410.182ZM248.465 402.69C249.198 402.69 249.817 402.52 250.323 402.179C250.835 401.832 251.221 401.338 251.482 400.696C251.749 400.048 251.883 399.273 251.883 398.369C251.883 397.489 251.752 396.713 251.491 396.043C251.229 395.372 250.846 394.849 250.34 394.474C249.835 394.094 249.21 393.903 248.465 393.903C247.698 393.903 247.059 394.102 246.548 394.5C246.036 394.892 245.65 395.426 245.388 396.102C245.133 396.778 245.005 397.534 245.005 398.369C245.005 399.227 245.136 399.98 245.397 400.628C245.658 401.276 246.045 401.781 246.556 402.145C247.073 402.509 247.71 402.69 248.465 402.69ZM257.815 405V391.909H260.278V393.989H260.414C260.653 393.284 261.073 392.73 261.675 392.327C262.283 391.918 262.971 391.713 263.738 391.713C263.897 391.713 264.085 391.719 264.3 391.73C264.522 391.741 264.695 391.756 264.82 391.773V394.21C264.718 394.182 264.536 394.151 264.275 394.116C264.013 394.077 263.752 394.057 263.491 394.057C262.888 394.057 262.352 394.185 261.88 394.44C261.414 394.69 261.045 395.04 260.772 395.489C260.499 395.932 260.363 396.437 260.363 397.006V405H257.815ZM270.718 405.29C269.888 405.29 269.138 405.136 268.468 404.83C267.798 404.517 267.266 404.065 266.874 403.474C266.488 402.884 266.295 402.159 266.295 401.301C266.295 400.562 266.437 399.955 266.721 399.477C267.005 399 267.388 398.622 267.871 398.344C268.354 398.065 268.894 397.855 269.491 397.713C270.087 397.571 270.695 397.463 271.315 397.389C272.099 397.298 272.735 397.224 273.224 397.168C273.712 397.105 274.067 397.006 274.289 396.869C274.511 396.733 274.621 396.511 274.621 396.205V396.145C274.621 395.401 274.411 394.824 273.991 394.415C273.576 394.006 272.957 393.801 272.133 393.801C271.275 393.801 270.599 393.991 270.104 394.372C269.616 394.747 269.278 395.165 269.09 395.625L266.695 395.08C266.979 394.284 267.394 393.642 267.94 393.153C268.491 392.659 269.124 392.301 269.84 392.08C270.556 391.852 271.309 391.739 272.099 391.739C272.621 391.739 273.175 391.801 273.761 391.926C274.352 392.045 274.903 392.267 275.414 392.591C275.931 392.915 276.354 393.378 276.684 393.98C277.013 394.577 277.178 395.352 277.178 396.307V405H274.69V403.21H274.587C274.423 403.54 274.175 403.864 273.846 404.182C273.516 404.5 273.093 404.764 272.576 404.974C272.059 405.185 271.44 405.29 270.718 405.29ZM271.272 403.244C271.977 403.244 272.579 403.105 273.079 402.827C273.585 402.548 273.968 402.185 274.229 401.736C274.496 401.281 274.63 400.795 274.63 400.278V398.591C274.539 398.682 274.363 398.767 274.102 398.847C273.846 398.92 273.553 398.986 273.224 399.043C272.894 399.094 272.573 399.142 272.261 399.188C271.948 399.227 271.687 399.261 271.477 399.29C270.982 399.352 270.531 399.457 270.121 399.605C269.718 399.753 269.394 399.966 269.15 400.244C268.911 400.517 268.792 400.881 268.792 401.335C268.792 401.966 269.025 402.443 269.491 402.767C269.957 403.085 270.55 403.244 271.272 403.244ZM280.572 405V391.909H283.018V394.04H283.18C283.453 393.318 283.899 392.756 284.518 392.352C285.138 391.943 285.879 391.739 286.743 391.739C287.618 391.739 288.351 391.943 288.942 392.352C289.538 392.761 289.979 393.324 290.263 394.04H290.399C290.712 393.341 291.209 392.784 291.891 392.369C292.572 391.949 293.385 391.739 294.328 391.739C295.516 391.739 296.484 392.111 297.234 392.855C297.99 393.599 298.368 394.722 298.368 396.222V405H295.82V396.46C295.82 395.574 295.578 394.932 295.095 394.534C294.612 394.136 294.036 393.938 293.365 393.938C292.536 393.938 291.891 394.193 291.43 394.705C290.97 395.21 290.74 395.861 290.74 396.656V405H288.2V396.298C288.2 395.588 287.979 395.017 287.536 394.585C287.092 394.153 286.516 393.938 285.805 393.938C285.322 393.938 284.876 394.065 284.467 394.321C284.064 394.571 283.737 394.92 283.487 395.369C283.243 395.818 283.121 396.338 283.121 396.929V405H280.572Z" fill="#898B96"/>
<g filter="url(#filter1_d_427_479)">
<path opacity="0.4" d="M116.438 221.496C122.827 214.639 132.567 215.185 138.177 222.665L146.046 233.183C152.358 241.52 162.565 241.52 168.876 233.183L176.745 222.665C182.355 215.185 192.095 214.639 198.484 221.496C212.353 236.3 223.651 231.391 223.651 210.665V122.931C223.651 91.5307 216.327 83.6613 186.875 83.6613H127.97C98.517 83.6613 91.1929 91.5307 91.1929 122.931V210.665C91.2708 231.391 102.647 236.222 116.438 221.496Z" fill="#68839F"/>
<path d="M179.629 145.839L175.733 149.813H175.655L152.046 173.421C151.033 174.434 148.929 175.525 147.449 175.681L136.93 177.239C133.112 177.785 130.463 175.058 131.009 171.318L132.489 160.721C132.723 159.24 133.736 157.215 134.749 156.124L158.435 132.515L162.331 128.541C164.902 125.97 167.785 124.1 170.902 124.1C173.551 124.1 176.434 125.347 179.629 128.541C186.641 135.554 184.381 141.086 179.629 145.839Z" fill="#68839F"/>
</g>
<defs>
<filter id="filter0_d_427_479" x="0" y="0" width="502" height="502" filterUnits="userSpaceOnUse" color-interpolation-filters="sRGB">
<feFlood flood-opacity="0" result="BackgroundImageFix"/>
<feColorMatrix in="SourceAlpha" type="matrix" values="0 0 0 0 0 0 0 0 0 0 0 0 0 0 0 0 0 0 127 0" result="hardAlpha"/>
<feOffset dy="9"/>
<feGaussianBlur stdDeviation="17"/>
<feColorMatrix type="matrix" values="0 0 0 0 0 0 0 0 0 0 0 0 0 0 0 0 0 0 0.05 0"/>
<feBlend mode="normal" in2="BackgroundImageFix" result="effect1_dropShadow_427_479"/>
<feBlend mode="normal" in="SourceGraphic" in2="effect1_dropShadow_427_479" result="shape"/>
</filter>
<filter id="filter1_d_427_479" x="60" y="68" width="195" height="195" filterUnits="userSpaceOnUse" color-interpolation-filters="sRGB">
<feFlood flood-opacity="0" result="BackgroundImageFix"/>
<feColorMatrix in="SourceAlpha" type="matrix" values="0 0 0 0 0 0 0 0 0 0 0 0 0 0 0 0 0 0 127 0" result="hardAlpha"/>
<feOffset dy="4"/>
<feGaussianBlur stdDeviation="2"/>
<feComposite in2="hardAlpha" operator="out"/>
<feColorMatrix type="matrix" values="0 0 0 0 0 0 0 0 0 0 0 0 0 0 0 0 0 0 0.25 0"/>
<feBlend mode="normal" in2="BackgroundImageFix" result="effect1_dropShadow_427_479"/>
<feBlend mode="normal" in="SourceGraphic" in2="effect1_dropShadow_427_479" result="shape"/>
</filter>
</defs>
</svg>
