<svg width="502" height="502" viewBox="0 0 502 502" fill="none" xmlns="http://www.w3.org/2000/svg">
<g filter="url(#filter0_d_425_184)">
<rect x="34" y="25" width="434" height="434" rx="20" fill="#DFEBF7"/>
</g>
<path d="M94.8352 319V284.091H116.722V288.625H100.102V299.261H115.58V303.778H100.102V314.466H116.926V319H94.8352ZM133.149 319.511C131.036 319.511 129.149 318.972 127.49 317.892C125.842 316.801 124.547 315.25 123.604 313.239C122.672 311.216 122.206 308.79 122.206 305.96C122.206 303.131 122.678 300.71 123.621 298.699C124.575 296.687 125.882 295.148 127.541 294.08C129.2 293.011 131.081 292.477 133.183 292.477C134.808 292.477 136.115 292.75 137.104 293.295C138.104 293.83 138.876 294.455 139.422 295.17C139.979 295.886 140.411 296.517 140.717 297.062H141.024V284.091H146.121V319H141.143V314.926H140.717C140.411 315.483 139.967 316.119 139.388 316.835C138.82 317.551 138.036 318.176 137.036 318.71C136.036 319.244 134.74 319.511 133.149 319.511ZM134.274 315.165C135.74 315.165 136.979 314.778 137.99 314.006C139.013 313.222 139.786 312.136 140.308 310.75C140.842 309.364 141.109 307.75 141.109 305.909C141.109 304.091 140.848 302.5 140.325 301.136C139.803 299.773 139.036 298.71 138.024 297.949C137.013 297.187 135.763 296.807 134.274 296.807C132.74 296.807 131.462 297.205 130.439 298C129.416 298.795 128.643 299.881 128.121 301.256C127.609 302.631 127.354 304.182 127.354 305.909C127.354 307.659 127.615 309.233 128.138 310.631C128.661 312.028 129.433 313.136 130.456 313.955C131.49 314.761 132.763 315.165 134.274 315.165ZM153.395 319V292.818H158.491V319H153.395ZM155.969 288.778C155.082 288.778 154.321 288.483 153.685 287.892C153.06 287.29 152.747 286.574 152.747 285.744C152.747 284.903 153.06 284.187 153.685 283.597C154.321 282.994 155.082 282.693 155.969 282.693C156.855 282.693 157.611 282.994 158.236 283.597C158.872 284.187 159.19 284.903 159.19 285.744C159.19 286.574 158.872 287.29 158.236 287.892C157.611 288.483 156.855 288.778 155.969 288.778ZM177.57 292.818V296.909H163.268V292.818H177.57ZM167.104 286.545H172.2V311.312C172.2 312.301 172.348 313.045 172.643 313.545C172.939 314.034 173.32 314.369 173.786 314.551C174.263 314.722 174.78 314.807 175.337 314.807C175.746 314.807 176.104 314.778 176.411 314.722C176.717 314.665 176.956 314.619 177.126 314.585L178.047 318.795C177.751 318.909 177.331 319.023 176.786 319.136C176.24 319.261 175.558 319.33 174.74 319.341C173.399 319.364 172.149 319.125 170.99 318.625C169.831 318.125 168.893 317.352 168.178 316.307C167.462 315.261 167.104 313.949 167.104 312.369V286.545ZM199.268 319H193.678L206.24 284.091H212.325L224.888 319H219.297L209.428 290.432H209.155L199.268 319ZM200.206 305.33H218.342V309.761H200.206V305.33ZM238.899 319.511C236.786 319.511 234.899 318.972 233.24 317.892C231.592 316.801 230.297 315.25 229.354 313.239C228.422 311.216 227.956 308.79 227.956 305.96C227.956 303.131 228.428 300.71 229.371 298.699C230.325 296.687 231.632 295.148 233.291 294.08C234.95 293.011 236.831 292.477 238.933 292.477C240.558 292.477 241.865 292.75 242.854 293.295C243.854 293.83 244.626 294.455 245.172 295.17C245.729 295.886 246.161 296.517 246.467 297.062H246.774V284.091H251.871V319H246.893V314.926H246.467C246.161 315.483 245.717 316.119 245.138 316.835C244.57 317.551 243.786 318.176 242.786 318.71C241.786 319.244 240.49 319.511 238.899 319.511ZM240.024 315.165C241.49 315.165 242.729 314.778 243.74 314.006C244.763 313.222 245.536 312.136 246.058 310.75C246.592 309.364 246.859 307.75 246.859 305.909C246.859 304.091 246.598 302.5 246.075 301.136C245.553 299.773 244.786 298.71 243.774 297.949C242.763 297.187 241.513 296.807 240.024 296.807C238.49 296.807 237.212 297.205 236.189 298C235.166 298.795 234.393 299.881 233.871 301.256C233.359 302.631 233.104 304.182 233.104 305.909C233.104 307.659 233.365 309.233 233.888 310.631C234.411 312.028 235.183 313.136 236.206 313.955C237.24 314.761 238.513 315.165 240.024 315.165ZM268.946 319.511C266.832 319.511 264.946 318.972 263.287 317.892C261.639 316.801 260.344 315.25 259.401 313.239C258.469 311.216 258.003 308.79 258.003 305.96C258.003 303.131 258.474 300.71 259.418 298.699C260.372 296.687 261.679 295.148 263.338 294.08C264.997 293.011 266.878 292.477 268.98 292.477C270.605 292.477 271.912 292.75 272.901 293.295C273.901 293.83 274.673 294.455 275.219 295.17C275.776 295.886 276.207 296.517 276.514 297.062H276.821V284.091H281.918V319H276.94V314.926H276.514C276.207 315.483 275.764 316.119 275.185 316.835C274.616 317.551 273.832 318.176 272.832 318.71C271.832 319.244 270.537 319.511 268.946 319.511ZM270.071 315.165C271.537 315.165 272.776 314.778 273.787 314.006C274.81 313.222 275.582 312.136 276.105 310.75C276.639 309.364 276.906 307.75 276.906 305.909C276.906 304.091 276.645 302.5 276.122 301.136C275.599 299.773 274.832 298.71 273.821 297.949C272.81 297.187 271.56 296.807 270.071 296.807C268.537 296.807 267.259 297.205 266.236 298C265.213 298.795 264.44 299.881 263.918 301.256C263.406 302.631 263.151 304.182 263.151 305.909C263.151 307.659 263.412 309.233 263.935 310.631C264.457 312.028 265.23 313.136 266.253 313.955C267.287 314.761 268.56 315.165 270.071 315.165ZM289.192 319V292.818H294.118V296.977H294.391C294.868 295.568 295.709 294.46 296.913 293.653C298.129 292.835 299.504 292.426 301.038 292.426C301.357 292.426 301.732 292.437 302.163 292.46C302.607 292.483 302.953 292.511 303.203 292.545V297.42C302.999 297.364 302.635 297.301 302.112 297.233C301.589 297.153 301.067 297.114 300.544 297.114C299.339 297.114 298.266 297.369 297.322 297.881C296.391 298.381 295.652 299.08 295.107 299.977C294.561 300.864 294.288 301.875 294.288 303.011V319H289.192ZM317.96 319.528C315.381 319.528 313.159 318.977 311.295 317.875C309.443 316.761 308.011 315.199 307 313.188C306 311.165 305.5 308.795 305.5 306.08C305.5 303.398 306 301.034 307 298.989C308.011 296.943 309.42 295.347 311.227 294.199C313.045 293.051 315.17 292.477 317.602 292.477C319.08 292.477 320.511 292.722 321.898 293.21C323.284 293.699 324.528 294.466 325.631 295.511C326.733 296.557 327.602 297.915 328.239 299.585C328.875 301.244 329.193 303.261 329.193 305.636V307.443H308.381V303.625H324.199C324.199 302.284 323.926 301.097 323.381 300.062C322.835 299.017 322.068 298.193 321.08 297.591C320.102 296.989 318.955 296.688 317.636 296.688C316.205 296.688 314.955 297.04 313.886 297.744C312.83 298.437 312.011 299.347 311.432 300.472C310.864 301.585 310.58 302.795 310.58 304.102V307.085C310.58 308.835 310.886 310.324 311.5 311.551C312.125 312.778 312.994 313.716 314.108 314.364C315.222 315 316.523 315.318 318.011 315.318C318.977 315.318 319.858 315.182 320.653 314.909C321.449 314.625 322.136 314.205 322.716 313.648C323.295 313.091 323.739 312.403 324.045 311.585L328.869 312.455C328.483 313.875 327.79 315.119 326.79 316.188C325.801 317.244 324.557 318.068 323.057 318.659C321.568 319.239 319.869 319.528 317.96 319.528ZM354.467 299.21L349.848 300.028C349.655 299.437 349.348 298.875 348.928 298.341C348.518 297.807 347.962 297.369 347.257 297.028C346.553 296.687 345.672 296.517 344.615 296.517C343.172 296.517 341.967 296.841 341.001 297.489C340.036 298.125 339.553 298.949 339.553 299.96C339.553 300.835 339.876 301.54 340.524 302.074C341.172 302.608 342.217 303.045 343.661 303.386L347.82 304.341C350.229 304.898 352.024 305.756 353.206 306.915C354.388 308.074 354.979 309.58 354.979 311.432C354.979 313 354.524 314.398 353.615 315.625C352.717 316.841 351.462 317.795 349.848 318.489C348.246 319.182 346.388 319.528 344.274 319.528C341.342 319.528 338.95 318.903 337.098 317.653C335.246 316.392 334.109 314.602 333.689 312.284L338.615 311.534C338.922 312.818 339.553 313.79 340.507 314.449C341.462 315.097 342.706 315.42 344.24 315.42C345.911 315.42 347.246 315.074 348.246 314.381C349.246 313.676 349.746 312.818 349.746 311.807C349.746 310.989 349.439 310.301 348.825 309.744C348.223 309.187 347.297 308.767 346.047 308.483L341.615 307.511C339.172 306.955 337.365 306.068 336.195 304.852C335.036 303.636 334.456 302.097 334.456 300.233C334.456 298.687 334.888 297.335 335.751 296.176C336.615 295.017 337.808 294.114 339.331 293.466C340.854 292.807 342.598 292.477 344.564 292.477C347.393 292.477 349.621 293.091 351.246 294.318C352.871 295.534 353.945 297.165 354.467 299.21ZM380.202 299.21L375.582 300.028C375.389 299.437 375.082 298.875 374.662 298.341C374.253 297.807 373.696 297.369 372.991 297.028C372.287 296.687 371.406 296.517 370.349 296.517C368.906 296.517 367.702 296.841 366.736 297.489C365.77 298.125 365.287 298.949 365.287 299.96C365.287 300.835 365.611 301.54 366.259 302.074C366.906 302.608 367.952 303.045 369.395 303.386L373.554 304.341C375.963 304.898 377.759 305.756 378.94 306.915C380.122 308.074 380.713 309.58 380.713 311.432C380.713 313 380.259 314.398 379.349 315.625C378.452 316.841 377.196 317.795 375.582 318.489C373.98 319.182 372.122 319.528 370.009 319.528C367.077 319.528 364.685 318.903 362.832 317.653C360.98 316.392 359.844 314.602 359.423 312.284L364.349 311.534C364.656 312.818 365.287 313.79 366.241 314.449C367.196 315.097 368.44 315.42 369.974 315.42C371.645 315.42 372.98 315.074 373.98 314.381C374.98 313.676 375.48 312.818 375.48 311.807C375.48 310.989 375.173 310.301 374.56 309.744C373.957 309.187 373.031 308.767 371.781 308.483L367.349 307.511C364.906 306.955 363.099 306.068 361.929 304.852C360.77 303.636 360.19 302.097 360.19 300.233C360.19 298.687 360.622 297.335 361.486 296.176C362.349 295.017 363.543 294.114 365.065 293.466C366.588 292.807 368.332 292.477 370.298 292.477C373.128 292.477 375.355 293.091 376.98 294.318C378.605 295.534 379.679 297.165 380.202 299.21Z" fill="#1F2227"/>
<path d="M110.142 352.545H112.784V364.026C112.784 365.247 112.497 366.33 111.923 367.273C111.349 368.21 110.543 368.949 109.503 369.489C108.463 370.023 107.244 370.29 105.847 370.29C104.455 370.29 103.239 370.023 102.199 369.489C101.159 368.949 100.352 368.21 99.7784 367.273C99.2045 366.33 98.9176 365.247 98.9176 364.026V352.545H101.551V363.812C101.551 364.602 101.724 365.304 102.071 365.918C102.423 366.531 102.92 367.014 103.562 367.366C104.205 367.713 104.966 367.886 105.847 367.886C106.733 367.886 107.497 367.713 108.139 367.366C108.787 367.014 109.281 366.531 109.622 365.918C109.969 365.304 110.142 364.602 110.142 363.812V352.545ZM116.408 374.909V356.909H118.897V359.031H119.11C119.258 358.759 119.471 358.443 119.749 358.085C120.028 357.727 120.414 357.415 120.908 357.148C121.403 356.875 122.056 356.739 122.869 356.739C123.925 356.739 124.869 357.006 125.698 357.54C126.528 358.074 127.178 358.844 127.65 359.849C128.127 360.855 128.366 362.065 128.366 363.48C128.366 364.895 128.13 366.108 127.658 367.119C127.187 368.125 126.539 368.901 125.715 369.446C124.891 369.986 123.951 370.256 122.894 370.256C122.099 370.256 121.448 370.122 120.942 369.855C120.442 369.588 120.05 369.276 119.766 368.918C119.482 368.56 119.263 368.241 119.11 367.963H118.957V374.909H116.408ZM118.906 363.455C118.906 364.375 119.039 365.182 119.306 365.875C119.573 366.568 119.96 367.111 120.465 367.503C120.971 367.889 121.59 368.082 122.323 368.082C123.085 368.082 123.721 367.881 124.232 367.477C124.744 367.068 125.13 366.514 125.391 365.815C125.658 365.116 125.792 364.33 125.792 363.455C125.792 362.591 125.661 361.815 125.4 361.128C125.144 360.44 124.758 359.898 124.241 359.5C123.729 359.102 123.09 358.903 122.323 358.903C121.585 358.903 120.96 359.094 120.448 359.474C119.942 359.855 119.559 360.386 119.298 361.068C119.036 361.75 118.906 362.545 118.906 363.455ZM136.121 370.256C135.065 370.256 134.121 369.986 133.292 369.446C132.468 368.901 131.82 368.125 131.349 367.119C130.883 366.108 130.65 364.895 130.65 363.48C130.65 362.065 130.886 360.855 131.357 359.849C131.835 358.844 132.488 358.074 133.317 357.54C134.147 357.006 135.087 356.739 136.138 356.739C136.951 356.739 137.604 356.875 138.099 357.148C138.599 357.415 138.985 357.727 139.258 358.085C139.536 358.443 139.752 358.759 139.906 359.031H140.059V352.545H142.607V370H140.119V367.963H139.906C139.752 368.241 139.531 368.56 139.241 368.918C138.957 369.276 138.565 369.588 138.065 369.855C137.565 370.122 136.917 370.256 136.121 370.256ZM136.684 368.082C137.417 368.082 138.036 367.889 138.542 367.503C139.053 367.111 139.44 366.568 139.701 365.875C139.968 365.182 140.102 364.375 140.102 363.455C140.102 362.545 139.971 361.75 139.71 361.068C139.448 360.386 139.065 359.855 138.559 359.474C138.053 359.094 137.428 358.903 136.684 358.903C135.917 358.903 135.278 359.102 134.766 359.5C134.255 359.898 133.869 360.44 133.607 361.128C133.352 361.815 133.224 362.591 133.224 363.455C133.224 364.33 133.354 365.116 133.616 365.815C133.877 366.514 134.263 367.068 134.775 367.477C135.292 367.881 135.928 368.082 136.684 368.082ZM150.054 370.29C149.224 370.29 148.474 370.136 147.804 369.83C147.134 369.517 146.602 369.065 146.21 368.474C145.824 367.884 145.631 367.159 145.631 366.301C145.631 365.562 145.773 364.955 146.057 364.477C146.341 364 146.724 363.622 147.207 363.344C147.69 363.065 148.23 362.855 148.827 362.713C149.423 362.571 150.031 362.463 150.651 362.389C151.435 362.298 152.071 362.224 152.56 362.168C153.048 362.105 153.403 362.006 153.625 361.869C153.847 361.733 153.957 361.511 153.957 361.205V361.145C153.957 360.401 153.747 359.824 153.327 359.415C152.912 359.006 152.293 358.801 151.469 358.801C150.611 358.801 149.935 358.991 149.44 359.372C148.952 359.747 148.614 360.165 148.426 360.625L146.031 360.08C146.315 359.284 146.73 358.642 147.276 358.153C147.827 357.659 148.46 357.301 149.176 357.08C149.892 356.852 150.645 356.739 151.435 356.739C151.957 356.739 152.511 356.801 153.097 356.926C153.688 357.045 154.239 357.267 154.75 357.591C155.267 357.915 155.69 358.378 156.02 358.98C156.349 359.577 156.514 360.352 156.514 361.307V370H154.026V368.21H153.923C153.759 368.54 153.511 368.864 153.182 369.182C152.852 369.5 152.429 369.764 151.912 369.974C151.395 370.185 150.776 370.29 150.054 370.29ZM150.608 368.244C151.313 368.244 151.915 368.105 152.415 367.827C152.92 367.548 153.304 367.185 153.565 366.736C153.832 366.281 153.966 365.795 153.966 365.278V363.591C153.875 363.682 153.699 363.767 153.438 363.847C153.182 363.92 152.889 363.986 152.56 364.043C152.23 364.094 151.909 364.142 151.597 364.188C151.284 364.227 151.023 364.261 150.812 364.29C150.318 364.352 149.866 364.457 149.457 364.605C149.054 364.753 148.73 364.966 148.486 365.244C148.247 365.517 148.128 365.881 148.128 366.335C148.128 366.966 148.361 367.443 148.827 367.767C149.293 368.085 149.886 368.244 150.608 368.244ZM166.019 356.909V358.955H158.869V356.909H166.019ZM160.786 353.773H163.335V366.156C163.335 366.651 163.408 367.023 163.556 367.273C163.704 367.517 163.894 367.685 164.127 367.776C164.366 367.861 164.624 367.903 164.903 367.903C165.107 367.903 165.286 367.889 165.44 367.861C165.593 367.832 165.712 367.81 165.798 367.793L166.258 369.898C166.11 369.955 165.9 370.011 165.627 370.068C165.354 370.131 165.013 370.165 164.604 370.17C163.934 370.182 163.309 370.062 162.729 369.812C162.15 369.562 161.681 369.176 161.323 368.653C160.965 368.131 160.786 367.474 160.786 366.685V353.773ZM174.339 370.264C173.05 370.264 171.939 369.989 171.007 369.438C170.081 368.881 169.365 368.099 168.859 367.094C168.359 366.082 168.109 364.898 168.109 363.54C168.109 362.199 168.359 361.017 168.859 359.994C169.365 358.972 170.07 358.173 170.973 357.599C171.882 357.026 172.945 356.739 174.161 356.739C174.899 356.739 175.615 356.861 176.308 357.105C177.001 357.349 177.624 357.733 178.175 358.256C178.726 358.778 179.161 359.457 179.479 360.293C179.797 361.122 179.956 362.131 179.956 363.318V364.222H169.55V362.312H177.459C177.459 361.642 177.322 361.048 177.05 360.531C176.777 360.009 176.393 359.597 175.899 359.295C175.411 358.994 174.837 358.844 174.178 358.844C173.462 358.844 172.837 359.02 172.303 359.372C171.774 359.719 171.365 360.173 171.075 360.736C170.791 361.293 170.649 361.898 170.649 362.551V364.043C170.649 364.918 170.803 365.662 171.109 366.276C171.422 366.889 171.857 367.358 172.413 367.682C172.97 368 173.621 368.159 174.365 368.159C174.848 368.159 175.288 368.091 175.686 367.955C176.084 367.812 176.428 367.602 176.717 367.324C177.007 367.045 177.229 366.702 177.382 366.293L179.794 366.727C179.601 367.437 179.254 368.06 178.754 368.594C178.26 369.122 177.638 369.534 176.888 369.83C176.143 370.119 175.294 370.264 174.339 370.264ZM190.746 374.909C190.365 374.909 190.018 374.878 189.706 374.815C189.393 374.759 189.161 374.696 189.007 374.628L189.621 372.54C190.087 372.665 190.501 372.719 190.865 372.702C191.229 372.685 191.55 372.548 191.828 372.293C192.112 372.037 192.362 371.619 192.578 371.04L192.893 370.17L188.104 356.909H190.831L194.146 367.068H194.283L197.598 356.909H200.334L194.939 371.747C194.689 372.429 194.371 373.006 193.984 373.477C193.598 373.955 193.138 374.313 192.604 374.551C192.07 374.79 191.45 374.909 190.746 374.909ZM207.798 370.264C206.57 370.264 205.499 369.983 204.585 369.42C203.67 368.858 202.96 368.071 202.454 367.06C201.948 366.048 201.695 364.866 201.695 363.514C201.695 362.156 201.948 360.969 202.454 359.952C202.96 358.935 203.67 358.145 204.585 357.582C205.499 357.02 206.57 356.739 207.798 356.739C209.025 356.739 210.096 357.02 211.011 357.582C211.925 358.145 212.636 358.935 213.141 359.952C213.647 360.969 213.9 362.156 213.9 363.514C213.9 364.866 213.647 366.048 213.141 367.06C212.636 368.071 211.925 368.858 211.011 369.42C210.096 369.983 209.025 370.264 207.798 370.264ZM207.806 368.125C208.602 368.125 209.261 367.915 209.783 367.494C210.306 367.074 210.692 366.514 210.942 365.815C211.198 365.116 211.326 364.347 211.326 363.506C211.326 362.67 211.198 361.903 210.942 361.205C210.692 360.5 210.306 359.935 209.783 359.509C209.261 359.082 208.602 358.869 207.806 358.869C207.005 358.869 206.34 359.082 205.812 359.509C205.289 359.935 204.9 360.5 204.644 361.205C204.394 361.903 204.269 362.67 204.269 363.506C204.269 364.347 204.394 365.116 204.644 365.815C204.9 366.514 205.289 367.074 205.812 367.494C206.34 367.915 207.005 368.125 207.806 368.125ZM225.037 364.571V356.909H227.594V370H225.088V367.733H224.952C224.651 368.432 224.168 369.014 223.503 369.48C222.844 369.94 222.023 370.17 221.04 370.17C220.199 370.17 219.455 369.986 218.807 369.616C218.165 369.241 217.659 368.688 217.29 367.955C216.926 367.222 216.744 366.315 216.744 365.236V356.909H219.293V364.929C219.293 365.821 219.54 366.531 220.034 367.06C220.528 367.588 221.17 367.852 221.96 367.852C222.438 367.852 222.912 367.733 223.384 367.494C223.861 367.256 224.256 366.895 224.568 366.412C224.886 365.929 225.043 365.315 225.037 364.571ZM231.018 370V356.909H233.481V358.989H233.617C233.856 358.284 234.276 357.73 234.879 357.327C235.487 356.918 236.174 356.713 236.941 356.713C237.1 356.713 237.288 356.719 237.504 356.73C237.725 356.741 237.898 356.756 238.023 356.773V359.21C237.921 359.182 237.739 359.151 237.478 359.116C237.217 359.077 236.955 359.057 236.694 359.057C236.092 359.057 235.555 359.185 235.083 359.44C234.617 359.69 234.248 360.04 233.975 360.489C233.702 360.932 233.566 361.437 233.566 362.006V370H231.018ZM249.129 362.227V370H246.58V352.545H249.094V359.04H249.256C249.563 358.335 250.032 357.776 250.663 357.361C251.293 356.946 252.117 356.739 253.134 356.739C254.032 356.739 254.816 356.923 255.487 357.293C256.163 357.662 256.685 358.213 257.055 358.946C257.43 359.673 257.617 360.582 257.617 361.673V370H255.069V361.98C255.069 361.02 254.822 360.276 254.327 359.747C253.833 359.213 253.146 358.946 252.265 358.946C251.663 358.946 251.123 359.074 250.646 359.33C250.174 359.585 249.802 359.96 249.529 360.455C249.262 360.943 249.129 361.534 249.129 362.227ZM266.532 370.264C265.305 370.264 264.234 369.983 263.319 369.42C262.404 368.858 261.694 368.071 261.188 367.06C260.683 366.048 260.43 364.866 260.43 363.514C260.43 362.156 260.683 360.969 261.188 359.952C261.694 358.935 262.404 358.145 263.319 357.582C264.234 357.02 265.305 356.739 266.532 356.739C267.759 356.739 268.83 357.02 269.745 357.582C270.66 358.145 271.37 358.935 271.876 359.952C272.381 360.969 272.634 362.156 272.634 363.514C272.634 364.866 272.381 366.048 271.876 367.06C271.37 368.071 270.66 368.858 269.745 369.42C268.83 369.983 267.759 370.264 266.532 370.264ZM266.54 368.125C267.336 368.125 267.995 367.915 268.518 367.494C269.04 367.074 269.427 366.514 269.677 365.815C269.933 365.116 270.06 364.347 270.06 363.506C270.06 362.67 269.933 361.903 269.677 361.205C269.427 360.5 269.04 359.935 268.518 359.509C267.995 359.082 267.336 358.869 266.54 358.869C265.739 358.869 265.075 359.082 264.546 359.509C264.023 359.935 263.634 360.5 263.379 361.205C263.129 361.903 263.004 362.67 263.004 363.506C263.004 364.347 263.129 365.116 263.379 365.815C263.634 366.514 264.023 367.074 264.546 367.494C265.075 367.915 265.739 368.125 266.54 368.125ZM275.479 370V356.909H277.925V359.04H278.087C278.359 358.318 278.805 357.756 279.425 357.352C280.044 356.943 280.786 356.739 281.649 356.739C282.524 356.739 283.257 356.943 283.848 357.352C284.445 357.761 284.885 358.324 285.169 359.04H285.305C285.618 358.341 286.115 357.784 286.797 357.369C287.479 356.949 288.291 356.739 289.234 356.739C290.422 356.739 291.391 357.111 292.141 357.855C292.896 358.599 293.274 359.722 293.274 361.222V370H290.726V361.46C290.726 360.574 290.484 359.932 290.001 359.534C289.518 359.136 288.942 358.938 288.271 358.938C287.442 358.938 286.797 359.193 286.337 359.705C285.876 360.21 285.646 360.861 285.646 361.656V370H283.107V361.298C283.107 360.588 282.885 360.017 282.442 359.585C281.999 359.153 281.422 358.938 280.712 358.938C280.229 358.938 279.783 359.065 279.374 359.321C278.97 359.571 278.643 359.92 278.393 360.369C278.149 360.818 278.027 361.338 278.027 361.929V370H275.479ZM302.332 370.264C301.042 370.264 299.931 369.989 298.999 369.438C298.073 368.881 297.357 368.099 296.852 367.094C296.352 366.082 296.102 364.898 296.102 363.54C296.102 362.199 296.352 361.017 296.852 359.994C297.357 358.972 298.062 358.173 298.965 357.599C299.874 357.026 300.937 356.739 302.153 356.739C302.891 356.739 303.607 356.861 304.3 357.105C304.994 357.349 305.616 357.733 306.167 358.256C306.718 358.778 307.153 359.457 307.471 360.293C307.789 361.122 307.948 362.131 307.948 363.318V364.222H297.542V362.312H305.451C305.451 361.642 305.315 361.048 305.042 360.531C304.769 360.009 304.386 359.597 303.891 359.295C303.403 358.994 302.829 358.844 302.17 358.844C301.454 358.844 300.829 359.02 300.295 359.372C299.766 359.719 299.357 360.173 299.067 360.736C298.783 361.293 298.641 361.898 298.641 362.551V364.043C298.641 364.918 298.795 365.662 299.102 366.276C299.414 366.889 299.849 367.358 300.406 367.682C300.962 368 301.613 368.159 302.357 368.159C302.84 368.159 303.281 368.091 303.678 367.955C304.076 367.812 304.42 367.602 304.71 367.324C304.999 367.045 305.221 366.702 305.374 366.293L307.786 366.727C307.593 367.437 307.246 368.06 306.746 368.594C306.252 369.122 305.63 369.534 304.88 369.83C304.136 370.119 303.286 370.264 302.332 370.264ZM320.937 370.29C320.107 370.29 319.357 370.136 318.687 369.83C318.016 369.517 317.485 369.065 317.093 368.474C316.707 367.884 316.513 367.159 316.513 366.301C316.513 365.562 316.656 364.955 316.94 364.477C317.224 364 317.607 363.622 318.09 363.344C318.573 363.065 319.113 362.855 319.71 362.713C320.306 362.571 320.914 362.463 321.533 362.389C322.317 362.298 322.954 362.224 323.442 362.168C323.931 362.105 324.286 362.006 324.508 361.869C324.729 361.733 324.84 361.511 324.84 361.205V361.145C324.84 360.401 324.63 359.824 324.21 359.415C323.795 359.006 323.175 358.801 322.352 358.801C321.494 358.801 320.817 358.991 320.323 359.372C319.835 359.747 319.496 360.165 319.309 360.625L316.914 360.08C317.198 359.284 317.613 358.642 318.158 358.153C318.71 357.659 319.343 357.301 320.059 357.08C320.775 356.852 321.528 356.739 322.317 356.739C322.84 356.739 323.394 356.801 323.979 356.926C324.57 357.045 325.121 357.267 325.633 357.591C326.15 357.915 326.573 358.378 326.903 358.98C327.232 359.577 327.397 360.352 327.397 361.307V370H324.908V368.21H324.806C324.641 368.54 324.394 368.864 324.065 369.182C323.735 369.5 323.312 369.764 322.795 369.974C322.278 370.185 321.658 370.29 320.937 370.29ZM321.491 368.244C322.195 368.244 322.798 368.105 323.298 367.827C323.803 367.548 324.187 367.185 324.448 366.736C324.715 366.281 324.849 365.795 324.849 365.278V363.591C324.758 363.682 324.582 363.767 324.32 363.847C324.065 363.92 323.772 363.986 323.442 364.043C323.113 364.094 322.792 364.142 322.479 364.188C322.167 364.227 321.906 364.261 321.695 364.29C321.201 364.352 320.749 364.457 320.34 364.605C319.937 364.753 319.613 364.966 319.369 365.244C319.13 365.517 319.011 365.881 319.011 366.335C319.011 366.966 319.244 367.443 319.71 367.767C320.175 368.085 320.769 368.244 321.491 368.244ZM335.692 370.256C334.635 370.256 333.692 369.986 332.862 369.446C332.038 368.901 331.391 368.125 330.919 367.119C330.453 366.108 330.22 364.895 330.22 363.48C330.22 362.065 330.456 360.855 330.928 359.849C331.405 358.844 332.058 358.074 332.888 357.54C333.717 357.006 334.658 356.739 335.709 356.739C336.521 356.739 337.175 356.875 337.669 357.148C338.169 357.415 338.555 357.727 338.828 358.085C339.107 358.443 339.322 358.759 339.476 359.031H339.629V352.545H342.178V370H339.689V367.963H339.476C339.322 368.241 339.101 368.56 338.811 368.918C338.527 369.276 338.135 369.588 337.635 369.855C337.135 370.122 336.487 370.256 335.692 370.256ZM336.254 368.082C336.987 368.082 337.607 367.889 338.112 367.503C338.624 367.111 339.01 366.568 339.271 365.875C339.538 365.182 339.672 364.375 339.672 363.455C339.672 362.545 339.541 361.75 339.28 361.068C339.018 360.386 338.635 359.855 338.129 359.474C337.624 359.094 336.999 358.903 336.254 358.903C335.487 358.903 334.848 359.102 334.337 359.5C333.825 359.898 333.439 360.44 333.178 361.128C332.922 361.815 332.794 362.591 332.794 363.455C332.794 364.33 332.925 365.116 333.186 365.815C333.447 366.514 333.834 367.068 334.345 367.477C334.862 367.881 335.499 368.082 336.254 368.082ZM350.715 370.256C349.658 370.256 348.715 369.986 347.886 369.446C347.062 368.901 346.414 368.125 345.942 367.119C345.477 366.108 345.244 364.895 345.244 363.48C345.244 362.065 345.479 360.855 345.951 359.849C346.428 358.844 347.082 358.074 347.911 357.54C348.741 357.006 349.681 356.739 350.732 356.739C351.545 356.739 352.198 356.875 352.692 357.148C353.192 357.415 353.579 357.727 353.852 358.085C354.13 358.443 354.346 358.759 354.499 359.031H354.653V352.545H357.201V370H354.712V367.963H354.499C354.346 368.241 354.124 368.56 353.835 368.918C353.55 369.276 353.158 369.588 352.658 369.855C352.158 370.122 351.511 370.256 350.715 370.256ZM351.278 368.082C352.011 368.082 352.63 367.889 353.136 367.503C353.647 367.111 354.033 366.568 354.295 365.875C354.562 365.182 354.695 364.375 354.695 363.455C354.695 362.545 354.565 361.75 354.303 361.068C354.042 360.386 353.658 359.855 353.153 359.474C352.647 359.094 352.022 358.903 351.278 358.903C350.511 358.903 349.871 359.102 349.36 359.5C348.849 359.898 348.462 360.44 348.201 361.128C347.945 361.815 347.817 362.591 347.817 363.455C347.817 364.33 347.948 365.116 348.21 365.815C348.471 366.514 348.857 367.068 349.369 367.477C349.886 367.881 350.522 368.082 351.278 368.082ZM360.838 370V356.909H363.301V358.989H363.438C363.676 358.284 364.097 357.73 364.699 357.327C365.307 356.918 365.994 356.713 366.761 356.713C366.92 356.713 367.108 356.719 367.324 356.73C367.545 356.741 367.719 356.756 367.844 356.773V359.21C367.741 359.182 367.56 359.151 367.298 359.116C367.037 359.077 366.776 359.057 366.514 359.057C365.912 359.057 365.375 359.185 364.903 359.44C364.438 359.69 364.068 360.04 363.795 360.489C363.523 360.932 363.386 361.437 363.386 362.006V370H360.838ZM375.222 370.264C373.933 370.264 372.822 369.989 371.89 369.438C370.964 368.881 370.248 368.099 369.742 367.094C369.242 366.082 368.992 364.898 368.992 363.54C368.992 362.199 369.242 361.017 369.742 359.994C370.248 358.972 370.952 358.173 371.856 357.599C372.765 357.026 373.827 356.739 375.043 356.739C375.782 356.739 376.498 356.861 377.191 357.105C377.884 357.349 378.506 357.733 379.058 358.256C379.609 358.778 380.043 359.457 380.362 360.293C380.68 361.122 380.839 362.131 380.839 363.318V364.222H370.433V362.312H378.342C378.342 361.642 378.205 361.048 377.933 360.531C377.66 360.009 377.276 359.597 376.782 359.295C376.293 358.994 375.719 358.844 375.06 358.844C374.344 358.844 373.719 359.02 373.185 359.372C372.657 359.719 372.248 360.173 371.958 360.736C371.674 361.293 371.532 361.898 371.532 362.551V364.043C371.532 364.918 371.685 365.662 371.992 366.276C372.305 366.889 372.739 367.358 373.296 367.682C373.853 368 374.504 368.159 375.248 368.159C375.731 368.159 376.171 368.091 376.569 367.955C376.967 367.812 377.31 367.602 377.6 367.324C377.89 367.045 378.112 366.702 378.265 366.293L380.677 366.727C380.484 367.437 380.137 368.06 379.637 368.594C379.143 369.122 378.521 369.534 377.771 369.83C377.026 370.119 376.177 370.264 375.222 370.264ZM393.476 360.105L391.166 360.514C391.07 360.219 390.916 359.937 390.706 359.67C390.501 359.403 390.223 359.185 389.871 359.014C389.518 358.844 389.078 358.759 388.55 358.759C387.828 358.759 387.226 358.92 386.743 359.244C386.26 359.562 386.018 359.974 386.018 360.48C386.018 360.918 386.18 361.27 386.504 361.537C386.828 361.804 387.351 362.023 388.072 362.193L390.152 362.67C391.357 362.949 392.254 363.378 392.845 363.957C393.436 364.537 393.732 365.29 393.732 366.216C393.732 367 393.504 367.699 393.05 368.312C392.601 368.92 391.973 369.398 391.166 369.744C390.365 370.091 389.436 370.264 388.379 370.264C386.913 370.264 385.717 369.952 384.791 369.327C383.865 368.696 383.297 367.801 383.087 366.642L385.55 366.267C385.703 366.909 386.018 367.395 386.496 367.724C386.973 368.048 387.595 368.21 388.362 368.21C389.197 368.21 389.865 368.037 390.365 367.69C390.865 367.338 391.115 366.909 391.115 366.403C391.115 365.994 390.962 365.651 390.655 365.372C390.354 365.094 389.891 364.884 389.266 364.741L387.05 364.256C385.828 363.977 384.925 363.534 384.339 362.926C383.76 362.318 383.47 361.548 383.47 360.616C383.47 359.844 383.686 359.168 384.118 358.588C384.55 358.009 385.146 357.557 385.908 357.233C386.669 356.903 387.541 356.739 388.524 356.739C389.939 356.739 391.053 357.045 391.865 357.659C392.678 358.267 393.214 359.082 393.476 360.105ZM406.343 360.105L404.033 360.514C403.937 360.219 403.783 359.937 403.573 359.67C403.369 359.403 403.09 359.185 402.738 359.014C402.386 358.844 401.945 358.759 401.417 358.759C400.695 358.759 400.093 358.92 399.61 359.244C399.127 359.562 398.886 359.974 398.886 360.48C398.886 360.918 399.048 361.27 399.371 361.537C399.695 361.804 400.218 362.023 400.94 362.193L403.019 362.67C404.224 362.949 405.121 363.378 405.712 363.957C406.303 364.537 406.599 365.29 406.599 366.216C406.599 367 406.371 367.699 405.917 368.312C405.468 368.92 404.84 369.398 404.033 369.744C403.232 370.091 402.303 370.264 401.246 370.264C399.781 370.264 398.585 369.952 397.658 369.327C396.732 368.696 396.164 367.801 395.954 366.642L398.417 366.267C398.57 366.909 398.886 367.395 399.363 367.724C399.84 368.048 400.462 368.21 401.229 368.21C402.065 368.21 402.732 368.037 403.232 367.69C403.732 367.338 403.982 366.909 403.982 366.403C403.982 365.994 403.829 365.651 403.522 365.372C403.221 365.094 402.758 364.884 402.133 364.741L399.917 364.256C398.695 363.977 397.792 363.534 397.207 362.926C396.627 362.318 396.337 361.548 396.337 360.616C396.337 359.844 396.553 359.168 396.985 358.588C397.417 358.009 398.013 357.557 398.775 357.233C399.536 356.903 400.408 356.739 401.391 356.739C402.806 356.739 403.92 357.045 404.732 357.659C405.545 358.267 406.082 359.082 406.343 360.105ZM104.824 391.909V393.955H97.6733V391.909H104.824ZM99.5909 388.773H102.139V401.156C102.139 401.651 102.213 402.023 102.361 402.273C102.509 402.517 102.699 402.685 102.932 402.776C103.17 402.861 103.429 402.903 103.707 402.903C103.912 402.903 104.091 402.889 104.244 402.861C104.398 402.832 104.517 402.81 104.602 402.793L105.062 404.898C104.915 404.955 104.705 405.011 104.432 405.068C104.159 405.131 103.818 405.165 103.409 405.17C102.739 405.182 102.114 405.062 101.534 404.812C100.955 404.562 100.486 404.176 100.128 403.653C99.7699 403.131 99.5909 402.474 99.5909 401.685V388.773ZM113.016 405.264C111.789 405.264 110.718 404.983 109.803 404.42C108.888 403.858 108.178 403.071 107.673 402.06C107.167 401.048 106.914 399.866 106.914 398.514C106.914 397.156 107.167 395.969 107.673 394.952C108.178 393.935 108.888 393.145 109.803 392.582C110.718 392.02 111.789 391.739 113.016 391.739C114.244 391.739 115.315 392.02 116.229 392.582C117.144 393.145 117.854 393.935 118.36 394.952C118.866 395.969 119.119 397.156 119.119 398.514C119.119 399.866 118.866 401.048 118.36 402.06C117.854 403.071 117.144 403.858 116.229 404.42C115.315 404.983 114.244 405.264 113.016 405.264ZM113.025 403.125C113.82 403.125 114.479 402.915 115.002 402.494C115.525 402.074 115.911 401.514 116.161 400.815C116.417 400.116 116.545 399.347 116.545 398.506C116.545 397.67 116.417 396.903 116.161 396.205C115.911 395.5 115.525 394.935 115.002 394.509C114.479 394.082 113.82 393.869 113.025 393.869C112.224 393.869 111.559 394.082 111.031 394.509C110.508 394.935 110.119 395.5 109.863 396.205C109.613 396.903 109.488 397.67 109.488 398.506C109.488 399.347 109.613 400.116 109.863 400.815C110.119 401.514 110.508 402.074 111.031 402.494C111.559 402.915 112.224 403.125 113.025 403.125ZM133.957 405.264C132.667 405.264 131.556 404.989 130.624 404.438C129.698 403.881 128.982 403.099 128.477 402.094C127.977 401.082 127.727 399.898 127.727 398.54C127.727 397.199 127.977 396.017 128.477 394.994C128.982 393.972 129.687 393.173 130.59 392.599C131.499 392.026 132.562 391.739 133.778 391.739C134.516 391.739 135.232 391.861 135.925 392.105C136.619 392.349 137.241 392.733 137.792 393.256C138.343 393.778 138.778 394.457 139.096 395.293C139.414 396.122 139.573 397.131 139.573 398.318V399.222H129.167V397.312H137.076C137.076 396.642 136.94 396.048 136.667 395.531C136.394 395.009 136.011 394.597 135.516 394.295C135.028 393.994 134.454 393.844 133.795 393.844C133.079 393.844 132.454 394.02 131.92 394.372C131.391 394.719 130.982 395.173 130.692 395.736C130.408 396.293 130.266 396.898 130.266 397.551V399.043C130.266 399.918 130.42 400.662 130.727 401.276C131.039 401.889 131.474 402.358 132.031 402.682C132.587 403 133.238 403.159 133.982 403.159C134.465 403.159 134.906 403.091 135.303 402.955C135.701 402.812 136.045 402.602 136.335 402.324C136.624 402.045 136.846 401.702 136.999 401.293L139.411 401.727C139.218 402.437 138.871 403.06 138.371 403.594C137.877 404.122 137.255 404.534 136.505 404.83C135.761 405.119 134.911 405.264 133.957 405.264ZM144.949 397.227V405H142.401V391.909H144.847V394.04H145.009C145.31 393.347 145.781 392.79 146.423 392.369C147.071 391.949 147.886 391.739 148.869 391.739C149.761 391.739 150.543 391.926 151.213 392.301C151.884 392.67 152.403 393.222 152.773 393.955C153.142 394.687 153.327 395.594 153.327 396.673V405H150.778V396.98C150.778 396.031 150.531 395.29 150.037 394.756C149.543 394.216 148.864 393.946 148 393.946C147.409 393.946 146.884 394.074 146.423 394.33C145.969 394.585 145.608 394.96 145.341 395.455C145.08 395.943 144.949 396.534 144.949 397.227ZM166.554 395.105L164.244 395.514C164.148 395.219 163.994 394.937 163.784 394.67C163.58 394.403 163.301 394.185 162.949 394.014C162.597 393.844 162.156 393.759 161.628 393.759C160.906 393.759 160.304 393.92 159.821 394.244C159.338 394.562 159.097 394.974 159.097 395.48C159.097 395.918 159.259 396.27 159.582 396.537C159.906 396.804 160.429 397.023 161.151 397.193L163.23 397.67C164.435 397.949 165.332 398.378 165.923 398.957C166.514 399.537 166.81 400.29 166.81 401.216C166.81 402 166.582 402.699 166.128 403.312C165.679 403.92 165.051 404.398 164.244 404.744C163.443 405.091 162.514 405.264 161.457 405.264C159.991 405.264 158.795 404.952 157.869 404.327C156.943 403.696 156.375 402.801 156.165 401.642L158.628 401.267C158.781 401.909 159.097 402.395 159.574 402.724C160.051 403.048 160.673 403.21 161.44 403.21C162.276 403.21 162.943 403.037 163.443 402.69C163.943 402.338 164.193 401.909 164.193 401.403C164.193 400.994 164.04 400.651 163.733 400.372C163.432 400.094 162.969 399.884 162.344 399.741L160.128 399.256C158.906 398.977 158.003 398.534 157.418 397.926C156.838 397.318 156.548 396.548 156.548 395.616C156.548 394.844 156.764 394.168 157.196 393.588C157.628 393.009 158.224 392.557 158.986 392.233C159.747 391.903 160.619 391.739 161.602 391.739C163.017 391.739 164.131 392.045 164.943 392.659C165.756 393.267 166.293 394.082 166.554 395.105ZM177.904 399.571V391.909H180.461V405H177.955V402.733H177.819C177.518 403.432 177.035 404.014 176.37 404.48C175.711 404.94 174.89 405.17 173.907 405.17C173.066 405.17 172.322 404.986 171.674 404.616C171.032 404.241 170.526 403.688 170.157 402.955C169.793 402.222 169.612 401.315 169.612 400.236V391.909H172.16V399.929C172.16 400.821 172.407 401.531 172.901 402.06C173.396 402.588 174.038 402.852 174.827 402.852C175.305 402.852 175.779 402.733 176.251 402.494C176.728 402.256 177.123 401.895 177.435 401.412C177.754 400.929 177.91 400.315 177.904 399.571ZM183.885 405V391.909H186.348V393.989H186.484C186.723 393.284 187.143 392.73 187.746 392.327C188.354 391.918 189.041 391.713 189.808 391.713C189.967 391.713 190.155 391.719 190.371 391.73C190.592 391.741 190.766 391.756 190.891 391.773V394.21C190.788 394.182 190.607 394.151 190.345 394.116C190.084 394.077 189.822 394.057 189.561 394.057C188.959 394.057 188.422 394.185 187.95 394.44C187.484 394.69 187.115 395.04 186.842 395.489C186.57 395.932 186.433 396.437 186.433 397.006V405H183.885ZM198.269 405.264C196.979 405.264 195.869 404.989 194.937 404.438C194.011 403.881 193.295 403.099 192.789 402.094C192.289 401.082 192.039 399.898 192.039 398.54C192.039 397.199 192.289 396.017 192.789 394.994C193.295 393.972 193.999 393.173 194.903 392.599C195.812 392.026 196.874 391.739 198.09 391.739C198.829 391.739 199.545 391.861 200.238 392.105C200.931 392.349 201.553 392.733 202.104 393.256C202.656 393.778 203.09 394.457 203.408 395.293C203.727 396.122 203.886 397.131 203.886 398.318V399.222H193.479V397.312H201.388C201.388 396.642 201.252 396.048 200.979 395.531C200.707 395.009 200.323 394.597 199.829 394.295C199.34 393.994 198.766 393.844 198.107 393.844C197.391 393.844 196.766 394.02 196.232 394.372C195.704 394.719 195.295 395.173 195.005 395.736C194.721 396.293 194.579 396.898 194.579 397.551V399.043C194.579 399.918 194.732 400.662 195.039 401.276C195.352 401.889 195.786 402.358 196.343 402.682C196.9 403 197.55 403.159 198.295 403.159C198.778 403.159 199.218 403.091 199.616 402.955C200.013 402.812 200.357 402.602 200.647 402.324C200.937 402.045 201.158 401.702 201.312 401.293L203.724 401.727C203.531 402.437 203.184 403.06 202.684 403.594C202.19 404.122 201.567 404.534 200.817 404.83C200.073 405.119 199.224 405.264 198.269 405.264ZM216.874 405.29C216.045 405.29 215.295 405.136 214.624 404.83C213.954 404.517 213.423 404.065 213.031 403.474C212.644 402.884 212.451 402.159 212.451 401.301C212.451 400.562 212.593 399.955 212.877 399.477C213.161 399 213.545 398.622 214.028 398.344C214.511 398.065 215.05 397.855 215.647 397.713C216.244 397.571 216.852 397.463 217.471 397.389C218.255 397.298 218.891 397.224 219.38 397.168C219.869 397.105 220.224 397.006 220.445 396.869C220.667 396.733 220.778 396.511 220.778 396.205V396.145C220.778 395.401 220.567 394.824 220.147 394.415C219.732 394.006 219.113 393.801 218.289 393.801C217.431 393.801 216.755 393.991 216.261 394.372C215.772 394.747 215.434 395.165 215.246 395.625L212.852 395.08C213.136 394.284 213.55 393.642 214.096 393.153C214.647 392.659 215.281 392.301 215.996 392.08C216.712 391.852 217.465 391.739 218.255 391.739C218.778 391.739 219.332 391.801 219.917 391.926C220.508 392.045 221.059 392.267 221.57 392.591C222.087 392.915 222.511 393.378 222.84 393.98C223.17 394.577 223.335 395.352 223.335 396.307V405H220.846V403.21H220.744C220.579 403.54 220.332 403.864 220.002 404.182C219.673 404.5 219.249 404.764 218.732 404.974C218.215 405.185 217.596 405.29 216.874 405.29ZM217.428 403.244C218.133 403.244 218.735 403.105 219.235 402.827C219.741 402.548 220.124 402.185 220.386 401.736C220.653 401.281 220.786 400.795 220.786 400.278V398.591C220.695 398.682 220.519 398.767 220.258 398.847C220.002 398.92 219.71 398.986 219.38 399.043C219.05 399.094 218.729 399.142 218.417 399.188C218.104 399.227 217.843 399.261 217.633 399.29C217.138 399.352 216.687 399.457 216.278 399.605C215.874 399.753 215.55 399.966 215.306 400.244C215.067 400.517 214.948 400.881 214.948 401.335C214.948 401.966 215.181 402.443 215.647 402.767C216.113 403.085 216.707 403.244 217.428 403.244ZM232.243 405.264C230.976 405.264 229.885 404.977 228.97 404.403C228.061 403.824 227.362 403.026 226.874 402.009C226.385 400.991 226.141 399.827 226.141 398.514C226.141 397.185 226.391 396.011 226.891 394.994C227.391 393.972 228.095 393.173 229.004 392.599C229.913 392.026 230.984 391.739 232.217 391.739C233.212 391.739 234.098 391.923 234.876 392.293C235.655 392.656 236.283 393.168 236.76 393.827C237.243 394.486 237.53 395.256 237.621 396.136H235.141C235.004 395.523 234.692 394.994 234.203 394.551C233.72 394.108 233.072 393.886 232.26 393.886C231.55 393.886 230.928 394.074 230.393 394.449C229.865 394.818 229.453 395.347 229.158 396.034C228.862 396.716 228.714 397.523 228.714 398.455C228.714 399.409 228.859 400.233 229.149 400.926C229.439 401.619 229.848 402.156 230.376 402.537C230.911 402.918 231.538 403.108 232.26 403.108C232.743 403.108 233.18 403.02 233.572 402.844C233.97 402.662 234.303 402.403 234.57 402.068C234.842 401.733 235.033 401.33 235.141 400.858H237.621C237.53 401.705 237.254 402.46 236.794 403.125C236.334 403.79 235.717 404.312 234.945 404.693C234.178 405.074 233.277 405.264 232.243 405.264ZM245.86 405.264C244.593 405.264 243.502 404.977 242.587 404.403C241.678 403.824 240.979 403.026 240.491 402.009C240.002 400.991 239.758 399.827 239.758 398.514C239.758 397.185 240.008 396.011 240.508 394.994C241.008 393.972 241.712 393.173 242.621 392.599C243.531 392.026 244.602 391.739 245.835 391.739C246.829 391.739 247.715 391.923 248.494 392.293C249.272 392.656 249.9 393.168 250.377 393.827C250.86 394.486 251.147 395.256 251.238 396.136H248.758C248.621 395.523 248.309 394.994 247.82 394.551C247.337 394.108 246.69 393.886 245.877 393.886C245.167 393.886 244.545 394.074 244.011 394.449C243.482 394.818 243.07 395.347 242.775 396.034C242.479 396.716 242.332 397.523 242.332 398.455C242.332 399.409 242.477 400.233 242.766 400.926C243.056 401.619 243.465 402.156 243.994 402.537C244.528 402.918 245.156 403.108 245.877 403.108C246.36 403.108 246.798 403.02 247.19 402.844C247.587 402.662 247.92 402.403 248.187 402.068C248.46 401.733 248.65 401.33 248.758 400.858H251.238C251.147 401.705 250.871 402.46 250.411 403.125C249.951 403.79 249.335 404.312 248.562 404.693C247.795 405.074 246.894 405.264 245.86 405.264ZM262.256 399.571V391.909H264.812V405H262.307V402.733H262.17C261.869 403.432 261.386 404.014 260.722 404.48C260.063 404.94 259.241 405.17 258.259 405.17C257.418 405.17 256.673 404.986 256.026 404.616C255.384 404.241 254.878 403.688 254.509 402.955C254.145 402.222 253.963 401.315 253.963 400.236V391.909H256.511V399.929C256.511 400.821 256.759 401.531 257.253 402.06C257.747 402.588 258.389 402.852 259.179 402.852C259.656 402.852 260.131 402.733 260.602 402.494C261.08 402.256 261.474 401.895 261.787 401.412C262.105 400.929 262.261 400.315 262.256 399.571ZM268.237 405V391.909H270.7V393.989H270.836C271.075 393.284 271.495 392.73 272.097 392.327C272.705 391.918 273.393 391.713 274.16 391.713C274.319 391.713 274.506 391.719 274.722 391.73C274.944 391.741 275.117 391.756 275.242 391.773V394.21C275.14 394.182 274.958 394.151 274.697 394.116C274.435 394.077 274.174 394.057 273.913 394.057C273.31 394.057 272.773 394.185 272.302 394.44C271.836 394.69 271.467 395.04 271.194 395.489C270.921 395.932 270.785 396.437 270.785 397.006V405H268.237ZM281.14 405.29C280.31 405.29 279.56 405.136 278.89 404.83C278.219 404.517 277.688 404.065 277.296 403.474C276.91 402.884 276.717 402.159 276.717 401.301C276.717 400.562 276.859 399.955 277.143 399.477C277.427 399 277.81 398.622 278.293 398.344C278.776 398.065 279.316 397.855 279.913 397.713C280.509 397.571 281.117 397.463 281.737 397.389C282.521 397.298 283.157 397.224 283.646 397.168C284.134 397.105 284.489 397.006 284.711 396.869C284.933 396.733 285.043 396.511 285.043 396.205V396.145C285.043 395.401 284.833 394.824 284.413 394.415C283.998 394.006 283.379 393.801 282.555 393.801C281.697 393.801 281.021 393.991 280.526 394.372C280.038 394.747 279.7 395.165 279.512 395.625L277.117 395.08C277.401 394.284 277.816 393.642 278.362 393.153C278.913 392.659 279.546 392.301 280.262 392.08C280.978 391.852 281.731 391.739 282.521 391.739C283.043 391.739 283.597 391.801 284.183 391.926C284.773 392.045 285.325 392.267 285.836 392.591C286.353 392.915 286.776 393.378 287.106 393.98C287.435 394.577 287.6 395.352 287.6 396.307V405H285.112V403.21H285.009C284.844 403.54 284.597 403.864 284.268 404.182C283.938 404.5 283.515 404.764 282.998 404.974C282.481 405.185 281.862 405.29 281.14 405.29ZM281.694 403.244C282.398 403.244 283.001 403.105 283.501 402.827C284.006 402.548 284.39 402.185 284.651 401.736C284.918 401.281 285.052 400.795 285.052 400.278V398.591C284.961 398.682 284.785 398.767 284.523 398.847C284.268 398.92 283.975 398.986 283.646 399.043C283.316 399.094 282.995 399.142 282.683 399.188C282.37 399.227 282.109 399.261 281.898 399.29C281.404 399.352 280.952 399.457 280.543 399.605C280.14 399.753 279.816 399.966 279.572 400.244C279.333 400.517 279.214 400.881 279.214 401.335C279.214 401.966 279.447 402.443 279.913 402.767C280.379 403.085 280.972 403.244 281.694 403.244ZM297.105 391.909V393.955H289.955V391.909H297.105ZM291.872 388.773H294.42V401.156C294.42 401.651 294.494 402.023 294.642 402.273C294.79 402.517 294.98 402.685 295.213 402.776C295.452 402.861 295.71 402.903 295.989 402.903C296.193 402.903 296.372 402.889 296.526 402.861C296.679 402.832 296.798 402.81 296.884 402.793L297.344 404.898C297.196 404.955 296.986 405.011 296.713 405.068C296.44 405.131 296.099 405.165 295.69 405.17C295.02 405.182 294.395 405.062 293.815 404.812C293.236 404.562 292.767 404.176 292.409 403.653C292.051 403.131 291.872 402.474 291.872 401.685V388.773ZM305.425 405.264C304.136 405.264 303.025 404.989 302.093 404.438C301.167 403.881 300.451 403.099 299.945 402.094C299.445 401.082 299.195 399.898 299.195 398.54C299.195 397.199 299.445 396.017 299.945 394.994C300.451 393.972 301.156 393.173 302.059 392.599C302.968 392.026 304.031 391.739 305.246 391.739C305.985 391.739 306.701 391.861 307.394 392.105C308.087 392.349 308.71 392.733 309.261 393.256C309.812 393.778 310.246 394.457 310.565 395.293C310.883 396.122 311.042 397.131 311.042 398.318V399.222H300.636V397.312H308.545C308.545 396.642 308.408 396.048 308.136 395.531C307.863 395.009 307.479 394.597 306.985 394.295C306.496 393.994 305.923 393.844 305.263 393.844C304.548 393.844 303.923 394.02 303.388 394.372C302.86 394.719 302.451 395.173 302.161 395.736C301.877 396.293 301.735 396.898 301.735 397.551V399.043C301.735 399.918 301.888 400.662 302.195 401.276C302.508 401.889 302.942 402.358 303.499 402.682C304.056 403 304.707 403.159 305.451 403.159C305.934 403.159 306.374 403.091 306.772 402.955C307.17 402.812 307.513 402.602 307.803 402.324C308.093 402.045 308.315 401.702 308.468 401.293L310.88 401.727C310.687 402.437 310.34 403.06 309.84 403.594C309.346 404.122 308.724 404.534 307.974 404.83C307.229 405.119 306.38 405.264 305.425 405.264ZM330.031 395.105L327.721 395.514C327.624 395.219 327.471 394.937 327.261 394.67C327.056 394.403 326.778 394.185 326.425 394.014C326.073 393.844 325.633 393.759 325.104 393.759C324.383 393.759 323.781 393.92 323.298 394.244C322.815 394.562 322.573 394.974 322.573 395.48C322.573 395.918 322.735 396.27 323.059 396.537C323.383 396.804 323.906 397.023 324.627 397.193L326.707 397.67C327.911 397.949 328.809 398.378 329.4 398.957C329.991 399.537 330.286 400.29 330.286 401.216C330.286 402 330.059 402.699 329.604 403.312C329.156 403.92 328.528 404.398 327.721 404.744C326.92 405.091 325.991 405.264 324.934 405.264C323.468 405.264 322.272 404.952 321.346 404.327C320.42 403.696 319.852 402.801 319.641 401.642L322.104 401.267C322.258 401.909 322.573 402.395 323.05 402.724C323.528 403.048 324.15 403.21 324.917 403.21C325.752 403.21 326.42 403.037 326.92 402.69C327.42 402.338 327.67 401.909 327.67 401.403C327.67 400.994 327.516 400.651 327.21 400.372C326.908 400.094 326.445 399.884 325.82 399.741L323.604 399.256C322.383 398.977 321.479 398.534 320.894 397.926C320.315 397.318 320.025 396.548 320.025 395.616C320.025 394.844 320.241 394.168 320.673 393.588C321.104 393.009 321.701 392.557 322.462 392.233C323.224 391.903 324.096 391.739 325.079 391.739C326.494 391.739 327.607 392.045 328.42 392.659C329.232 393.267 329.769 394.082 330.031 395.105ZM338.73 405.264C337.44 405.264 336.33 404.989 335.398 404.438C334.472 403.881 333.756 403.099 333.25 402.094C332.75 401.082 332.5 399.898 332.5 398.54C332.5 397.199 332.75 396.017 333.25 394.994C333.756 393.972 334.46 393.173 335.364 392.599C336.273 392.026 337.335 391.739 338.551 391.739C339.29 391.739 340.006 391.861 340.699 392.105C341.392 392.349 342.014 392.733 342.565 393.256C343.116 393.778 343.551 394.457 343.869 395.293C344.188 396.122 344.347 397.131 344.347 398.318V399.222H333.94V397.312H341.849C341.849 396.642 341.713 396.048 341.44 395.531C341.168 395.009 340.784 394.597 340.29 394.295C339.801 393.994 339.227 393.844 338.568 393.844C337.852 393.844 337.227 394.02 336.693 394.372C336.165 394.719 335.756 395.173 335.466 395.736C335.182 396.293 335.04 396.898 335.04 397.551V399.043C335.04 399.918 335.193 400.662 335.5 401.276C335.812 401.889 336.247 402.358 336.804 402.682C337.361 403 338.011 403.159 338.756 403.159C339.239 403.159 339.679 403.091 340.077 402.955C340.474 402.812 340.818 402.602 341.108 402.324C341.398 402.045 341.619 401.702 341.773 401.293L344.185 401.727C343.991 402.437 343.645 403.06 343.145 403.594C342.651 404.122 342.028 404.534 341.278 404.83C340.534 405.119 339.685 405.264 338.73 405.264ZM347.174 405V391.909H349.637V393.989H349.773C350.012 393.284 350.433 392.73 351.035 392.327C351.643 391.918 352.33 391.713 353.097 391.713C353.256 391.713 353.444 391.719 353.66 391.73C353.881 391.741 354.055 391.756 354.18 391.773V394.21C354.077 394.182 353.896 394.151 353.634 394.116C353.373 394.077 353.112 394.057 352.85 394.057C352.248 394.057 351.711 394.185 351.239 394.44C350.773 394.69 350.404 395.04 350.131 395.489C349.859 395.932 349.722 396.437 349.722 397.006V405H347.174ZM367.982 391.909L363.235 405H360.508L355.752 391.909H358.488L361.803 401.983H361.94L365.246 391.909H367.982ZM370.377 405V391.909H372.925V405H370.377ZM371.664 389.889C371.221 389.889 370.84 389.741 370.522 389.446C370.21 389.145 370.053 388.787 370.053 388.372C370.053 387.952 370.21 387.594 370.522 387.298C370.84 386.997 371.221 386.847 371.664 386.847C372.107 386.847 372.485 386.997 372.798 387.298C373.116 387.594 373.275 387.952 373.275 388.372C373.275 388.787 373.116 389.145 372.798 389.446C372.485 389.741 372.107 389.889 371.664 389.889ZM381.868 405.264C380.601 405.264 379.51 404.977 378.595 404.403C377.686 403.824 376.987 403.026 376.499 402.009C376.01 400.991 375.766 399.827 375.766 398.514C375.766 397.185 376.016 396.011 376.516 394.994C377.016 393.972 377.72 393.173 378.629 392.599C379.538 392.026 380.609 391.739 381.842 391.739C382.837 391.739 383.723 391.923 384.501 392.293C385.28 392.656 385.908 393.168 386.385 393.827C386.868 394.486 387.155 395.256 387.246 396.136H384.766C384.629 395.523 384.317 394.994 383.828 394.551C383.345 394.108 382.697 393.886 381.885 393.886C381.175 393.886 380.553 394.074 380.018 394.449C379.49 394.818 379.078 395.347 378.783 396.034C378.487 396.716 378.339 397.523 378.339 398.455C378.339 399.409 378.484 400.233 378.774 400.926C379.064 401.619 379.473 402.156 380.001 402.537C380.536 402.918 381.163 403.108 381.885 403.108C382.368 403.108 382.805 403.02 383.197 402.844C383.595 402.662 383.928 402.403 384.195 402.068C384.467 401.733 384.658 401.33 384.766 400.858H387.246C387.155 401.705 386.879 402.46 386.419 403.125C385.959 403.79 385.342 404.312 384.57 404.693C383.803 405.074 382.902 405.264 381.868 405.264ZM395.613 405.264C394.323 405.264 393.212 404.989 392.281 404.438C391.354 403.881 390.638 403.099 390.133 402.094C389.633 401.082 389.383 399.898 389.383 398.54C389.383 397.199 389.633 396.017 390.133 394.994C390.638 393.972 391.343 393.173 392.246 392.599C393.156 392.026 394.218 391.739 395.434 391.739C396.173 391.739 396.888 391.861 397.582 392.105C398.275 392.349 398.897 392.733 399.448 393.256C399.999 393.778 400.434 394.457 400.752 395.293C401.07 396.122 401.229 397.131 401.229 398.318V399.222H390.823V397.312H398.732C398.732 396.642 398.596 396.048 398.323 395.531C398.05 395.009 397.667 394.597 397.173 394.295C396.684 393.994 396.11 393.844 395.451 393.844C394.735 393.844 394.11 394.02 393.576 394.372C393.048 394.719 392.638 395.173 392.349 395.736C392.065 396.293 391.923 396.898 391.923 397.551V399.043C391.923 399.918 392.076 400.662 392.383 401.276C392.695 401.889 393.13 402.358 393.687 402.682C394.244 403 394.894 403.159 395.638 403.159C396.121 403.159 396.562 403.091 396.96 402.955C397.357 402.812 397.701 402.602 397.991 402.324C398.281 402.045 398.502 401.702 398.656 401.293L401.067 401.727C400.874 402.437 400.528 403.06 400.028 403.594C399.533 404.122 398.911 404.534 398.161 404.83C397.417 405.119 396.567 405.264 395.613 405.264Z" fill="#898B96"/>
<g filter="url(#filter1_d_425_184)">
<path d="M262.417 242.26H106.583C103.389 242.26 100.74 239.611 100.74 236.417C100.74 233.222 103.389 230.573 106.583 230.573H262.417C265.611 230.573 268.26 233.222 268.26 236.417C268.26 239.611 265.611 242.26 262.417 242.26Z" fill="#68839F"/>
<path opacity="0.4" d="M254.625 142.761V236.417H113.985L114.375 142.683C114.375 137.93 116.557 133.411 120.375 130.45L174.916 88.0636C180.526 83.6224 188.474 83.6224 194.084 88.0636L204.525 96.1668L239.042 122.97L248.625 130.45C252.443 133.411 254.625 137.93 254.625 142.761Z" fill="#68839F"/>
<path d="M192.292 197.458H176.708C170.241 197.458 165.021 202.679 165.021 209.146V236.417H203.979V209.146C203.979 202.679 198.759 197.458 192.292 197.458Z" fill="#68839F"/>
<path d="M165.021 172.135H149.438C145.152 172.135 141.646 168.629 141.646 164.344V152.656C141.646 148.371 145.152 144.865 149.438 144.865H165.021C169.306 144.865 172.813 148.371 172.813 152.656V164.344C172.813 168.629 169.306 172.135 165.021 172.135Z" fill="#68839F"/>
<path d="M219.563 172.135H203.979C199.694 172.135 196.188 168.629 196.188 164.344V152.656C196.188 148.371 199.694 144.865 203.979 144.865H219.563C223.848 144.865 227.354 148.371 227.354 152.656V164.344C227.354 168.629 223.848 172.135 219.563 172.135Z" fill="#68839F"/>
<path d="M239.042 122.97L204.525 96.1667H231.094C235.38 96.1667 238.886 99.5949 238.886 103.88L239.042 122.97Z" fill="#68839F"/>
</g>
<defs>
<filter id="filter0_d_425_184" x="0" y="0" width="502" height="502" filterUnits="userSpaceOnUse" color-interpolation-filters="sRGB">
<feFlood flood-opacity="0" result="BackgroundImageFix"/>
<feColorMatrix in="SourceAlpha" type="matrix" values="0 0 0 0 0 0 0 0 0 0 0 0 0 0 0 0 0 0 127 0" result="hardAlpha"/>
<feOffset dy="9"/>
<feGaussianBlur stdDeviation="17"/>
<feColorMatrix type="matrix" values="0 0 0 0 0 0 0 0 0 0 0 0 0 0 0 0 0 0 0.05 0"/>
<feBlend mode="normal" in2="BackgroundImageFix" result="effect1_dropShadow_425_184"/>
<feBlend mode="normal" in="SourceGraphic" in2="effect1_dropShadow_425_184" result="shape"/>
</filter>
<filter id="filter1_d_425_184" x="87" y="65" width="195" height="195" filterUnits="userSpaceOnUse" color-interpolation-filters="sRGB">
<feFlood flood-opacity="0" result="BackgroundImageFix"/>
<feColorMatrix in="SourceAlpha" type="matrix" values="0 0 0 0 0 0 0 0 0 0 0 0 0 0 0 0 0 0 127 0" result="hardAlpha"/>
<feOffset dy="4"/>
<feGaussianBlur stdDeviation="2"/>
<feComposite in2="hardAlpha" operator="out"/>
<feColorMatrix type="matrix" values="0 0 0 0 0 0 0 0 0 0 0 0 0 0 0 0 0 0 0.25 0"/>
<feBlend mode="normal" in2="BackgroundImageFix" result="effect1_dropShadow_425_184"/>
<feBlend mode="normal" in="SourceGraphic" in2="effect1_dropShadow_425_184" result="shape"/>
</filter>
</defs>
</svg>
