<svg width="502" height="502" viewBox="0 0 502 502" fill="none" xmlns="http://www.w3.org/2000/svg">
<g filter="url(#filter0_d_544_227)">
<rect x="34" y="25" width="434" height="434" rx="20" fill="#DFEBF7"/>
</g>
<path d="M94.8352 319V284.091H116.722V288.625H100.102V299.261H115.58V303.778H100.102V314.466H116.926V319H94.8352ZM133.149 319.511C131.036 319.511 129.149 318.972 127.49 317.892C125.842 316.801 124.547 315.25 123.604 313.239C122.672 311.216 122.206 308.79 122.206 305.96C122.206 303.131 122.678 300.71 123.621 298.699C124.575 296.687 125.882 295.148 127.541 294.08C129.2 293.011 131.081 292.477 133.183 292.477C134.808 292.477 136.115 292.75 137.104 293.295C138.104 293.83 138.876 294.455 139.422 295.17C139.979 295.886 140.411 296.517 140.717 297.062H141.024V284.091H146.121V319H141.143V314.926H140.717C140.411 315.483 139.967 316.119 139.388 316.835C138.82 317.551 138.036 318.176 137.036 318.71C136.036 319.244 134.74 319.511 133.149 319.511ZM134.274 315.165C135.74 315.165 136.979 314.778 137.99 314.006C139.013 313.222 139.786 312.136 140.308 310.75C140.842 309.364 141.109 307.75 141.109 305.909C141.109 304.091 140.848 302.5 140.325 301.136C139.803 299.773 139.036 298.71 138.024 297.949C137.013 297.187 135.763 296.807 134.274 296.807C132.74 296.807 131.462 297.205 130.439 298C129.416 298.795 128.643 299.881 128.121 301.256C127.609 302.631 127.354 304.182 127.354 305.909C127.354 307.659 127.615 309.233 128.138 310.631C128.661 312.028 129.433 313.136 130.456 313.955C131.49 314.761 132.763 315.165 134.274 315.165ZM153.395 319V292.818H158.491V319H153.395ZM155.969 288.778C155.082 288.778 154.321 288.483 153.685 287.892C153.06 287.29 152.747 286.574 152.747 285.744C152.747 284.903 153.06 284.187 153.685 283.597C154.321 282.994 155.082 282.693 155.969 282.693C156.855 282.693 157.611 282.994 158.236 283.597C158.872 284.187 159.19 284.903 159.19 285.744C159.19 286.574 158.872 287.29 158.236 287.892C157.611 288.483 156.855 288.778 155.969 288.778ZM177.57 292.818V296.909H163.268V292.818H177.57ZM167.104 286.545H172.2V311.312C172.2 312.301 172.348 313.045 172.643 313.545C172.939 314.034 173.32 314.369 173.786 314.551C174.263 314.722 174.78 314.807 175.337 314.807C175.746 314.807 176.104 314.778 176.411 314.722C176.717 314.665 176.956 314.619 177.126 314.585L178.047 318.795C177.751 318.909 177.331 319.023 176.786 319.136C176.24 319.261 175.558 319.33 174.74 319.341C173.399 319.364 172.149 319.125 170.99 318.625C169.831 318.125 168.893 317.352 168.178 316.307C167.462 315.261 167.104 313.949 167.104 312.369V286.545ZM199.371 284.091L209.087 312.523H209.479L219.195 284.091H224.888L212.325 319H206.24L193.678 284.091H199.371ZM237.923 319.528C235.469 319.528 233.327 318.966 231.497 317.841C229.668 316.716 228.247 315.142 227.236 313.119C226.224 311.097 225.719 308.733 225.719 306.028C225.719 303.312 226.224 300.937 227.236 298.903C228.247 296.869 229.668 295.29 231.497 294.165C233.327 293.04 235.469 292.477 237.923 292.477C240.378 292.477 242.52 293.04 244.349 294.165C246.179 295.29 247.599 296.869 248.611 298.903C249.622 300.937 250.128 303.312 250.128 306.028C250.128 308.733 249.622 311.097 248.611 313.119C247.599 315.142 246.179 316.716 244.349 317.841C242.52 318.966 240.378 319.528 237.923 319.528ZM237.94 315.25C239.531 315.25 240.849 314.83 241.895 313.989C242.94 313.148 243.713 312.028 244.213 310.631C244.724 309.233 244.98 307.693 244.98 306.011C244.98 304.341 244.724 302.807 244.213 301.409C243.713 300 242.94 298.869 241.895 298.017C240.849 297.165 239.531 296.739 237.94 296.739C236.338 296.739 235.009 297.165 233.952 298.017C232.906 298.869 232.128 300 231.616 301.409C231.116 302.807 230.866 304.341 230.866 306.011C230.866 307.693 231.116 309.233 231.616 310.631C232.128 312.028 232.906 313.148 233.952 313.989C235.009 314.83 236.338 315.25 237.94 315.25ZM272.402 308.142V292.818H277.516V319H272.504V314.466H272.232C271.629 315.864 270.663 317.028 269.334 317.96C268.016 318.881 266.374 319.341 264.408 319.341C262.726 319.341 261.237 318.972 259.942 318.233C258.658 317.483 257.646 316.375 256.908 314.909C256.18 313.443 255.817 311.631 255.817 309.472V292.818H260.913V308.858C260.913 310.642 261.408 312.062 262.396 313.119C263.385 314.176 264.669 314.705 266.249 314.705C267.203 314.705 268.152 314.466 269.095 313.989C270.05 313.511 270.839 312.79 271.464 311.824C272.101 310.858 272.413 309.631 272.402 308.142ZM295.392 319.528C292.858 319.528 290.676 318.955 288.847 317.807C287.028 316.648 285.631 315.051 284.653 313.017C283.676 310.983 283.188 308.653 283.188 306.028C283.188 303.369 283.688 301.023 284.688 298.989C285.688 296.943 287.097 295.347 288.915 294.199C290.733 293.051 292.875 292.477 295.341 292.477C297.33 292.477 299.102 292.847 300.659 293.585C302.216 294.312 303.472 295.335 304.426 296.653C305.392 297.972 305.966 299.511 306.148 301.273H301.188C300.915 300.045 300.29 298.989 299.312 298.102C298.347 297.216 297.051 296.773 295.426 296.773C294.006 296.773 292.761 297.148 291.693 297.898C290.636 298.636 289.813 299.693 289.222 301.068C288.631 302.432 288.335 304.045 288.335 305.909C288.335 307.818 288.625 309.466 289.205 310.852C289.784 312.239 290.602 313.312 291.659 314.074C292.727 314.835 293.983 315.216 295.426 315.216C296.392 315.216 297.267 315.04 298.051 314.688C298.847 314.324 299.511 313.807 300.045 313.136C300.591 312.466 300.972 311.659 301.188 310.716H306.148C305.966 312.409 305.415 313.92 304.494 315.25C303.574 316.58 302.341 317.625 300.795 318.386C299.261 319.148 297.46 319.528 295.392 319.528ZM316.695 303.455V319H311.598V284.091H316.626V297.08H316.95C317.564 295.67 318.501 294.551 319.763 293.722C321.024 292.892 322.672 292.477 324.706 292.477C326.501 292.477 328.07 292.847 329.411 293.585C330.763 294.324 331.808 295.426 332.547 296.892C333.297 298.347 333.672 300.165 333.672 302.347V319H328.575V302.96C328.575 301.04 328.081 299.551 327.092 298.494C326.104 297.426 324.729 296.892 322.967 296.892C321.763 296.892 320.683 297.148 319.729 297.659C318.786 298.17 318.041 298.92 317.496 299.909C316.962 300.886 316.695 302.068 316.695 303.455ZM351.757 319.528C349.178 319.528 346.956 318.977 345.092 317.875C343.24 316.761 341.808 315.199 340.797 313.188C339.797 311.165 339.297 308.795 339.297 306.08C339.297 303.398 339.797 301.034 340.797 298.989C341.808 296.943 343.217 295.347 345.024 294.199C346.842 293.051 348.967 292.477 351.399 292.477C352.876 292.477 354.308 292.722 355.695 293.21C357.081 293.699 358.325 294.466 359.428 295.511C360.53 296.557 361.399 297.915 362.036 299.585C362.672 301.244 362.99 303.261 362.99 305.636V307.443H342.178V303.625H357.996C357.996 302.284 357.723 301.097 357.178 300.062C356.632 299.017 355.865 298.193 354.876 297.591C353.899 296.989 352.751 296.688 351.433 296.688C350.001 296.688 348.751 297.04 347.683 297.744C346.626 298.437 345.808 299.347 345.229 300.472C344.661 301.585 344.376 302.795 344.376 304.102V307.085C344.376 308.835 344.683 310.324 345.297 311.551C345.922 312.778 346.791 313.716 347.905 314.364C349.018 315 350.32 315.318 351.808 315.318C352.774 315.318 353.655 315.182 354.45 314.909C355.246 314.625 355.933 314.205 356.513 313.648C357.092 313.091 357.536 312.403 357.842 311.585L362.666 312.455C362.28 313.875 361.587 315.119 360.587 316.188C359.598 317.244 358.354 318.068 356.854 318.659C355.365 319.239 353.666 319.528 351.757 319.528ZM368.645 319V292.818H373.571V296.977H373.844C374.321 295.568 375.162 294.46 376.366 293.653C377.582 292.835 378.957 292.426 380.491 292.426C380.81 292.426 381.185 292.437 381.616 292.46C382.06 292.483 382.406 292.511 382.656 292.545V297.42C382.452 297.364 382.088 297.301 381.565 297.233C381.043 297.153 380.52 297.114 379.997 297.114C378.793 297.114 377.719 297.369 376.776 297.881C375.844 298.381 375.105 299.08 374.56 299.977C374.014 300.864 373.741 301.875 373.741 303.011V319H368.645Z" fill="#1F2227"/>
<path d="M98.9176 352.545H102.114L107.67 366.114H107.875L113.432 352.545H116.628V370H114.122V357.369H113.96L108.812 369.974H106.733L101.585 357.361H101.423V370H98.9176V352.545ZM125.766 370.264C124.539 370.264 123.468 369.983 122.553 369.42C121.638 368.858 120.928 368.071 120.423 367.06C119.917 366.048 119.664 364.866 119.664 363.514C119.664 362.156 119.917 360.969 120.423 359.952C120.928 358.935 121.638 358.145 122.553 357.582C123.468 357.02 124.539 356.739 125.766 356.739C126.994 356.739 128.065 357.02 128.979 357.582C129.894 358.145 130.604 358.935 131.11 359.952C131.616 360.969 131.869 362.156 131.869 363.514C131.869 364.866 131.616 366.048 131.11 367.06C130.604 368.071 129.894 368.858 128.979 369.42C128.065 369.983 126.994 370.264 125.766 370.264ZM125.775 368.125C126.57 368.125 127.229 367.915 127.752 367.494C128.275 367.074 128.661 366.514 128.911 365.815C129.167 365.116 129.295 364.347 129.295 363.506C129.295 362.67 129.167 361.903 128.911 361.205C128.661 360.5 128.275 359.935 127.752 359.509C127.229 359.082 126.57 358.869 125.775 358.869C124.974 358.869 124.309 359.082 123.781 359.509C123.258 359.935 122.869 360.5 122.613 361.205C122.363 361.903 122.238 362.67 122.238 363.506C122.238 364.347 122.363 365.116 122.613 365.815C122.869 366.514 123.258 367.074 123.781 367.494C124.309 367.915 124.974 368.125 125.775 368.125ZM139.614 370.256C138.557 370.256 137.614 369.986 136.784 369.446C135.96 368.901 135.313 368.125 134.841 367.119C134.375 366.108 134.142 364.895 134.142 363.48C134.142 362.065 134.378 360.855 134.849 359.849C135.327 358.844 135.98 358.074 136.81 357.54C137.639 357.006 138.58 356.739 139.631 356.739C140.443 356.739 141.097 356.875 141.591 357.148C142.091 357.415 142.477 357.727 142.75 358.085C143.028 358.443 143.244 358.759 143.398 359.031H143.551V352.545H146.099V370H143.611V367.963H143.398C143.244 368.241 143.023 368.56 142.733 368.918C142.449 369.276 142.057 369.588 141.557 369.855C141.057 370.122 140.409 370.256 139.614 370.256ZM140.176 368.082C140.909 368.082 141.528 367.889 142.034 367.503C142.545 367.111 142.932 366.568 143.193 365.875C143.46 365.182 143.594 364.375 143.594 363.455C143.594 362.545 143.463 361.75 143.202 361.068C142.94 360.386 142.557 359.855 142.051 359.474C141.545 359.094 140.92 358.903 140.176 358.903C139.409 358.903 138.77 359.102 138.259 359.5C137.747 359.898 137.361 360.44 137.099 361.128C136.844 361.815 136.716 362.591 136.716 363.455C136.716 364.33 136.847 365.116 137.108 365.815C137.369 366.514 137.756 367.068 138.267 367.477C138.784 367.881 139.42 368.082 140.176 368.082ZM149.737 370V356.909H152.285V370H149.737ZM151.023 354.889C150.58 354.889 150.2 354.741 149.881 354.446C149.569 354.145 149.413 353.787 149.413 353.372C149.413 352.952 149.569 352.594 149.881 352.298C150.2 351.997 150.58 351.847 151.023 351.847C151.467 351.847 151.844 351.997 152.157 352.298C152.475 352.594 152.634 352.952 152.634 353.372C152.634 353.787 152.475 354.145 152.157 354.446C151.844 354.741 151.467 354.889 151.023 354.889ZM161.943 356.909V358.955H154.545V356.909H161.943ZM156.574 370V355.392C156.574 354.574 156.753 353.895 157.111 353.355C157.469 352.81 157.943 352.403 158.534 352.136C159.125 351.864 159.767 351.727 160.46 351.727C160.972 351.727 161.409 351.77 161.773 351.855C162.136 351.935 162.406 352.009 162.582 352.077L161.986 354.139C161.866 354.105 161.713 354.065 161.526 354.02C161.338 353.969 161.111 353.943 160.844 353.943C160.224 353.943 159.781 354.097 159.514 354.403C159.253 354.71 159.122 355.153 159.122 355.733V370H156.574ZM166.183 374.909C165.803 374.909 165.456 374.878 165.143 374.815C164.831 374.759 164.598 374.696 164.445 374.628L165.058 372.54C165.524 372.665 165.939 372.719 166.303 372.702C166.666 372.685 166.987 372.548 167.266 372.293C167.55 372.037 167.8 371.619 168.016 371.04L168.331 370.17L163.541 356.909H166.268L169.584 367.068H169.72L173.036 356.909H175.771L170.376 371.747C170.126 372.429 169.808 373.006 169.422 373.477C169.036 373.955 168.575 374.313 168.041 374.551C167.507 374.79 166.888 374.909 166.183 374.909ZM190.032 370.264C188.805 370.264 187.734 369.983 186.819 369.42C185.904 368.858 185.194 368.071 184.688 367.06C184.183 366.048 183.93 364.866 183.93 363.514C183.93 362.156 184.183 360.969 184.688 359.952C185.194 358.935 185.904 358.145 186.819 357.582C187.734 357.02 188.805 356.739 190.032 356.739C191.259 356.739 192.33 357.02 193.245 357.582C194.16 358.145 194.87 358.935 195.376 359.952C195.881 360.969 196.134 362.156 196.134 363.514C196.134 364.866 195.881 366.048 195.376 367.06C194.87 368.071 194.16 368.858 193.245 369.42C192.33 369.983 191.259 370.264 190.032 370.264ZM190.04 368.125C190.836 368.125 191.495 367.915 192.018 367.494C192.54 367.074 192.927 366.514 193.177 365.815C193.433 365.116 193.56 364.347 193.56 363.506C193.56 362.67 193.433 361.903 193.177 361.205C192.927 360.5 192.54 359.935 192.018 359.509C191.495 359.082 190.836 358.869 190.04 358.869C189.239 358.869 188.575 359.082 188.046 359.509C187.523 359.935 187.134 360.5 186.879 361.205C186.629 361.903 186.504 362.67 186.504 363.506C186.504 364.347 186.629 365.116 186.879 365.815C187.134 366.514 187.523 367.074 188.046 367.494C188.575 367.915 189.239 368.125 190.04 368.125ZM198.979 370V356.909H201.442V358.989H201.578C201.817 358.284 202.237 357.73 202.839 357.327C203.447 356.918 204.135 356.713 204.902 356.713C205.061 356.713 205.249 356.719 205.464 356.73C205.686 356.741 205.859 356.756 205.984 356.773V359.21C205.882 359.182 205.7 359.151 205.439 359.116C205.178 359.077 204.916 359.057 204.655 359.057C204.053 359.057 203.516 359.185 203.044 359.44C202.578 359.69 202.209 360.04 201.936 360.489C201.663 360.932 201.527 361.437 201.527 362.006V370H198.979ZM222.834 364.571V356.909H225.391V370H222.885V367.733H222.749C222.447 368.432 221.964 369.014 221.3 369.48C220.641 369.94 219.82 370.17 218.837 370.17C217.996 370.17 217.251 369.986 216.604 369.616C215.962 369.241 215.456 368.688 215.087 367.955C214.723 367.222 214.541 366.315 214.541 365.236V356.909H217.089V364.929C217.089 365.821 217.337 366.531 217.831 367.06C218.325 367.588 218.967 367.852 219.757 367.852C220.234 367.852 220.709 367.733 221.18 367.494C221.658 367.256 222.053 366.895 222.365 366.412C222.683 365.929 222.839 365.315 222.834 364.571ZM228.815 374.909V356.909H231.303V359.031H231.516C231.664 358.759 231.877 358.443 232.156 358.085C232.434 357.727 232.82 357.415 233.315 357.148C233.809 356.875 234.462 356.739 235.275 356.739C236.332 356.739 237.275 357.006 238.104 357.54C238.934 358.074 239.585 358.844 240.056 359.849C240.533 360.855 240.772 362.065 240.772 363.48C240.772 364.895 240.536 366.108 240.065 367.119C239.593 368.125 238.945 368.901 238.121 369.446C237.298 369.986 236.357 370.256 235.3 370.256C234.505 370.256 233.854 370.122 233.349 369.855C232.849 369.588 232.457 369.276 232.173 368.918C231.888 368.56 231.67 368.241 231.516 367.963H231.363V374.909H228.815ZM231.312 363.455C231.312 364.375 231.445 365.182 231.712 365.875C231.979 366.568 232.366 367.111 232.871 367.503C233.377 367.889 233.996 368.082 234.729 368.082C235.491 368.082 236.127 367.881 236.638 367.477C237.15 367.068 237.536 366.514 237.798 365.815C238.065 365.116 238.198 364.33 238.198 363.455C238.198 362.591 238.067 361.815 237.806 361.128C237.55 360.44 237.164 359.898 236.647 359.5C236.136 359.102 235.496 358.903 234.729 358.903C233.991 358.903 233.366 359.094 232.854 359.474C232.349 359.855 231.965 360.386 231.704 361.068C231.442 361.75 231.312 362.545 231.312 363.455ZM248.528 370.256C247.471 370.256 246.528 369.986 245.698 369.446C244.874 368.901 244.227 368.125 243.755 367.119C243.289 366.108 243.056 364.895 243.056 363.48C243.056 362.065 243.292 360.855 243.763 359.849C244.241 358.844 244.894 358.074 245.724 357.54C246.553 357.006 247.494 356.739 248.545 356.739C249.357 356.739 250.011 356.875 250.505 357.148C251.005 357.415 251.391 357.727 251.664 358.085C251.942 358.443 252.158 358.759 252.312 359.031H252.465V352.545H255.013V370H252.525V367.963H252.312C252.158 368.241 251.937 368.56 251.647 368.918C251.363 369.276 250.971 369.588 250.471 369.855C249.971 370.122 249.323 370.256 248.528 370.256ZM249.09 368.082C249.823 368.082 250.442 367.889 250.948 367.503C251.46 367.111 251.846 366.568 252.107 365.875C252.374 365.182 252.508 364.375 252.508 363.455C252.508 362.545 252.377 361.75 252.116 361.068C251.854 360.386 251.471 359.855 250.965 359.474C250.46 359.094 249.835 358.903 249.09 358.903C248.323 358.903 247.684 359.102 247.173 359.5C246.661 359.898 246.275 360.44 246.013 361.128C245.758 361.815 245.63 362.591 245.63 363.455C245.63 364.33 245.761 365.116 246.022 365.815C246.283 366.514 246.67 367.068 247.181 367.477C247.698 367.881 248.335 368.082 249.09 368.082ZM262.46 370.29C261.631 370.29 260.881 370.136 260.21 369.83C259.54 369.517 259.009 369.065 258.616 368.474C258.23 367.884 258.037 367.159 258.037 366.301C258.037 365.562 258.179 364.955 258.463 364.477C258.747 364 259.131 363.622 259.614 363.344C260.097 363.065 260.636 362.855 261.233 362.713C261.83 362.571 262.438 362.463 263.057 362.389C263.841 362.298 264.477 362.224 264.966 362.168C265.455 362.105 265.81 362.006 266.031 361.869C266.253 361.733 266.364 361.511 266.364 361.205V361.145C266.364 360.401 266.153 359.824 265.733 359.415C265.318 359.006 264.699 358.801 263.875 358.801C263.017 358.801 262.341 358.991 261.847 359.372C261.358 359.747 261.02 360.165 260.832 360.625L258.438 360.08C258.722 359.284 259.136 358.642 259.682 358.153C260.233 357.659 260.866 357.301 261.582 357.08C262.298 356.852 263.051 356.739 263.841 356.739C264.364 356.739 264.918 356.801 265.503 356.926C266.094 357.045 266.645 357.267 267.156 357.591C267.673 357.915 268.097 358.378 268.426 358.98C268.756 359.577 268.92 360.352 268.92 361.307V370H266.432V368.21H266.33C266.165 368.54 265.918 368.864 265.588 369.182C265.259 369.5 264.835 369.764 264.318 369.974C263.801 370.185 263.182 370.29 262.46 370.29ZM263.014 368.244C263.719 368.244 264.321 368.105 264.821 367.827C265.327 367.548 265.71 367.185 265.972 366.736C266.239 366.281 266.372 365.795 266.372 365.278V363.591C266.281 363.682 266.105 363.767 265.844 363.847C265.588 363.92 265.295 363.986 264.966 364.043C264.636 364.094 264.315 364.142 264.003 364.188C263.69 364.227 263.429 364.261 263.219 364.29C262.724 364.352 262.273 364.457 261.864 364.605C261.46 364.753 261.136 364.966 260.892 365.244C260.653 365.517 260.534 365.881 260.534 366.335C260.534 366.966 260.767 367.443 261.233 367.767C261.699 368.085 262.293 368.244 263.014 368.244ZM278.425 356.909V358.955H271.275V356.909H278.425ZM273.192 353.773H275.741V366.156C275.741 366.651 275.815 367.023 275.962 367.273C276.11 367.517 276.3 367.685 276.533 367.776C276.772 367.861 277.031 367.903 277.309 367.903C277.513 367.903 277.692 367.889 277.846 367.861C277.999 367.832 278.119 367.81 278.204 367.793L278.664 369.898C278.516 369.955 278.306 370.011 278.033 370.068C277.761 370.131 277.42 370.165 277.011 370.17C276.34 370.182 275.715 370.062 275.136 369.812C274.556 369.562 274.087 369.176 273.729 368.653C273.371 368.131 273.192 367.474 273.192 366.685V353.773ZM286.746 370.264C285.456 370.264 284.345 369.989 283.413 369.438C282.487 368.881 281.771 368.099 281.266 367.094C280.766 366.082 280.516 364.898 280.516 363.54C280.516 362.199 280.766 361.017 281.266 359.994C281.771 358.972 282.476 358.173 283.379 357.599C284.288 357.026 285.351 356.739 286.567 356.739C287.305 356.739 288.021 356.861 288.714 357.105C289.408 357.349 290.03 357.733 290.581 358.256C291.132 358.778 291.567 359.457 291.885 360.293C292.203 361.122 292.362 362.131 292.362 363.318V364.222H281.956V362.312H289.865C289.865 361.642 289.729 361.048 289.456 360.531C289.183 360.009 288.8 359.597 288.305 359.295C287.817 358.994 287.243 358.844 286.584 358.844C285.868 358.844 285.243 359.02 284.709 359.372C284.18 359.719 283.771 360.173 283.482 360.736C283.197 361.293 283.055 361.898 283.055 362.551V364.043C283.055 364.918 283.209 365.662 283.516 366.276C283.828 366.889 284.263 367.358 284.82 367.682C285.376 368 286.027 368.159 286.771 368.159C287.254 368.159 287.695 368.091 288.092 367.955C288.49 367.812 288.834 367.602 289.124 367.324C289.413 367.045 289.635 366.702 289.788 366.293L292.2 366.727C292.007 367.437 291.661 368.06 291.161 368.594C290.666 369.122 290.044 369.534 289.294 369.83C288.55 370.119 287.7 370.264 286.746 370.264ZM303.152 374.909C302.771 374.909 302.425 374.878 302.112 374.815C301.8 374.759 301.567 374.696 301.413 374.628L302.027 372.54C302.493 372.665 302.908 372.719 303.271 372.702C303.635 372.685 303.956 372.548 304.234 372.293C304.518 372.037 304.768 371.619 304.984 371.04L305.3 370.17L300.51 356.909H303.237L306.553 367.068H306.689L310.004 356.909H312.74L307.345 371.747C307.095 372.429 306.777 373.006 306.391 373.477C306.004 373.955 305.544 374.313 305.01 374.551C304.476 374.79 303.857 374.909 303.152 374.909ZM320.204 370.264C318.977 370.264 317.906 369.983 316.991 369.42C316.076 368.858 315.366 368.071 314.86 367.06C314.354 366.048 314.102 364.866 314.102 363.514C314.102 362.156 314.354 360.969 314.86 359.952C315.366 358.935 316.076 358.145 316.991 357.582C317.906 357.02 318.977 356.739 320.204 356.739C321.431 356.739 322.502 357.02 323.417 357.582C324.332 358.145 325.042 358.935 325.548 359.952C326.053 360.969 326.306 362.156 326.306 363.514C326.306 364.866 326.053 366.048 325.548 367.06C325.042 368.071 324.332 368.858 323.417 369.42C322.502 369.983 321.431 370.264 320.204 370.264ZM320.212 368.125C321.008 368.125 321.667 367.915 322.19 367.494C322.712 367.074 323.099 366.514 323.349 365.815C323.604 365.116 323.732 364.347 323.732 363.506C323.732 362.67 323.604 361.903 323.349 361.205C323.099 360.5 322.712 359.935 322.19 359.509C321.667 359.082 321.008 358.869 320.212 358.869C319.411 358.869 318.746 359.082 318.218 359.509C317.695 359.935 317.306 360.5 317.05 361.205C316.8 361.903 316.675 362.67 316.675 363.506C316.675 364.347 316.8 365.116 317.05 365.815C317.306 366.514 317.695 367.074 318.218 367.494C318.746 367.915 319.411 368.125 320.212 368.125ZM337.443 364.571V356.909H340V370H337.494V367.733H337.358C337.057 368.432 336.574 369.014 335.909 369.48C335.25 369.94 334.429 370.17 333.446 370.17C332.605 370.17 331.861 369.986 331.213 369.616C330.571 369.241 330.065 368.688 329.696 367.955C329.332 367.222 329.151 366.315 329.151 365.236V356.909H331.699V364.929C331.699 365.821 331.946 366.531 332.44 367.06C332.935 367.588 333.577 367.852 334.366 367.852C334.844 367.852 335.318 367.733 335.79 367.494C336.267 367.256 336.662 366.895 336.974 366.412C337.293 365.929 337.449 365.315 337.443 364.571ZM343.424 370V356.909H345.887V358.989H346.023C346.262 358.284 346.683 357.73 347.285 357.327C347.893 356.918 348.58 356.713 349.347 356.713C349.506 356.713 349.694 356.719 349.91 356.73C350.131 356.741 350.305 356.756 350.43 356.773V359.21C350.327 359.182 350.146 359.151 349.884 359.116C349.623 359.077 349.362 359.057 349.1 359.057C348.498 359.057 347.961 359.185 347.489 359.44C347.023 359.69 346.654 360.04 346.381 360.489C346.109 360.932 345.972 361.437 345.972 362.006V370H343.424ZM102.523 405.29C101.693 405.29 100.943 405.136 100.273 404.83C99.6023 404.517 99.071 404.065 98.679 403.474C98.2926 402.884 98.0994 402.159 98.0994 401.301C98.0994 400.562 98.2415 399.955 98.5256 399.477C98.8097 399 99.1932 398.622 99.6761 398.344C100.159 398.065 100.699 397.855 101.295 397.713C101.892 397.571 102.5 397.463 103.119 397.389C103.903 397.298 104.54 397.224 105.028 397.168C105.517 397.105 105.872 397.006 106.094 396.869C106.315 396.733 106.426 396.511 106.426 396.205V396.145C106.426 395.401 106.216 394.824 105.795 394.415C105.381 394.006 104.761 393.801 103.938 393.801C103.08 393.801 102.403 393.991 101.909 394.372C101.42 394.747 101.082 395.165 100.895 395.625L98.5 395.08C98.7841 394.284 99.1989 393.642 99.7443 393.153C100.295 392.659 100.929 392.301 101.645 392.08C102.361 391.852 103.114 391.739 103.903 391.739C104.426 391.739 104.98 391.801 105.565 391.926C106.156 392.045 106.707 392.267 107.219 392.591C107.736 392.915 108.159 393.378 108.489 393.98C108.818 394.577 108.983 395.352 108.983 396.307V405H106.494V403.21H106.392C106.227 403.54 105.98 403.864 105.651 404.182C105.321 404.5 104.898 404.764 104.381 404.974C103.864 405.185 103.244 405.29 102.523 405.29ZM103.077 403.244C103.781 403.244 104.384 403.105 104.884 402.827C105.389 402.548 105.773 402.185 106.034 401.736C106.301 401.281 106.435 400.795 106.435 400.278V398.591C106.344 398.682 106.168 398.767 105.906 398.847C105.651 398.92 105.358 398.986 105.028 399.043C104.699 399.094 104.378 399.142 104.065 399.188C103.753 399.227 103.491 399.261 103.281 399.29C102.787 399.352 102.335 399.457 101.926 399.605C101.523 399.753 101.199 399.966 100.955 400.244C100.716 400.517 100.597 400.881 100.597 401.335C100.597 401.966 100.83 402.443 101.295 402.767C101.761 403.085 102.355 403.244 103.077 403.244ZM123.107 391.909L118.36 405H115.633L110.877 391.909H113.613L116.928 401.983H117.065L120.371 391.909H123.107ZM128.937 405.29C128.107 405.29 127.357 405.136 126.687 404.83C126.016 404.517 125.485 404.065 125.093 403.474C124.707 402.884 124.513 402.159 124.513 401.301C124.513 400.562 124.656 399.955 124.94 399.477C125.224 399 125.607 398.622 126.09 398.344C126.573 398.065 127.113 397.855 127.71 397.713C128.306 397.571 128.914 397.463 129.533 397.389C130.317 397.298 130.954 397.224 131.442 397.168C131.931 397.105 132.286 397.006 132.508 396.869C132.729 396.733 132.84 396.511 132.84 396.205V396.145C132.84 395.401 132.63 394.824 132.21 394.415C131.795 394.006 131.175 393.801 130.352 393.801C129.494 393.801 128.817 393.991 128.323 394.372C127.835 394.747 127.496 395.165 127.309 395.625L124.914 395.08C125.198 394.284 125.613 393.642 126.158 393.153C126.71 392.659 127.343 392.301 128.059 392.08C128.775 391.852 129.528 391.739 130.317 391.739C130.84 391.739 131.394 391.801 131.979 391.926C132.57 392.045 133.121 392.267 133.633 392.591C134.15 392.915 134.573 393.378 134.903 393.98C135.232 394.577 135.397 395.352 135.397 396.307V405H132.908V403.21H132.806C132.641 403.54 132.394 403.864 132.065 404.182C131.735 404.5 131.312 404.764 130.795 404.974C130.278 405.185 129.658 405.29 128.937 405.29ZM129.491 403.244C130.195 403.244 130.798 403.105 131.298 402.827C131.803 402.548 132.187 402.185 132.448 401.736C132.715 401.281 132.849 400.795 132.849 400.278V398.591C132.758 398.682 132.582 398.767 132.32 398.847C132.065 398.92 131.772 398.986 131.442 399.043C131.113 399.094 130.792 399.142 130.479 399.188C130.167 399.227 129.906 399.261 129.695 399.29C129.201 399.352 128.749 399.457 128.34 399.605C127.937 399.753 127.613 399.966 127.369 400.244C127.13 400.517 127.011 400.881 127.011 401.335C127.011 401.966 127.244 402.443 127.71 402.767C128.175 403.085 128.769 403.244 129.491 403.244ZM138.791 405V391.909H141.339V405H138.791ZM140.078 389.889C139.635 389.889 139.254 389.741 138.936 389.446C138.624 389.145 138.467 388.787 138.467 388.372C138.467 387.952 138.624 387.594 138.936 387.298C139.254 386.997 139.635 386.847 140.078 386.847C140.521 386.847 140.899 386.997 141.212 387.298C141.53 387.594 141.689 387.952 141.689 388.372C141.689 388.787 141.53 389.145 141.212 389.446C140.899 389.741 140.521 389.889 140.078 389.889ZM147.316 387.545V405H144.768V387.545H147.316ZM154.554 405.29C153.724 405.29 152.974 405.136 152.304 404.83C151.634 404.517 151.102 404.065 150.71 403.474C150.324 402.884 150.131 402.159 150.131 401.301C150.131 400.562 150.273 399.955 150.557 399.477C150.841 399 151.224 398.622 151.707 398.344C152.19 398.065 152.73 397.855 153.327 397.713C153.923 397.571 154.531 397.463 155.151 397.389C155.935 397.298 156.571 397.224 157.06 397.168C157.548 397.105 157.903 397.006 158.125 396.869C158.347 396.733 158.457 396.511 158.457 396.205V396.145C158.457 395.401 158.247 394.824 157.827 394.415C157.412 394.006 156.793 393.801 155.969 393.801C155.111 393.801 154.435 393.991 153.94 394.372C153.452 394.747 153.114 395.165 152.926 395.625L150.531 395.08C150.815 394.284 151.23 393.642 151.776 393.153C152.327 392.659 152.96 392.301 153.676 392.08C154.392 391.852 155.145 391.739 155.935 391.739C156.457 391.739 157.011 391.801 157.597 391.926C158.188 392.045 158.739 392.267 159.25 392.591C159.767 392.915 160.19 393.378 160.52 393.98C160.849 394.577 161.014 395.352 161.014 396.307V405H158.526V403.21H158.423C158.259 403.54 158.011 403.864 157.682 404.182C157.352 404.5 156.929 404.764 156.412 404.974C155.895 405.185 155.276 405.29 154.554 405.29ZM155.108 403.244C155.813 403.244 156.415 403.105 156.915 402.827C157.42 402.548 157.804 402.185 158.065 401.736C158.332 401.281 158.466 400.795 158.466 400.278V398.591C158.375 398.682 158.199 398.767 157.938 398.847C157.682 398.92 157.389 398.986 157.06 399.043C156.73 399.094 156.409 399.142 156.097 399.188C155.784 399.227 155.523 399.261 155.312 399.29C154.818 399.352 154.366 399.457 153.957 399.605C153.554 399.753 153.23 399.966 152.986 400.244C152.747 400.517 152.628 400.881 152.628 401.335C152.628 401.966 152.861 402.443 153.327 402.767C153.793 403.085 154.386 403.244 155.108 403.244ZM164.613 405V387.545H167.161V394.031H167.315C167.462 393.759 167.675 393.443 167.954 393.085C168.232 392.727 168.619 392.415 169.113 392.148C169.607 391.875 170.261 391.739 171.073 391.739C172.13 391.739 173.073 392.006 173.903 392.54C174.732 393.074 175.383 393.844 175.854 394.849C176.332 395.855 176.57 397.065 176.57 398.48C176.57 399.895 176.335 401.108 175.863 402.119C175.391 403.125 174.744 403.901 173.92 404.446C173.096 404.986 172.156 405.256 171.099 405.256C170.303 405.256 169.653 405.122 169.147 404.855C168.647 404.588 168.255 404.276 167.971 403.918C167.687 403.56 167.468 403.241 167.315 402.963H167.102V405H164.613ZM167.11 398.455C167.11 399.375 167.244 400.182 167.511 400.875C167.778 401.568 168.164 402.111 168.67 402.503C169.175 402.889 169.795 403.082 170.528 403.082C171.289 403.082 171.925 402.881 172.437 402.477C172.948 402.068 173.335 401.514 173.596 400.815C173.863 400.116 173.996 399.33 173.996 398.455C173.996 397.591 173.866 396.815 173.604 396.128C173.349 395.44 172.962 394.898 172.445 394.5C171.934 394.102 171.295 393.903 170.528 393.903C169.789 393.903 169.164 394.094 168.653 394.474C168.147 394.855 167.763 395.386 167.502 396.068C167.241 396.75 167.11 397.545 167.11 398.455ZM181.98 387.545V405H179.432V387.545H181.98ZM191.05 405.264C189.761 405.264 188.65 404.989 187.718 404.438C186.792 403.881 186.076 403.099 185.57 402.094C185.07 401.082 184.82 399.898 184.82 398.54C184.82 397.199 185.07 396.017 185.57 394.994C186.076 393.972 186.781 393.173 187.684 392.599C188.593 392.026 189.656 391.739 190.871 391.739C191.61 391.739 192.326 391.861 193.019 392.105C193.712 392.349 194.335 392.733 194.886 393.256C195.437 393.778 195.871 394.457 196.19 395.293C196.508 396.122 196.667 397.131 196.667 398.318V399.222H186.261V397.312H194.17C194.17 396.642 194.033 396.048 193.761 395.531C193.488 395.009 193.104 394.597 192.61 394.295C192.121 393.994 191.548 393.844 190.888 393.844C190.173 393.844 189.548 394.02 189.013 394.372C188.485 394.719 188.076 395.173 187.786 395.736C187.502 396.293 187.36 396.898 187.36 397.551V399.043C187.36 399.918 187.513 400.662 187.82 401.276C188.133 401.889 188.567 402.358 189.124 402.682C189.681 403 190.332 403.159 191.076 403.159C191.559 403.159 191.999 403.091 192.397 402.955C192.795 402.812 193.138 402.602 193.428 402.324C193.718 402.045 193.94 401.702 194.093 401.293L196.505 401.727C196.312 402.437 195.965 403.06 195.465 403.594C194.971 404.122 194.349 404.534 193.599 404.83C192.854 405.119 192.005 405.264 191.05 405.264ZM217.045 391.909L212.298 405H209.57L204.815 391.909H207.55L210.866 401.983H211.002L214.309 391.909H217.045ZM224.509 405.264C223.281 405.264 222.21 404.983 221.295 404.42C220.381 403.858 219.67 403.071 219.165 402.06C218.659 401.048 218.406 399.866 218.406 398.514C218.406 397.156 218.659 395.969 219.165 394.952C219.67 393.935 220.381 393.145 221.295 392.582C222.21 392.02 223.281 391.739 224.509 391.739C225.736 391.739 226.807 392.02 227.722 392.582C228.636 393.145 229.347 393.935 229.852 394.952C230.358 395.969 230.611 397.156 230.611 398.514C230.611 399.866 230.358 401.048 229.852 402.06C229.347 403.071 228.636 403.858 227.722 404.42C226.807 404.983 225.736 405.264 224.509 405.264ZM224.517 403.125C225.313 403.125 225.972 402.915 226.494 402.494C227.017 402.074 227.403 401.514 227.653 400.815C227.909 400.116 228.037 399.347 228.037 398.506C228.037 397.67 227.909 396.903 227.653 396.205C227.403 395.5 227.017 394.935 226.494 394.509C225.972 394.082 225.313 393.869 224.517 393.869C223.716 393.869 223.051 394.082 222.523 394.509C222 394.935 221.611 395.5 221.355 396.205C221.105 396.903 220.98 397.67 220.98 398.506C220.98 399.347 221.105 400.116 221.355 400.815C221.611 401.514 222 402.074 222.523 402.494C223.051 402.915 223.716 403.125 224.517 403.125ZM241.748 399.571V391.909H244.305V405H241.799V402.733H241.663C241.362 403.432 240.879 404.014 240.214 404.48C239.555 404.94 238.734 405.17 237.751 405.17C236.91 405.17 236.165 404.986 235.518 404.616C234.876 404.241 234.37 403.688 234.001 402.955C233.637 402.222 233.455 401.315 233.455 400.236V391.909H236.004V399.929C236.004 400.821 236.251 401.531 236.745 402.06C237.239 402.588 237.881 402.852 238.671 402.852C239.148 402.852 239.623 402.733 240.094 402.494C240.572 402.256 240.967 401.895 241.279 401.412C241.597 400.929 241.754 400.315 241.748 399.571ZM253.243 405.264C251.976 405.264 250.885 404.977 249.97 404.403C249.061 403.824 248.362 403.026 247.874 402.009C247.385 400.991 247.141 399.827 247.141 398.514C247.141 397.185 247.391 396.011 247.891 394.994C248.391 393.972 249.095 393.173 250.004 392.599C250.913 392.026 251.984 391.739 253.217 391.739C254.212 391.739 255.098 391.923 255.876 392.293C256.655 392.656 257.283 393.168 257.76 393.827C258.243 394.486 258.53 395.256 258.621 396.136H256.141C256.004 395.523 255.692 394.994 255.203 394.551C254.72 394.108 254.072 393.886 253.26 393.886C252.55 393.886 251.928 394.074 251.393 394.449C250.865 394.818 250.453 395.347 250.158 396.034C249.862 396.716 249.714 397.523 249.714 398.455C249.714 399.409 249.859 400.233 250.149 400.926C250.439 401.619 250.848 402.156 251.376 402.537C251.911 402.918 252.538 403.108 253.26 403.108C253.743 403.108 254.18 403.02 254.572 402.844C254.97 402.662 255.303 402.403 255.57 402.068C255.842 401.733 256.033 401.33 256.141 400.858H258.621C258.53 401.705 258.254 402.46 257.794 403.125C257.334 403.79 256.717 404.312 255.945 404.693C255.178 405.074 254.277 405.264 253.243 405.264ZM263.894 397.227V405H261.346V387.545H263.86V394.04H264.022C264.329 393.335 264.798 392.776 265.428 392.361C266.059 391.946 266.883 391.739 267.9 391.739C268.798 391.739 269.582 391.923 270.252 392.293C270.928 392.662 271.451 393.213 271.82 393.946C272.195 394.673 272.383 395.582 272.383 396.673V405H269.835V396.98C269.835 396.02 269.587 395.276 269.093 394.747C268.599 394.213 267.911 393.946 267.031 393.946C266.428 393.946 265.888 394.074 265.411 394.33C264.94 394.585 264.567 394.96 264.295 395.455C264.028 395.943 263.894 396.534 263.894 397.227ZM281.425 405.264C280.136 405.264 279.025 404.989 278.093 404.438C277.167 403.881 276.451 403.099 275.945 402.094C275.445 401.082 275.195 399.898 275.195 398.54C275.195 397.199 275.445 396.017 275.945 394.994C276.451 393.972 277.156 393.173 278.059 392.599C278.968 392.026 280.031 391.739 281.246 391.739C281.985 391.739 282.701 391.861 283.394 392.105C284.087 392.349 284.71 392.733 285.261 393.256C285.812 393.778 286.246 394.457 286.565 395.293C286.883 396.122 287.042 397.131 287.042 398.318V399.222H276.636V397.312H284.545C284.545 396.642 284.408 396.048 284.136 395.531C283.863 395.009 283.479 394.597 282.985 394.295C282.496 393.994 281.923 393.844 281.263 393.844C280.548 393.844 279.923 394.02 279.388 394.372C278.86 394.719 278.451 395.173 278.161 395.736C277.877 396.293 277.735 396.898 277.735 397.551V399.043C277.735 399.918 277.888 400.662 278.195 401.276C278.508 401.889 278.942 402.358 279.499 402.682C280.056 403 280.707 403.159 281.451 403.159C281.934 403.159 282.374 403.091 282.772 402.955C283.17 402.812 283.513 402.602 283.803 402.324C284.093 402.045 284.315 401.702 284.468 401.293L286.88 401.727C286.687 402.437 286.34 403.06 285.84 403.594C285.346 404.122 284.724 404.534 283.974 404.83C283.229 405.119 282.38 405.264 281.425 405.264ZM289.869 405V391.909H292.332V393.989H292.469C292.707 393.284 293.128 392.73 293.73 392.327C294.338 391.918 295.026 391.713 295.793 391.713C295.952 391.713 296.139 391.719 296.355 391.73C296.577 391.741 296.75 391.756 296.875 391.773V394.21C296.773 394.182 296.591 394.151 296.33 394.116C296.068 394.077 295.807 394.057 295.545 394.057C294.943 394.057 294.406 394.185 293.935 394.44C293.469 394.69 293.099 395.04 292.827 395.489C292.554 395.932 292.418 396.437 292.418 397.006V405H289.869ZM308.89 395.105L306.58 395.514C306.484 395.219 306.33 394.937 306.12 394.67C305.915 394.403 305.637 394.185 305.285 394.014C304.933 393.844 304.492 393.759 303.964 393.759C303.242 393.759 302.64 393.92 302.157 394.244C301.674 394.562 301.433 394.974 301.433 395.48C301.433 395.918 301.594 396.27 301.918 396.537C302.242 396.804 302.765 397.023 303.487 397.193L305.566 397.67C306.771 397.949 307.668 398.378 308.259 398.957C308.85 399.537 309.146 400.29 309.146 401.216C309.146 402 308.918 402.699 308.464 403.312C308.015 403.92 307.387 404.398 306.58 404.744C305.779 405.091 304.85 405.264 303.793 405.264C302.327 405.264 301.131 404.952 300.205 404.327C299.279 403.696 298.711 402.801 298.501 401.642L300.964 401.267C301.117 401.909 301.433 402.395 301.91 402.724C302.387 403.048 303.009 403.21 303.776 403.21C304.612 403.21 305.279 403.037 305.779 402.69C306.279 402.338 306.529 401.909 306.529 401.403C306.529 400.994 306.376 400.651 306.069 400.372C305.768 400.094 305.305 399.884 304.68 399.741L302.464 399.256C301.242 398.977 300.339 398.534 299.754 397.926C299.174 397.318 298.884 396.548 298.884 395.616C298.884 394.844 299.1 394.168 299.532 393.588C299.964 393.009 300.56 392.557 301.322 392.233C302.083 391.903 302.955 391.739 303.938 391.739C305.353 391.739 306.467 392.045 307.279 392.659C308.092 393.267 308.629 394.082 308.89 395.105Z" fill="#898B96"/>
<g filter="url(#filter1_d_544_227)">
<path opacity="0.4" d="M123.438 221.496C129.827 214.639 139.567 215.185 145.177 222.665L153.046 233.183C159.358 241.521 169.565 241.521 175.876 233.183L183.745 222.665C189.355 215.185 199.095 214.639 205.484 221.496C219.353 236.3 230.651 231.391 230.651 210.665V122.931C230.651 91.5308 223.327 83.6614 193.875 83.6614H134.97C105.517 83.6614 98.1929 91.5308 98.1929 122.931V210.665C98.2708 231.391 109.647 236.222 123.438 221.496Z" fill="#68839F"/>
<path d="M186.628 145.839L182.733 149.813H182.655L159.046 173.421C158.033 174.434 155.929 175.525 154.449 175.681L143.93 177.239C140.112 177.785 137.463 175.058 138.008 171.318L139.489 160.721C139.723 159.24 140.735 157.215 141.748 156.124L165.435 132.515L169.331 128.541C171.902 125.97 174.785 124.1 177.902 124.1C180.551 124.1 183.434 125.347 186.628 128.541C193.641 135.554 191.381 141.086 186.628 145.839Z" fill="#68839F"/>
</g>
<defs>
<filter id="filter0_d_544_227" x="0" y="0" width="502" height="502" filterUnits="userSpaceOnUse" color-interpolation-filters="sRGB">
<feFlood flood-opacity="0" result="BackgroundImageFix"/>
<feColorMatrix in="SourceAlpha" type="matrix" values="0 0 0 0 0 0 0 0 0 0 0 0 0 0 0 0 0 0 127 0" result="hardAlpha"/>
<feOffset dy="9"/>
<feGaussianBlur stdDeviation="17"/>
<feColorMatrix type="matrix" values="0 0 0 0 0 0 0 0 0 0 0 0 0 0 0 0 0 0 0.05 0"/>
<feBlend mode="normal" in2="BackgroundImageFix" result="effect1_dropShadow_544_227"/>
<feBlend mode="normal" in="SourceGraphic" in2="effect1_dropShadow_544_227" result="shape"/>
</filter>
<filter id="filter1_d_544_227" x="67" y="68" width="195" height="195" filterUnits="userSpaceOnUse" color-interpolation-filters="sRGB">
<feFlood flood-opacity="0" result="BackgroundImageFix"/>
<feColorMatrix in="SourceAlpha" type="matrix" values="0 0 0 0 0 0 0 0 0 0 0 0 0 0 0 0 0 0 127 0" result="hardAlpha"/>
<feOffset dy="4"/>
<feGaussianBlur stdDeviation="2"/>
<feComposite in2="hardAlpha" operator="out"/>
<feColorMatrix type="matrix" values="0 0 0 0 0 0 0 0 0 0 0 0 0 0 0 0 0 0 0.25 0"/>
<feBlend mode="normal" in2="BackgroundImageFix" result="effect1_dropShadow_544_227"/>
<feBlend mode="normal" in="SourceGraphic" in2="effect1_dropShadow_544_227" result="shape"/>
</filter>
</defs>
</svg>
