<svg width="502" height="502" viewBox="0 0 502 502" fill="none" xmlns="http://www.w3.org/2000/svg">
<g filter="url(#filter0_d_549_226)">
<rect x="34" y="25" width="434" height="434" rx="20" fill="#DFEBF7"/>
</g>
<path d="M94.8352 319V284.091H100.102V299.261H117.506V284.091H122.79V319H117.506V303.778H100.102V319H94.8352ZM130.051 319V292.818H135.148V319H130.051ZM132.625 288.778C131.739 288.778 130.977 288.483 130.341 287.892C129.716 287.29 129.403 286.574 129.403 285.744C129.403 284.903 129.716 284.187 130.341 283.597C130.977 282.994 131.739 282.693 132.625 282.693C133.511 282.693 134.267 282.994 134.892 283.597C135.528 284.187 135.847 284.903 135.847 285.744C135.847 286.574 135.528 287.29 134.892 287.892C134.267 288.483 133.511 288.778 132.625 288.778ZM161.624 299.21L157.004 300.028C156.811 299.437 156.504 298.875 156.084 298.341C155.675 297.807 155.118 297.369 154.413 297.028C153.709 296.687 152.828 296.517 151.771 296.517C150.328 296.517 149.124 296.841 148.158 297.489C147.192 298.125 146.709 298.949 146.709 299.96C146.709 300.835 147.033 301.54 147.68 302.074C148.328 302.608 149.374 303.045 150.817 303.386L154.976 304.341C157.385 304.898 159.18 305.756 160.362 306.915C161.544 308.074 162.135 309.58 162.135 311.432C162.135 313 161.68 314.398 160.771 315.625C159.874 316.841 158.618 317.795 157.004 318.489C155.402 319.182 153.544 319.528 151.43 319.528C148.499 319.528 146.107 318.903 144.254 317.653C142.402 316.392 141.266 314.602 140.845 312.284L145.771 311.534C146.078 312.818 146.709 313.79 147.663 314.449C148.618 315.097 149.862 315.42 151.396 315.42C153.067 315.42 154.402 315.074 155.402 314.381C156.402 313.676 156.902 312.818 156.902 311.807C156.902 310.989 156.595 310.301 155.982 309.744C155.379 309.187 154.453 308.767 153.203 308.483L148.771 307.511C146.328 306.955 144.521 306.068 143.351 304.852C142.192 303.636 141.612 302.097 141.612 300.233C141.612 298.687 142.044 297.335 142.908 296.176C143.771 295.017 144.964 294.114 146.487 293.466C148.01 292.807 149.754 292.477 151.72 292.477C154.55 292.477 156.777 293.091 158.402 294.318C160.027 295.534 161.101 297.165 161.624 299.21ZM179.96 292.818V296.909H165.659V292.818H179.96ZM169.494 286.545H174.591V311.312C174.591 312.301 174.739 313.045 175.034 313.545C175.33 314.034 175.71 314.369 176.176 314.551C176.653 314.722 177.17 314.807 177.727 314.807C178.136 314.807 178.494 314.778 178.801 314.722C179.108 314.665 179.347 314.619 179.517 314.585L180.438 318.795C180.142 318.909 179.722 319.023 179.176 319.136C178.631 319.261 177.949 319.33 177.131 319.341C175.79 319.364 174.54 319.125 173.381 318.625C172.222 318.125 171.284 317.352 170.568 316.307C169.852 315.261 169.494 313.949 169.494 312.369V286.545ZM196.345 319.528C193.891 319.528 191.749 318.966 189.919 317.841C188.089 316.716 186.669 315.142 185.658 313.119C184.646 311.097 184.141 308.733 184.141 306.028C184.141 303.312 184.646 300.937 185.658 298.903C186.669 296.869 188.089 295.29 189.919 294.165C191.749 293.04 193.891 292.477 196.345 292.477C198.8 292.477 200.942 293.04 202.771 294.165C204.601 295.29 206.021 296.869 207.033 298.903C208.044 300.937 208.55 303.312 208.55 306.028C208.55 308.733 208.044 311.097 207.033 313.119C206.021 315.142 204.601 316.716 202.771 317.841C200.942 318.966 198.8 319.528 196.345 319.528ZM196.362 315.25C197.953 315.25 199.271 314.83 200.317 313.989C201.362 313.148 202.135 312.028 202.635 310.631C203.146 309.233 203.402 307.693 203.402 306.011C203.402 304.341 203.146 302.807 202.635 301.409C202.135 300 201.362 298.869 200.317 298.017C199.271 297.165 197.953 296.739 196.362 296.739C194.76 296.739 193.43 297.165 192.374 298.017C191.328 298.869 190.55 300 190.038 301.409C189.538 302.807 189.288 304.341 189.288 306.011C189.288 307.693 189.538 309.233 190.038 310.631C190.55 312.028 191.328 313.148 192.374 313.989C193.43 314.83 194.76 315.25 196.362 315.25ZM214.239 319V292.818H219.165V296.977H219.438C219.915 295.568 220.756 294.46 221.96 293.653C223.176 292.835 224.551 292.426 226.085 292.426C226.403 292.426 226.778 292.437 227.21 292.46C227.653 292.483 228 292.511 228.25 292.545V297.42C228.045 297.364 227.682 297.301 227.159 297.233C226.636 297.153 226.114 297.114 225.591 297.114C224.386 297.114 223.313 297.369 222.369 297.881C221.438 298.381 220.699 299.08 220.153 299.977C219.608 300.864 219.335 301.875 219.335 303.011V319H214.239ZM236.679 328.818C235.918 328.818 235.224 328.756 234.599 328.631C233.974 328.517 233.509 328.392 233.202 328.256L234.429 324.08C235.361 324.33 236.19 324.438 236.918 324.403C237.645 324.369 238.287 324.097 238.844 323.585C239.412 323.074 239.912 322.239 240.344 321.08L240.974 319.341L231.395 292.818H236.849L243.48 313.136H243.753L250.384 292.818H255.855L245.065 322.494C244.565 323.858 243.929 325.011 243.156 325.955C242.384 326.909 241.463 327.625 240.395 328.102C239.327 328.58 238.088 328.818 236.679 328.818Z" fill="#1F2227"/>
<path d="M100.443 352.545L105.301 366.761H105.497L110.355 352.545H113.202L106.92 370H103.878L97.5966 352.545H100.443ZM115.518 370V356.909H118.066V370H115.518ZM116.805 354.889C116.362 354.889 115.981 354.741 115.663 354.446C115.35 354.145 115.194 353.787 115.194 353.372C115.194 352.952 115.35 352.594 115.663 352.298C115.981 351.997 116.362 351.847 116.805 351.847C117.248 351.847 117.626 351.997 117.938 352.298C118.256 352.594 118.415 352.952 118.415 353.372C118.415 353.787 118.256 354.145 117.938 354.446C117.626 354.741 117.248 354.889 116.805 354.889ZM127.136 370.264C125.847 370.264 124.736 369.989 123.804 369.438C122.878 368.881 122.162 368.099 121.656 367.094C121.156 366.082 120.906 364.898 120.906 363.54C120.906 362.199 121.156 361.017 121.656 359.994C122.162 358.972 122.866 358.173 123.77 357.599C124.679 357.026 125.741 356.739 126.957 356.739C127.696 356.739 128.412 356.861 129.105 357.105C129.798 357.349 130.42 357.733 130.972 358.256C131.523 358.778 131.957 359.457 132.276 360.293C132.594 361.122 132.753 362.131 132.753 363.318V364.222H122.347V362.312H130.256C130.256 361.642 130.119 361.048 129.847 360.531C129.574 360.009 129.19 359.597 128.696 359.295C128.207 358.994 127.634 358.844 126.974 358.844C126.259 358.844 125.634 359.02 125.099 359.372C124.571 359.719 124.162 360.173 123.872 360.736C123.588 361.293 123.446 361.898 123.446 362.551V364.043C123.446 364.918 123.599 365.662 123.906 366.276C124.219 366.889 124.653 367.358 125.21 367.682C125.767 368 126.418 368.159 127.162 368.159C127.645 368.159 128.085 368.091 128.483 367.955C128.881 367.812 129.224 367.602 129.514 367.324C129.804 367.045 130.026 366.702 130.179 366.293L132.591 366.727C132.398 367.437 132.051 368.06 131.551 368.594C131.057 369.122 130.435 369.534 129.685 369.83C128.94 370.119 128.091 370.264 127.136 370.264ZM138.395 370L134.543 356.909H137.176L139.741 366.523H139.869L142.443 356.909H145.077L147.634 366.48H147.761L150.31 356.909H152.943L149.099 370H146.5L143.841 360.548H143.645L140.986 370H138.395ZM163.324 374.909C162.943 374.909 162.597 374.878 162.284 374.815C161.972 374.759 161.739 374.696 161.585 374.628L162.199 372.54C162.665 372.665 163.08 372.719 163.443 372.702C163.807 372.685 164.128 372.548 164.406 372.293C164.69 372.037 164.94 371.619 165.156 371.04L165.472 370.17L160.682 356.909H163.409L166.724 367.068H166.861L170.176 356.909H172.912L167.517 371.747C167.267 372.429 166.949 373.006 166.562 373.477C166.176 373.955 165.716 374.313 165.182 374.551C164.648 374.79 164.028 374.909 163.324 374.909ZM180.376 370.264C179.148 370.264 178.077 369.983 177.163 369.42C176.248 368.858 175.538 368.071 175.032 367.06C174.526 366.048 174.273 364.866 174.273 363.514C174.273 362.156 174.526 360.969 175.032 359.952C175.538 358.935 176.248 358.145 177.163 357.582C178.077 357.02 179.148 356.739 180.376 356.739C181.603 356.739 182.674 357.02 183.589 357.582C184.504 358.145 185.214 358.935 185.719 359.952C186.225 360.969 186.478 362.156 186.478 363.514C186.478 364.866 186.225 366.048 185.719 367.06C185.214 368.071 184.504 368.858 183.589 369.42C182.674 369.983 181.603 370.264 180.376 370.264ZM180.384 368.125C181.18 368.125 181.839 367.915 182.362 367.494C182.884 367.074 183.271 366.514 183.521 365.815C183.776 365.116 183.904 364.347 183.904 363.506C183.904 362.67 183.776 361.903 183.521 361.205C183.271 360.5 182.884 359.935 182.362 359.509C181.839 359.082 181.18 358.869 180.384 358.869C179.583 358.869 178.918 359.082 178.39 359.509C177.867 359.935 177.478 360.5 177.222 361.205C176.972 361.903 176.847 362.67 176.847 363.506C176.847 364.347 176.972 365.116 177.222 365.815C177.478 366.514 177.867 367.074 178.39 367.494C178.918 367.915 179.583 368.125 180.384 368.125ZM197.615 364.571V356.909H200.172V370H197.666V367.733H197.53C197.229 368.432 196.746 369.014 196.081 369.48C195.422 369.94 194.601 370.17 193.618 370.17C192.777 370.17 192.033 369.986 191.385 369.616C190.743 369.241 190.237 368.688 189.868 367.955C189.504 367.222 189.322 366.315 189.322 365.236V356.909H191.871V364.929C191.871 365.821 192.118 366.531 192.612 367.06C193.107 367.588 193.749 367.852 194.538 367.852C195.016 367.852 195.49 367.733 195.962 367.494C196.439 367.256 196.834 366.895 197.146 366.412C197.464 365.929 197.621 365.315 197.615 364.571ZM203.596 370V356.909H206.059V358.989H206.195C206.434 358.284 206.854 357.73 207.457 357.327C208.065 356.918 208.752 356.713 209.519 356.713C209.678 356.713 209.866 356.719 210.082 356.73C210.303 356.741 210.477 356.756 210.602 356.773V359.21C210.499 359.182 210.317 359.151 210.056 359.116C209.795 359.077 209.533 359.057 209.272 359.057C208.67 359.057 208.133 359.185 207.661 359.44C207.195 359.69 206.826 360.04 206.553 360.489C206.281 360.932 206.144 361.437 206.144 362.006V370H203.596ZM221.707 352.545V370H219.158V352.545H221.707ZM228.945 370.29C228.115 370.29 227.365 370.136 226.695 369.83C226.024 369.517 225.493 369.065 225.101 368.474C224.714 367.884 224.521 367.159 224.521 366.301C224.521 365.562 224.663 364.955 224.947 364.477C225.232 364 225.615 363.622 226.098 363.344C226.581 363.065 227.121 362.855 227.717 362.713C228.314 362.571 228.922 362.463 229.541 362.389C230.325 362.298 230.962 362.224 231.45 362.168C231.939 362.105 232.294 362.006 232.516 361.869C232.737 361.733 232.848 361.511 232.848 361.205V361.145C232.848 360.401 232.638 359.824 232.217 359.415C231.803 359.006 231.183 358.801 230.359 358.801C229.501 358.801 228.825 358.991 228.331 359.372C227.842 359.747 227.504 360.165 227.317 360.625L224.922 360.08C225.206 359.284 225.621 358.642 226.166 358.153C226.717 357.659 227.351 357.301 228.067 357.08C228.783 356.852 229.536 356.739 230.325 356.739C230.848 356.739 231.402 356.801 231.987 356.926C232.578 357.045 233.129 357.267 233.641 357.591C234.158 357.915 234.581 358.378 234.911 358.98C235.24 359.577 235.405 360.352 235.405 361.307V370H232.916V368.21H232.814C232.649 368.54 232.402 368.864 232.072 369.182C231.743 369.5 231.32 369.764 230.803 369.974C230.286 370.185 229.666 370.29 228.945 370.29ZM229.499 368.244C230.203 368.244 230.805 368.105 231.305 367.827C231.811 367.548 232.195 367.185 232.456 366.736C232.723 366.281 232.857 365.795 232.857 365.278V363.591C232.766 363.682 232.589 363.767 232.328 363.847C232.072 363.92 231.78 363.986 231.45 364.043C231.121 364.094 230.8 364.142 230.487 364.188C230.175 364.227 229.913 364.261 229.703 364.29C229.209 364.352 228.757 364.457 228.348 364.605C227.945 364.753 227.621 364.966 227.376 365.244C227.138 365.517 227.018 365.881 227.018 366.335C227.018 366.966 227.251 367.443 227.717 367.767C228.183 368.085 228.777 368.244 229.499 368.244ZM247.092 364.571V356.909H249.648V370H247.143V367.733H247.006C246.705 368.432 246.222 369.014 245.558 369.48C244.898 369.94 244.077 370.17 243.094 370.17C242.254 370.17 241.509 369.986 240.862 369.616C240.219 369.241 239.714 368.688 239.344 367.955C238.981 367.222 238.799 366.315 238.799 365.236V356.909H241.347V364.929C241.347 365.821 241.594 366.531 242.089 367.06C242.583 367.588 243.225 367.852 244.015 367.852C244.492 367.852 244.967 367.733 245.438 367.494C245.915 367.256 246.31 366.895 246.623 366.412C246.941 365.929 247.097 365.315 247.092 364.571ZM255.621 362.227V370H253.072V356.909H255.518V359.04H255.68C255.982 358.347 256.453 357.79 257.095 357.369C257.743 356.949 258.558 356.739 259.541 356.739C260.433 356.739 261.214 356.926 261.885 357.301C262.555 357.67 263.075 358.222 263.445 358.955C263.814 359.687 263.999 360.594 263.999 361.673V370H261.45V361.98C261.45 361.031 261.203 360.29 260.709 359.756C260.214 359.216 259.536 358.946 258.672 358.946C258.081 358.946 257.555 359.074 257.095 359.33C256.641 359.585 256.28 359.96 256.013 360.455C255.751 360.943 255.621 361.534 255.621 362.227ZM272.317 370.256C271.26 370.256 270.317 369.986 269.487 369.446C268.663 368.901 268.016 368.125 267.544 367.119C267.078 366.108 266.845 364.895 266.845 363.48C266.845 362.065 267.081 360.855 267.553 359.849C268.03 358.844 268.683 358.074 269.513 357.54C270.342 357.006 271.283 356.739 272.334 356.739C273.146 356.739 273.8 356.875 274.294 357.148C274.794 357.415 275.18 357.727 275.453 358.085C275.732 358.443 275.947 358.759 276.101 359.031H276.254V352.545H278.803V370H276.314V367.963H276.101C275.947 368.241 275.726 368.56 275.436 368.918C275.152 369.276 274.76 369.588 274.26 369.855C273.76 370.122 273.112 370.256 272.317 370.256ZM272.879 368.082C273.612 368.082 274.232 367.889 274.737 367.503C275.249 367.111 275.635 366.568 275.896 365.875C276.163 365.182 276.297 364.375 276.297 363.455C276.297 362.545 276.166 361.75 275.905 361.068C275.643 360.386 275.26 359.855 274.754 359.474C274.249 359.094 273.624 358.903 272.879 358.903C272.112 358.903 271.473 359.102 270.962 359.5C270.45 359.898 270.064 360.44 269.803 361.128C269.547 361.815 269.419 362.591 269.419 363.455C269.419 364.33 269.55 365.116 269.811 365.815C270.072 366.514 270.459 367.068 270.97 367.477C271.487 367.881 272.124 368.082 272.879 368.082ZM282.44 370V356.909H284.903V358.989H285.039C285.278 358.284 285.698 357.73 286.3 357.327C286.908 356.918 287.596 356.713 288.363 356.713C288.522 356.713 288.71 356.719 288.925 356.73C289.147 356.741 289.32 356.756 289.445 356.773V359.21C289.343 359.182 289.161 359.151 288.9 359.116C288.638 359.077 288.377 359.057 288.116 359.057C287.513 359.057 286.977 359.185 286.505 359.44C286.039 359.69 285.67 360.04 285.397 360.489C285.124 360.932 284.988 361.437 284.988 362.006V370H282.44ZM293.66 374.909C293.279 374.909 292.933 374.878 292.62 374.815C292.308 374.759 292.075 374.696 291.921 374.628L292.535 372.54C293.001 372.665 293.415 372.719 293.779 372.702C294.143 372.685 294.464 372.548 294.742 372.293C295.026 372.037 295.276 371.619 295.492 371.04L295.808 370.17L291.018 356.909H293.745L297.06 367.068H297.197L300.512 356.909H303.248L297.853 371.747C297.603 372.429 297.285 373.006 296.898 373.477C296.512 373.955 296.052 374.313 295.518 374.551C294.984 374.79 294.364 374.909 293.66 374.909ZM317.509 370.264C316.281 370.264 315.21 369.983 314.295 369.42C313.381 368.858 312.67 368.071 312.165 367.06C311.659 366.048 311.406 364.866 311.406 363.514C311.406 362.156 311.659 360.969 312.165 359.952C312.67 358.935 313.381 358.145 314.295 357.582C315.21 357.02 316.281 356.739 317.509 356.739C318.736 356.739 319.807 357.02 320.722 357.582C321.636 358.145 322.347 358.935 322.852 359.952C323.358 360.969 323.611 362.156 323.611 363.514C323.611 364.866 323.358 366.048 322.852 367.06C322.347 368.071 321.636 368.858 320.722 369.42C319.807 369.983 318.736 370.264 317.509 370.264ZM317.517 368.125C318.313 368.125 318.972 367.915 319.494 367.494C320.017 367.074 320.403 366.514 320.653 365.815C320.909 365.116 321.037 364.347 321.037 363.506C321.037 362.67 320.909 361.903 320.653 361.205C320.403 360.5 320.017 359.935 319.494 359.509C318.972 359.082 318.313 358.869 317.517 358.869C316.716 358.869 316.051 359.082 315.523 359.509C315 359.935 314.611 360.5 314.355 361.205C314.105 361.903 313.98 362.67 313.98 363.506C313.98 364.347 314.105 365.116 314.355 365.815C314.611 366.514 315 367.074 315.523 367.494C316.051 367.915 316.716 368.125 317.517 368.125ZM326.455 370V356.909H328.918V358.989H329.055C329.293 358.284 329.714 357.73 330.316 357.327C330.924 356.918 331.612 356.713 332.379 356.713C332.538 356.713 332.725 356.719 332.941 356.73C333.163 356.741 333.336 356.756 333.461 356.773V359.21C333.359 359.182 333.177 359.151 332.915 359.116C332.654 359.077 332.393 359.057 332.131 359.057C331.529 359.057 330.992 359.185 330.521 359.44C330.055 359.69 329.685 360.04 329.413 360.489C329.14 360.932 329.004 361.437 329.004 362.006V370H326.455ZM340.098 370.256C339.041 370.256 338.098 369.986 337.268 369.446C336.445 368.901 335.797 368.125 335.325 367.119C334.859 366.108 334.626 364.895 334.626 363.48C334.626 362.065 334.862 360.855 335.334 359.849C335.811 358.844 336.464 358.074 337.294 357.54C338.124 357.006 339.064 356.739 340.115 356.739C340.928 356.739 341.581 356.875 342.075 357.148C342.575 357.415 342.962 357.727 343.234 358.085C343.513 358.443 343.729 358.759 343.882 359.031H344.036V352.545H346.584V370H344.095V367.963H343.882C343.729 368.241 343.507 368.56 343.217 368.918C342.933 369.276 342.541 369.588 342.041 369.855C341.541 370.122 340.893 370.256 340.098 370.256ZM340.661 368.082C341.393 368.082 342.013 367.889 342.518 367.503C343.03 367.111 343.416 366.568 343.678 365.875C343.945 365.182 344.078 364.375 344.078 363.455C344.078 362.545 343.947 361.75 343.686 361.068C343.425 360.386 343.041 359.855 342.536 359.474C342.03 359.094 341.405 358.903 340.661 358.903C339.893 358.903 339.254 359.102 338.743 359.5C338.232 359.898 337.845 360.44 337.584 361.128C337.328 361.815 337.2 362.591 337.2 363.455C337.2 364.33 337.331 365.116 337.592 365.815C337.854 366.514 338.24 367.068 338.751 367.477C339.268 367.881 339.905 368.082 340.661 368.082ZM355.863 370.264C354.573 370.264 353.462 369.989 352.531 369.438C351.604 368.881 350.888 368.099 350.383 367.094C349.883 366.082 349.633 364.898 349.633 363.54C349.633 362.199 349.883 361.017 350.383 359.994C350.888 358.972 351.593 358.173 352.496 357.599C353.406 357.026 354.468 356.739 355.684 356.739C356.423 356.739 357.138 356.861 357.832 357.105C358.525 357.349 359.147 357.733 359.698 358.256C360.249 358.778 360.684 359.457 361.002 360.293C361.32 361.122 361.479 362.131 361.479 363.318V364.222H351.073V362.312H358.982C358.982 361.642 358.846 361.048 358.573 360.531C358.3 360.009 357.917 359.597 357.423 359.295C356.934 358.994 356.36 358.844 355.701 358.844C354.985 358.844 354.36 359.02 353.826 359.372C353.298 359.719 352.888 360.173 352.599 360.736C352.315 361.293 352.173 361.898 352.173 362.551V364.043C352.173 364.918 352.326 365.662 352.633 366.276C352.945 366.889 353.38 367.358 353.937 367.682C354.494 368 355.144 368.159 355.888 368.159C356.371 368.159 356.812 368.091 357.21 367.955C357.607 367.812 357.951 367.602 358.241 367.324C358.531 367.045 358.752 366.702 358.906 366.293L361.317 366.727C361.124 367.437 360.778 368.06 360.278 368.594C359.783 369.122 359.161 369.534 358.411 369.83C357.667 370.119 356.817 370.264 355.863 370.264ZM364.307 370V356.909H366.77V358.989H366.906C367.145 358.284 367.565 357.73 368.168 357.327C368.776 356.918 369.463 356.713 370.23 356.713C370.389 356.713 370.577 356.719 370.793 356.73C371.014 356.741 371.188 356.756 371.312 356.773V359.21C371.21 359.182 371.028 359.151 370.767 359.116C370.506 359.077 370.244 359.057 369.983 359.057C369.381 359.057 368.844 359.185 368.372 359.44C367.906 359.69 367.537 360.04 367.264 360.489C366.991 360.932 366.855 361.437 366.855 362.006V370H364.307ZM101.261 397.227V405H98.7131V387.545H101.227V394.04H101.389C101.696 393.335 102.165 392.776 102.795 392.361C103.426 391.946 104.25 391.739 105.267 391.739C106.165 391.739 106.949 391.923 107.619 392.293C108.295 392.662 108.818 393.213 109.188 393.946C109.562 394.673 109.75 395.582 109.75 396.673V405H107.202V396.98C107.202 396.02 106.955 395.276 106.46 394.747C105.966 394.213 105.278 393.946 104.398 393.946C103.795 393.946 103.256 394.074 102.778 394.33C102.307 394.585 101.935 394.96 101.662 395.455C101.395 395.943 101.261 396.534 101.261 397.227ZM113.151 405V391.909H115.699V405H113.151ZM114.438 389.889C113.994 389.889 113.614 389.741 113.295 389.446C112.983 389.145 112.827 388.787 112.827 388.372C112.827 387.952 112.983 387.594 113.295 387.298C113.614 386.997 113.994 386.847 114.438 386.847C114.881 386.847 115.259 386.997 115.571 387.298C115.889 387.594 116.048 387.952 116.048 388.372C116.048 388.787 115.889 389.145 115.571 389.446C115.259 389.741 114.881 389.889 114.438 389.889ZM128.937 395.105L126.627 395.514C126.531 395.219 126.377 394.937 126.167 394.67C125.962 394.403 125.684 394.185 125.332 394.014C124.979 393.844 124.539 393.759 124.011 393.759C123.289 393.759 122.687 393.92 122.204 394.244C121.721 394.562 121.479 394.974 121.479 395.48C121.479 395.918 121.641 396.27 121.965 396.537C122.289 396.804 122.812 397.023 123.533 397.193L125.613 397.67C126.817 397.949 127.715 398.378 128.306 398.957C128.897 399.537 129.192 400.29 129.192 401.216C129.192 402 128.965 402.699 128.511 403.312C128.062 403.92 127.434 404.398 126.627 404.744C125.826 405.091 124.897 405.264 123.84 405.264C122.374 405.264 121.178 404.952 120.252 404.327C119.326 403.696 118.758 402.801 118.548 401.642L121.011 401.267C121.164 401.909 121.479 402.395 121.957 402.724C122.434 403.048 123.056 403.21 123.823 403.21C124.658 403.21 125.326 403.037 125.826 402.69C126.326 402.338 126.576 401.909 126.576 401.403C126.576 400.994 126.423 400.651 126.116 400.372C125.815 400.094 125.352 399.884 124.727 399.741L122.511 399.256C121.289 398.977 120.386 398.534 119.8 397.926C119.221 397.318 118.931 396.548 118.931 395.616C118.931 394.844 119.147 394.168 119.579 393.588C120.011 393.009 120.607 392.557 121.369 392.233C122.13 391.903 123.002 391.739 123.985 391.739C125.4 391.739 126.513 392.045 127.326 392.659C128.138 393.267 128.675 394.082 128.937 395.105ZM138.105 391.909V393.955H130.955V391.909H138.105ZM132.872 388.773H135.42V401.156C135.42 401.651 135.494 402.023 135.642 402.273C135.79 402.517 135.98 402.685 136.213 402.776C136.452 402.861 136.71 402.903 136.989 402.903C137.193 402.903 137.372 402.889 137.526 402.861C137.679 402.832 137.798 402.81 137.884 402.793L138.344 404.898C138.196 404.955 137.986 405.011 137.713 405.068C137.44 405.131 137.099 405.165 136.69 405.17C136.02 405.182 135.395 405.062 134.815 404.812C134.236 404.562 133.767 404.176 133.409 403.653C133.051 403.131 132.872 402.474 132.872 401.685V388.773ZM146.298 405.264C145.07 405.264 143.999 404.983 143.085 404.42C142.17 403.858 141.46 403.071 140.954 402.06C140.448 401.048 140.195 399.866 140.195 398.514C140.195 397.156 140.448 395.969 140.954 394.952C141.46 393.935 142.17 393.145 143.085 392.582C143.999 392.02 145.07 391.739 146.298 391.739C147.525 391.739 148.596 392.02 149.511 392.582C150.425 393.145 151.136 393.935 151.641 394.952C152.147 395.969 152.4 397.156 152.4 398.514C152.4 399.866 152.147 401.048 151.641 402.06C151.136 403.071 150.425 403.858 149.511 404.42C148.596 404.983 147.525 405.264 146.298 405.264ZM146.306 403.125C147.102 403.125 147.761 402.915 148.283 402.494C148.806 402.074 149.192 401.514 149.442 400.815C149.698 400.116 149.826 399.347 149.826 398.506C149.826 397.67 149.698 396.903 149.442 396.205C149.192 395.5 148.806 394.935 148.283 394.509C147.761 394.082 147.102 393.869 146.306 393.869C145.505 393.869 144.84 394.082 144.312 394.509C143.789 394.935 143.4 395.5 143.144 396.205C142.894 396.903 142.769 397.67 142.769 398.506C142.769 399.347 142.894 400.116 143.144 400.815C143.4 401.514 143.789 402.074 144.312 402.494C144.84 402.915 145.505 403.125 146.306 403.125ZM155.244 405V391.909H157.707V393.989H157.844C158.082 393.284 158.503 392.73 159.105 392.327C159.713 391.918 160.401 391.713 161.168 391.713C161.327 391.713 161.514 391.719 161.73 391.73C161.952 391.741 162.125 391.756 162.25 391.773V394.21C162.148 394.182 161.966 394.151 161.705 394.116C161.443 394.077 161.182 394.057 160.92 394.057C160.318 394.057 159.781 394.185 159.31 394.44C158.844 394.69 158.474 395.04 158.202 395.489C157.929 395.932 157.793 396.437 157.793 397.006V405H155.244ZM166.464 409.909C166.084 409.909 165.737 409.878 165.425 409.815C165.112 409.759 164.879 409.696 164.726 409.628L165.339 407.54C165.805 407.665 166.22 407.719 166.584 407.702C166.947 407.685 167.268 407.548 167.547 407.293C167.831 407.037 168.081 406.619 168.297 406.04L168.612 405.17L163.822 391.909H166.55L169.865 402.068H170.001L173.317 391.909H176.053L170.658 406.747C170.408 407.429 170.089 408.006 169.703 408.477C169.317 408.955 168.857 409.313 168.322 409.551C167.788 409.79 167.169 409.909 166.464 409.909ZM187.637 405L183.785 391.909H186.418L188.984 401.523H189.112L191.685 391.909H194.319L196.876 401.48H197.004L199.552 391.909H202.185L198.342 405H195.742L193.083 395.548H192.887L190.228 405H187.637ZM204.604 405V391.909H207.152V405H204.604ZM205.891 389.889C205.447 389.889 205.067 389.741 204.749 389.446C204.436 389.145 204.28 388.787 204.28 388.372C204.28 387.952 204.436 387.594 204.749 387.298C205.067 386.997 205.447 386.847 205.891 386.847C206.334 386.847 206.712 386.997 207.024 387.298C207.342 387.594 207.501 387.952 207.501 388.372C207.501 388.787 207.342 389.145 207.024 389.446C206.712 389.741 206.334 389.889 205.891 389.889ZM216.691 391.909V393.955H209.54V391.909H216.691ZM211.458 388.773H214.006V401.156C214.006 401.651 214.08 402.023 214.228 402.273C214.376 402.517 214.566 402.685 214.799 402.776C215.038 402.861 215.296 402.903 215.575 402.903C215.779 402.903 215.958 402.889 216.112 402.861C216.265 402.832 216.384 402.81 216.469 402.793L216.93 404.898C216.782 404.955 216.572 405.011 216.299 405.068C216.026 405.131 215.685 405.165 215.276 405.17C214.606 405.182 213.981 405.062 213.401 404.812C212.822 404.562 212.353 404.176 211.995 403.653C211.637 403.131 211.458 402.474 211.458 401.685V388.773ZM222.339 397.227V405H219.791V387.545H222.305V394.04H222.467C222.774 393.335 223.243 392.776 223.874 392.361C224.504 391.946 225.328 391.739 226.345 391.739C227.243 391.739 228.027 391.923 228.697 392.293C229.374 392.662 229.896 393.213 230.266 393.946C230.641 394.673 230.828 395.582 230.828 396.673V405H228.28V396.98C228.28 396.02 228.033 395.276 227.538 394.747C227.044 394.213 226.357 393.946 225.476 393.946C224.874 393.946 224.334 394.074 223.857 394.33C223.385 394.585 223.013 394.96 222.74 395.455C222.473 395.943 222.339 396.534 222.339 397.227ZM250.39 395.105L248.08 395.514C247.984 395.219 247.83 394.937 247.62 394.67C247.415 394.403 247.137 394.185 246.785 394.014C246.433 393.844 245.992 393.759 245.464 393.759C244.742 393.759 244.14 393.92 243.657 394.244C243.174 394.562 242.933 394.974 242.933 395.48C242.933 395.918 243.094 396.27 243.418 396.537C243.742 396.804 244.265 397.023 244.987 397.193L247.066 397.67C248.271 397.949 249.168 398.378 249.759 398.957C250.35 399.537 250.646 400.29 250.646 401.216C250.646 402 250.418 402.699 249.964 403.312C249.515 403.92 248.887 404.398 248.08 404.744C247.279 405.091 246.35 405.264 245.293 405.264C243.827 405.264 242.631 404.952 241.705 404.327C240.779 403.696 240.211 402.801 240.001 401.642L242.464 401.267C242.617 401.909 242.933 402.395 243.41 402.724C243.887 403.048 244.509 403.21 245.276 403.21C246.112 403.21 246.779 403.037 247.279 402.69C247.779 402.338 248.029 401.909 248.029 401.403C248.029 400.994 247.876 400.651 247.569 400.372C247.268 400.094 246.805 399.884 246.18 399.741L243.964 399.256C242.742 398.977 241.839 398.534 241.254 397.926C240.674 397.318 240.384 396.548 240.384 395.616C240.384 394.844 240.6 394.168 241.032 393.588C241.464 393.009 242.06 392.557 242.822 392.233C243.583 391.903 244.455 391.739 245.438 391.739C246.853 391.739 247.967 392.045 248.779 392.659C249.592 393.267 250.129 394.082 250.39 395.105ZM259.558 391.909V393.955H252.408V391.909H259.558ZM254.325 388.773H256.874V401.156C256.874 401.651 256.947 402.023 257.095 402.273C257.243 402.517 257.433 402.685 257.666 402.776C257.905 402.861 258.163 402.903 258.442 402.903C258.646 402.903 258.825 402.889 258.979 402.861C259.132 402.832 259.251 402.81 259.337 402.793L259.797 404.898C259.649 404.955 259.439 405.011 259.166 405.068C258.893 405.131 258.553 405.165 258.143 405.17C257.473 405.182 256.848 405.062 256.268 404.812C255.689 404.562 255.22 404.176 254.862 403.653C254.504 403.131 254.325 402.474 254.325 401.685V388.773ZM266.187 405.29C265.357 405.29 264.607 405.136 263.937 404.83C263.266 404.517 262.735 404.065 262.343 403.474C261.957 402.884 261.763 402.159 261.763 401.301C261.763 400.562 261.906 399.955 262.19 399.477C262.474 399 262.857 398.622 263.34 398.344C263.823 398.065 264.363 397.855 264.96 397.713C265.556 397.571 266.164 397.463 266.783 397.389C267.567 397.298 268.204 397.224 268.692 397.168C269.181 397.105 269.536 397.006 269.758 396.869C269.979 396.733 270.09 396.511 270.09 396.205V396.145C270.09 395.401 269.88 394.824 269.46 394.415C269.045 394.006 268.425 393.801 267.602 393.801C266.744 393.801 266.067 393.991 265.573 394.372C265.085 394.747 264.746 395.165 264.559 395.625L262.164 395.08C262.448 394.284 262.863 393.642 263.408 393.153C263.96 392.659 264.593 392.301 265.309 392.08C266.025 391.852 266.778 391.739 267.567 391.739C268.09 391.739 268.644 391.801 269.229 391.926C269.82 392.045 270.371 392.267 270.883 392.591C271.4 392.915 271.823 393.378 272.153 393.98C272.482 394.577 272.647 395.352 272.647 396.307V405H270.158V403.21H270.056C269.891 403.54 269.644 403.864 269.315 404.182C268.985 404.5 268.562 404.764 268.045 404.974C267.528 405.185 266.908 405.29 266.187 405.29ZM266.741 403.244C267.445 403.244 268.048 403.105 268.548 402.827C269.053 402.548 269.437 402.185 269.698 401.736C269.965 401.281 270.099 400.795 270.099 400.278V398.591C270.008 398.682 269.832 398.767 269.57 398.847C269.315 398.92 269.022 398.986 268.692 399.043C268.363 399.094 268.042 399.142 267.729 399.188C267.417 399.227 267.156 399.261 266.945 399.29C266.451 399.352 265.999 399.457 265.59 399.605C265.187 399.753 264.863 399.966 264.619 400.244C264.38 400.517 264.261 400.881 264.261 401.335C264.261 401.966 264.494 402.443 264.96 402.767C265.425 403.085 266.019 403.244 266.741 403.244ZM282.152 391.909V393.955H275.001V391.909H282.152ZM276.919 388.773H279.467V401.156C279.467 401.651 279.541 402.023 279.689 402.273C279.837 402.517 280.027 402.685 280.26 402.776C280.499 402.861 280.757 402.903 281.036 402.903C281.24 402.903 281.419 402.889 281.572 402.861C281.726 402.832 281.845 402.81 281.93 402.793L282.391 404.898C282.243 404.955 282.033 405.011 281.76 405.068C281.487 405.131 281.146 405.165 280.737 405.17C280.067 405.182 279.442 405.062 278.862 404.812C278.283 404.562 277.814 404.176 277.456 403.653C277.098 403.131 276.919 402.474 276.919 401.685V388.773ZM293.263 399.571V391.909H295.82V405H293.315V402.733H293.178C292.877 403.432 292.394 404.014 291.729 404.48C291.07 404.94 290.249 405.17 289.266 405.17C288.425 405.17 287.681 404.986 287.033 404.616C286.391 404.241 285.886 403.688 285.516 402.955C285.153 402.222 284.971 401.315 284.971 400.236V391.909H287.519V399.929C287.519 400.821 287.766 401.531 288.261 402.06C288.755 402.588 289.397 402.852 290.187 402.852C290.664 402.852 291.138 402.733 291.61 402.494C292.087 402.256 292.482 401.895 292.795 401.412C293.113 400.929 293.269 400.315 293.263 399.571ZM309.054 395.105L306.744 395.514C306.648 395.219 306.494 394.937 306.284 394.67C306.08 394.403 305.801 394.185 305.449 394.014C305.097 393.844 304.656 393.759 304.128 393.759C303.406 393.759 302.804 393.92 302.321 394.244C301.838 394.562 301.597 394.974 301.597 395.48C301.597 395.918 301.759 396.27 302.082 396.537C302.406 396.804 302.929 397.023 303.651 397.193L305.73 397.67C306.935 397.949 307.832 398.378 308.423 398.957C309.014 399.537 309.31 400.29 309.31 401.216C309.31 402 309.082 402.699 308.628 403.312C308.179 403.92 307.551 404.398 306.744 404.744C305.943 405.091 305.014 405.264 303.957 405.264C302.491 405.264 301.295 404.952 300.369 404.327C299.443 403.696 298.875 402.801 298.665 401.642L301.128 401.267C301.281 401.909 301.597 402.395 302.074 402.724C302.551 403.048 303.173 403.21 303.94 403.21C304.776 403.21 305.443 403.037 305.943 402.69C306.443 402.338 306.693 401.909 306.693 401.403C306.693 400.994 306.54 400.651 306.233 400.372C305.932 400.094 305.469 399.884 304.844 399.741L302.628 399.256C301.406 398.977 300.503 398.534 299.918 397.926C299.338 397.318 299.048 396.548 299.048 395.616C299.048 394.844 299.264 394.168 299.696 393.588C300.128 393.009 300.724 392.557 301.486 392.233C302.247 391.903 303.119 391.739 304.102 391.739C305.517 391.739 306.631 392.045 307.443 392.659C308.256 393.267 308.793 394.082 309.054 395.105Z" fill="#898B96"/>
<path opacity="0.4" d="M164.5 239.417C207.532 239.417 242.417 204.532 242.417 161.5C242.417 118.468 207.532 83.5833 164.5 83.5833C121.468 83.5833 86.5833 118.468 86.5833 161.5C86.5833 204.532 121.468 239.417 164.5 239.417Z" fill="#68839F"/>
<path d="M193.407 192.121C192.394 192.121 191.381 191.887 190.446 191.264L166.292 176.85C160.293 173.265 155.851 165.396 155.851 158.461V126.515C155.851 123.321 158.5 120.672 161.695 120.672C164.89 120.672 167.539 123.321 167.539 126.515V158.461C167.539 161.266 169.876 165.396 172.292 166.798L196.446 181.213C199.251 182.849 200.108 186.433 198.472 189.238C197.303 191.108 195.355 192.121 193.407 192.121Z" fill="#68839F"/>
<defs>
<filter id="filter0_d_549_226" x="0" y="0" width="502" height="502" filterUnits="userSpaceOnUse" color-interpolation-filters="sRGB">
<feFlood flood-opacity="0" result="BackgroundImageFix"/>
<feColorMatrix in="SourceAlpha" type="matrix" values="0 0 0 0 0 0 0 0 0 0 0 0 0 0 0 0 0 0 127 0" result="hardAlpha"/>
<feOffset dy="9"/>
<feGaussianBlur stdDeviation="17"/>
<feColorMatrix type="matrix" values="0 0 0 0 0 0 0 0 0 0 0 0 0 0 0 0 0 0 0.05 0"/>
<feBlend mode="normal" in2="BackgroundImageFix" result="effect1_dropShadow_549_226"/>
<feBlend mode="normal" in="SourceGraphic" in2="effect1_dropShadow_549_226" result="shape"/>
</filter>
</defs>
</svg>
