<svg width="509" height="93" viewBox="0 0 509 93" fill="none" xmlns="http://www.w3.org/2000/svg">
<path d="M0.664 72L11.8 4.992H24.088L14.68 61.728H44.536L42.808 72H0.664ZM70.7065 73.152C65.8425 73.152 62.2905 71.488 60.0505 68.16C57.8105 64.768 56.6905 59.872 56.6905 53.472C56.6905 49.184 57.1705 45.088 58.1305 41.184C59.1545 37.28 60.5945 33.856 62.4505 30.912C64.3705 27.968 66.7065 25.632 69.4585 23.904C72.2745 22.176 75.5065 21.312 79.1545 21.312C82.8025 21.312 85.6505 22.208 87.6985 24C89.7465 25.728 91.2185 28.224 92.1145 31.488H92.5945L94.1305 22.464H106.227L99.5065 62.784H105.075L103.539 72H96.8185C93.3625 72 90.8025 71.136 89.1385 69.408C87.5385 67.68 86.9945 65.248 87.5065 62.112L87.7945 60.288H87.4105C86.4505 62.208 85.4265 63.968 84.3385 65.568C83.3145 67.104 82.1305 68.448 80.7865 69.6C79.5065 70.688 78.0345 71.552 76.3705 72.192C74.7065 72.832 72.8185 73.152 70.7065 73.152ZM75.9865 63.552C79.3145 63.552 82.3225 61.92 85.0105 58.656C85.9065 57.568 86.8345 56.16 87.7945 54.432C88.8185 52.64 89.4905 50.72 89.8105 48.672L91.2505 39.648C91.6985 37.088 91.2505 35.008 89.9065 33.408C88.5625 31.744 86.2585 30.912 82.9945 30.912C79.1545 30.912 76.2425 32.064 74.2585 34.368C72.3385 36.672 71.0585 39.776 70.4185 43.68L69.3625 50.016C69.2345 50.592 69.1385 51.232 69.0745 51.936C69.0105 52.64 68.9785 53.44 68.9785 54.336C68.9785 57.088 69.5225 59.328 70.6105 61.056C71.6985 62.72 73.4905 63.552 75.9865 63.552ZM145.933 60.288H145.453C143.597 64.256 141.421 67.392 138.925 69.696C136.429 72 133.197 73.152 129.229 73.152C126.925 73.152 124.909 72.768 123.181 72C121.517 71.296 120.141 70.304 119.053 69.024C117.965 67.744 117.133 66.24 116.557 64.512C116.045 62.784 115.789 60.896 115.789 58.848C115.789 56.48 116.109 53.408 116.749 49.632L121.261 22.464H133.357L128.653 50.784C128.525 51.68 128.365 52.64 128.173 53.664C128.045 54.688 127.981 55.712 127.981 56.736C127.981 58.528 128.461 60.128 129.421 61.536C130.381 62.944 132.045 63.648 134.413 63.648C136.269 63.648 137.869 63.232 139.213 62.4C140.557 61.504 141.837 60.32 143.053 58.848C143.757 57.952 144.653 56.608 145.741 54.816C146.829 52.96 147.565 50.88 147.949 48.576L152.269 22.464H164.365L156.109 72H144.013L145.933 60.288ZM171.048 72L179.304 22.464H191.4L189.48 34.176H189.96C191.752 30.272 193.896 27.168 196.392 24.864C198.952 22.496 202.216 21.312 206.184 21.312C208.488 21.312 210.472 21.696 212.136 22.464C213.864 23.168 215.272 24.16 216.36 25.44C217.448 26.72 218.248 28.256 218.76 30.048C219.336 31.776 219.624 33.632 219.624 35.616C219.624 37.984 219.304 41.056 218.664 44.832L214.152 72H202.056L206.76 43.68C206.888 42.784 207.016 41.824 207.144 40.8C207.336 39.776 207.432 38.752 207.432 37.728C207.432 35.936 206.952 34.336 205.992 32.928C205.032 31.52 203.368 30.816 201 30.816C199.144 30.816 197.544 31.264 196.2 32.16C194.856 32.992 193.576 34.144 192.359 35.616C191.656 36.512 190.76 37.888 189.672 39.744C188.584 41.536 187.848 43.584 187.464 45.888L183.144 72H171.048ZM261.442 60.288H261.058C260.098 62.208 259.074 63.968 257.986 65.568C256.962 67.104 255.778 68.448 254.434 69.6C253.09 70.688 251.554 71.552 249.826 72.192C248.162 72.832 246.274 73.152 244.162 73.152C239.042 73.152 235.298 71.456 232.93 68.064C230.562 64.608 229.378 59.904 229.378 53.952C229.378 49.536 229.858 45.344 230.818 41.376C231.842 37.408 233.314 33.952 235.234 31.008C237.218 28 239.65 25.632 242.53 23.904C245.41 22.176 248.706 21.312 252.418 21.312C256.258 21.312 259.234 22.208 261.346 24C263.458 25.728 264.93 28.224 265.762 31.488H266.242L271.33 0.959999H283.426L271.618 72H259.522L261.442 60.288ZM249.346 63.552C251.202 63.552 252.866 63.136 254.338 62.304C255.874 61.472 257.314 60.256 258.658 58.656C259.554 57.568 260.45 56.224 261.346 54.624C262.306 52.96 262.978 51.04 263.362 48.864L264.898 39.648C265.41 36.896 264.898 34.752 263.362 33.216C261.89 31.68 259.522 30.912 256.258 30.912C252.354 30.912 249.346 32.064 247.234 34.368C245.122 36.672 243.746 39.776 243.106 43.68L242.05 50.016C241.922 50.592 241.826 51.264 241.762 52.032C241.698 52.736 241.666 53.472 241.666 54.24C241.666 56.992 242.242 59.232 243.394 60.96C244.61 62.688 246.594 63.552 249.346 63.552ZM297.789 72L304.413 32.064H292.317L293.949 22.464H318.141L315.645 36.96H316.221C318.205 32.416 320.669 28.864 323.613 26.304C326.621 23.744 330.557 22.464 335.421 22.464H339.933L337.917 34.56H329.181C326.493 34.56 324.317 34.944 322.653 35.712C320.989 36.416 319.517 37.536 318.237 39.072C317.597 39.84 316.765 41.056 315.741 42.72C314.781 44.384 314.141 46.24 313.821 48.288L309.885 72H297.789ZM360.919 92.352C356.503 92.352 352.727 91.84 349.591 90.816C346.455 89.792 343.767 87.936 341.527 85.248L348.919 77.664C350.391 79.456 352.119 80.736 354.103 81.504C356.087 82.336 358.295 82.752 360.727 82.752C362.647 82.752 364.375 82.528 365.911 82.08C367.511 81.632 368.887 80.832 370.039 79.68C371.255 78.592 372.247 77.088 373.015 75.168C373.847 73.248 374.487 70.848 374.935 67.968L376.471 58.656H375.991C375.095 60.64 374.103 62.432 373.015 64.032C371.991 65.632 370.807 67.008 369.463 68.16C368.183 69.248 366.743 70.112 365.143 70.752C363.543 71.328 361.751 71.616 359.767 71.616C357.463 71.616 355.447 71.264 353.719 70.56C352.055 69.792 350.679 68.768 349.591 67.488C348.503 66.208 347.671 64.704 347.095 62.976C346.583 61.248 346.327 59.36 346.327 57.312C346.327 56.032 346.391 54.72 346.519 53.376C346.647 52.032 346.871 50.336 347.191 48.288L351.511 22.464H363.607L359.095 49.344C358.967 50.24 358.839 51.168 358.711 52.128C358.583 53.088 358.519 54.08 358.519 55.104C358.519 56.896 358.999 58.496 359.959 59.904C360.919 61.312 362.583 62.016 364.951 62.016C366.807 62.016 368.407 61.6 369.751 60.768C371.095 59.936 372.375 58.784 373.591 57.312C374.295 56.416 375.159 55.072 376.183 53.28C377.271 51.424 378.007 49.344 378.391 47.04L382.519 22.464H394.615L386.743 69.6C385.463 77.472 382.583 83.232 378.103 86.88C373.687 90.528 367.959 92.352 360.919 92.352ZM436.242 62.208H435.474C434.642 63.68 433.746 65.088 432.786 66.432C431.89 67.776 430.866 68.96 429.714 69.984C428.562 70.944 427.218 71.712 425.682 72.288C424.21 72.864 422.482 73.152 420.498 73.152C414.93 73.152 410.578 71.104 407.442 67.008C404.37 62.848 402.834 56.736 402.834 48.672C402.834 42.4 403.474 36.544 404.754 31.104C406.034 25.664 407.954 20.928 410.514 16.896C413.138 12.864 416.37 9.696 420.21 7.392C424.05 5.024 428.53 3.84 433.65 3.84C436.978 3.84 439.858 4.32 442.29 5.27999C444.722 6.24 446.738 7.552 448.338 9.216C450.002 10.816 451.281 12.768 452.177 15.072C453.074 17.312 453.65 19.712 453.906 22.272L442.194 24.864C442.002 23.456 441.714 22.112 441.33 20.832C440.946 19.488 440.402 18.304 439.698 17.28C438.994 16.256 438.066 15.456 436.914 14.88C435.762 14.304 434.29 14.016 432.498 14.016C430.386 14.016 428.53 14.464 426.93 15.36C425.33 16.192 423.922 17.44 422.706 19.104C421.554 20.704 420.562 22.656 419.73 24.96C418.898 27.264 418.258 29.824 417.81 32.64L416.178 42.336C415.986 43.488 415.794 44.864 415.602 46.464C415.474 48 415.41 49.312 415.41 50.4C415.41 54.24 416.178 57.312 417.714 59.616C419.25 61.92 421.746 63.072 425.202 63.072C427.058 63.072 428.722 62.752 430.194 62.112C431.73 61.408 433.042 60.512 434.13 59.424C435.218 58.272 436.082 56.96 436.722 55.488C437.426 54.016 437.906 52.448 438.162 50.784L438.93 46.08H426.546L427.986 37.056H451.41L445.65 72H434.61L436.242 62.208ZM480.94 73.152C477.676 73.152 474.732 72.672 472.108 71.712C469.548 70.688 467.372 69.248 465.58 67.392C463.852 65.536 462.508 63.296 461.548 60.672C460.652 58.048 460.204 55.136 460.204 51.936C460.204 47.2 460.876 42.944 462.22 39.168C463.564 35.392 465.452 32.192 467.884 29.568C470.316 26.88 473.196 24.832 476.524 23.424C479.916 22.016 483.628 21.312 487.66 21.312C490.924 21.312 493.836 21.824 496.396 22.848C499.02 23.808 501.196 25.216 502.924 27.072C504.716 28.928 506.06 31.168 506.956 33.792C507.916 36.416 508.396 39.328 508.396 42.528C508.396 47.264 507.724 51.52 506.38 55.296C505.036 59.072 503.148 62.304 500.716 64.992C498.284 67.616 495.372 69.632 491.98 71.04C488.652 72.448 484.972 73.152 480.94 73.152ZM481.804 63.84C485.388 63.84 488.236 62.784 490.348 60.672C492.524 58.496 493.964 55.424 494.668 51.456L495.82 44.64C495.948 43.872 496.044 43.104 496.108 42.336C496.236 41.568 496.3 40.896 496.3 40.32C496.3 37.056 495.436 34.624 493.708 33.024C492.044 31.424 489.74 30.624 486.796 30.624C483.212 30.624 480.332 31.712 478.156 33.888C476.044 36 474.636 39.04 473.932 43.008L472.78 49.824C472.652 50.592 472.524 51.36 472.396 52.128C472.332 52.896 472.3 53.568 472.3 54.144C472.3 57.408 473.132 59.84 474.796 61.44C476.524 63.04 478.86 63.84 481.804 63.84Z" fill="#95BBE3" fill-opacity="0.85"/>
</svg>
