<svg width="453" height="446" viewBox="0 0 453 446" fill="none" xmlns="http://www.w3.org/2000/svg">
<circle cx="226.266" cy="222.656" r="222.656" fill="#E9E9E9"/>
<path d="M429.906 228.338H45.2541C45.2541 228.338 22.6275 427.895 226.267 427.895C429.906 427.895 429.906 228.338 429.906 228.338Z" fill="url(#paint0_radial_438_124)" fill-opacity="0.85"/>
<path d="M226.266 0C101.001 0 0 99.6376 0 220.931C0 342.744 101.503 441.846 226.266 441.846C352.746 441.846 452.532 341.618 452.532 220.931C452.532 99.9338 352.441 0 226.266 0ZM226.266 46.5248C293.039 46.5248 353.741 82.4606 384.686 140.317C393.12 156.071 398.932 172.657 402.085 189.88C392.129 192.537 382.892 196.203 374.777 200.851C374.66 200.919 374.542 200.987 374.423 201.057C352.267 213.498 313.842 213.448 291.846 200.863C255.273 179.921 198.094 179.806 161.304 200.519C161.099 200.629 160.896 200.742 160.693 200.857C138.936 213.299 100.416 213.701 77.75 200.851C69.6477 196.209 60.4255 192.548 50.4838 189.891C65.5258 108.48 138.623 46.5248 226.266 46.5248ZM226.266 395.322C133.834 395.322 57.5791 326.415 48.5491 238.452C50.9778 239.525 52.3056 240.225 53.6653 241C90.2157 261.915 147.376 262.031 184.169 241.349C184.385 241.234 184.599 241.115 184.812 240.994C206.894 228.344 245.646 228.345 267.75 241C306.294 263.056 364.904 261.316 399.243 240.782C400.725 239.949 402.331 239.183 403.989 238.449C395.128 326.33 319.163 395.322 226.266 395.322Z" fill="#15325D"/>
<circle cx="255.5" cy="321.5" r="21.5" fill="#D9D9D9"/>
<circle cx="155" cy="142" r="18" fill="#95BBE3"/>
<circle cx="203.5" cy="101.5" r="22.5" fill="#95BBE3"/>
<circle cx="14" cy="14" r="14" transform="matrix(1 0 0 -1 283 300)" fill="#D9D9D9"/>
<circle cx="309" cy="335" r="7" fill="#D9D9D9"/>
<defs>
<radialGradient id="paint0_radial_438_124" cx="0" cy="0" r="1" gradientUnits="userSpaceOnUse" gradientTransform="translate(168.19 302.462) rotate(10.3984) scale(229.099 442.456)">
<stop stop-color="#95BBE3"/>
<stop offset="1" stop-color="#668FCC"/>
</radialGradient>
</defs>
</svg>
