<svg width="502" height="502" viewBox="0 0 502 502" fill="none" xmlns="http://www.w3.org/2000/svg">
<g filter="url(#filter0_d_532_237)">
<rect x="34" y="25" width="434" height="434" rx="20" fill="#DFEBF7"/>
</g>
<path d="M90.8352 284.091H97.2273L108.341 311.227H108.75L119.864 284.091H126.256V319H121.244V293.739H120.92L110.625 318.949H106.466L96.1705 293.722H95.8466V319H90.8352V284.091ZM141.124 319.58C139.464 319.58 137.964 319.273 136.624 318.659C135.283 318.034 134.22 317.131 133.436 315.949C132.663 314.767 132.277 313.318 132.277 311.602C132.277 310.125 132.561 308.909 133.129 307.955C133.697 307 134.464 306.244 135.43 305.688C136.396 305.131 137.476 304.71 138.669 304.426C139.862 304.142 141.078 303.926 142.317 303.778C143.885 303.597 145.158 303.449 146.135 303.335C147.112 303.21 147.822 303.011 148.266 302.739C148.709 302.466 148.93 302.023 148.93 301.409V301.29C148.93 299.801 148.51 298.648 147.669 297.83C146.839 297.011 145.601 296.602 143.953 296.602C142.237 296.602 140.885 296.983 139.896 297.744C138.919 298.494 138.243 299.33 137.868 300.25L133.078 299.159C133.646 297.568 134.476 296.284 135.567 295.307C136.669 294.318 137.936 293.602 139.368 293.159C140.8 292.705 142.305 292.477 143.885 292.477C144.93 292.477 146.038 292.602 147.209 292.852C148.391 293.091 149.493 293.534 150.516 294.182C151.55 294.83 152.396 295.756 153.055 296.96C153.714 298.153 154.044 299.705 154.044 301.614V319H149.067V315.42H148.862C148.533 316.08 148.038 316.727 147.379 317.364C146.72 318 145.874 318.528 144.839 318.949C143.805 319.369 142.567 319.58 141.124 319.58ZM142.232 315.489C143.641 315.489 144.845 315.21 145.845 314.653C146.857 314.097 147.624 313.369 148.146 312.472C148.68 311.562 148.947 310.591 148.947 309.557V306.182C148.766 306.364 148.413 306.534 147.891 306.693C147.379 306.841 146.794 306.972 146.135 307.085C145.476 307.187 144.834 307.284 144.209 307.375C143.584 307.455 143.061 307.523 142.641 307.58C141.652 307.705 140.749 307.915 139.93 308.21C139.124 308.506 138.476 308.932 137.987 309.489C137.51 310.034 137.271 310.761 137.271 311.67C137.271 312.932 137.737 313.886 138.669 314.534C139.601 315.17 140.788 315.489 142.232 315.489ZM165.929 303.455V319H160.832V292.818H165.724V297.08H166.048C166.651 295.693 167.594 294.58 168.878 293.739C170.173 292.898 171.804 292.477 173.77 292.477C175.554 292.477 177.116 292.852 178.457 293.602C179.798 294.341 180.838 295.443 181.577 296.909C182.315 298.375 182.685 300.187 182.685 302.347V319H177.588V302.96C177.588 301.062 177.094 299.58 176.105 298.511C175.116 297.432 173.759 296.892 172.031 296.892C170.849 296.892 169.798 297.148 168.878 297.659C167.969 298.17 167.247 298.92 166.713 299.909C166.19 300.886 165.929 302.068 165.929 303.455ZM197.139 319.58C195.48 319.58 193.98 319.273 192.639 318.659C191.298 318.034 190.236 317.131 189.452 315.949C188.679 314.767 188.293 313.318 188.293 311.602C188.293 310.125 188.577 308.909 189.145 307.955C189.713 307 190.48 306.244 191.446 305.688C192.412 305.131 193.491 304.71 194.685 304.426C195.878 304.142 197.094 303.926 198.332 303.778C199.901 303.597 201.173 303.449 202.151 303.335C203.128 303.21 203.838 303.011 204.281 302.739C204.724 302.466 204.946 302.023 204.946 301.409V301.29C204.946 299.801 204.526 298.648 203.685 297.83C202.855 297.011 201.616 296.602 199.969 296.602C198.253 296.602 196.901 296.983 195.912 297.744C194.935 298.494 194.259 299.33 193.884 300.25L189.094 299.159C189.662 297.568 190.491 296.284 191.582 295.307C192.685 294.318 193.952 293.602 195.384 293.159C196.815 292.705 198.321 292.477 199.901 292.477C200.946 292.477 202.054 292.602 203.224 292.852C204.406 293.091 205.509 293.534 206.531 294.182C207.565 294.83 208.412 295.756 209.071 296.96C209.73 298.153 210.06 299.705 210.06 301.614V319H205.082V315.42H204.878C204.548 316.08 204.054 316.727 203.395 317.364C202.736 318 201.889 318.528 200.855 318.949C199.821 319.369 198.582 319.58 197.139 319.58ZM198.247 315.489C199.656 315.489 200.861 315.21 201.861 314.653C202.872 314.097 203.639 313.369 204.162 312.472C204.696 311.562 204.963 310.591 204.963 309.557V306.182C204.781 306.364 204.429 306.534 203.906 306.693C203.395 306.841 202.81 306.972 202.151 307.085C201.491 307.187 200.849 307.284 200.224 307.375C199.599 307.455 199.077 307.523 198.656 307.58C197.668 307.705 196.764 307.915 195.946 308.21C195.139 308.506 194.491 308.932 194.003 309.489C193.526 310.034 193.287 310.761 193.287 311.67C193.287 312.932 193.753 313.886 194.685 314.534C195.616 315.17 196.804 315.489 198.247 315.489ZM227.825 329.364C225.746 329.364 223.956 329.091 222.456 328.545C220.967 328 219.751 327.278 218.808 326.381C217.865 325.483 217.161 324.5 216.695 323.432L221.075 321.625C221.382 322.125 221.791 322.653 222.303 323.21C222.825 323.778 223.53 324.261 224.416 324.659C225.314 325.057 226.467 325.256 227.876 325.256C229.808 325.256 231.405 324.784 232.666 323.841C233.928 322.909 234.558 321.42 234.558 319.375V314.227H234.234C233.928 314.784 233.484 315.403 232.905 316.085C232.337 316.767 231.553 317.358 230.553 317.858C229.553 318.358 228.251 318.608 226.649 318.608C224.581 318.608 222.717 318.125 221.058 317.159C219.411 316.182 218.104 314.744 217.138 312.847C216.183 310.937 215.706 308.591 215.706 305.807C215.706 303.023 216.178 300.636 217.121 298.648C218.075 296.659 219.382 295.136 221.041 294.08C222.7 293.011 224.581 292.477 226.683 292.477C228.308 292.477 229.621 292.75 230.621 293.295C231.621 293.83 232.399 294.455 232.956 295.17C233.524 295.886 233.962 296.517 234.268 297.062H234.643V292.818H239.638V319.58C239.638 321.83 239.115 323.676 238.07 325.119C237.024 326.563 235.609 327.631 233.825 328.324C232.053 329.017 230.053 329.364 227.825 329.364ZM227.774 314.381C229.24 314.381 230.479 314.04 231.49 313.358C232.513 312.665 233.286 311.676 233.808 310.392C234.342 309.097 234.609 307.545 234.609 305.739C234.609 303.977 234.348 302.426 233.825 301.085C233.303 299.744 232.536 298.699 231.524 297.949C230.513 297.187 229.263 296.807 227.774 296.807C226.24 296.807 224.962 297.205 223.939 298C222.916 298.784 222.143 299.852 221.621 301.205C221.109 302.557 220.854 304.068 220.854 305.739C220.854 307.455 221.115 308.96 221.638 310.256C222.161 311.551 222.933 312.562 223.956 313.29C224.99 314.017 226.263 314.381 227.774 314.381ZM257.757 319.528C255.178 319.528 252.956 318.977 251.092 317.875C249.24 316.761 247.808 315.199 246.797 313.188C245.797 311.165 245.297 308.795 245.297 306.08C245.297 303.398 245.797 301.034 246.797 298.989C247.808 296.943 249.217 295.347 251.024 294.199C252.842 293.051 254.967 292.477 257.399 292.477C258.876 292.477 260.308 292.722 261.695 293.21C263.081 293.699 264.325 294.466 265.428 295.511C266.53 296.557 267.399 297.915 268.036 299.585C268.672 301.244 268.99 303.261 268.99 305.636V307.443H248.178V303.625H263.996C263.996 302.284 263.723 301.097 263.178 300.062C262.632 299.017 261.865 298.193 260.876 297.591C259.899 296.989 258.751 296.688 257.433 296.688C256.001 296.688 254.751 297.04 253.683 297.744C252.626 298.437 251.808 299.347 251.229 300.472C250.661 301.585 250.376 302.795 250.376 304.102V307.085C250.376 308.835 250.683 310.324 251.297 311.551C251.922 312.778 252.791 313.716 253.905 314.364C255.018 315 256.32 315.318 257.808 315.318C258.774 315.318 259.655 315.182 260.45 314.909C261.246 314.625 261.933 314.205 262.513 313.648C263.092 313.091 263.536 312.403 263.842 311.585L268.666 312.455C268.28 313.875 267.587 315.119 266.587 316.188C265.598 317.244 264.354 318.068 262.854 318.659C261.365 319.239 259.666 319.528 257.757 319.528ZM318.081 301.545C318.081 305.273 317.399 308.477 316.036 311.159C314.672 313.83 312.803 315.886 310.428 317.33C308.064 318.761 305.376 319.477 302.365 319.477C299.342 319.477 296.643 318.761 294.268 317.33C291.905 315.886 290.041 313.824 288.678 311.142C287.314 308.46 286.632 305.261 286.632 301.545C286.632 297.818 287.314 294.619 288.678 291.949C290.041 289.267 291.905 287.21 294.268 285.778C296.643 284.335 299.342 283.614 302.365 283.614C305.376 283.614 308.064 284.335 310.428 285.778C312.803 287.21 314.672 289.267 316.036 291.949C317.399 294.619 318.081 297.818 318.081 301.545ZM312.865 301.545C312.865 298.705 312.405 296.312 311.484 294.369C310.575 292.415 309.325 290.938 307.734 289.938C306.155 288.926 304.365 288.42 302.365 288.42C300.354 288.42 298.558 288.926 296.979 289.938C295.399 290.938 294.149 292.415 293.229 294.369C292.32 296.312 291.865 298.705 291.865 301.545C291.865 304.386 292.32 306.784 293.229 308.739C294.149 310.682 295.399 312.159 296.979 313.17C298.558 314.17 300.354 314.67 302.365 314.67C304.365 314.67 306.155 314.17 307.734 313.17C309.325 312.159 310.575 310.682 311.484 308.739C312.405 306.784 312.865 304.386 312.865 301.545ZM324.239 319V292.818H329.165V296.977H329.438C329.915 295.568 330.756 294.46 331.96 293.653C333.176 292.835 334.551 292.426 336.085 292.426C336.403 292.426 336.778 292.437 337.21 292.46C337.653 292.483 338 292.511 338.25 292.545V297.42C338.045 297.364 337.682 297.301 337.159 297.233C336.636 297.153 336.114 297.114 335.591 297.114C334.386 297.114 333.313 297.369 332.369 297.881C331.438 298.381 330.699 299.08 330.153 299.977C329.608 300.864 329.335 301.875 329.335 303.011V319H324.239ZM351.524 319.511C349.411 319.511 347.524 318.972 345.865 317.892C344.217 316.801 342.922 315.25 341.979 313.239C341.047 311.216 340.581 308.79 340.581 305.96C340.581 303.131 341.053 300.71 341.996 298.699C342.95 296.687 344.257 295.148 345.916 294.08C347.575 293.011 349.456 292.477 351.558 292.477C353.183 292.477 354.49 292.75 355.479 293.295C356.479 293.83 357.251 294.455 357.797 295.17C358.354 295.886 358.786 296.517 359.092 297.062H359.399V284.091H364.496V319H359.518V314.926H359.092C358.786 315.483 358.342 316.119 357.763 316.835C357.195 317.551 356.411 318.176 355.411 318.71C354.411 319.244 353.115 319.511 351.524 319.511ZM352.649 315.165C354.115 315.165 355.354 314.778 356.365 314.006C357.388 313.222 358.161 312.136 358.683 310.75C359.217 309.364 359.484 307.75 359.484 305.909C359.484 304.091 359.223 302.5 358.7 301.136C358.178 299.773 357.411 298.71 356.399 297.949C355.388 297.187 354.138 296.807 352.649 296.807C351.115 296.807 349.837 297.205 348.814 298C347.791 298.795 347.018 299.881 346.496 301.256C345.984 302.631 345.729 304.182 345.729 305.909C345.729 307.659 345.99 309.233 346.513 310.631C347.036 312.028 347.808 313.136 348.831 313.955C349.865 314.761 351.138 315.165 352.649 315.165ZM383.054 319.528C380.474 319.528 378.253 318.977 376.389 317.875C374.537 316.761 373.105 315.199 372.094 313.188C371.094 311.165 370.594 308.795 370.594 306.08C370.594 303.398 371.094 301.034 372.094 298.989C373.105 296.943 374.514 295.347 376.321 294.199C378.139 293.051 380.264 292.477 382.696 292.477C384.173 292.477 385.605 292.722 386.991 293.21C388.378 293.699 389.622 294.466 390.724 295.511C391.827 296.557 392.696 297.915 393.332 299.585C393.969 301.244 394.287 303.261 394.287 305.636V307.443H373.474V303.625H389.293C389.293 302.284 389.02 301.097 388.474 300.062C387.929 299.017 387.162 298.193 386.173 297.591C385.196 296.989 384.048 296.688 382.73 296.688C381.298 296.688 380.048 297.04 378.98 297.744C377.923 298.437 377.105 299.347 376.526 300.472C375.957 301.585 375.673 302.795 375.673 304.102V307.085C375.673 308.835 375.98 310.324 376.594 311.551C377.219 312.778 378.088 313.716 379.202 314.364C380.315 315 381.616 315.318 383.105 315.318C384.071 315.318 384.952 315.182 385.747 314.909C386.543 314.625 387.23 314.205 387.81 313.648C388.389 313.091 388.832 312.403 389.139 311.585L393.963 312.455C393.577 313.875 392.884 315.119 391.884 316.188C390.895 317.244 389.651 318.068 388.151 318.659C386.662 319.239 384.963 319.528 383.054 319.528ZM399.942 319V292.818H404.868V296.977H405.141C405.618 295.568 406.459 294.46 407.663 293.653C408.879 292.835 410.254 292.426 411.788 292.426C412.107 292.426 412.482 292.437 412.913 292.46C413.357 292.483 413.703 292.511 413.953 292.545V297.42C413.749 297.364 413.385 297.301 412.862 297.233C412.339 297.153 411.817 297.114 411.294 297.114C410.089 297.114 409.016 297.369 408.072 297.881C407.141 298.381 406.402 299.08 405.857 299.977C405.311 300.864 405.038 301.875 405.038 303.011V319H399.942ZM437.983 299.21L433.364 300.028C433.17 299.437 432.864 298.875 432.443 298.341C432.034 297.807 431.477 297.369 430.773 297.028C430.068 296.687 429.188 296.517 428.131 296.517C426.688 296.517 425.483 296.841 424.517 297.489C423.551 298.125 423.068 298.949 423.068 299.96C423.068 300.835 423.392 301.54 424.04 302.074C424.688 302.608 425.733 303.045 427.176 303.386L431.335 304.341C433.744 304.898 435.54 305.756 436.722 306.915C437.903 308.074 438.494 309.58 438.494 311.432C438.494 313 438.04 314.398 437.131 315.625C436.233 316.841 434.977 317.795 433.364 318.489C431.761 319.182 429.903 319.528 427.79 319.528C424.858 319.528 422.466 318.903 420.614 317.653C418.761 316.392 417.625 314.602 417.205 312.284L422.131 311.534C422.438 312.818 423.068 313.79 424.023 314.449C424.977 315.097 426.222 315.42 427.756 315.42C429.426 315.42 430.761 315.074 431.761 314.381C432.761 313.676 433.261 312.818 433.261 311.807C433.261 310.989 432.955 310.301 432.341 309.744C431.739 309.187 430.812 308.767 429.562 308.483L425.131 307.511C422.688 306.955 420.881 306.068 419.71 304.852C418.551 303.636 417.972 302.097 417.972 300.233C417.972 298.687 418.403 297.335 419.267 296.176C420.131 295.017 421.324 294.114 422.847 293.466C424.369 292.807 426.114 292.477 428.08 292.477C430.909 292.477 433.136 293.091 434.761 294.318C436.386 295.534 437.46 297.165 437.983 299.21Z" fill="#1F2227"/>
<path d="M110.08 361.273C110.08 363.136 109.739 364.739 109.057 366.08C108.375 367.415 107.44 368.443 106.253 369.165C105.071 369.881 103.727 370.239 102.222 370.239C100.71 370.239 99.3608 369.881 98.1733 369.165C96.9915 368.443 96.0597 367.412 95.3778 366.071C94.696 364.73 94.3551 363.131 94.3551 361.273C94.3551 359.409 94.696 357.81 95.3778 356.474C96.0597 355.134 96.9915 354.105 98.1733 353.389C99.3608 352.668 100.71 352.307 102.222 352.307C103.727 352.307 105.071 352.668 106.253 353.389C107.44 354.105 108.375 355.134 109.057 356.474C109.739 357.81 110.08 359.409 110.08 361.273ZM107.472 361.273C107.472 359.852 107.241 358.656 106.781 357.685C106.327 356.707 105.702 355.969 104.906 355.469C104.116 354.963 103.222 354.71 102.222 354.71C101.216 354.71 100.318 354.963 99.5284 355.469C98.7386 355.969 98.1136 356.707 97.6534 357.685C97.1989 358.656 96.9716 359.852 96.9716 361.273C96.9716 362.693 97.1989 363.892 97.6534 364.869C98.1136 365.841 98.7386 366.58 99.5284 367.085C100.318 367.585 101.216 367.835 102.222 367.835C103.222 367.835 104.116 367.585 104.906 367.085C105.702 366.58 106.327 365.841 106.781 364.869C107.241 363.892 107.472 362.693 107.472 361.273ZM124.357 356.909L119.61 370H116.883L112.127 356.909H114.863L118.178 366.983H118.315L121.621 356.909H124.357ZM131.949 370.264C130.659 370.264 129.548 369.989 128.616 369.438C127.69 368.881 126.974 368.099 126.469 367.094C125.969 366.082 125.719 364.898 125.719 363.54C125.719 362.199 125.969 361.017 126.469 359.994C126.974 358.972 127.679 358.173 128.582 357.599C129.491 357.026 130.554 356.739 131.77 356.739C132.509 356.739 133.224 356.861 133.918 357.105C134.611 357.349 135.233 357.733 135.784 358.256C136.335 358.778 136.77 359.457 137.088 360.293C137.406 361.122 137.565 362.131 137.565 363.318V364.222H127.159V362.312H135.068C135.068 361.642 134.932 361.048 134.659 360.531C134.386 360.009 134.003 359.597 133.509 359.295C133.02 358.994 132.446 358.844 131.787 358.844C131.071 358.844 130.446 359.02 129.912 359.372C129.384 359.719 128.974 360.173 128.685 360.736C128.401 361.293 128.259 361.898 128.259 362.551V364.043C128.259 364.918 128.412 365.662 128.719 366.276C129.031 366.889 129.466 367.358 130.023 367.682C130.58 368 131.23 368.159 131.974 368.159C132.457 368.159 132.898 368.091 133.295 367.955C133.693 367.812 134.037 367.602 134.327 367.324C134.616 367.045 134.838 366.702 134.991 366.293L137.403 366.727C137.21 367.437 136.864 368.06 136.364 368.594C135.869 369.122 135.247 369.534 134.497 369.83C133.753 370.119 132.903 370.264 131.949 370.264ZM140.393 370V356.909H142.856V358.989H142.992C143.231 358.284 143.651 357.73 144.254 357.327C144.862 356.918 145.549 356.713 146.316 356.713C146.475 356.713 146.663 356.719 146.879 356.73C147.1 356.741 147.273 356.756 147.398 356.773V359.21C147.296 359.182 147.114 359.151 146.853 359.116C146.592 359.077 146.33 359.057 146.069 359.057C145.467 359.057 144.93 359.185 144.458 359.44C143.992 359.69 143.623 360.04 143.35 360.489C143.077 360.932 142.941 361.437 142.941 362.006V370H140.393ZM159.413 360.105L157.104 360.514C157.007 360.219 156.854 359.937 156.643 359.67C156.439 359.403 156.161 359.185 155.808 359.014C155.456 358.844 155.016 358.759 154.487 358.759C153.766 358.759 153.163 358.92 152.68 359.244C152.197 359.562 151.956 359.974 151.956 360.48C151.956 360.918 152.118 361.27 152.442 361.537C152.766 361.804 153.288 362.023 154.01 362.193L156.089 362.67C157.294 362.949 158.192 363.378 158.783 363.957C159.374 364.537 159.669 365.29 159.669 366.216C159.669 367 159.442 367.699 158.987 368.312C158.538 368.92 157.911 369.398 157.104 369.744C156.303 370.091 155.374 370.264 154.317 370.264C152.851 370.264 151.655 369.952 150.729 369.327C149.803 368.696 149.234 367.801 149.024 366.642L151.487 366.267C151.641 366.909 151.956 367.395 152.433 367.724C152.911 368.048 153.533 368.21 154.3 368.21C155.135 368.21 155.803 368.037 156.303 367.69C156.803 367.338 157.053 366.909 157.053 366.403C157.053 365.994 156.899 365.651 156.592 365.372C156.291 365.094 155.828 364.884 155.203 364.741L152.987 364.256C151.766 363.977 150.862 363.534 150.277 362.926C149.697 362.318 149.408 361.548 149.408 360.616C149.408 359.844 149.624 359.168 150.055 358.588C150.487 358.009 151.084 357.557 151.845 357.233C152.607 356.903 153.479 356.739 154.462 356.739C155.876 356.739 156.99 357.045 157.803 357.659C158.615 358.267 159.152 359.082 159.413 360.105ZM168.113 370.264C166.823 370.264 165.712 369.989 164.781 369.438C163.854 368.881 163.138 368.099 162.633 367.094C162.133 366.082 161.883 364.898 161.883 363.54C161.883 362.199 162.133 361.017 162.633 359.994C163.138 358.972 163.843 358.173 164.746 357.599C165.656 357.026 166.718 356.739 167.934 356.739C168.673 356.739 169.388 356.861 170.082 357.105C170.775 357.349 171.397 357.733 171.948 358.256C172.499 358.778 172.934 359.457 173.252 360.293C173.57 361.122 173.729 362.131 173.729 363.318V364.222H163.323V362.312H171.232C171.232 361.642 171.096 361.048 170.823 360.531C170.55 360.009 170.167 359.597 169.673 359.295C169.184 358.994 168.61 358.844 167.951 358.844C167.235 358.844 166.61 359.02 166.076 359.372C165.548 359.719 165.138 360.173 164.849 360.736C164.565 361.293 164.423 361.898 164.423 362.551V364.043C164.423 364.918 164.576 365.662 164.883 366.276C165.195 366.889 165.63 367.358 166.187 367.682C166.744 368 167.394 368.159 168.138 368.159C168.621 368.159 169.062 368.091 169.46 367.955C169.857 367.812 170.201 367.602 170.491 367.324C170.781 367.045 171.002 366.702 171.156 366.293L173.567 366.727C173.374 367.437 173.028 368.06 172.528 368.594C172.033 369.122 171.411 369.534 170.661 369.83C169.917 370.119 169.067 370.264 168.113 370.264ZM182.199 370.264C180.909 370.264 179.798 369.989 178.866 369.438C177.94 368.881 177.224 368.099 176.719 367.094C176.219 366.082 175.969 364.898 175.969 363.54C175.969 362.199 176.219 361.017 176.719 359.994C177.224 358.972 177.929 358.173 178.832 357.599C179.741 357.026 180.804 356.739 182.02 356.739C182.759 356.739 183.474 356.861 184.168 357.105C184.861 357.349 185.483 357.733 186.034 358.256C186.585 358.778 187.02 359.457 187.338 360.293C187.656 361.122 187.815 362.131 187.815 363.318V364.222H177.409V362.312H185.318C185.318 361.642 185.182 361.048 184.909 360.531C184.636 360.009 184.253 359.597 183.759 359.295C183.27 358.994 182.696 358.844 182.037 358.844C181.321 358.844 180.696 359.02 180.162 359.372C179.634 359.719 179.224 360.173 178.935 360.736C178.651 361.293 178.509 361.898 178.509 362.551V364.043C178.509 364.918 178.662 365.662 178.969 366.276C179.281 366.889 179.716 367.358 180.273 367.682C180.83 368 181.48 368.159 182.224 368.159C182.707 368.159 183.148 368.091 183.545 367.955C183.943 367.812 184.287 367.602 184.577 367.324C184.866 367.045 185.088 366.702 185.241 366.293L187.653 366.727C187.46 367.437 187.114 368.06 186.614 368.594C186.119 369.122 185.497 369.534 184.747 369.83C184.003 370.119 183.153 370.264 182.199 370.264ZM200.804 370.29C199.974 370.29 199.224 370.136 198.554 369.83C197.884 369.517 197.352 369.065 196.96 368.474C196.574 367.884 196.381 367.159 196.381 366.301C196.381 365.562 196.523 364.955 196.807 364.477C197.091 364 197.474 363.622 197.957 363.344C198.44 363.065 198.98 362.855 199.577 362.713C200.173 362.571 200.781 362.463 201.401 362.389C202.185 362.298 202.821 362.224 203.31 362.168C203.798 362.105 204.153 362.006 204.375 361.869C204.597 361.733 204.707 361.511 204.707 361.205V361.145C204.707 360.401 204.497 359.824 204.077 359.415C203.662 359.006 203.043 358.801 202.219 358.801C201.361 358.801 200.685 358.991 200.19 359.372C199.702 359.747 199.364 360.165 199.176 360.625L196.781 360.08C197.065 359.284 197.48 358.642 198.026 358.153C198.577 357.659 199.21 357.301 199.926 357.08C200.642 356.852 201.395 356.739 202.185 356.739C202.707 356.739 203.261 356.801 203.847 356.926C204.438 357.045 204.989 357.267 205.5 357.591C206.017 357.915 206.44 358.378 206.77 358.98C207.099 359.577 207.264 360.352 207.264 361.307V370H204.776V368.21H204.673C204.509 368.54 204.261 368.864 203.932 369.182C203.602 369.5 203.179 369.764 202.662 369.974C202.145 370.185 201.526 370.29 200.804 370.29ZM201.358 368.244C202.063 368.244 202.665 368.105 203.165 367.827C203.67 367.548 204.054 367.185 204.315 366.736C204.582 366.281 204.716 365.795 204.716 365.278V363.591C204.625 363.682 204.449 363.767 204.188 363.847C203.932 363.92 203.639 363.986 203.31 364.043C202.98 364.094 202.659 364.142 202.347 364.188C202.034 364.227 201.773 364.261 201.562 364.29C201.068 364.352 200.616 364.457 200.207 364.605C199.804 364.753 199.48 364.966 199.236 365.244C198.997 365.517 198.878 365.881 198.878 366.335C198.878 366.966 199.111 367.443 199.577 367.767C200.043 368.085 200.636 368.244 201.358 368.244ZM213.207 362.227V370H210.658V356.909H213.104V359.04H213.266C213.567 358.347 214.039 357.79 214.681 357.369C215.329 356.949 216.144 356.739 217.127 356.739C218.019 356.739 218.8 356.926 219.471 357.301C220.141 357.67 220.661 358.222 221.031 358.955C221.4 359.687 221.585 360.594 221.585 361.673V370H219.036V361.98C219.036 361.031 218.789 360.29 218.295 359.756C217.8 359.216 217.121 358.946 216.258 358.946C215.667 358.946 215.141 359.074 214.681 359.33C214.227 359.585 213.866 359.96 213.599 360.455C213.337 360.943 213.207 361.534 213.207 362.227ZM229.903 370.256C228.846 370.256 227.903 369.986 227.073 369.446C226.249 368.901 225.602 368.125 225.13 367.119C224.664 366.108 224.431 364.895 224.431 363.48C224.431 362.065 224.667 360.855 225.138 359.849C225.616 358.844 226.269 358.074 227.099 357.54C227.928 357.006 228.869 356.739 229.92 356.739C230.732 356.739 231.386 356.875 231.88 357.148C232.38 357.415 232.766 357.727 233.039 358.085C233.317 358.443 233.533 358.759 233.687 359.031H233.84V352.545H236.388V370H233.9V367.963H233.687C233.533 368.241 233.312 368.56 233.022 368.918C232.738 369.276 232.346 369.588 231.846 369.855C231.346 370.122 230.698 370.256 229.903 370.256ZM230.465 368.082C231.198 368.082 231.817 367.889 232.323 367.503C232.835 367.111 233.221 366.568 233.482 365.875C233.749 365.182 233.883 364.375 233.883 363.455C233.883 362.545 233.752 361.75 233.491 361.068C233.229 360.386 232.846 359.855 232.34 359.474C231.835 359.094 231.21 358.903 230.465 358.903C229.698 358.903 229.059 359.102 228.548 359.5C228.036 359.898 227.65 360.44 227.388 361.128C227.133 361.815 227.005 362.591 227.005 363.455C227.005 364.33 227.136 365.116 227.397 365.815C227.658 366.514 228.045 367.068 228.556 367.477C229.073 367.881 229.71 368.082 230.465 368.082ZM252.488 356.909V358.955H245.337V356.909H252.488ZM247.255 353.773H249.803V366.156C249.803 366.651 249.877 367.023 250.025 367.273C250.173 367.517 250.363 367.685 250.596 367.776C250.835 367.861 251.093 367.903 251.371 367.903C251.576 367.903 251.755 367.889 251.908 367.861C252.062 367.832 252.181 367.81 252.266 367.793L252.727 369.898C252.579 369.955 252.369 370.011 252.096 370.068C251.823 370.131 251.482 370.165 251.073 370.17C250.403 370.182 249.778 370.062 249.198 369.812C248.619 369.562 248.15 369.176 247.792 368.653C247.434 368.131 247.255 367.474 247.255 366.685V353.773ZM255.307 370V356.909H257.77V358.989H257.906C258.145 358.284 258.565 357.73 259.168 357.327C259.776 356.918 260.463 356.713 261.23 356.713C261.389 356.713 261.577 356.719 261.793 356.73C262.014 356.741 262.188 356.756 262.312 356.773V359.21C262.21 359.182 262.028 359.151 261.767 359.116C261.506 359.077 261.244 359.057 260.983 359.057C260.381 359.057 259.844 359.185 259.372 359.44C258.906 359.69 258.537 360.04 258.264 360.489C257.991 360.932 257.855 361.437 257.855 362.006V370H255.307ZM268.21 370.29C267.381 370.29 266.631 370.136 265.96 369.83C265.29 369.517 264.759 369.065 264.366 368.474C263.98 367.884 263.787 367.159 263.787 366.301C263.787 365.562 263.929 364.955 264.213 364.477C264.497 364 264.881 363.622 265.364 363.344C265.847 363.065 266.386 362.855 266.983 362.713C267.58 362.571 268.188 362.463 268.807 362.389C269.591 362.298 270.227 362.224 270.716 362.168C271.205 362.105 271.56 362.006 271.781 361.869C272.003 361.733 272.114 361.511 272.114 361.205V361.145C272.114 360.401 271.903 359.824 271.483 359.415C271.068 359.006 270.449 358.801 269.625 358.801C268.767 358.801 268.091 358.991 267.597 359.372C267.108 359.747 266.77 360.165 266.582 360.625L264.188 360.08C264.472 359.284 264.886 358.642 265.432 358.153C265.983 357.659 266.616 357.301 267.332 357.08C268.048 356.852 268.801 356.739 269.591 356.739C270.114 356.739 270.668 356.801 271.253 356.926C271.844 357.045 272.395 357.267 272.906 357.591C273.423 357.915 273.847 358.378 274.176 358.98C274.506 359.577 274.67 360.352 274.67 361.307V370H272.182V368.21H272.08C271.915 368.54 271.668 368.864 271.338 369.182C271.009 369.5 270.585 369.764 270.068 369.974C269.551 370.185 268.932 370.29 268.21 370.29ZM268.764 368.244C269.469 368.244 270.071 368.105 270.571 367.827C271.077 367.548 271.46 367.185 271.722 366.736C271.989 366.281 272.122 365.795 272.122 365.278V363.591C272.031 363.682 271.855 363.767 271.594 363.847C271.338 363.92 271.045 363.986 270.716 364.043C270.386 364.094 270.065 364.142 269.753 364.188C269.44 364.227 269.179 364.261 268.969 364.29C268.474 364.352 268.023 364.457 267.614 364.605C267.21 364.753 266.886 364.966 266.642 365.244C266.403 365.517 266.284 365.881 266.284 366.335C266.284 366.966 266.517 367.443 266.983 367.767C267.449 368.085 268.043 368.244 268.764 368.244ZM283.579 370.264C282.312 370.264 281.221 369.977 280.306 369.403C279.397 368.824 278.698 368.026 278.21 367.009C277.721 365.991 277.477 364.827 277.477 363.514C277.477 362.185 277.727 361.011 278.227 359.994C278.727 358.972 279.431 358.173 280.34 357.599C281.249 357.026 282.32 356.739 283.553 356.739C284.548 356.739 285.434 356.923 286.212 357.293C286.991 357.656 287.619 358.168 288.096 358.827C288.579 359.486 288.866 360.256 288.957 361.136H286.477C286.34 360.523 286.028 359.994 285.539 359.551C285.056 359.108 284.408 358.886 283.596 358.886C282.886 358.886 282.263 359.074 281.729 359.449C281.201 359.818 280.789 360.347 280.494 361.034C280.198 361.716 280.05 362.523 280.05 363.455C280.05 364.409 280.195 365.233 280.485 365.926C280.775 366.619 281.184 367.156 281.712 367.537C282.246 367.918 282.874 368.108 283.596 368.108C284.079 368.108 284.516 368.02 284.908 367.844C285.306 367.662 285.638 367.403 285.906 367.068C286.178 366.733 286.369 366.33 286.477 365.858H288.957C288.866 366.705 288.59 367.46 288.13 368.125C287.67 368.79 287.053 369.312 286.281 369.693C285.513 370.074 284.613 370.264 283.579 370.264ZM294.026 365.56L294.009 362.449H294.452L299.668 356.909H302.719L296.77 363.216H296.369L294.026 365.56ZM291.682 370V352.545H294.23V370H291.682ZM299.949 370L295.261 363.778L297.017 361.997L303.077 370H299.949ZM315.202 370.29C314.373 370.29 313.623 370.136 312.952 369.83C312.282 369.517 311.751 369.065 311.359 368.474C310.972 367.884 310.779 367.159 310.779 366.301C310.779 365.562 310.921 364.955 311.205 364.477C311.489 364 311.873 363.622 312.356 363.344C312.839 363.065 313.379 362.855 313.975 362.713C314.572 362.571 315.18 362.463 315.799 362.389C316.583 362.298 317.219 362.224 317.708 362.168C318.197 362.105 318.552 362.006 318.773 361.869C318.995 361.733 319.106 361.511 319.106 361.205V361.145C319.106 360.401 318.896 359.824 318.475 359.415C318.06 359.006 317.441 358.801 316.617 358.801C315.759 358.801 315.083 358.991 314.589 359.372C314.1 359.747 313.762 360.165 313.575 360.625L311.18 360.08C311.464 359.284 311.879 358.642 312.424 358.153C312.975 357.659 313.609 357.301 314.325 357.08C315.04 356.852 315.793 356.739 316.583 356.739C317.106 356.739 317.66 356.801 318.245 356.926C318.836 357.045 319.387 357.267 319.898 357.591C320.415 357.915 320.839 358.378 321.168 358.98C321.498 359.577 321.663 360.352 321.663 361.307V370H319.174V368.21H319.072C318.907 368.54 318.66 368.864 318.33 369.182C318.001 369.5 317.577 369.764 317.06 369.974C316.543 370.185 315.924 370.29 315.202 370.29ZM315.756 368.244C316.461 368.244 317.063 368.105 317.563 367.827C318.069 367.548 318.452 367.185 318.714 366.736C318.981 366.281 319.114 365.795 319.114 365.278V363.591C319.023 363.682 318.847 363.767 318.586 363.847C318.33 363.92 318.038 363.986 317.708 364.043C317.379 364.094 317.058 364.142 316.745 364.188C316.433 364.227 316.171 364.261 315.961 364.29C315.467 364.352 315.015 364.457 314.606 364.605C314.202 364.753 313.879 364.966 313.634 365.244C313.396 365.517 313.276 365.881 313.276 366.335C313.276 366.966 313.509 367.443 313.975 367.767C314.441 368.085 315.035 368.244 315.756 368.244ZM327.605 352.545V370H325.057V352.545H327.605ZM333.582 352.545V370H331.033V352.545H333.582ZM94.7131 405V391.909H97.2614V405H94.7131ZM96 389.889C95.5568 389.889 95.1761 389.741 94.858 389.446C94.5455 389.145 94.3892 388.787 94.3892 388.372C94.3892 387.952 94.5455 387.594 94.858 387.298C95.1761 386.997 95.5568 386.847 96 386.847C96.4432 386.847 96.821 386.997 97.1335 387.298C97.4517 387.594 97.6108 387.952 97.6108 388.372C97.6108 388.787 97.4517 389.145 97.1335 389.446C96.821 389.741 96.4432 389.889 96 389.889ZM103.238 397.227V405H100.69V391.909H103.136V394.04H103.298C103.599 393.347 104.07 392.79 104.712 392.369C105.36 391.949 106.175 391.739 107.158 391.739C108.05 391.739 108.832 391.926 109.502 392.301C110.173 392.67 110.692 393.222 111.062 393.955C111.431 394.687 111.616 395.594 111.616 396.673V405H109.067V396.98C109.067 396.031 108.82 395.29 108.326 394.756C107.832 394.216 107.153 393.946 106.289 393.946C105.698 393.946 105.173 394.074 104.712 394.33C104.258 394.585 103.897 394.96 103.63 395.455C103.369 395.943 103.238 396.534 103.238 397.227ZM120.548 405.264C119.281 405.264 118.19 404.977 117.275 404.403C116.366 403.824 115.667 403.026 115.178 402.009C114.69 400.991 114.445 399.827 114.445 398.514C114.445 397.185 114.695 396.011 115.195 394.994C115.695 393.972 116.4 393.173 117.309 392.599C118.218 392.026 119.289 391.739 120.522 391.739C121.516 391.739 122.403 391.923 123.181 392.293C123.96 392.656 124.587 393.168 125.065 393.827C125.548 394.486 125.835 395.256 125.925 396.136H123.445C123.309 395.523 122.996 394.994 122.508 394.551C122.025 394.108 121.377 393.886 120.565 393.886C119.854 393.886 119.232 394.074 118.698 394.449C118.17 394.818 117.758 395.347 117.462 396.034C117.167 396.716 117.019 397.523 117.019 398.455C117.019 399.409 117.164 400.233 117.454 400.926C117.744 401.619 118.153 402.156 118.681 402.537C119.215 402.918 119.843 403.108 120.565 403.108C121.048 403.108 121.485 403.02 121.877 402.844C122.275 402.662 122.607 402.403 122.874 402.068C123.147 401.733 123.337 401.33 123.445 400.858H125.925C125.835 401.705 125.559 402.46 125.099 403.125C124.638 403.79 124.022 404.312 123.249 404.693C122.482 405.074 121.582 405.264 120.548 405.264ZM134.165 405.264C132.938 405.264 131.866 404.983 130.952 404.42C130.037 403.858 129.327 403.071 128.821 402.06C128.315 401.048 128.062 399.866 128.062 398.514C128.062 397.156 128.315 395.969 128.821 394.952C129.327 393.935 130.037 393.145 130.952 392.582C131.866 392.02 132.938 391.739 134.165 391.739C135.392 391.739 136.463 392.02 137.378 392.582C138.293 393.145 139.003 393.935 139.509 394.952C140.014 395.969 140.267 397.156 140.267 398.514C140.267 399.866 140.014 401.048 139.509 402.06C139.003 403.071 138.293 403.858 137.378 404.42C136.463 404.983 135.392 405.264 134.165 405.264ZM134.173 403.125C134.969 403.125 135.628 402.915 136.151 402.494C136.673 402.074 137.06 401.514 137.31 400.815C137.565 400.116 137.693 399.347 137.693 398.506C137.693 397.67 137.565 396.903 137.31 396.205C137.06 395.5 136.673 394.935 136.151 394.509C135.628 394.082 134.969 393.869 134.173 393.869C133.372 393.869 132.707 394.082 132.179 394.509C131.656 394.935 131.267 395.5 131.011 396.205C130.761 396.903 130.636 397.67 130.636 398.506C130.636 399.347 130.761 400.116 131.011 400.815C131.267 401.514 131.656 402.074 132.179 402.494C132.707 402.915 133.372 403.125 134.173 403.125ZM143.112 405V391.909H145.558V394.04H145.719C145.992 393.318 146.438 392.756 147.058 392.352C147.677 391.943 148.418 391.739 149.282 391.739C150.157 391.739 150.89 391.943 151.481 392.352C152.077 392.761 152.518 393.324 152.802 394.04H152.938C153.251 393.341 153.748 392.784 154.43 392.369C155.112 391.949 155.924 391.739 156.867 391.739C158.055 391.739 159.023 392.111 159.773 392.855C160.529 393.599 160.907 394.722 160.907 396.222V405H158.359V396.46C158.359 395.574 158.117 394.932 157.634 394.534C157.151 394.136 156.575 393.938 155.904 393.938C155.075 393.938 154.43 394.193 153.969 394.705C153.509 395.21 153.279 395.861 153.279 396.656V405H150.739V396.298C150.739 395.588 150.518 395.017 150.075 394.585C149.631 394.153 149.055 393.938 148.344 393.938C147.862 393.938 147.415 394.065 147.006 394.321C146.603 394.571 146.276 394.92 146.026 395.369C145.782 395.818 145.66 396.338 145.66 396.929V405H143.112ZM164.322 405V391.909H166.871V405H164.322ZM165.609 389.889C165.166 389.889 164.786 389.741 164.467 389.446C164.155 389.145 163.999 388.787 163.999 388.372C163.999 387.952 164.155 387.594 164.467 387.298C164.786 386.997 165.166 386.847 165.609 386.847C166.053 386.847 166.43 386.997 166.743 387.298C167.061 387.594 167.22 387.952 167.22 388.372C167.22 388.787 167.061 389.145 166.743 389.446C166.43 389.741 166.053 389.889 165.609 389.889ZM172.847 397.227V405H170.299V391.909H172.745V394.04H172.907C173.208 393.347 173.68 392.79 174.322 392.369C174.969 391.949 175.785 391.739 176.768 391.739C177.66 391.739 178.441 391.926 179.112 392.301C179.782 392.67 180.302 393.222 180.671 393.955C181.04 394.687 181.225 395.594 181.225 396.673V405H178.677V396.98C178.677 396.031 178.43 395.29 177.935 394.756C177.441 394.216 176.762 393.946 175.898 393.946C175.308 393.946 174.782 394.074 174.322 394.33C173.867 394.585 173.506 394.96 173.239 395.455C172.978 395.943 172.847 396.534 172.847 397.227ZM190.131 410.182C189.092 410.182 188.197 410.045 187.447 409.773C186.702 409.5 186.094 409.139 185.623 408.69C185.151 408.241 184.799 407.75 184.566 407.216L186.756 406.312C186.91 406.562 187.114 406.827 187.37 407.105C187.631 407.389 187.984 407.631 188.427 407.83C188.876 408.028 189.452 408.128 190.157 408.128C191.123 408.128 191.921 407.892 192.552 407.42C193.183 406.955 193.498 406.21 193.498 405.188V402.614H193.336C193.183 402.892 192.961 403.202 192.671 403.543C192.387 403.884 191.995 404.179 191.495 404.429C190.995 404.679 190.344 404.804 189.543 404.804C188.509 404.804 187.577 404.562 186.748 404.08C185.924 403.591 185.271 402.872 184.788 401.923C184.31 400.969 184.072 399.795 184.072 398.403C184.072 397.011 184.308 395.818 184.779 394.824C185.256 393.83 185.91 393.068 186.739 392.54C187.569 392.006 188.509 391.739 189.56 391.739C190.373 391.739 191.029 391.875 191.529 392.148C192.029 392.415 192.418 392.727 192.697 393.085C192.981 393.443 193.2 393.759 193.353 394.031H193.54V391.909H196.038V405.29C196.038 406.415 195.776 407.338 195.254 408.06C194.731 408.781 194.023 409.315 193.131 409.662C192.245 410.009 191.245 410.182 190.131 410.182ZM190.106 402.69C190.839 402.69 191.458 402.52 191.964 402.179C192.475 401.832 192.862 401.338 193.123 400.696C193.39 400.048 193.523 399.273 193.523 398.369C193.523 397.489 193.393 396.713 193.131 396.043C192.87 395.372 192.487 394.849 191.981 394.474C191.475 394.094 190.85 393.903 190.106 393.903C189.339 393.903 188.7 394.102 188.188 394.5C187.677 394.892 187.29 395.426 187.029 396.102C186.773 396.778 186.646 397.534 186.646 398.369C186.646 399.227 186.776 399.98 187.038 400.628C187.299 401.276 187.685 401.781 188.197 402.145C188.714 402.509 189.35 402.69 190.106 402.69ZM211.321 405.264C210.094 405.264 209.023 404.983 208.108 404.42C207.193 403.858 206.483 403.071 205.977 402.06C205.472 401.048 205.219 399.866 205.219 398.514C205.219 397.156 205.472 395.969 205.977 394.952C206.483 393.935 207.193 393.145 208.108 392.582C209.023 392.02 210.094 391.739 211.321 391.739C212.548 391.739 213.619 392.02 214.534 392.582C215.449 393.145 216.159 393.935 216.665 394.952C217.17 395.969 217.423 397.156 217.423 398.514C217.423 399.866 217.17 401.048 216.665 402.06C216.159 403.071 215.449 403.858 214.534 404.42C213.619 404.983 212.548 405.264 211.321 405.264ZM211.33 403.125C212.125 403.125 212.784 402.915 213.307 402.494C213.83 402.074 214.216 401.514 214.466 400.815C214.722 400.116 214.849 399.347 214.849 398.506C214.849 397.67 214.722 396.903 214.466 396.205C214.216 395.5 213.83 394.935 213.307 394.509C212.784 394.082 212.125 393.869 211.33 393.869C210.528 393.869 209.864 394.082 209.335 394.509C208.813 394.935 208.423 395.5 208.168 396.205C207.918 396.903 207.793 397.67 207.793 398.506C207.793 399.347 207.918 400.116 208.168 400.815C208.423 401.514 208.813 402.074 209.335 402.494C209.864 402.915 210.528 403.125 211.33 403.125ZM220.268 405V391.909H222.731V393.989H222.867C223.106 393.284 223.526 392.73 224.129 392.327C224.737 391.918 225.424 391.713 226.191 391.713C226.35 391.713 226.538 391.719 226.754 391.73C226.975 391.741 227.148 391.756 227.273 391.773V394.21C227.171 394.182 226.989 394.151 226.728 394.116C226.467 394.077 226.205 394.057 225.944 394.057C225.342 394.057 224.805 394.185 224.333 394.44C223.867 394.69 223.498 395.04 223.225 395.489C222.952 395.932 222.816 396.437 222.816 397.006V405H220.268ZM233.911 405.256C232.854 405.256 231.911 404.986 231.081 404.446C230.257 403.901 229.609 403.125 229.138 402.119C228.672 401.108 228.439 399.895 228.439 398.48C228.439 397.065 228.675 395.855 229.146 394.849C229.624 393.844 230.277 393.074 231.107 392.54C231.936 392.006 232.876 391.739 233.928 391.739C234.74 391.739 235.393 391.875 235.888 392.148C236.388 392.415 236.774 392.727 237.047 393.085C237.325 393.443 237.541 393.759 237.695 394.031H237.848V387.545H240.396V405H237.908V402.963H237.695C237.541 403.241 237.32 403.56 237.03 403.918C236.746 404.276 236.354 404.588 235.854 404.855C235.354 405.122 234.706 405.256 233.911 405.256ZM234.473 403.082C235.206 403.082 235.825 402.889 236.331 402.503C236.842 402.111 237.229 401.568 237.49 400.875C237.757 400.182 237.891 399.375 237.891 398.455C237.891 397.545 237.76 396.75 237.499 396.068C237.237 395.386 236.854 394.855 236.348 394.474C235.842 394.094 235.217 393.903 234.473 393.903C233.706 393.903 233.067 394.102 232.555 394.5C232.044 394.898 231.658 395.44 231.396 396.128C231.141 396.815 231.013 397.591 231.013 398.455C231.013 399.33 231.143 400.116 231.405 400.815C231.666 401.514 232.053 402.068 232.564 402.477C233.081 402.881 233.717 403.082 234.473 403.082ZM249.675 405.264C248.386 405.264 247.275 404.989 246.343 404.438C245.417 403.881 244.701 403.099 244.195 402.094C243.695 401.082 243.445 399.898 243.445 398.54C243.445 397.199 243.695 396.017 244.195 394.994C244.701 393.972 245.406 393.173 246.309 392.599C247.218 392.026 248.281 391.739 249.496 391.739C250.235 391.739 250.951 391.861 251.644 392.105C252.337 392.349 252.96 392.733 253.511 393.256C254.062 393.778 254.496 394.457 254.815 395.293C255.133 396.122 255.292 397.131 255.292 398.318V399.222H244.886V397.312H252.795C252.795 396.642 252.658 396.048 252.386 395.531C252.113 395.009 251.729 394.597 251.235 394.295C250.746 393.994 250.173 393.844 249.513 393.844C248.798 393.844 248.173 394.02 247.638 394.372C247.11 394.719 246.701 395.173 246.411 395.736C246.127 396.293 245.985 396.898 245.985 397.551V399.043C245.985 399.918 246.138 400.662 246.445 401.276C246.758 401.889 247.192 402.358 247.749 402.682C248.306 403 248.957 403.159 249.701 403.159C250.184 403.159 250.624 403.091 251.022 402.955C251.42 402.812 251.763 402.602 252.053 402.324C252.343 402.045 252.565 401.702 252.718 401.293L255.13 401.727C254.937 402.437 254.59 403.06 254.09 403.594C253.596 404.122 252.974 404.534 252.224 404.83C251.479 405.119 250.63 405.264 249.675 405.264ZM258.119 405V391.909H260.582V393.989H260.719C260.957 393.284 261.378 392.73 261.98 392.327C262.588 391.918 263.276 391.713 264.043 391.713C264.202 391.713 264.389 391.719 264.605 391.73C264.827 391.741 265 391.756 265.125 391.773V394.21C265.023 394.182 264.841 394.151 264.58 394.116C264.318 394.077 264.057 394.057 263.795 394.057C263.193 394.057 262.656 394.185 262.185 394.44C261.719 394.69 261.349 395.04 261.077 395.489C260.804 395.932 260.668 396.437 260.668 397.006V405H258.119ZM277.14 395.105L274.83 395.514C274.734 395.219 274.58 394.937 274.37 394.67C274.165 394.403 273.887 394.185 273.535 394.014C273.183 393.844 272.742 393.759 272.214 393.759C271.492 393.759 270.89 393.92 270.407 394.244C269.924 394.562 269.683 394.974 269.683 395.48C269.683 395.918 269.844 396.27 270.168 396.537C270.492 396.804 271.015 397.023 271.737 397.193L273.816 397.67C275.021 397.949 275.918 398.378 276.509 398.957C277.1 399.537 277.396 400.29 277.396 401.216C277.396 402 277.168 402.699 276.714 403.312C276.265 403.92 275.637 404.398 274.83 404.744C274.029 405.091 273.1 405.264 272.043 405.264C270.577 405.264 269.381 404.952 268.455 404.327C267.529 403.696 266.961 402.801 266.751 401.642L269.214 401.267C269.367 401.909 269.683 402.395 270.16 402.724C270.637 403.048 271.259 403.21 272.026 403.21C272.862 403.21 273.529 403.037 274.029 402.69C274.529 402.338 274.779 401.909 274.779 401.403C274.779 400.994 274.626 400.651 274.319 400.372C274.018 400.094 273.555 399.884 272.93 399.741L270.714 399.256C269.492 398.977 268.589 398.534 268.004 397.926C267.424 397.318 267.134 396.548 267.134 395.616C267.134 394.844 267.35 394.168 267.782 393.588C268.214 393.009 268.81 392.557 269.572 392.233C270.333 391.903 271.205 391.739 272.188 391.739C273.603 391.739 274.717 392.045 275.529 392.659C276.342 393.267 276.879 394.082 277.14 395.105Z" fill="#898B96"/>
<g filter="url(#filter1_d_532_237)">
<path opacity="0.4" d="M243.613 122.074C243.613 126.282 241.353 130.099 237.769 132.047L224.211 139.371L212.68 145.527L188.759 158.461C186.188 159.863 183.383 160.565 180.5 160.565C177.617 160.565 174.812 159.863 172.241 158.461L123.231 132.047C119.647 130.099 117.388 126.282 117.388 122.074C117.388 117.867 119.647 114.048 123.231 112.1L138.581 103.841L150.814 97.2186L172.241 85.6871C177.384 82.8821 183.617 82.8821 188.759 85.6871L237.769 112.1C241.353 114.048 243.613 117.867 243.613 122.074Z" fill="#68839F"/>
<path opacity="0.4" d="M164.137 167.655L118.556 144.826C115.05 143.034 110.998 143.268 107.648 145.293C104.297 147.319 102.35 150.904 102.35 154.799V197.887C102.35 205.367 106.479 212.068 113.18 215.418L158.761 238.17C160.32 238.95 162.034 239.339 163.748 239.339C165.774 239.339 167.8 238.794 169.592 237.625C172.942 235.599 174.89 232.015 174.89 228.119V185.031C174.968 177.707 170.838 171.006 164.137 167.655Z" fill="#68839F"/>
<path opacity="0.4" d="M258.651 154.877V197.965C258.651 205.367 254.521 212.068 247.82 215.418L202.239 238.248C200.681 239.027 198.966 239.417 197.252 239.417C195.226 239.417 193.201 238.872 191.331 237.703C188.058 235.677 186.032 232.093 186.032 228.197V185.187C186.032 177.707 190.162 171.006 196.863 167.655L213.615 159.318L225.302 153.474L242.444 144.904C245.95 143.112 250.002 143.268 253.352 145.371C256.625 147.397 258.651 150.982 258.651 154.877Z" fill="#68839F"/>
<path d="M224.211 139.371L212.679 145.527L138.581 103.841L150.814 97.2188L222.341 137.58C223.12 138.047 223.743 138.67 224.211 139.371Z" fill="#68839F"/>
<path d="M225.302 153.474V171.162C225.302 174.356 222.653 177.005 219.458 177.005C216.264 177.005 213.615 174.356 213.615 171.162V159.318L225.302 153.474Z" fill="#68839F"/>
</g>
<defs>
<filter id="filter0_d_532_237" x="0" y="0" width="502" height="502" filterUnits="userSpaceOnUse" color-interpolation-filters="sRGB">
<feFlood flood-opacity="0" result="BackgroundImageFix"/>
<feColorMatrix in="SourceAlpha" type="matrix" values="0 0 0 0 0 0 0 0 0 0 0 0 0 0 0 0 0 0 127 0" result="hardAlpha"/>
<feOffset dy="9"/>
<feGaussianBlur stdDeviation="17"/>
<feColorMatrix type="matrix" values="0 0 0 0 0 0 0 0 0 0 0 0 0 0 0 0 0 0 0.05 0"/>
<feBlend mode="normal" in2="BackgroundImageFix" result="effect1_dropShadow_532_237"/>
<feBlend mode="normal" in="SourceGraphic" in2="effect1_dropShadow_532_237" result="shape"/>
</filter>
<filter id="filter1_d_532_237" x="83" y="68" width="195" height="195" filterUnits="userSpaceOnUse" color-interpolation-filters="sRGB">
<feFlood flood-opacity="0" result="BackgroundImageFix"/>
<feColorMatrix in="SourceAlpha" type="matrix" values="0 0 0 0 0 0 0 0 0 0 0 0 0 0 0 0 0 0 127 0" result="hardAlpha"/>
<feOffset dy="4"/>
<feGaussianBlur stdDeviation="2"/>
<feComposite in2="hardAlpha" operator="out"/>
<feColorMatrix type="matrix" values="0 0 0 0 0 0 0 0 0 0 0 0 0 0 0 0 0 0 0.25 0"/>
<feBlend mode="normal" in2="BackgroundImageFix" result="effect1_dropShadow_532_237"/>
<feBlend mode="normal" in="SourceGraphic" in2="effect1_dropShadow_532_237" result="shape"/>
</filter>
</defs>
</svg>
