<svg width="502" height="502" viewBox="0 0 502 502" fill="none" xmlns="http://www.w3.org/2000/svg">
<g filter="url(#filter0_d_425_195)">
<rect x="34" y="25" width="434" height="434" rx="20" fill="#DFEBF7"/>
</g>
<path d="M89.1136 288.625V284.091H116.131V288.625H105.239V319H99.9886V288.625H89.1136ZM118.973 319V292.818H123.899V296.977H124.172C124.649 295.568 125.49 294.46 126.695 293.653C127.911 292.835 129.286 292.426 130.82 292.426C131.138 292.426 131.513 292.437 131.945 292.46C132.388 292.483 132.734 292.511 132.984 292.545V297.42C132.78 297.364 132.416 297.301 131.893 297.233C131.371 297.153 130.848 297.114 130.325 297.114C129.121 297.114 128.047 297.369 127.104 297.881C126.172 298.381 125.433 299.08 124.888 299.977C124.342 300.864 124.07 301.875 124.07 303.011V319H118.973ZM144.78 319.58C143.121 319.58 141.621 319.273 140.28 318.659C138.939 318.034 137.876 317.131 137.092 315.949C136.32 314.767 135.933 313.318 135.933 311.602C135.933 310.125 136.217 308.909 136.786 307.955C137.354 307 138.121 306.244 139.087 305.688C140.053 305.131 141.132 304.71 142.325 304.426C143.518 304.142 144.734 303.926 145.973 303.778C147.541 303.597 148.814 303.449 149.791 303.335C150.768 303.21 151.479 303.011 151.922 302.739C152.365 302.466 152.587 302.023 152.587 301.409V301.29C152.587 299.801 152.166 298.648 151.325 297.83C150.496 297.011 149.257 296.602 147.609 296.602C145.893 296.602 144.541 296.983 143.553 297.744C142.575 298.494 141.899 299.33 141.524 300.25L136.734 299.159C137.303 297.568 138.132 296.284 139.223 295.307C140.325 294.318 141.592 293.602 143.024 293.159C144.456 292.705 145.962 292.477 147.541 292.477C148.587 292.477 149.695 292.602 150.865 292.852C152.047 293.091 153.149 293.534 154.172 294.182C155.206 294.83 156.053 295.756 156.712 296.96C157.371 298.153 157.7 299.705 157.7 301.614V319H152.723V315.42H152.518C152.189 316.08 151.695 316.727 151.036 317.364C150.376 318 149.53 318.528 148.496 318.949C147.462 319.369 146.223 319.58 144.78 319.58ZM145.888 315.489C147.297 315.489 148.501 315.21 149.501 314.653C150.513 314.097 151.28 313.369 151.803 312.472C152.337 311.562 152.604 310.591 152.604 309.557V306.182C152.422 306.364 152.07 306.534 151.547 306.693C151.036 306.841 150.45 306.972 149.791 307.085C149.132 307.187 148.49 307.284 147.865 307.375C147.24 307.455 146.717 307.523 146.297 307.58C145.308 307.705 144.405 307.915 143.587 308.21C142.78 308.506 142.132 308.932 141.643 309.489C141.166 310.034 140.928 310.761 140.928 311.67C140.928 312.932 141.393 313.886 142.325 314.534C143.257 315.17 144.445 315.489 145.888 315.489ZM175.517 319.528C172.983 319.528 170.801 318.955 168.972 317.807C167.153 316.648 165.756 315.051 164.778 313.017C163.801 310.983 163.312 308.653 163.312 306.028C163.312 303.369 163.812 301.023 164.812 298.989C165.812 296.943 167.222 295.347 169.04 294.199C170.858 293.051 173 292.477 175.466 292.477C177.455 292.477 179.227 292.847 180.784 293.585C182.341 294.312 183.597 295.335 184.551 296.653C185.517 297.972 186.091 299.511 186.273 301.273H181.312C181.04 300.045 180.415 298.989 179.438 298.102C178.472 297.216 177.176 296.773 175.551 296.773C174.131 296.773 172.886 297.148 171.818 297.898C170.761 298.636 169.938 299.693 169.347 301.068C168.756 302.432 168.46 304.045 168.46 305.909C168.46 307.818 168.75 309.466 169.33 310.852C169.909 312.239 170.727 313.312 171.784 314.074C172.852 314.835 174.108 315.216 175.551 315.216C176.517 315.216 177.392 315.04 178.176 314.688C178.972 314.324 179.636 313.807 180.17 313.136C180.716 312.466 181.097 311.659 181.312 310.716H186.273C186.091 312.409 185.54 313.92 184.619 315.25C183.699 316.58 182.466 317.625 180.92 318.386C179.386 319.148 177.585 319.528 175.517 319.528ZM196.411 310.119L196.376 303.898H197.263L207.695 292.818H213.797L201.899 305.432H201.098L196.411 310.119ZM191.723 319V284.091H196.82V319H191.723ZM208.257 319L198.882 306.557L202.393 302.994L214.513 319H208.257ZM261.878 301.545C261.878 305.273 261.196 308.477 259.832 311.159C258.469 313.83 256.599 315.886 254.224 317.33C251.861 318.761 249.173 319.477 246.162 319.477C243.139 319.477 240.44 318.761 238.065 317.33C235.702 315.886 233.838 313.824 232.474 311.142C231.111 308.46 230.429 305.261 230.429 301.545C230.429 297.818 231.111 294.619 232.474 291.949C233.838 289.267 235.702 287.21 238.065 285.778C240.44 284.335 243.139 283.614 246.162 283.614C249.173 283.614 251.861 284.335 254.224 285.778C256.599 287.21 258.469 289.267 259.832 291.949C261.196 294.619 261.878 297.818 261.878 301.545ZM256.662 301.545C256.662 298.705 256.202 296.312 255.281 294.369C254.372 292.415 253.122 290.938 251.531 289.938C249.952 288.926 248.162 288.42 246.162 288.42C244.151 288.42 242.355 288.926 240.776 289.938C239.196 290.938 237.946 292.415 237.026 294.369C236.116 296.312 235.662 298.705 235.662 301.545C235.662 304.386 236.116 306.784 237.026 308.739C237.946 310.682 239.196 312.159 240.776 313.17C242.355 314.17 244.151 314.67 246.162 314.67C248.162 314.67 249.952 314.17 251.531 313.17C253.122 312.159 254.372 310.682 255.281 308.739C256.202 306.784 256.662 304.386 256.662 301.545ZM268.036 319V292.818H272.962V296.977H273.234C273.712 295.568 274.553 294.46 275.757 293.653C276.973 292.835 278.348 292.426 279.882 292.426C280.2 292.426 280.575 292.437 281.007 292.46C281.45 292.483 281.797 292.511 282.047 292.545V297.42C281.842 297.364 281.479 297.301 280.956 297.233C280.433 297.153 279.911 297.114 279.388 297.114C278.183 297.114 277.109 297.369 276.166 297.881C275.234 298.381 274.496 299.08 273.95 299.977C273.405 300.864 273.132 301.875 273.132 303.011V319H268.036ZM295.321 319.511C293.207 319.511 291.321 318.972 289.662 317.892C288.014 316.801 286.719 315.25 285.776 313.239C284.844 311.216 284.378 308.79 284.378 305.96C284.378 303.131 284.849 300.71 285.793 298.699C286.747 296.687 288.054 295.148 289.713 294.08C291.372 293.011 293.253 292.477 295.355 292.477C296.98 292.477 298.287 292.75 299.276 293.295C300.276 293.83 301.048 294.455 301.594 295.17C302.151 295.886 302.582 296.517 302.889 297.062H303.196V284.091H308.293V319H303.315V314.926H302.889C302.582 315.483 302.139 316.119 301.56 316.835C300.991 317.551 300.207 318.176 299.207 318.71C298.207 319.244 296.912 319.511 295.321 319.511ZM296.446 315.165C297.912 315.165 299.151 314.778 300.162 314.006C301.185 313.222 301.957 312.136 302.48 310.75C303.014 309.364 303.281 307.75 303.281 305.909C303.281 304.091 303.02 302.5 302.497 301.136C301.974 299.773 301.207 298.71 300.196 297.949C299.185 297.187 297.935 296.807 296.446 296.807C294.912 296.807 293.634 297.205 292.611 298C291.588 298.795 290.815 299.881 290.293 301.256C289.781 302.631 289.526 304.182 289.526 305.909C289.526 307.659 289.787 309.233 290.31 310.631C290.832 312.028 291.605 313.136 292.628 313.955C293.662 314.761 294.935 315.165 296.446 315.165ZM326.851 319.528C324.271 319.528 322.05 318.977 320.186 317.875C318.334 316.761 316.902 315.199 315.891 313.188C314.891 311.165 314.391 308.795 314.391 306.08C314.391 303.398 314.891 301.034 315.891 298.989C316.902 296.943 318.311 295.347 320.118 294.199C321.936 293.051 324.061 292.477 326.493 292.477C327.97 292.477 329.402 292.722 330.788 293.21C332.175 293.699 333.419 294.466 334.521 295.511C335.624 296.557 336.493 297.915 337.129 299.585C337.766 301.244 338.084 303.261 338.084 305.636V307.443H317.271V303.625H333.089C333.089 302.284 332.817 301.097 332.271 300.062C331.726 299.017 330.959 298.193 329.97 297.591C328.993 296.989 327.845 296.688 326.527 296.688C325.095 296.688 323.845 297.04 322.777 297.744C321.72 298.437 320.902 299.347 320.322 300.472C319.754 301.585 319.47 302.795 319.47 304.102V307.085C319.47 308.835 319.777 310.324 320.391 311.551C321.016 312.778 321.885 313.716 322.999 314.364C324.112 315 325.413 315.318 326.902 315.318C327.868 315.318 328.749 315.182 329.544 314.909C330.339 314.625 331.027 314.205 331.607 313.648C332.186 313.091 332.629 312.403 332.936 311.585L337.76 312.455C337.374 313.875 336.68 315.119 335.68 316.188C334.692 317.244 333.447 318.068 331.947 318.659C330.459 319.239 328.76 319.528 326.851 319.528ZM343.739 319V292.818H348.665V296.977H348.938C349.415 295.568 350.256 294.46 351.46 293.653C352.676 292.835 354.051 292.426 355.585 292.426C355.903 292.426 356.278 292.437 356.71 292.46C357.153 292.483 357.5 292.511 357.75 292.545V297.42C357.545 297.364 357.182 297.301 356.659 297.233C356.136 297.153 355.614 297.114 355.091 297.114C353.886 297.114 352.813 297.369 351.869 297.881C350.938 298.381 350.199 299.08 349.653 299.977C349.108 300.864 348.835 301.875 348.835 303.011V319H343.739Z" fill="#1F2227"/>
<path d="M94.9176 352.545H98.1136L103.67 366.114H103.875L109.432 352.545H112.628V370H110.122V357.369H109.96L104.812 369.974H102.733L97.5852 357.361H97.4233V370H94.9176V352.545ZM121.766 370.264C120.539 370.264 119.468 369.983 118.553 369.42C117.638 368.858 116.928 368.071 116.423 367.06C115.917 366.048 115.664 364.866 115.664 363.514C115.664 362.156 115.917 360.969 116.423 359.952C116.928 358.935 117.638 358.145 118.553 357.582C119.468 357.02 120.539 356.739 121.766 356.739C122.994 356.739 124.065 357.02 124.979 357.582C125.894 358.145 126.604 358.935 127.11 359.952C127.616 360.969 127.869 362.156 127.869 363.514C127.869 364.866 127.616 366.048 127.11 367.06C126.604 368.071 125.894 368.858 124.979 369.42C124.065 369.983 122.994 370.264 121.766 370.264ZM121.775 368.125C122.57 368.125 123.229 367.915 123.752 367.494C124.275 367.074 124.661 366.514 124.911 365.815C125.167 365.116 125.295 364.347 125.295 363.506C125.295 362.67 125.167 361.903 124.911 361.205C124.661 360.5 124.275 359.935 123.752 359.509C123.229 359.082 122.57 358.869 121.775 358.869C120.974 358.869 120.309 359.082 119.781 359.509C119.258 359.935 118.869 360.5 118.613 361.205C118.363 361.903 118.238 362.67 118.238 363.506C118.238 364.347 118.363 365.116 118.613 365.815C118.869 366.514 119.258 367.074 119.781 367.494C120.309 367.915 120.974 368.125 121.775 368.125ZM133.261 362.227V370H130.713V356.909H133.159V359.04H133.321C133.622 358.347 134.094 357.79 134.736 357.369C135.384 356.949 136.199 356.739 137.182 356.739C138.074 356.739 138.855 356.926 139.526 357.301C140.196 357.67 140.716 358.222 141.085 358.955C141.455 359.687 141.639 360.594 141.639 361.673V370H139.091V361.98C139.091 361.031 138.844 360.29 138.349 359.756C137.855 359.216 137.176 358.946 136.312 358.946C135.722 358.946 135.196 359.074 134.736 359.33C134.281 359.585 133.92 359.96 133.653 360.455C133.392 360.943 133.261 361.534 133.261 362.227ZM145.057 370V356.909H147.605V370H145.057ZM146.344 354.889C145.901 354.889 145.52 354.741 145.202 354.446C144.889 354.145 144.733 353.787 144.733 353.372C144.733 352.952 144.889 352.594 145.202 352.298C145.52 351.997 145.901 351.847 146.344 351.847C146.787 351.847 147.165 351.997 147.477 352.298C147.795 352.594 147.955 352.952 147.955 353.372C147.955 353.787 147.795 354.145 147.477 354.446C147.165 354.741 146.787 354.889 146.344 354.889ZM157.144 356.909V358.955H149.994V356.909H157.144ZM151.911 353.773H154.46V366.156C154.46 366.651 154.533 367.023 154.681 367.273C154.829 367.517 155.019 367.685 155.252 367.776C155.491 367.861 155.749 367.903 156.028 367.903C156.232 367.903 156.411 367.889 156.565 367.861C156.718 367.832 156.837 367.81 156.923 367.793L157.383 369.898C157.235 369.955 157.025 370.011 156.752 370.068C156.479 370.131 156.138 370.165 155.729 370.17C155.059 370.182 154.434 370.062 153.854 369.812C153.275 369.562 152.806 369.176 152.448 368.653C152.09 368.131 151.911 367.474 151.911 366.685V353.773ZM165.337 370.264C164.109 370.264 163.038 369.983 162.124 369.42C161.209 368.858 160.499 368.071 159.993 367.06C159.487 366.048 159.234 364.866 159.234 363.514C159.234 362.156 159.487 360.969 159.993 359.952C160.499 358.935 161.209 358.145 162.124 357.582C163.038 357.02 164.109 356.739 165.337 356.739C166.564 356.739 167.635 357.02 168.55 357.582C169.464 358.145 170.175 358.935 170.68 359.952C171.186 360.969 171.439 362.156 171.439 363.514C171.439 364.866 171.186 366.048 170.68 367.06C170.175 368.071 169.464 368.858 168.55 369.42C167.635 369.983 166.564 370.264 165.337 370.264ZM165.345 368.125C166.141 368.125 166.8 367.915 167.322 367.494C167.845 367.074 168.232 366.514 168.482 365.815C168.737 365.116 168.865 364.347 168.865 363.506C168.865 362.67 168.737 361.903 168.482 361.205C168.232 360.5 167.845 359.935 167.322 359.509C166.8 359.082 166.141 358.869 165.345 358.869C164.544 358.869 163.879 359.082 163.351 359.509C162.828 359.935 162.439 360.5 162.183 361.205C161.933 361.903 161.808 362.67 161.808 363.506C161.808 364.347 161.933 365.116 162.183 365.815C162.439 366.514 162.828 367.074 163.351 367.494C163.879 367.915 164.544 368.125 165.345 368.125ZM174.283 370V356.909H176.746V358.989H176.883C177.121 358.284 177.542 357.73 178.144 357.327C178.752 356.918 179.44 356.713 180.207 356.713C180.366 356.713 180.553 356.719 180.769 356.73C180.991 356.741 181.164 356.756 181.289 356.773V359.21C181.187 359.182 181.005 359.151 180.744 359.116C180.482 359.077 180.221 359.057 179.96 359.057C179.357 359.057 178.82 359.185 178.349 359.44C177.883 359.69 177.513 360.04 177.241 360.489C176.968 360.932 176.832 361.437 176.832 362.006V370H174.283ZM191.457 374.909C191.076 374.909 190.729 374.878 190.417 374.815C190.104 374.759 189.871 374.696 189.718 374.628L190.332 372.54C190.798 372.665 191.212 372.719 191.576 372.702C191.94 372.685 192.261 372.548 192.539 372.293C192.823 372.037 193.073 371.619 193.289 371.04L193.604 370.17L188.815 356.909H191.542L194.857 367.068H194.994L198.309 356.909H201.045L195.65 371.747C195.4 372.429 195.082 373.006 194.695 373.477C194.309 373.955 193.849 374.313 193.315 374.551C192.781 374.79 192.161 374.909 191.457 374.909ZM208.509 370.264C207.281 370.264 206.21 369.983 205.295 369.42C204.381 368.858 203.67 368.071 203.165 367.06C202.659 366.048 202.406 364.866 202.406 363.514C202.406 362.156 202.659 360.969 203.165 359.952C203.67 358.935 204.381 358.145 205.295 357.582C206.21 357.02 207.281 356.739 208.509 356.739C209.736 356.739 210.807 357.02 211.722 357.582C212.636 358.145 213.347 358.935 213.852 359.952C214.358 360.969 214.611 362.156 214.611 363.514C214.611 364.866 214.358 366.048 213.852 367.06C213.347 368.071 212.636 368.858 211.722 369.42C210.807 369.983 209.736 370.264 208.509 370.264ZM208.517 368.125C209.313 368.125 209.972 367.915 210.494 367.494C211.017 367.074 211.403 366.514 211.653 365.815C211.909 365.116 212.037 364.347 212.037 363.506C212.037 362.67 211.909 361.903 211.653 361.205C211.403 360.5 211.017 359.935 210.494 359.509C209.972 359.082 209.313 358.869 208.517 358.869C207.716 358.869 207.051 359.082 206.523 359.509C206 359.935 205.611 360.5 205.355 361.205C205.105 361.903 204.98 362.67 204.98 363.506C204.98 364.347 205.105 365.116 205.355 365.815C205.611 366.514 206 367.074 206.523 367.494C207.051 367.915 207.716 368.125 208.517 368.125ZM225.748 364.571V356.909H228.305V370H225.799V367.733H225.663C225.362 368.432 224.879 369.014 224.214 369.48C223.555 369.94 222.734 370.17 221.751 370.17C220.91 370.17 220.165 369.986 219.518 369.616C218.876 369.241 218.37 368.688 218.001 367.955C217.637 367.222 217.455 366.315 217.455 365.236V356.909H220.004V364.929C220.004 365.821 220.251 366.531 220.745 367.06C221.239 367.588 221.881 367.852 222.671 367.852C223.148 367.852 223.623 367.733 224.094 367.494C224.572 367.256 224.967 366.895 225.279 366.412C225.597 365.929 225.754 365.315 225.748 364.571ZM231.729 370V356.909H234.192V358.989H234.328C234.567 358.284 234.987 357.73 235.589 357.327C236.197 356.918 236.885 356.713 237.652 356.713C237.811 356.713 237.999 356.719 238.214 356.73C238.436 356.741 238.609 356.756 238.734 356.773V359.21C238.632 359.182 238.45 359.151 238.189 359.116C237.928 359.077 237.666 359.057 237.405 359.057C236.803 359.057 236.266 359.185 235.794 359.44C235.328 359.69 234.959 360.04 234.686 360.489C234.413 360.932 234.277 361.437 234.277 362.006V370H231.729ZM249.839 352.545V370H247.291V352.545H249.839ZM257.077 370.29C256.248 370.29 255.498 370.136 254.827 369.83C254.157 369.517 253.626 369.065 253.234 368.474C252.847 367.884 252.654 367.159 252.654 366.301C252.654 365.562 252.796 364.955 253.08 364.477C253.364 364 253.748 363.622 254.231 363.344C254.714 363.065 255.254 362.855 255.85 362.713C256.447 362.571 257.055 362.463 257.674 362.389C258.458 362.298 259.094 362.224 259.583 362.168C260.072 362.105 260.427 362.006 260.648 361.869C260.87 361.733 260.981 361.511 260.981 361.205V361.145C260.981 360.401 260.771 359.824 260.35 359.415C259.935 359.006 259.316 358.801 258.492 358.801C257.634 358.801 256.958 358.991 256.464 359.372C255.975 359.747 255.637 360.165 255.45 360.625L253.055 360.08C253.339 359.284 253.754 358.642 254.299 358.153C254.85 357.659 255.484 357.301 256.2 357.08C256.915 356.852 257.668 356.739 258.458 356.739C258.981 356.739 259.535 356.801 260.12 356.926C260.711 357.045 261.262 357.267 261.773 357.591C262.29 357.915 262.714 358.378 263.043 358.98C263.373 359.577 263.538 360.352 263.538 361.307V370H261.049V368.21H260.947C260.782 368.54 260.535 368.864 260.205 369.182C259.876 369.5 259.452 369.764 258.935 369.974C258.418 370.185 257.799 370.29 257.077 370.29ZM257.631 368.244C258.336 368.244 258.938 368.105 259.438 367.827C259.944 367.548 260.327 367.185 260.589 366.736C260.856 366.281 260.989 365.795 260.989 365.278V363.591C260.898 363.682 260.722 363.767 260.461 363.847C260.205 363.92 259.913 363.986 259.583 364.043C259.254 364.094 258.933 364.142 258.62 364.188C258.308 364.227 258.046 364.261 257.836 364.29C257.342 364.352 256.89 364.457 256.481 364.605C256.077 364.753 255.754 364.966 255.509 365.244C255.271 365.517 255.151 365.881 255.151 366.335C255.151 366.966 255.384 367.443 255.85 367.767C256.316 368.085 256.91 368.244 257.631 368.244ZM275.224 364.571V356.909H277.781V370H275.276V367.733H275.139C274.838 368.432 274.355 369.014 273.69 369.48C273.031 369.94 272.21 370.17 271.227 370.17C270.386 370.17 269.642 369.986 268.994 369.616C268.352 369.241 267.847 368.688 267.477 367.955C267.114 367.222 266.932 366.315 266.932 365.236V356.909H269.48V364.929C269.48 365.821 269.727 366.531 270.222 367.06C270.716 367.588 271.358 367.852 272.148 367.852C272.625 367.852 273.099 367.733 273.571 367.494C274.048 367.256 274.443 366.895 274.756 366.412C275.074 365.929 275.23 365.315 275.224 364.571ZM283.754 362.227V370H281.205V356.909H283.651V359.04H283.813C284.114 358.347 284.586 357.79 285.228 357.369C285.876 356.949 286.691 356.739 287.674 356.739C288.566 356.739 289.347 356.926 290.018 357.301C290.688 357.67 291.208 358.222 291.577 358.955C291.947 359.687 292.131 360.594 292.131 361.673V370H289.583V361.98C289.583 361.031 289.336 360.29 288.842 359.756C288.347 359.216 287.668 358.946 286.805 358.946C286.214 358.946 285.688 359.074 285.228 359.33C284.773 359.585 284.413 359.96 284.146 360.455C283.884 360.943 283.754 361.534 283.754 362.227ZM300.45 370.256C299.393 370.256 298.45 369.986 297.62 369.446C296.796 368.901 296.148 368.125 295.677 367.119C295.211 366.108 294.978 364.895 294.978 363.48C294.978 362.065 295.214 360.855 295.685 359.849C296.163 358.844 296.816 358.074 297.646 357.54C298.475 357.006 299.415 356.739 300.467 356.739C301.279 356.739 301.933 356.875 302.427 357.148C302.927 357.415 303.313 357.727 303.586 358.085C303.864 358.443 304.08 358.759 304.234 359.031H304.387V352.545H306.935V370H304.447V367.963H304.234C304.08 368.241 303.859 368.56 303.569 368.918C303.285 369.276 302.893 369.588 302.393 369.855C301.893 370.122 301.245 370.256 300.45 370.256ZM301.012 368.082C301.745 368.082 302.364 367.889 302.87 367.503C303.381 367.111 303.768 366.568 304.029 365.875C304.296 365.182 304.43 364.375 304.43 363.455C304.43 362.545 304.299 361.75 304.038 361.068C303.776 360.386 303.393 359.855 302.887 359.474C302.381 359.094 301.756 358.903 301.012 358.903C300.245 358.903 299.606 359.102 299.094 359.5C298.583 359.898 298.197 360.44 297.935 361.128C297.68 361.815 297.552 362.591 297.552 363.455C297.552 364.33 297.683 365.116 297.944 365.815C298.205 366.514 298.592 367.068 299.103 367.477C299.62 367.881 300.256 368.082 301.012 368.082ZM310.572 370V356.909H313.036V358.989H313.172C313.411 358.284 313.831 357.73 314.433 357.327C315.041 356.918 315.729 356.713 316.496 356.713C316.655 356.713 316.842 356.719 317.058 356.73C317.28 356.741 317.453 356.756 317.578 356.773V359.21C317.476 359.182 317.294 359.151 317.033 359.116C316.771 359.077 316.51 359.057 316.249 359.057C315.646 359.057 315.109 359.185 314.638 359.44C314.172 359.69 313.803 360.04 313.53 360.489C313.257 360.932 313.121 361.437 313.121 362.006V370H310.572ZM321.793 374.909C321.412 374.909 321.065 374.878 320.753 374.815C320.44 374.759 320.207 374.696 320.054 374.628L320.668 372.54C321.134 372.665 321.548 372.719 321.912 372.702C322.276 372.685 322.597 372.548 322.875 372.293C323.159 372.037 323.409 371.619 323.625 371.04L323.94 370.17L319.151 356.909H321.878L325.193 367.068H325.33L328.645 356.909H331.381L325.986 371.747C325.736 372.429 325.418 373.006 325.031 373.477C324.645 373.955 324.185 374.313 323.651 374.551C323.116 374.79 322.497 374.909 321.793 374.909ZM349.937 360.105L347.627 360.514C347.531 360.219 347.377 359.937 347.167 359.67C346.962 359.403 346.684 359.185 346.332 359.014C345.979 358.844 345.539 358.759 345.011 358.759C344.289 358.759 343.687 358.92 343.204 359.244C342.721 359.562 342.479 359.974 342.479 360.48C342.479 360.918 342.641 361.27 342.965 361.537C343.289 361.804 343.812 362.023 344.533 362.193L346.613 362.67C347.817 362.949 348.715 363.378 349.306 363.957C349.897 364.537 350.192 365.29 350.192 366.216C350.192 367 349.965 367.699 349.511 368.312C349.062 368.92 348.434 369.398 347.627 369.744C346.826 370.091 345.897 370.264 344.84 370.264C343.374 370.264 342.178 369.952 341.252 369.327C340.326 368.696 339.758 367.801 339.548 366.642L342.011 366.267C342.164 366.909 342.479 367.395 342.957 367.724C343.434 368.048 344.056 368.21 344.823 368.21C345.658 368.21 346.326 368.037 346.826 367.69C347.326 367.338 347.576 366.909 347.576 366.403C347.576 365.994 347.423 365.651 347.116 365.372C346.815 365.094 346.352 364.884 345.727 364.741L343.511 364.256C342.289 363.977 341.386 363.534 340.8 362.926C340.221 362.318 339.931 361.548 339.931 360.616C339.931 359.844 340.147 359.168 340.579 358.588C341.011 358.009 341.607 357.557 342.369 357.233C343.13 356.903 344.002 356.739 344.985 356.739C346.4 356.739 347.513 357.045 348.326 357.659C349.138 358.267 349.675 359.082 349.937 360.105ZM359.105 356.909V358.955H351.955V356.909H359.105ZM353.872 353.773H356.42V366.156C356.42 366.651 356.494 367.023 356.642 367.273C356.79 367.517 356.98 367.685 357.213 367.776C357.452 367.861 357.71 367.903 357.989 367.903C358.193 367.903 358.372 367.889 358.526 367.861C358.679 367.832 358.798 367.81 358.884 367.793L359.344 369.898C359.196 369.955 358.986 370.011 358.713 370.068C358.44 370.131 358.099 370.165 357.69 370.17C357.02 370.182 356.395 370.062 355.815 369.812C355.236 369.562 354.767 369.176 354.409 368.653C354.051 368.131 353.872 367.474 353.872 366.685V353.773ZM365.734 370.29C364.904 370.29 364.154 370.136 363.484 369.83C362.813 369.517 362.282 369.065 361.89 368.474C361.504 367.884 361.31 367.159 361.31 366.301C361.31 365.562 361.452 364.955 361.737 364.477C362.021 364 362.404 363.622 362.887 363.344C363.37 363.065 363.91 362.855 364.506 362.713C365.103 362.571 365.711 362.463 366.33 362.389C367.114 362.298 367.751 362.224 368.239 362.168C368.728 362.105 369.083 362.006 369.305 361.869C369.526 361.733 369.637 361.511 369.637 361.205V361.145C369.637 360.401 369.427 359.824 369.006 359.415C368.592 359.006 367.972 358.801 367.148 358.801C366.29 358.801 365.614 358.991 365.12 359.372C364.631 359.747 364.293 360.165 364.106 360.625L361.711 360.08C361.995 359.284 362.41 358.642 362.955 358.153C363.506 357.659 364.14 357.301 364.856 357.08C365.572 356.852 366.325 356.739 367.114 356.739C367.637 356.739 368.191 356.801 368.776 356.926C369.367 357.045 369.918 357.267 370.43 357.591C370.947 357.915 371.37 358.378 371.7 358.98C372.029 359.577 372.194 360.352 372.194 361.307V370H369.705V368.21H369.603C369.438 368.54 369.191 368.864 368.862 369.182C368.532 369.5 368.109 369.764 367.592 369.974C367.075 370.185 366.455 370.29 365.734 370.29ZM366.288 368.244C366.992 368.244 367.594 368.105 368.094 367.827C368.6 367.548 368.984 367.185 369.245 366.736C369.512 366.281 369.646 365.795 369.646 365.278V363.591C369.555 363.682 369.379 363.767 369.117 363.847C368.862 363.92 368.569 363.986 368.239 364.043C367.91 364.094 367.589 364.142 367.276 364.188C366.964 364.227 366.702 364.261 366.492 364.29C365.998 364.352 365.546 364.457 365.137 364.605C364.734 364.753 364.41 364.966 364.165 365.244C363.927 365.517 363.808 365.881 363.808 366.335C363.808 366.966 364.04 367.443 364.506 367.767C364.972 368.085 365.566 368.244 366.288 368.244ZM381.699 356.909V358.955H374.548V356.909H381.699ZM376.466 353.773H379.014V366.156C379.014 366.651 379.088 367.023 379.236 367.273C379.384 367.517 379.574 367.685 379.807 367.776C380.045 367.861 380.304 367.903 380.582 367.903C380.787 367.903 380.966 367.889 381.119 367.861C381.273 367.832 381.392 367.81 381.477 367.793L381.938 369.898C381.79 369.955 381.58 370.011 381.307 370.068C381.034 370.131 380.693 370.165 380.284 370.17C379.614 370.182 378.989 370.062 378.409 369.812C377.83 369.562 377.361 369.176 377.003 368.653C376.645 368.131 376.466 367.474 376.466 366.685V353.773ZM392.81 364.571V356.909H395.367V370H392.862V367.733H392.725C392.424 368.432 391.941 369.014 391.276 369.48C390.617 369.94 389.796 370.17 388.813 370.17C387.972 370.17 387.228 369.986 386.58 369.616C385.938 369.241 385.433 368.688 385.063 367.955C384.7 367.222 384.518 366.315 384.518 365.236V356.909H387.066V364.929C387.066 365.821 387.313 366.531 387.808 367.06C388.302 367.588 388.944 367.852 389.734 367.852C390.211 367.852 390.685 367.733 391.157 367.494C391.634 367.256 392.029 366.895 392.342 366.412C392.66 365.929 392.816 365.315 392.81 364.571ZM408.601 360.105L406.291 360.514C406.195 360.219 406.041 359.937 405.831 359.67C405.626 359.403 405.348 359.185 404.996 359.014C404.643 358.844 404.203 358.759 403.675 358.759C402.953 358.759 402.351 358.92 401.868 359.244C401.385 359.562 401.143 359.974 401.143 360.48C401.143 360.918 401.305 361.27 401.629 361.537C401.953 361.804 402.476 362.023 403.197 362.193L405.277 362.67C406.482 362.949 407.379 363.378 407.97 363.957C408.561 364.537 408.857 365.29 408.857 366.216C408.857 367 408.629 367.699 408.175 368.312C407.726 368.92 407.098 369.398 406.291 369.744C405.49 370.091 404.561 370.264 403.504 370.264C402.038 370.264 400.842 369.952 399.916 369.327C398.99 368.696 398.422 367.801 398.212 366.642L400.675 366.267C400.828 366.909 401.143 367.395 401.621 367.724C402.098 368.048 402.72 368.21 403.487 368.21C404.322 368.21 404.99 368.037 405.49 367.69C405.99 367.338 406.24 366.909 406.24 366.403C406.24 365.994 406.087 365.651 405.78 365.372C405.479 365.094 405.016 364.884 404.391 364.741L402.175 364.256C400.953 363.977 400.05 363.534 399.464 362.926C398.885 362.318 398.595 361.548 398.595 360.616C398.595 359.844 398.811 359.168 399.243 358.588C399.675 358.009 400.271 357.557 401.033 357.233C401.794 356.903 402.666 356.739 403.649 356.739C405.064 356.739 406.178 357.045 406.99 357.659C407.803 358.267 408.339 359.082 408.601 360.105ZM94.7131 405V391.909H97.2614V405H94.7131ZM96 389.889C95.5568 389.889 95.1761 389.741 94.858 389.446C94.5455 389.145 94.3892 388.787 94.3892 388.372C94.3892 387.952 94.5455 387.594 94.858 387.298C95.1761 386.997 95.5568 386.847 96 386.847C96.4432 386.847 96.821 386.997 97.1335 387.298C97.4517 387.594 97.6108 387.952 97.6108 388.372C97.6108 388.787 97.4517 389.145 97.1335 389.446C96.821 389.741 96.4432 389.889 96 389.889ZM103.238 397.227V405H100.69V391.909H103.136V394.04H103.298C103.599 393.347 104.07 392.79 104.712 392.369C105.36 391.949 106.175 391.739 107.158 391.739C108.05 391.739 108.832 391.926 109.502 392.301C110.173 392.67 110.692 393.222 111.062 393.955C111.431 394.687 111.616 395.594 111.616 396.673V405H109.067V396.98C109.067 396.031 108.82 395.29 108.326 394.756C107.832 394.216 107.153 393.946 106.289 393.946C105.698 393.946 105.173 394.074 104.712 394.33C104.258 394.585 103.897 394.96 103.63 395.455C103.369 395.943 103.238 396.534 103.238 397.227ZM121.385 405V391.909H123.848V393.989H123.984C124.223 393.284 124.643 392.73 125.246 392.327C125.854 391.918 126.541 391.713 127.308 391.713C127.467 391.713 127.655 391.719 127.871 391.73C128.092 391.741 128.266 391.756 128.391 391.773V394.21C128.288 394.182 128.107 394.151 127.845 394.116C127.584 394.077 127.322 394.057 127.061 394.057C126.459 394.057 125.922 394.185 125.45 394.44C124.984 394.69 124.615 395.04 124.342 395.489C124.07 395.932 123.933 396.437 123.933 397.006V405H121.385ZM135.769 405.264C134.479 405.264 133.369 404.989 132.437 404.438C131.511 403.881 130.795 403.099 130.289 402.094C129.789 401.082 129.539 399.898 129.539 398.54C129.539 397.199 129.789 396.017 130.289 394.994C130.795 393.972 131.499 393.173 132.403 392.599C133.312 392.026 134.374 391.739 135.59 391.739C136.329 391.739 137.045 391.861 137.738 392.105C138.431 392.349 139.053 392.733 139.604 393.256C140.156 393.778 140.59 394.457 140.908 395.293C141.227 396.122 141.386 397.131 141.386 398.318V399.222H130.979V397.312H138.888C138.888 396.642 138.752 396.048 138.479 395.531C138.207 395.009 137.823 394.597 137.329 394.295C136.84 393.994 136.266 393.844 135.607 393.844C134.891 393.844 134.266 394.02 133.732 394.372C133.204 394.719 132.795 395.173 132.505 395.736C132.221 396.293 132.079 396.898 132.079 397.551V399.043C132.079 399.918 132.232 400.662 132.539 401.276C132.852 401.889 133.286 402.358 133.843 402.682C134.4 403 135.05 403.159 135.795 403.159C136.278 403.159 136.718 403.091 137.116 402.955C137.513 402.812 137.857 402.602 138.147 402.324C138.437 402.045 138.658 401.702 138.812 401.293L141.224 401.727C141.031 402.437 140.684 403.06 140.184 403.594C139.69 404.122 139.067 404.534 138.317 404.83C137.573 405.119 136.724 405.264 135.769 405.264ZM148.023 405.29C147.193 405.29 146.443 405.136 145.773 404.83C145.102 404.517 144.571 404.065 144.179 403.474C143.793 402.884 143.599 402.159 143.599 401.301C143.599 400.562 143.741 399.955 144.026 399.477C144.31 399 144.693 398.622 145.176 398.344C145.659 398.065 146.199 397.855 146.795 397.713C147.392 397.571 148 397.463 148.619 397.389C149.403 397.298 150.04 397.224 150.528 397.168C151.017 397.105 151.372 397.006 151.594 396.869C151.815 396.733 151.926 396.511 151.926 396.205V396.145C151.926 395.401 151.716 394.824 151.295 394.415C150.881 394.006 150.261 393.801 149.438 393.801C148.58 393.801 147.903 393.991 147.409 394.372C146.92 394.747 146.582 395.165 146.395 395.625L144 395.08C144.284 394.284 144.699 393.642 145.244 393.153C145.795 392.659 146.429 392.301 147.145 392.08C147.861 391.852 148.614 391.739 149.403 391.739C149.926 391.739 150.48 391.801 151.065 391.926C151.656 392.045 152.207 392.267 152.719 392.591C153.236 392.915 153.659 393.378 153.989 393.98C154.318 394.577 154.483 395.352 154.483 396.307V405H151.994V403.21H151.892C151.727 403.54 151.48 403.864 151.151 404.182C150.821 404.5 150.398 404.764 149.881 404.974C149.364 405.185 148.744 405.29 148.023 405.29ZM148.577 403.244C149.281 403.244 149.884 403.105 150.384 402.827C150.889 402.548 151.273 402.185 151.534 401.736C151.801 401.281 151.935 400.795 151.935 400.278V398.591C151.844 398.682 151.668 398.767 151.406 398.847C151.151 398.92 150.858 398.986 150.528 399.043C150.199 399.094 149.878 399.142 149.565 399.188C149.253 399.227 148.991 399.261 148.781 399.29C148.287 399.352 147.835 399.457 147.426 399.605C147.023 399.753 146.699 399.966 146.455 400.244C146.216 400.517 146.097 400.881 146.097 401.335C146.097 401.966 146.33 402.443 146.795 402.767C147.261 403.085 147.855 403.244 148.577 403.244ZM160.425 387.545V405H157.877V387.545H160.425ZM171.567 396.52V398.727H163.828V396.52H171.567ZM181.074 391.909V393.955H173.923V391.909H181.074ZM175.841 388.773H178.389V401.156C178.389 401.651 178.463 402.023 178.611 402.273C178.759 402.517 178.949 402.685 179.182 402.776C179.42 402.861 179.679 402.903 179.957 402.903C180.162 402.903 180.341 402.889 180.494 402.861C180.648 402.832 180.767 402.81 180.852 402.793L181.312 404.898C181.165 404.955 180.955 405.011 180.682 405.068C180.409 405.131 180.068 405.165 179.659 405.17C178.989 405.182 178.364 405.062 177.784 404.812C177.205 404.562 176.736 404.176 176.378 403.653C176.02 403.131 175.841 402.474 175.841 401.685V388.773ZM183.893 405V391.909H186.441V405H183.893ZM185.18 389.889C184.737 389.889 184.356 389.741 184.038 389.446C183.725 389.145 183.569 388.787 183.569 388.372C183.569 387.952 183.725 387.594 184.038 387.298C184.356 386.997 184.737 386.847 185.18 386.847C185.623 386.847 186.001 386.997 186.313 387.298C186.631 387.594 186.79 387.952 186.79 388.372C186.79 388.787 186.631 389.145 186.313 389.446C186.001 389.741 185.623 389.889 185.18 389.889ZM189.869 405V391.909H192.315V394.04H192.477C192.75 393.318 193.196 392.756 193.815 392.352C194.435 391.943 195.176 391.739 196.04 391.739C196.915 391.739 197.648 391.943 198.239 392.352C198.835 392.761 199.276 393.324 199.56 394.04H199.696C200.009 393.341 200.506 392.784 201.188 392.369C201.869 391.949 202.682 391.739 203.625 391.739C204.812 391.739 205.781 392.111 206.531 392.855C207.287 393.599 207.665 394.722 207.665 396.222V405H205.116V396.46C205.116 395.574 204.875 394.932 204.392 394.534C203.909 394.136 203.332 393.938 202.662 393.938C201.832 393.938 201.188 394.193 200.727 394.705C200.267 395.21 200.037 395.861 200.037 396.656V405H197.497V396.298C197.497 395.588 197.276 395.017 196.832 394.585C196.389 394.153 195.813 393.938 195.102 393.938C194.619 393.938 194.173 394.065 193.764 394.321C193.361 394.571 193.034 394.92 192.784 395.369C192.54 395.818 192.418 396.338 192.418 396.929V405H189.869ZM216.722 405.264C215.433 405.264 214.322 404.989 213.39 404.438C212.464 403.881 211.748 403.099 211.242 402.094C210.742 401.082 210.492 399.898 210.492 398.54C210.492 397.199 210.742 396.017 211.242 394.994C211.748 393.972 212.452 393.173 213.356 392.599C214.265 392.026 215.327 391.739 216.543 391.739C217.282 391.739 217.998 391.861 218.691 392.105C219.384 392.349 220.006 392.733 220.558 393.256C221.109 393.778 221.543 394.457 221.862 395.293C222.18 396.122 222.339 397.131 222.339 398.318V399.222H211.933V397.312H219.842C219.842 396.642 219.705 396.048 219.433 395.531C219.16 395.009 218.776 394.597 218.282 394.295C217.793 393.994 217.219 393.844 216.56 393.844C215.844 393.844 215.219 394.02 214.685 394.372C214.157 394.719 213.748 395.173 213.458 395.736C213.174 396.293 213.032 396.898 213.032 397.551V399.043C213.032 399.918 213.185 400.662 213.492 401.276C213.805 401.889 214.239 402.358 214.796 402.682C215.353 403 216.004 403.159 216.748 403.159C217.231 403.159 217.671 403.091 218.069 402.955C218.467 402.812 218.81 402.602 219.1 402.324C219.39 402.045 219.612 401.702 219.765 401.293L222.177 401.727C221.984 402.437 221.637 403.06 221.137 403.594C220.643 404.122 220.021 404.534 219.271 404.83C218.526 405.119 217.677 405.264 216.722 405.264Z" fill="#898B96"/>
<g filter="url(#filter1_d_425_195)">
<path opacity="0.4" d="M192.977 221.34C188.692 232.326 178.251 239.417 166.485 239.417H120.515C108.671 239.417 98.3084 232.326 94.0229 221.34C89.7375 210.276 92.6984 198.043 101.425 190.095L132.981 161.5H154.097L185.575 190.095C194.302 198.043 197.185 210.276 192.977 221.34Z" fill="#68839F"/>
<path d="M157.681 209.341H129.319C126.358 209.341 124.021 206.925 124.021 204.042C124.021 201.082 126.436 198.744 129.319 198.744H157.681C160.642 198.744 162.979 201.16 162.979 204.042C162.979 206.925 160.564 209.341 157.681 209.341Z" fill="#68839F"/>
<path d="M192.977 101.66C188.692 90.6738 178.251 83.5833 166.485 83.5833H120.515C108.749 83.5833 98.3083 90.6738 94.0229 101.66C89.8154 112.724 92.6983 124.957 101.503 132.905L132.981 161.5H154.097L185.575 132.905C194.302 124.957 197.185 112.724 192.977 101.66ZM157.681 124.334H129.319C126.358 124.334 124.021 121.918 124.021 119.035C124.021 116.153 126.436 113.737 129.319 113.737H157.681C160.642 113.737 162.979 116.153 162.979 119.035C162.979 121.918 160.564 124.334 157.681 124.334Z" fill="#68839F"/>
</g>
<defs>
<filter id="filter0_d_425_195" x="0" y="0" width="502" height="502" filterUnits="userSpaceOnUse" color-interpolation-filters="sRGB">
<feFlood flood-opacity="0" result="BackgroundImageFix"/>
<feColorMatrix in="SourceAlpha" type="matrix" values="0 0 0 0 0 0 0 0 0 0 0 0 0 0 0 0 0 0 127 0" result="hardAlpha"/>
<feOffset dy="9"/>
<feGaussianBlur stdDeviation="17"/>
<feColorMatrix type="matrix" values="0 0 0 0 0 0 0 0 0 0 0 0 0 0 0 0 0 0 0.05 0"/>
<feBlend mode="normal" in2="BackgroundImageFix" result="effect1_dropShadow_425_195"/>
<feBlend mode="normal" in="SourceGraphic" in2="effect1_dropShadow_425_195" result="shape"/>
</filter>
<filter id="filter1_d_425_195" x="46" y="68" width="195" height="195" filterUnits="userSpaceOnUse" color-interpolation-filters="sRGB">
<feFlood flood-opacity="0" result="BackgroundImageFix"/>
<feColorMatrix in="SourceAlpha" type="matrix" values="0 0 0 0 0 0 0 0 0 0 0 0 0 0 0 0 0 0 127 0" result="hardAlpha"/>
<feOffset dy="4"/>
<feGaussianBlur stdDeviation="2"/>
<feComposite in2="hardAlpha" operator="out"/>
<feColorMatrix type="matrix" values="0 0 0 0 0 0 0 0 0 0 0 0 0 0 0 0 0 0 0.25 0"/>
<feBlend mode="normal" in2="BackgroundImageFix" result="effect1_dropShadow_425_195"/>
<feBlend mode="normal" in="SourceGraphic" in2="effect1_dropShadow_425_195" result="shape"/>
</filter>
</defs>
</svg>
