<svg width="34" height="34" viewBox="0 0 34 34" fill="none" xmlns="http://www.w3.org/2000/svg">
<path d="M29.75 8.47167C25.0325 8.00417 20.2867 7.76334 15.555 7.76334C12.75 7.76334 9.945 7.905 7.14 8.18834L4.25 8.47167" stroke="#D20000" stroke-width="1.5" stroke-linecap="round" stroke-linejoin="round"/>
<path d="M12.0415 7.04083L12.3532 5.18499C12.5798 3.83916 12.7498 2.83333 15.144 2.83333H18.8557C21.2498 2.83333 21.434 3.89583 21.6465 5.19916L21.9582 7.04083" stroke="#D20000" stroke-width="1.5" stroke-linecap="round" stroke-linejoin="round"/>
<path d="M26.7042 12.9483L25.7834 27.2142C25.6276 29.4383 25.5001 31.1667 21.5476 31.1667H12.4526C8.50007 31.1667 8.37257 29.4383 8.21673 27.2142L7.2959 12.9483" stroke="#D20000" stroke-width="1.5" stroke-linecap="round" stroke-linejoin="round"/>
<path d="M14.6343 23.375H19.3518" stroke="#D20000" stroke-width="1.5" stroke-linecap="round" stroke-linejoin="round"/>
<path d="M13.4585 17.7083H20.5418" stroke="#D20000" stroke-width="1.5" stroke-linecap="round" stroke-linejoin="round"/>
</svg>
