<svg width="502" height="502" viewBox="0 0 502 502" fill="none" xmlns="http://www.w3.org/2000/svg">
<g filter="url(#filter0_d_531_237)">
<rect x="34" y="25" width="434" height="434" rx="20" fill="#DFEBF7"/>
</g>
<path d="M93.8864 284.091L103.602 312.523H103.994L113.71 284.091H119.403L106.841 319H100.756L88.1932 284.091H93.8864ZM132.439 319.528C129.984 319.528 127.842 318.966 126.013 317.841C124.183 316.716 122.763 315.142 121.751 313.119C120.74 311.097 120.234 308.733 120.234 306.028C120.234 303.312 120.74 300.937 121.751 298.903C122.763 296.869 124.183 295.29 126.013 294.165C127.842 293.04 129.984 292.477 132.439 292.477C134.893 292.477 137.036 293.04 138.865 294.165C140.695 295.29 142.115 296.869 143.126 298.903C144.138 300.937 144.643 303.312 144.643 306.028C144.643 308.733 144.138 311.097 143.126 313.119C142.115 315.142 140.695 316.716 138.865 317.841C137.036 318.966 134.893 319.528 132.439 319.528ZM132.456 315.25C134.047 315.25 135.365 314.83 136.411 313.989C137.456 313.148 138.229 312.028 138.729 310.631C139.24 309.233 139.496 307.693 139.496 306.011C139.496 304.341 139.24 302.807 138.729 301.409C138.229 300 137.456 298.869 136.411 298.017C135.365 297.165 134.047 296.739 132.456 296.739C130.854 296.739 129.524 297.165 128.467 298.017C127.422 298.869 126.643 300 126.132 301.409C125.632 302.807 125.382 304.341 125.382 306.011C125.382 307.693 125.632 309.233 126.132 310.631C126.643 312.028 127.422 313.148 128.467 313.989C129.524 314.83 130.854 315.25 132.456 315.25ZM166.918 308.142V292.818H172.031V319H167.02V314.466H166.747C166.145 315.864 165.179 317.028 163.849 317.96C162.531 318.881 160.889 319.341 158.923 319.341C157.241 319.341 155.753 318.972 154.457 318.233C153.173 317.483 152.162 316.375 151.423 314.909C150.696 313.443 150.332 311.631 150.332 309.472V292.818H155.429V308.858C155.429 310.642 155.923 312.062 156.912 313.119C157.901 314.176 159.185 314.705 160.764 314.705C161.719 314.705 162.668 314.466 163.611 313.989C164.565 313.511 165.355 312.79 165.98 311.824C166.616 310.858 166.929 309.631 166.918 308.142ZM189.908 319.528C187.374 319.528 185.192 318.955 183.362 317.807C181.544 316.648 180.146 315.051 179.169 313.017C178.192 310.983 177.703 308.653 177.703 306.028C177.703 303.369 178.203 301.023 179.203 298.989C180.203 296.943 181.612 295.347 183.43 294.199C185.249 293.051 187.391 292.477 189.857 292.477C191.845 292.477 193.618 292.847 195.175 293.585C196.732 294.312 197.987 295.335 198.942 296.653C199.908 297.972 200.482 299.511 200.663 301.273H195.703C195.43 300.045 194.805 298.989 193.828 298.102C192.862 297.216 191.567 296.773 189.942 296.773C188.521 296.773 187.277 297.148 186.209 297.898C185.152 298.636 184.328 299.693 183.737 301.068C183.146 302.432 182.851 304.045 182.851 305.909C182.851 307.818 183.141 309.466 183.72 310.852C184.3 312.239 185.118 313.312 186.175 314.074C187.243 314.835 188.499 315.216 189.942 315.216C190.908 315.216 191.783 315.04 192.567 314.688C193.362 314.324 194.027 313.807 194.561 313.136C195.107 312.466 195.487 311.659 195.703 310.716H200.663C200.482 312.409 199.93 313.92 199.01 315.25C198.089 316.58 196.857 317.625 195.311 318.386C193.777 319.148 191.976 319.528 189.908 319.528ZM211.21 303.455V319H206.114V284.091H211.142V297.08H211.466C212.08 295.67 213.017 294.551 214.278 293.722C215.54 292.892 217.188 292.477 219.222 292.477C221.017 292.477 222.585 292.847 223.926 293.585C225.278 294.324 226.324 295.426 227.062 296.892C227.812 298.347 228.188 300.165 228.188 302.347V319H223.091V302.96C223.091 301.04 222.597 299.551 221.608 298.494C220.619 297.426 219.244 296.892 217.483 296.892C216.278 296.892 215.199 297.148 214.244 297.659C213.301 298.17 212.557 298.92 212.011 299.909C211.477 300.886 211.21 302.068 211.21 303.455ZM246.273 319.528C243.693 319.528 241.472 318.977 239.608 317.875C237.756 316.761 236.324 315.199 235.312 313.188C234.312 311.165 233.812 308.795 233.812 306.08C233.812 303.398 234.312 301.034 235.312 298.989C236.324 296.943 237.733 295.347 239.54 294.199C241.358 293.051 243.483 292.477 245.915 292.477C247.392 292.477 248.824 292.722 250.21 293.21C251.597 293.699 252.841 294.466 253.943 295.511C255.045 296.557 255.915 297.915 256.551 299.585C257.188 301.244 257.506 303.261 257.506 305.636V307.443H236.693V303.625H252.511C252.511 302.284 252.239 301.097 251.693 300.062C251.148 299.017 250.381 298.193 249.392 297.591C248.415 296.989 247.267 296.688 245.949 296.688C244.517 296.688 243.267 297.04 242.199 297.744C241.142 298.437 240.324 299.347 239.744 300.472C239.176 301.585 238.892 302.795 238.892 304.102V307.085C238.892 308.835 239.199 310.324 239.812 311.551C240.438 312.778 241.307 313.716 242.42 314.364C243.534 315 244.835 315.318 246.324 315.318C247.29 315.318 248.17 315.182 248.966 314.909C249.761 314.625 250.449 314.205 251.028 313.648C251.608 313.091 252.051 312.403 252.358 311.585L257.182 312.455C256.795 313.875 256.102 315.119 255.102 316.188C254.114 317.244 252.869 318.068 251.369 318.659C249.881 319.239 248.182 319.528 246.273 319.528ZM263.161 319V292.818H268.087V296.977H268.359C268.837 295.568 269.678 294.46 270.882 293.653C272.098 292.835 273.473 292.426 275.007 292.426C275.325 292.426 275.7 292.437 276.132 292.46C276.575 292.483 276.922 292.511 277.172 292.545V297.42C276.967 297.364 276.604 297.301 276.081 297.233C275.558 297.153 275.036 297.114 274.513 297.114C273.308 297.114 272.234 297.369 271.291 297.881C270.359 298.381 269.621 299.08 269.075 299.977C268.53 300.864 268.257 301.875 268.257 303.011V319H263.161Z" fill="#1F2227"/>
<path d="M109.415 358.222H106.756C106.653 357.653 106.463 357.153 106.185 356.722C105.906 356.29 105.565 355.923 105.162 355.622C104.759 355.321 104.307 355.094 103.807 354.94C103.313 354.787 102.787 354.71 102.23 354.71C101.224 354.71 100.324 354.963 99.5284 355.469C98.7386 355.974 98.1136 356.716 97.6534 357.693C97.1989 358.67 96.9716 359.864 96.9716 361.273C96.9716 362.693 97.1989 363.892 97.6534 364.869C98.1136 365.847 98.7415 366.585 99.5369 367.085C100.332 367.585 101.227 367.835 102.222 367.835C102.773 367.835 103.295 367.761 103.79 367.614C104.29 367.46 104.741 367.236 105.145 366.94C105.548 366.645 105.889 366.284 106.168 365.858C106.452 365.426 106.648 364.932 106.756 364.375L109.415 364.384C109.273 365.241 108.997 366.031 108.588 366.753C108.185 367.469 107.665 368.088 107.028 368.611C106.398 369.128 105.676 369.528 104.864 369.812C104.051 370.097 103.165 370.239 102.205 370.239C100.693 370.239 99.3466 369.881 98.1648 369.165C96.983 368.443 96.0511 367.412 95.3693 366.071C94.6932 364.73 94.3551 363.131 94.3551 361.273C94.3551 359.409 94.696 357.81 95.3778 356.474C96.0597 355.134 96.9915 354.105 98.1733 353.389C99.3551 352.668 100.699 352.307 102.205 352.307C103.131 352.307 103.994 352.44 104.795 352.707C105.602 352.969 106.327 353.355 106.969 353.866C107.611 354.372 108.142 354.991 108.562 355.724C108.983 356.452 109.267 357.284 109.415 358.222ZM114.91 362.227V370H112.362V352.545H114.876V359.04H115.038C115.344 358.335 115.813 357.776 116.444 357.361C117.075 356.946 117.898 356.739 118.915 356.739C119.813 356.739 120.597 356.923 121.268 357.293C121.944 357.662 122.467 358.213 122.836 358.946C123.211 359.673 123.398 360.582 123.398 361.673V370H120.85V361.98C120.85 361.02 120.603 360.276 120.109 359.747C119.614 359.213 118.927 358.946 118.046 358.946C117.444 358.946 116.904 359.074 116.427 359.33C115.955 359.585 115.583 359.96 115.31 360.455C115.043 360.943 114.91 361.534 114.91 362.227ZM132.441 370.264C131.151 370.264 130.04 369.989 129.109 369.438C128.183 368.881 127.467 368.099 126.961 367.094C126.461 366.082 126.211 364.898 126.211 363.54C126.211 362.199 126.461 361.017 126.961 359.994C127.467 358.972 128.171 358.173 129.075 357.599C129.984 357.026 131.046 356.739 132.262 356.739C133.001 356.739 133.717 356.861 134.41 357.105C135.103 357.349 135.725 357.733 136.276 358.256C136.827 358.778 137.262 359.457 137.58 360.293C137.898 361.122 138.058 362.131 138.058 363.318V364.222H127.651V362.312H135.56C135.56 361.642 135.424 361.048 135.151 360.531C134.879 360.009 134.495 359.597 134.001 359.295C133.512 358.994 132.938 358.844 132.279 358.844C131.563 358.844 130.938 359.02 130.404 359.372C129.876 359.719 129.467 360.173 129.177 360.736C128.893 361.293 128.751 361.898 128.751 362.551V364.043C128.751 364.918 128.904 365.662 129.211 366.276C129.523 366.889 129.958 367.358 130.515 367.682C131.072 368 131.722 368.159 132.467 368.159C132.95 368.159 133.39 368.091 133.788 367.955C134.185 367.812 134.529 367.602 134.819 367.324C135.109 367.045 135.33 366.702 135.484 366.293L137.896 366.727C137.702 367.437 137.356 368.06 136.856 368.594C136.362 369.122 135.739 369.534 134.989 369.83C134.245 370.119 133.396 370.264 132.441 370.264ZM146.399 370.264C145.132 370.264 144.041 369.977 143.126 369.403C142.217 368.824 141.518 368.026 141.03 367.009C140.541 365.991 140.297 364.827 140.297 363.514C140.297 362.185 140.547 361.011 141.047 359.994C141.547 358.972 142.251 358.173 143.161 357.599C144.07 357.026 145.141 356.739 146.374 356.739C147.368 356.739 148.254 356.923 149.033 357.293C149.811 357.656 150.439 358.168 150.916 358.827C151.399 359.486 151.686 360.256 151.777 361.136H149.297C149.161 360.523 148.848 359.994 148.359 359.551C147.876 359.108 147.229 358.886 146.416 358.886C145.706 358.886 145.084 359.074 144.55 359.449C144.021 359.818 143.609 360.347 143.314 361.034C143.018 361.716 142.871 362.523 142.871 363.455C142.871 364.409 143.016 365.233 143.305 365.926C143.595 366.619 144.004 367.156 144.533 367.537C145.067 367.918 145.695 368.108 146.416 368.108C146.899 368.108 147.337 368.02 147.729 367.844C148.126 367.662 148.459 367.403 148.726 367.068C148.999 366.733 149.189 366.33 149.297 365.858H151.777C151.686 366.705 151.411 367.46 150.95 368.125C150.49 368.79 149.874 369.312 149.101 369.693C148.334 370.074 147.433 370.264 146.399 370.264ZM156.846 365.56L156.829 362.449H157.272L162.488 356.909H165.539L159.59 363.216H159.19L156.846 365.56ZM154.502 370V352.545H157.05V370H154.502ZM162.769 370L158.082 363.778L159.837 361.997L165.897 370H162.769ZM178.023 370.29C177.193 370.29 176.443 370.136 175.773 369.83C175.102 369.517 174.571 369.065 174.179 368.474C173.793 367.884 173.599 367.159 173.599 366.301C173.599 365.562 173.741 364.955 174.026 364.477C174.31 364 174.693 363.622 175.176 363.344C175.659 363.065 176.199 362.855 176.795 362.713C177.392 362.571 178 362.463 178.619 362.389C179.403 362.298 180.04 362.224 180.528 362.168C181.017 362.105 181.372 362.006 181.594 361.869C181.815 361.733 181.926 361.511 181.926 361.205V361.145C181.926 360.401 181.716 359.824 181.295 359.415C180.881 359.006 180.261 358.801 179.438 358.801C178.58 358.801 177.903 358.991 177.409 359.372C176.92 359.747 176.582 360.165 176.395 360.625L174 360.08C174.284 359.284 174.699 358.642 175.244 358.153C175.795 357.659 176.429 357.301 177.145 357.08C177.861 356.852 178.614 356.739 179.403 356.739C179.926 356.739 180.48 356.801 181.065 356.926C181.656 357.045 182.207 357.267 182.719 357.591C183.236 357.915 183.659 358.378 183.989 358.98C184.318 359.577 184.483 360.352 184.483 361.307V370H181.994V368.21H181.892C181.727 368.54 181.48 368.864 181.151 369.182C180.821 369.5 180.398 369.764 179.881 369.974C179.364 370.185 178.744 370.29 178.023 370.29ZM178.577 368.244C179.281 368.244 179.884 368.105 180.384 367.827C180.889 367.548 181.273 367.185 181.534 366.736C181.801 366.281 181.935 365.795 181.935 365.278V363.591C181.844 363.682 181.668 363.767 181.406 363.847C181.151 363.92 180.858 363.986 180.528 364.043C180.199 364.094 179.878 364.142 179.565 364.188C179.253 364.227 178.991 364.261 178.781 364.29C178.287 364.352 177.835 364.457 177.426 364.605C177.023 364.753 176.699 364.966 176.455 365.244C176.216 365.517 176.097 365.881 176.097 366.335C176.097 366.966 176.33 367.443 176.795 367.767C177.261 368.085 177.855 368.244 178.577 368.244ZM190.425 362.227V370H187.877V356.909H190.323V359.04H190.485C190.786 358.347 191.258 357.79 191.9 357.369C192.548 356.949 193.363 356.739 194.346 356.739C195.238 356.739 196.019 356.926 196.69 357.301C197.36 357.67 197.88 358.222 198.249 358.955C198.619 359.687 198.803 360.594 198.803 361.673V370H196.255V361.98C196.255 361.031 196.008 360.29 195.513 359.756C195.019 359.216 194.34 358.946 193.477 358.946C192.886 358.946 192.36 359.074 191.9 359.33C191.445 359.585 191.085 359.96 190.817 360.455C190.556 360.943 190.425 361.534 190.425 362.227ZM207.121 370.256C206.065 370.256 205.121 369.986 204.292 369.446C203.468 368.901 202.82 368.125 202.349 367.119C201.883 366.108 201.65 364.895 201.65 363.48C201.65 362.065 201.886 360.855 202.357 359.849C202.835 358.844 203.488 358.074 204.317 357.54C205.147 357.006 206.087 356.739 207.138 356.739C207.951 356.739 208.604 356.875 209.099 357.148C209.599 357.415 209.985 357.727 210.258 358.085C210.536 358.443 210.752 358.759 210.906 359.031H211.059V352.545H213.607V370H211.119V367.963H210.906C210.752 368.241 210.531 368.56 210.241 368.918C209.957 369.276 209.565 369.588 209.065 369.855C208.565 370.122 207.917 370.256 207.121 370.256ZM207.684 368.082C208.417 368.082 209.036 367.889 209.542 367.503C210.053 367.111 210.44 366.568 210.701 365.875C210.968 365.182 211.102 364.375 211.102 363.455C211.102 362.545 210.971 361.75 210.71 361.068C210.448 360.386 210.065 359.855 209.559 359.474C209.053 359.094 208.428 358.903 207.684 358.903C206.917 358.903 206.278 359.102 205.766 359.5C205.255 359.898 204.869 360.44 204.607 361.128C204.352 361.815 204.224 362.591 204.224 363.455C204.224 364.33 204.354 365.116 204.616 365.815C204.877 366.514 205.263 367.068 205.775 367.477C206.292 367.881 206.928 368.082 207.684 368.082ZM231.888 364.571V356.909H234.445V370H231.94V367.733H231.803C231.502 368.432 231.019 369.014 230.354 369.48C229.695 369.94 228.874 370.17 227.891 370.17C227.05 370.17 226.306 369.986 225.658 369.616C225.016 369.241 224.511 368.688 224.141 367.955C223.778 367.222 223.596 366.315 223.596 365.236V356.909H226.144V364.929C226.144 365.821 226.391 366.531 226.886 367.06C227.38 367.588 228.022 367.852 228.812 367.852C229.289 367.852 229.763 367.733 230.235 367.494C230.712 367.256 231.107 366.895 231.42 366.412C231.738 365.929 231.894 365.315 231.888 364.571ZM247.679 360.105L245.369 360.514C245.273 360.219 245.119 359.937 244.909 359.67C244.705 359.403 244.426 359.185 244.074 359.014C243.722 358.844 243.281 358.759 242.753 358.759C242.031 358.759 241.429 358.92 240.946 359.244C240.463 359.562 240.222 359.974 240.222 360.48C240.222 360.918 240.384 361.27 240.707 361.537C241.031 361.804 241.554 362.023 242.276 362.193L244.355 362.67C245.56 362.949 246.457 363.378 247.048 363.957C247.639 364.537 247.935 365.29 247.935 366.216C247.935 367 247.707 367.699 247.253 368.312C246.804 368.92 246.176 369.398 245.369 369.744C244.568 370.091 243.639 370.264 242.582 370.264C241.116 370.264 239.92 369.952 238.994 369.327C238.068 368.696 237.5 367.801 237.29 366.642L239.753 366.267C239.906 366.909 240.222 367.395 240.699 367.724C241.176 368.048 241.798 368.21 242.565 368.21C243.401 368.21 244.068 368.037 244.568 367.69C245.068 367.338 245.318 366.909 245.318 366.403C245.318 365.994 245.165 365.651 244.858 365.372C244.557 365.094 244.094 364.884 243.469 364.741L241.253 364.256C240.031 363.977 239.128 363.534 238.543 362.926C237.963 362.318 237.673 361.548 237.673 360.616C237.673 359.844 237.889 359.168 238.321 358.588C238.753 358.009 239.349 357.557 240.111 357.233C240.872 356.903 241.744 356.739 242.727 356.739C244.142 356.739 245.256 357.045 246.068 357.659C246.881 358.267 247.418 359.082 247.679 360.105ZM256.379 370.264C255.089 370.264 253.978 369.989 253.046 369.438C252.12 368.881 251.404 368.099 250.898 367.094C250.398 366.082 250.148 364.898 250.148 363.54C250.148 362.199 250.398 361.017 250.898 359.994C251.404 358.972 252.109 358.173 253.012 357.599C253.921 357.026 254.984 356.739 256.2 356.739C256.938 356.739 257.654 356.861 258.347 357.105C259.04 357.349 259.663 357.733 260.214 358.256C260.765 358.778 261.2 359.457 261.518 360.293C261.836 361.122 261.995 362.131 261.995 363.318V364.222H251.589V362.312H259.498C259.498 361.642 259.362 361.048 259.089 360.531C258.816 360.009 258.433 359.597 257.938 359.295C257.45 358.994 256.876 358.844 256.217 358.844C255.501 358.844 254.876 359.02 254.342 359.372C253.813 359.719 253.404 360.173 253.114 360.736C252.83 361.293 252.688 361.898 252.688 362.551V364.043C252.688 364.918 252.842 365.662 253.148 366.276C253.461 366.889 253.896 367.358 254.452 367.682C255.009 368 255.66 368.159 256.404 368.159C256.887 368.159 257.327 368.091 257.725 367.955C258.123 367.812 258.467 367.602 258.756 367.324C259.046 367.045 259.268 366.702 259.421 366.293L261.833 366.727C261.64 367.437 261.293 368.06 260.793 368.594C260.299 369.122 259.677 369.534 258.927 369.83C258.183 370.119 257.333 370.264 256.379 370.264ZM272.785 374.909C272.404 374.909 272.058 374.878 271.745 374.815C271.433 374.759 271.2 374.696 271.046 374.628L271.66 372.54C272.126 372.665 272.54 372.719 272.904 372.702C273.268 372.685 273.589 372.548 273.867 372.293C274.151 372.037 274.401 371.619 274.617 371.04L274.933 370.17L270.143 356.909H272.87L276.185 367.068H276.322L279.637 356.909H282.373L276.978 371.747C276.728 372.429 276.41 373.006 276.023 373.477C275.637 373.955 275.177 374.313 274.643 374.551C274.109 374.79 273.489 374.909 272.785 374.909ZM289.837 370.264C288.609 370.264 287.538 369.983 286.624 369.42C285.709 368.858 284.999 368.071 284.493 367.06C283.987 366.048 283.734 364.866 283.734 363.514C283.734 362.156 283.987 360.969 284.493 359.952C284.999 358.935 285.709 358.145 286.624 357.582C287.538 357.02 288.609 356.739 289.837 356.739C291.064 356.739 292.135 357.02 293.05 357.582C293.964 358.145 294.675 358.935 295.18 359.952C295.686 360.969 295.939 362.156 295.939 363.514C295.939 364.866 295.686 366.048 295.18 367.06C294.675 368.071 293.964 368.858 293.05 369.42C292.135 369.983 291.064 370.264 289.837 370.264ZM289.845 368.125C290.641 368.125 291.3 367.915 291.822 367.494C292.345 367.074 292.732 366.514 292.982 365.815C293.237 365.116 293.365 364.347 293.365 363.506C293.365 362.67 293.237 361.903 292.982 361.205C292.732 360.5 292.345 359.935 291.822 359.509C291.3 359.082 290.641 358.869 289.845 358.869C289.044 358.869 288.379 359.082 287.851 359.509C287.328 359.935 286.939 360.5 286.683 361.205C286.433 361.903 286.308 362.67 286.308 363.506C286.308 364.347 286.433 365.116 286.683 365.815C286.939 366.514 287.328 367.074 287.851 367.494C288.379 367.915 289.044 368.125 289.845 368.125ZM307.076 364.571V356.909H309.633V370H307.127V367.733H306.991C306.69 368.432 306.207 369.014 305.542 369.48C304.883 369.94 304.062 370.17 303.079 370.17C302.238 370.17 301.494 369.986 300.846 369.616C300.204 369.241 299.698 368.688 299.329 367.955C298.965 367.222 298.783 366.315 298.783 365.236V356.909H301.332V364.929C301.332 365.821 301.579 366.531 302.073 367.06C302.567 367.588 303.21 367.852 303.999 367.852C304.477 367.852 304.951 367.733 305.423 367.494C305.9 367.256 306.295 366.895 306.607 366.412C306.925 365.929 307.082 365.315 307.076 364.571ZM313.057 370V356.909H315.52V358.989H315.656C315.895 358.284 316.315 357.73 316.918 357.327C317.526 356.918 318.213 356.713 318.98 356.713C319.139 356.713 319.327 356.719 319.543 356.73C319.764 356.741 319.938 356.756 320.062 356.773V359.21C319.96 359.182 319.778 359.151 319.517 359.116C319.256 359.077 318.994 359.057 318.733 359.057C318.131 359.057 317.594 359.185 317.122 359.44C316.656 359.69 316.287 360.04 316.014 360.489C315.741 360.932 315.605 361.437 315.605 362.006V370H313.057ZM105.912 391.909L101.165 405H98.4375L93.6818 391.909H96.4176L99.733 401.983H99.8693L103.176 391.909H105.912ZM113.376 405.264C112.148 405.264 111.077 404.983 110.163 404.42C109.248 403.858 108.538 403.071 108.032 402.06C107.526 401.048 107.273 399.866 107.273 398.514C107.273 397.156 107.526 395.969 108.032 394.952C108.538 393.935 109.248 393.145 110.163 392.582C111.077 392.02 112.148 391.739 113.376 391.739C114.603 391.739 115.674 392.02 116.589 392.582C117.504 393.145 118.214 393.935 118.719 394.952C119.225 395.969 119.478 397.156 119.478 398.514C119.478 399.866 119.225 401.048 118.719 402.06C118.214 403.071 117.504 403.858 116.589 404.42C115.674 404.983 114.603 405.264 113.376 405.264ZM113.384 403.125C114.18 403.125 114.839 402.915 115.362 402.494C115.884 402.074 116.271 401.514 116.521 400.815C116.776 400.116 116.904 399.347 116.904 398.506C116.904 397.67 116.776 396.903 116.521 396.205C116.271 395.5 115.884 394.935 115.362 394.509C114.839 394.082 114.18 393.869 113.384 393.869C112.583 393.869 111.918 394.082 111.39 394.509C110.867 394.935 110.478 395.5 110.222 396.205C109.972 396.903 109.847 397.67 109.847 398.506C109.847 399.347 109.972 400.116 110.222 400.815C110.478 401.514 110.867 402.074 111.39 402.494C111.918 402.915 112.583 403.125 113.384 403.125ZM130.615 399.571V391.909H133.172V405H130.666V402.733H130.53C130.229 403.432 129.746 404.014 129.081 404.48C128.422 404.94 127.601 405.17 126.618 405.17C125.777 405.17 125.033 404.986 124.385 404.616C123.743 404.241 123.237 403.688 122.868 402.955C122.504 402.222 122.322 401.315 122.322 400.236V391.909H124.871V399.929C124.871 400.821 125.118 401.531 125.612 402.06C126.107 402.588 126.749 402.852 127.538 402.852C128.016 402.852 128.49 402.733 128.962 402.494C129.439 402.256 129.834 401.895 130.146 401.412C130.464 400.929 130.621 400.315 130.615 399.571ZM142.11 405.264C140.843 405.264 139.752 404.977 138.837 404.403C137.928 403.824 137.229 403.026 136.741 402.009C136.252 400.991 136.008 399.827 136.008 398.514C136.008 397.185 136.258 396.011 136.758 394.994C137.258 393.972 137.962 393.173 138.871 392.599C139.781 392.026 140.852 391.739 142.085 391.739C143.079 391.739 143.965 391.923 144.744 392.293C145.522 392.656 146.15 393.168 146.627 393.827C147.11 394.486 147.397 395.256 147.488 396.136H145.008C144.871 395.523 144.559 394.994 144.07 394.551C143.587 394.108 142.94 393.886 142.127 393.886C141.417 393.886 140.795 394.074 140.261 394.449C139.732 394.818 139.32 395.347 139.025 396.034C138.729 396.716 138.582 397.523 138.582 398.455C138.582 399.409 138.727 400.233 139.016 400.926C139.306 401.619 139.715 402.156 140.244 402.537C140.778 402.918 141.406 403.108 142.127 403.108C142.61 403.108 143.048 403.02 143.44 402.844C143.837 402.662 144.17 402.403 144.437 402.068C144.71 401.733 144.9 401.33 145.008 400.858H147.488C147.397 401.705 147.121 402.46 146.661 403.125C146.201 403.79 145.585 404.312 144.812 404.693C144.045 405.074 143.144 405.264 142.11 405.264ZM152.761 397.227V405H150.213V387.545H152.727V394.04H152.889C153.196 393.335 153.665 392.776 154.295 392.361C154.926 391.946 155.75 391.739 156.767 391.739C157.665 391.739 158.449 391.923 159.119 392.293C159.795 392.662 160.318 393.213 160.688 393.946C161.062 394.673 161.25 395.582 161.25 396.673V405H158.702V396.98C158.702 396.02 158.455 395.276 157.96 394.747C157.466 394.213 156.778 393.946 155.898 393.946C155.295 393.946 154.756 394.074 154.278 394.33C153.807 394.585 153.435 394.96 153.162 395.455C152.895 395.943 152.761 396.534 152.761 397.227ZM170.293 405.264C169.003 405.264 167.892 404.989 166.96 404.438C166.034 403.881 165.318 403.099 164.812 402.094C164.312 401.082 164.062 399.898 164.062 398.54C164.062 397.199 164.312 396.017 164.812 394.994C165.318 393.972 166.023 393.173 166.926 392.599C167.835 392.026 168.898 391.739 170.114 391.739C170.852 391.739 171.568 391.861 172.261 392.105C172.955 392.349 173.577 392.733 174.128 393.256C174.679 393.778 175.114 394.457 175.432 395.293C175.75 396.122 175.909 397.131 175.909 398.318V399.222H165.503V397.312H173.412C173.412 396.642 173.276 396.048 173.003 395.531C172.73 395.009 172.347 394.597 171.852 394.295C171.364 393.994 170.79 393.844 170.131 393.844C169.415 393.844 168.79 394.02 168.256 394.372C167.727 394.719 167.318 395.173 167.028 395.736C166.744 396.293 166.602 396.898 166.602 397.551V399.043C166.602 399.918 166.756 400.662 167.062 401.276C167.375 401.889 167.81 402.358 168.366 402.682C168.923 403 169.574 403.159 170.318 403.159C170.801 403.159 171.241 403.091 171.639 402.955C172.037 402.812 172.381 402.602 172.67 402.324C172.96 402.045 173.182 401.702 173.335 401.293L175.747 401.727C175.554 402.437 175.207 403.06 174.707 403.594C174.213 404.122 173.591 404.534 172.841 404.83C172.097 405.119 171.247 405.264 170.293 405.264ZM178.737 405V391.909H181.2V393.989H181.336C181.575 393.284 181.995 392.73 182.597 392.327C183.205 391.918 183.893 391.713 184.66 391.713C184.819 391.713 185.006 391.719 185.222 391.73C185.444 391.741 185.617 391.756 185.742 391.773V394.21C185.64 394.182 185.458 394.151 185.197 394.116C184.935 394.077 184.674 394.057 184.413 394.057C183.81 394.057 183.273 394.185 182.802 394.44C182.336 394.69 181.967 395.04 181.694 395.489C181.421 395.932 181.285 396.437 181.285 397.006V405H178.737ZM197.757 395.105L195.447 395.514C195.351 395.219 195.197 394.937 194.987 394.67C194.783 394.403 194.504 394.185 194.152 394.014C193.8 393.844 193.359 393.759 192.831 393.759C192.109 393.759 191.507 393.92 191.024 394.244C190.541 394.562 190.3 394.974 190.3 395.48C190.3 395.918 190.462 396.27 190.786 396.537C191.109 396.804 191.632 397.023 192.354 397.193L194.433 397.67C195.638 397.949 196.536 398.378 197.126 398.957C197.717 399.537 198.013 400.29 198.013 401.216C198.013 402 197.786 402.699 197.331 403.312C196.882 403.92 196.254 404.398 195.447 404.744C194.646 405.091 193.717 405.264 192.661 405.264C191.195 405.264 189.999 404.952 189.072 404.327C188.146 403.696 187.578 402.801 187.368 401.642L189.831 401.267C189.984 401.909 190.3 402.395 190.777 402.724C191.254 403.048 191.876 403.21 192.643 403.21C193.479 403.21 194.146 403.037 194.646 402.69C195.146 402.338 195.396 401.909 195.396 401.403C195.396 400.994 195.243 400.651 194.936 400.372C194.635 400.094 194.172 399.884 193.547 399.741L191.331 399.256C190.109 398.977 189.206 398.534 188.621 397.926C188.041 397.318 187.751 396.548 187.751 395.616C187.751 394.844 187.967 394.168 188.399 393.588C188.831 393.009 189.428 392.557 190.189 392.233C190.95 391.903 191.822 391.739 192.805 391.739C194.22 391.739 195.334 392.045 196.146 392.659C196.959 393.267 197.496 394.082 197.757 395.105ZM213.277 391.909V393.955H206.126V391.909H213.277ZM208.044 388.773H210.592V401.156C210.592 401.651 210.666 402.023 210.814 402.273C210.962 402.517 211.152 402.685 211.385 402.776C211.624 402.861 211.882 402.903 212.161 402.903C212.365 402.903 212.544 402.889 212.697 402.861C212.851 402.832 212.97 402.81 213.055 402.793L213.516 404.898C213.368 404.955 213.158 405.011 212.885 405.068C212.612 405.131 212.271 405.165 211.862 405.17C211.192 405.182 210.567 405.062 209.987 404.812C209.408 404.562 208.939 404.176 208.581 403.653C208.223 403.131 208.044 402.474 208.044 401.685V388.773ZM221.469 405.264C220.242 405.264 219.171 404.983 218.256 404.42C217.342 403.858 216.631 403.071 216.126 402.06C215.62 401.048 215.367 399.866 215.367 398.514C215.367 397.156 215.62 395.969 216.126 394.952C216.631 393.935 217.342 393.145 218.256 392.582C219.171 392.02 220.242 391.739 221.469 391.739C222.697 391.739 223.768 392.02 224.683 392.582C225.597 393.145 226.308 393.935 226.813 394.952C227.319 395.969 227.572 397.156 227.572 398.514C227.572 399.866 227.319 401.048 226.813 402.06C226.308 403.071 225.597 403.858 224.683 404.42C223.768 404.983 222.697 405.264 221.469 405.264ZM221.478 403.125C222.273 403.125 222.933 402.915 223.455 402.494C223.978 402.074 224.364 401.514 224.614 400.815C224.87 400.116 224.998 399.347 224.998 398.506C224.998 397.67 224.87 396.903 224.614 396.205C224.364 395.5 223.978 394.935 223.455 394.509C222.933 394.082 222.273 393.869 221.478 393.869C220.677 393.869 220.012 394.082 219.484 394.509C218.961 394.935 218.572 395.5 218.316 396.205C218.066 396.903 217.941 397.67 217.941 398.506C217.941 399.347 218.066 400.116 218.316 400.815C218.572 401.514 218.961 402.074 219.484 402.494C220.012 402.915 220.677 403.125 221.478 403.125ZM242.256 410.182C241.217 410.182 240.322 410.045 239.572 409.773C238.827 409.5 238.219 409.139 237.748 408.69C237.276 408.241 236.924 407.75 236.691 407.216L238.881 406.312C239.035 406.562 239.239 406.827 239.495 407.105C239.756 407.389 240.109 407.631 240.552 407.83C241.001 408.028 241.577 408.128 242.282 408.128C243.248 408.128 244.046 407.892 244.677 407.42C245.308 406.955 245.623 406.21 245.623 405.188V402.614H245.461C245.308 402.892 245.086 403.202 244.796 403.543C244.512 403.884 244.12 404.179 243.62 404.429C243.12 404.679 242.469 404.804 241.668 404.804C240.634 404.804 239.702 404.562 238.873 404.08C238.049 403.591 237.396 402.872 236.913 401.923C236.435 400.969 236.197 399.795 236.197 398.403C236.197 397.011 236.433 395.818 236.904 394.824C237.381 393.83 238.035 393.068 238.864 392.54C239.694 392.006 240.634 391.739 241.685 391.739C242.498 391.739 243.154 391.875 243.654 392.148C244.154 392.415 244.543 392.727 244.822 393.085C245.106 393.443 245.325 393.759 245.478 394.031H245.665V391.909H248.163V405.29C248.163 406.415 247.901 407.338 247.379 408.06C246.856 408.781 246.148 409.315 245.256 409.662C244.37 410.009 243.37 410.182 242.256 410.182ZM242.231 402.69C242.964 402.69 243.583 402.52 244.089 402.179C244.6 401.832 244.987 401.338 245.248 400.696C245.515 400.048 245.648 399.273 245.648 398.369C245.648 397.489 245.518 396.713 245.256 396.043C244.995 395.372 244.612 394.849 244.106 394.474C243.6 394.094 242.975 393.903 242.231 393.903C241.464 393.903 240.825 394.102 240.313 394.5C239.802 394.892 239.415 395.426 239.154 396.102C238.898 396.778 238.771 397.534 238.771 398.369C238.771 399.227 238.901 399.98 239.163 400.628C239.424 401.276 239.81 401.781 240.322 402.145C240.839 402.509 241.475 402.69 242.231 402.69ZM257.222 405.264C255.933 405.264 254.822 404.989 253.89 404.438C252.964 403.881 252.248 403.099 251.742 402.094C251.242 401.082 250.992 399.898 250.992 398.54C250.992 397.199 251.242 396.017 251.742 394.994C252.248 393.972 252.952 393.173 253.856 392.599C254.765 392.026 255.827 391.739 257.043 391.739C257.782 391.739 258.498 391.861 259.191 392.105C259.884 392.349 260.506 392.733 261.058 393.256C261.609 393.778 262.043 394.457 262.362 395.293C262.68 396.122 262.839 397.131 262.839 398.318V399.222H252.433V397.312H260.342C260.342 396.642 260.205 396.048 259.933 395.531C259.66 395.009 259.276 394.597 258.782 394.295C258.293 393.994 257.719 393.844 257.06 393.844C256.344 393.844 255.719 394.02 255.185 394.372C254.657 394.719 254.248 395.173 253.958 395.736C253.674 396.293 253.532 396.898 253.532 397.551V399.043C253.532 399.918 253.685 400.662 253.992 401.276C254.305 401.889 254.739 402.358 255.296 402.682C255.853 403 256.504 403.159 257.248 403.159C257.731 403.159 258.171 403.091 258.569 402.955C258.967 402.812 259.31 402.602 259.6 402.324C259.89 402.045 260.112 401.702 260.265 401.293L262.677 401.727C262.484 402.437 262.137 403.06 261.637 403.594C261.143 404.122 260.521 404.534 259.771 404.83C259.026 405.119 258.177 405.264 257.222 405.264ZM271.777 391.909V393.955H264.626V391.909H271.777ZM266.544 388.773H269.092V401.156C269.092 401.651 269.166 402.023 269.314 402.273C269.462 402.517 269.652 402.685 269.885 402.776C270.124 402.861 270.382 402.903 270.661 402.903C270.865 402.903 271.044 402.889 271.197 402.861C271.351 402.832 271.47 402.81 271.555 402.793L272.016 404.898C271.868 404.955 271.658 405.011 271.385 405.068C271.112 405.131 270.771 405.165 270.362 405.17C269.692 405.182 269.067 405.062 268.487 404.812C267.908 404.562 267.439 404.176 267.081 403.653C266.723 403.131 266.544 402.474 266.544 401.685V388.773ZM285.848 405.256C284.791 405.256 283.848 404.986 283.018 404.446C282.195 403.901 281.547 403.125 281.075 402.119C280.609 401.108 280.376 399.895 280.376 398.48C280.376 397.065 280.612 395.855 281.084 394.849C281.561 393.844 282.214 393.074 283.044 392.54C283.874 392.006 284.814 391.739 285.865 391.739C286.678 391.739 287.331 391.875 287.825 392.148C288.325 392.415 288.712 392.727 288.984 393.085C289.263 393.443 289.479 393.759 289.632 394.031H289.786V387.545H292.334V405H289.845V402.963H289.632C289.479 403.241 289.257 403.56 288.967 403.918C288.683 404.276 288.291 404.588 287.791 404.855C287.291 405.122 286.643 405.256 285.848 405.256ZM286.411 403.082C287.143 403.082 287.763 402.889 288.268 402.503C288.78 402.111 289.166 401.568 289.428 400.875C289.695 400.182 289.828 399.375 289.828 398.455C289.828 397.545 289.697 396.75 289.436 396.068C289.175 395.386 288.791 394.855 288.286 394.474C287.78 394.094 287.155 393.903 286.411 393.903C285.643 393.903 285.004 394.102 284.493 394.5C283.982 394.898 283.595 395.44 283.334 396.128C283.078 396.815 282.95 397.591 282.95 398.455C282.95 399.33 283.081 400.116 283.342 400.815C283.604 401.514 283.99 402.068 284.501 402.477C285.018 402.881 285.655 403.082 286.411 403.082ZM295.971 405V391.909H298.519V405H295.971ZM297.258 389.889C296.815 389.889 296.434 389.741 296.116 389.446C295.803 389.145 295.647 388.787 295.647 388.372C295.647 387.952 295.803 387.594 296.116 387.298C296.434 386.997 296.815 386.847 297.258 386.847C297.701 386.847 298.079 386.997 298.391 387.298C298.71 387.594 298.869 387.952 298.869 388.372C298.869 388.787 298.71 389.145 298.391 389.446C298.079 389.741 297.701 389.889 297.258 389.889ZM311.757 395.105L309.447 395.514C309.351 395.219 309.197 394.937 308.987 394.67C308.783 394.403 308.504 394.185 308.152 394.014C307.8 393.844 307.359 393.759 306.831 393.759C306.109 393.759 305.507 393.92 305.024 394.244C304.541 394.562 304.3 394.974 304.3 395.48C304.3 395.918 304.462 396.27 304.786 396.537C305.109 396.804 305.632 397.023 306.354 397.193L308.433 397.67C309.638 397.949 310.536 398.378 311.126 398.957C311.717 399.537 312.013 400.29 312.013 401.216C312.013 402 311.786 402.699 311.331 403.312C310.882 403.92 310.254 404.398 309.447 404.744C308.646 405.091 307.717 405.264 306.661 405.264C305.195 405.264 303.999 404.952 303.072 404.327C302.146 403.696 301.578 402.801 301.368 401.642L303.831 401.267C303.984 401.909 304.3 402.395 304.777 402.724C305.254 403.048 305.876 403.21 306.643 403.21C307.479 403.21 308.146 403.037 308.646 402.69C309.146 402.338 309.396 401.909 309.396 401.403C309.396 400.994 309.243 400.651 308.936 400.372C308.635 400.094 308.172 399.884 307.547 399.741L305.331 399.256C304.109 398.977 303.206 398.534 302.621 397.926C302.041 397.318 301.751 396.548 301.751 395.616C301.751 394.844 301.967 394.168 302.399 393.588C302.831 393.009 303.428 392.557 304.189 392.233C304.95 391.903 305.822 391.739 306.805 391.739C308.22 391.739 309.334 392.045 310.146 392.659C310.959 393.267 311.496 394.082 311.757 395.105ZM320.329 405.264C319.062 405.264 317.971 404.977 317.056 404.403C316.147 403.824 315.448 403.026 314.96 402.009C314.471 400.991 314.227 399.827 314.227 398.514C314.227 397.185 314.477 396.011 314.977 394.994C315.477 393.972 316.181 393.173 317.09 392.599C317.999 392.026 319.07 391.739 320.303 391.739C321.298 391.739 322.184 391.923 322.962 392.293C323.741 392.656 324.369 393.168 324.846 393.827C325.329 394.486 325.616 395.256 325.707 396.136H323.227C323.09 395.523 322.778 394.994 322.289 394.551C321.806 394.108 321.158 393.886 320.346 393.886C319.636 393.886 319.013 394.074 318.479 394.449C317.951 394.818 317.539 395.347 317.244 396.034C316.948 396.716 316.8 397.523 316.8 398.455C316.8 399.409 316.945 400.233 317.235 400.926C317.525 401.619 317.934 402.156 318.462 402.537C318.996 402.918 319.624 403.108 320.346 403.108C320.829 403.108 321.266 403.02 321.658 402.844C322.056 402.662 322.388 402.403 322.656 402.068C322.928 401.733 323.119 401.33 323.227 400.858H325.707C325.616 401.705 325.34 402.46 324.88 403.125C324.42 403.79 323.803 404.312 323.031 404.693C322.263 405.074 321.363 405.264 320.329 405.264ZM333.946 405.264C332.719 405.264 331.648 404.983 330.733 404.42C329.818 403.858 329.108 403.071 328.602 402.06C328.097 401.048 327.844 399.866 327.844 398.514C327.844 397.156 328.097 395.969 328.602 394.952C329.108 393.935 329.818 393.145 330.733 392.582C331.648 392.02 332.719 391.739 333.946 391.739C335.173 391.739 336.244 392.02 337.159 392.582C338.074 393.145 338.784 393.935 339.29 394.952C339.795 395.969 340.048 397.156 340.048 398.514C340.048 399.866 339.795 401.048 339.29 402.06C338.784 403.071 338.074 403.858 337.159 404.42C336.244 404.983 335.173 405.264 333.946 405.264ZM333.955 403.125C334.75 403.125 335.409 402.915 335.932 402.494C336.455 402.074 336.841 401.514 337.091 400.815C337.347 400.116 337.474 399.347 337.474 398.506C337.474 397.67 337.347 396.903 337.091 396.205C336.841 395.5 336.455 394.935 335.932 394.509C335.409 394.082 334.75 393.869 333.955 393.869C333.153 393.869 332.489 394.082 331.96 394.509C331.438 394.935 331.048 395.5 330.793 396.205C330.543 396.903 330.418 397.67 330.418 398.506C330.418 399.347 330.543 400.116 330.793 400.815C331.048 401.514 331.438 402.074 331.96 402.494C332.489 402.915 333.153 403.125 333.955 403.125ZM351.185 399.571V391.909H353.742V405H351.237V402.733H351.1C350.799 403.432 350.316 404.014 349.651 404.48C348.992 404.94 348.171 405.17 347.188 405.17C346.347 405.17 345.603 404.986 344.955 404.616C344.313 404.241 343.808 403.688 343.438 402.955C343.075 402.222 342.893 401.315 342.893 400.236V391.909H345.441V399.929C345.441 400.821 345.688 401.531 346.183 402.06C346.677 402.588 347.319 402.852 348.109 402.852C348.586 402.852 349.06 402.733 349.532 402.494C350.009 402.256 350.404 401.895 350.717 401.412C351.035 400.929 351.191 400.315 351.185 399.571ZM359.714 397.227V405H357.166V391.909H359.612V394.04H359.774C360.075 393.347 360.547 392.79 361.189 392.369C361.837 391.949 362.652 391.739 363.635 391.739C364.527 391.739 365.308 391.926 365.979 392.301C366.649 392.67 367.169 393.222 367.538 393.955C367.908 394.687 368.092 395.594 368.092 396.673V405H365.544V396.98C365.544 396.031 365.297 395.29 364.803 394.756C364.308 394.216 363.629 393.946 362.766 393.946C362.175 393.946 361.649 394.074 361.189 394.33C360.734 394.585 360.374 394.96 360.107 395.455C359.845 395.943 359.714 396.534 359.714 397.227ZM377.621 391.909V393.955H370.47V391.909H377.621ZM372.388 388.773H374.936V401.156C374.936 401.651 375.01 402.023 375.158 402.273C375.305 402.517 375.496 402.685 375.729 402.776C375.967 402.861 376.226 402.903 376.504 402.903C376.709 402.903 376.888 402.889 377.041 402.861C377.195 402.832 377.314 402.81 377.399 402.793L377.859 404.898C377.712 404.955 377.501 405.011 377.229 405.068C376.956 405.131 376.615 405.165 376.206 405.17C375.536 405.182 374.911 405.062 374.331 404.812C373.751 404.562 373.283 404.176 372.925 403.653C372.567 403.131 372.388 402.474 372.388 401.685V388.773ZM390.038 395.105L387.729 395.514C387.632 395.219 387.479 394.937 387.268 394.67C387.064 394.403 386.786 394.185 386.433 394.014C386.081 393.844 385.641 393.759 385.112 393.759C384.391 393.759 383.788 393.92 383.305 394.244C382.822 394.562 382.581 394.974 382.581 395.48C382.581 395.918 382.743 396.27 383.067 396.537C383.391 396.804 383.913 397.023 384.635 397.193L386.714 397.67C387.919 397.949 388.817 398.378 389.408 398.957C389.999 399.537 390.294 400.29 390.294 401.216C390.294 402 390.067 402.699 389.612 403.312C389.163 403.92 388.536 404.398 387.729 404.744C386.928 405.091 385.999 405.264 384.942 405.264C383.476 405.264 382.28 404.952 381.354 404.327C380.428 403.696 379.859 402.801 379.649 401.642L382.112 401.267C382.266 401.909 382.581 402.395 383.058 402.724C383.536 403.048 384.158 403.21 384.925 403.21C385.76 403.21 386.428 403.037 386.928 402.69C387.428 402.338 387.678 401.909 387.678 401.403C387.678 400.994 387.524 400.651 387.217 400.372C386.916 400.094 386.453 399.884 385.828 399.741L383.612 399.256C382.391 398.977 381.487 398.534 380.902 397.926C380.322 397.318 380.033 396.548 380.033 395.616C380.033 394.844 380.249 394.168 380.68 393.588C381.112 393.009 381.709 392.557 382.47 392.233C383.232 391.903 384.104 391.739 385.087 391.739C386.501 391.739 387.615 392.045 388.428 392.659C389.24 393.267 389.777 394.082 390.038 395.105Z" fill="#898B96"/>
<path opacity="0.4" d="M252.962 149.462C256.001 149.462 258.417 147.046 258.417 144.007V136.761C258.417 104.815 248.677 95.0758 216.731 95.0758H144.269C112.323 95.0758 102.583 104.815 102.583 136.761V140.423C102.583 143.462 104.999 145.877 108.037 145.877C115.05 145.877 120.738 151.565 120.738 158.578C120.738 165.59 115.05 171.2 108.037 171.2C104.999 171.2 102.583 173.616 102.583 176.655V180.317C102.583 212.262 112.323 222.002 144.269 222.002H216.731C248.677 222.002 258.417 212.262 258.417 180.317C258.417 177.278 256.001 174.862 252.962 174.862C245.95 174.862 240.262 169.175 240.262 162.162C240.262 155.15 245.95 149.462 252.962 149.462Z" fill="#68839F"/>
<path d="M203.875 188.732C199.512 188.732 196.005 185.225 196.005 180.94C196.005 176.655 199.512 173.148 203.797 173.148C208.082 173.148 211.589 176.655 211.589 180.94C211.589 185.225 208.238 188.732 203.875 188.732Z" fill="#68839F"/>
<path d="M157.125 149.773C152.762 149.773 149.255 146.267 149.255 141.982C149.255 137.696 152.762 134.19 157.047 134.19C161.332 134.19 164.839 137.696 164.839 141.982C164.839 146.267 161.488 149.773 157.125 149.773Z" fill="#68839F"/>
<path d="M154.242 193.017C152.762 193.017 151.281 192.472 150.112 191.303C147.853 189.043 147.853 185.303 150.112 183.044L202.55 130.606C204.81 128.346 208.55 128.346 210.809 130.606C213.069 132.865 213.069 136.605 210.809 138.865L158.372 191.303C157.281 192.472 155.722 193.017 154.242 193.017Z" fill="#68839F"/>
<defs>
<filter id="filter0_d_531_237" x="0" y="0" width="502" height="502" filterUnits="userSpaceOnUse" color-interpolation-filters="sRGB">
<feFlood flood-opacity="0" result="BackgroundImageFix"/>
<feColorMatrix in="SourceAlpha" type="matrix" values="0 0 0 0 0 0 0 0 0 0 0 0 0 0 0 0 0 0 127 0" result="hardAlpha"/>
<feOffset dy="9"/>
<feGaussianBlur stdDeviation="17"/>
<feColorMatrix type="matrix" values="0 0 0 0 0 0 0 0 0 0 0 0 0 0 0 0 0 0 0.05 0"/>
<feBlend mode="normal" in2="BackgroundImageFix" result="effect1_dropShadow_531_237"/>
<feBlend mode="normal" in="SourceGraphic" in2="effect1_dropShadow_531_237" result="shape"/>
</filter>
</defs>
</svg>
